<svg width="183" height="246" viewBox="0 0 183 246" fill="none" xmlns="http://www.w3.org/2000/svg">
<path d="M109.928 128.424L118.252 126.001C118.252 126.001 126.248 106.467 133.845 108.973C141.442 111.48 148.038 127.675 153.457 140.51C159.629 152.971 165.317 148.501 165.153 142.016C164.989 135.531 163.757 102.005 144.439 95.1541C125.122 88.3033 112.055 104.692 108.44 128.369L109.924 128.424H109.928Z" fill="#DDF040"/>
<path d="M117.741 125.673C117.333 125.799 116.959 125.408 117.098 125.009C118.506 121.022 124.598 105.873 136.689 103.01C150.629 99.7082 163.826 107.732 163.347 144.421C163.347 144.476 163.313 144.661 163.317 144.715C163.359 146.032 161.198 152.929 154.564 141.692C150.478 134.769 146.03 120.95 142.045 115.967C138.059 110.983 136.188 108.241 131.925 108.367C127.696 108.489 121.865 116.648 118.065 125.374C118.001 125.517 117.888 125.631 117.737 125.673H117.741Z" fill="#35683F"/>
<path d="M109.928 128.423L118.252 126.001C118.252 126.001 126.248 106.466 133.845 108.973C141.442 111.479 148.038 127.675 153.457 140.51C159.629 152.971 165.317 148.5 165.153 142.015C164.989 135.53 163.757 102.004 144.439 95.1535C125.126 88.2985 112.055 104.692 108.44 128.368L109.924 128.423H109.928Z" stroke="#3D0801" stroke-width="2" stroke-miterlimit="10"/>
<path d="M128.243 110.537C128.243 109.082 162.788 86.0653 162.107 146.191" stroke="#3D0801" stroke-width="2" stroke-miterlimit="10"/>
<path d="M69.9361 142.756L59.6155 139.753C59.6155 139.753 49.7014 115.533 40.2826 118.641C30.8637 121.748 22.6854 141.828 15.9666 157.742C8.3148 173.191 1.26239 167.649 1.46567 159.609C1.66896 151.568 3.19619 110.006 27.1473 101.507C51.0984 93.0078 67.2986 113.333 71.7812 142.689L69.9413 142.756H69.9361Z" stroke="#3D0801" stroke-width="2" stroke-miterlimit="10"/>
<path d="M69.9361 142.756L59.6155 139.753C59.6155 139.753 49.7014 115.533 40.2826 118.641C30.8637 121.748 22.6854 141.828 15.9666 157.742C8.3148 173.191 1.26239 167.649 1.46567 159.609C1.66896 151.568 3.19619 110.006 27.1473 101.507C51.0931 93.0078 67.2986 113.333 71.7812 142.689L69.9413 142.756H69.9361Z" fill="#DDF040"/>
<path d="M60.2597 139.345C60.7653 139.501 61.2292 139.016 61.0572 138.521C59.3111 133.578 51.7583 114.796 36.7673 111.246C19.4829 107.153 3.12114 117.101 3.71536 162.595C3.71536 162.663 3.75706 162.892 3.75185 162.96C3.69972 164.592 6.37891 173.143 14.6041 159.211C19.6706 150.628 25.1853 133.495 30.1267 127.316C35.0681 121.137 37.3876 117.737 42.673 117.894C47.9584 118.05 55.1463 128.16 59.8584 138.98C59.9366 139.157 60.0773 139.298 60.2649 139.35L60.2597 139.345Z" fill="#35683F"/>
<path d="M47.2266 120.579C47.2266 118.775 4.39609 90.2378 5.2405 164.785" stroke="#3D0801" stroke-width="2" stroke-miterlimit="10"/>
<path d="M122.18 37.9435C122.208 30.0221 97.7198 16.5626 74.4653 32.3274C43.6084 53.2462 61.8841 135.584 59.2308 152.814L83.3129 168.501H97.3158L110.705 162.324L117.585 152.814V140.868C117.585 140.868 113.131 78.5009 112.975 74.1358C112.818 69.7707 112.736 64.3856 110.705 61.4219C109.037 58.9821 106.689 55.7565 106.749 50.0175C115.722 48.1888 122.162 43.7698 122.18 37.9435Z" fill="#EFFF68"/>
<path d="M86.5873 65.2729C87.3086 67.0143 88.6641 69.0453 90.764 68.5812C92.6019 68.1768 94.2882 66.6835 95.7218 65.5486C99.3287 62.686 102.642 59.9567 107.544 60.3243C108.454 60.3932 109.341 60.531 110.218 60.7194C108.615 58.3623 106.685 55.224 106.74 50.0181C108.188 49.724 109.58 49.3564 110.903 48.9291C107.301 49.5034 103.675 49.9399 100.013 50.2156C95.0372 50.5924 89.5325 50.6981 84.8688 48.7637C83.9406 51.81 84.2485 54.6956 84.9423 57.7649C85.4983 60.237 85.6086 62.9112 86.5873 65.2683V65.2729Z" fill="#A82121"/>
<path d="M85.7878 62.5252C86.8354 60.8848 88.2001 59.4283 89.7301 58.2336C94.5915 54.4291 100.79 53.1885 106.97 53.1517C106.814 52.196 106.726 51.1576 106.74 50.0181C108.188 49.724 109.58 49.3564 110.903 48.9291C107.301 49.5034 103.675 49.9399 100.013 50.2156C95.0372 50.5924 89.5325 50.6981 84.8688 48.7637C83.9406 51.81 84.2485 54.6956 84.9423 57.7649C85.2915 59.3134 85.4661 60.9446 85.7878 62.5252Z" fill="#991E1E"/>
<path d="M64.0487 44.1484C59.3417 56.3046 63.5679 111.676 65.4271 139.261H56.2375C56.2375 139.261 56.0077 100.923 56.0078 74.9741C58.8451 47.389 64.0487 44.1484 64.0487 44.1484Z" fill="#124B46"/>
<path d="M109.747 60.7568C109.095 60.0492 108.741 59.1165 108.254 58.3032C107.794 57.4624 107.399 56.5847 107.123 55.6658C106.829 54.756 106.636 53.8141 106.531 52.8675C106.471 51.9164 106.581 50.9699 106.333 50.0325C106.278 49.8166 106.407 49.5914 106.623 49.5363C106.894 49.4582 107.169 49.7017 107.128 49.982C106.981 50.9193 107.211 51.8429 107.422 52.7481C107.712 54.5492 108.052 56.355 108.796 58.0321C109.15 58.8868 109.844 59.5162 110.363 60.2606C110.487 60.4398 110.445 60.6879 110.262 60.8166C110.096 60.9315 109.876 60.9039 109.742 60.7614L109.747 60.7568Z" fill="#292929"/>
<path d="M88.9733 49.737C89.0836 51.2671 88.5506 53.3164 91.2845 54.2997C94.0185 55.283 108.001 54.6856 110.969 52.4709C112.292 51.483 111.323 48.2988 111.323 48.2988C111.323 48.2988 107.491 49.9622 100.24 50.3757C92.9984 50.7892 88.9688 49.737 88.9688 49.737H88.9733Z" fill="white"/>
<path d="M89.2251 50.0433C89.3032 50.0708 89.3629 50.0433 89.3859 50.0203C89.3859 50.1398 89.3951 50.5487 89.3997 50.6728C89.2159 53.1861 90.8838 54.1281 93.1812 54.3027C95.6395 54.5692 98.1529 54.4589 100.634 54.2935C103.97 53.9856 107.453 53.7053 110.536 52.3269C111.905 51.5779 111.368 49.6068 111.06 48.3845L111.437 48.5591C108.749 49.6343 105.964 50.25 103.111 50.5992C98.5021 51.0449 93.8153 50.8749 89.2389 50.1949L89.0597 50.1627L88.9678 50.1443H88.9448L88.9356 50.1398C89.0137 50.1673 89.1654 50.126 89.2297 50.0479L89.2251 50.0433ZM88.7197 49.4321C88.931 49.2805 89.1745 49.3816 89.3997 49.4413C93.3926 50.3787 97.5601 50.2133 101.617 49.8273C104.843 49.4827 108.156 49.1473 111.216 48.0445C111.354 47.9802 111.524 48.0445 111.584 48.1869C111.914 49.6527 112.424 51.9501 110.917 52.9426C110.09 53.4894 109.125 53.7559 108.183 53.981C105.698 54.5462 103.189 54.7713 100.675 54.9368C99.421 55.0103 98.162 55.0562 96.9031 55.0562C94.9824 55.0241 93.0802 55.1389 91.1825 54.6519C89.3078 54.0959 88.4853 52.5842 88.5864 50.6773C88.6048 50.296 88.5221 49.7676 88.7197 49.4321Z" fill="#292929"/>
<path d="M80.4922 47.0801C81.7558 49.5016 82.9136 50.664 82.6012 55.6127C82.2842 60.5659 82.6012 69.3053 85.9738 71.9427C89.3464 74.5756 96.6154 73.4177 99.2483 62.8817C99.2483 62.8817 95.1405 68.1474 90.61 68.3587C86.0795 68.5701 85.6568 62.1419 85.45 58.7739C85.2386 55.4013 85.133 48.0266 85.133 48.0266L80.4968 47.0801H80.4922Z" fill="#D9D9D9"/>
<mask id="path-17-inside-1_1_2716" fill="white">
<path d="M56.0903 105.731C54.6888 80.2944 52.2398 42.1068 79.308 29.0482C86.1313 25.7491 93.8781 24.3018 101.432 25.0369C107.093 25.6481 112.749 27.3436 117.427 30.6748C119.839 32.4852 122.711 35.1042 122.297 38.4768C122.265 38.9685 122.123 39.4693 122.003 39.9472C120.666 43.9493 116.774 46.4121 113.08 47.9881C102.815 52.0959 89.7152 52.0316 79.9053 46.7108C79.455 46.4489 79.8409 45.755 80.3004 46.0215C90.0093 51.4756 102.59 51.448 112.768 47.2667C116.237 45.7091 119.853 43.4301 121.135 39.6807C121.236 39.3728 121.273 39.0282 121.36 38.7158C121.406 38.4493 121.401 37.9944 121.438 37.7279C121.438 36.8962 121.116 36.0554 120.675 35.2926C117.725 30.6978 111.982 28.1798 106.863 26.6957C101.901 25.3448 96.6626 25.0783 91.5761 25.7997C86.4942 26.5532 81.61 28.4923 77.1989 31.0929C66.2724 37.103 60.4691 48.9071 58.089 60.7434C54.9737 75.525 56.1014 93.4964 56.9285 108.476C56.9285 112.63 56.6896 108.692 56.469 108.705C56.2485 108.719 56.2393 108.476 56.0857 105.741L56.0903 105.731Z"/>
</mask>
<path d="M56.0903 105.731C54.6888 80.2944 52.2398 42.1068 79.308 29.0482C86.1313 25.7491 93.8781 24.3018 101.432 25.0369C107.093 25.6481 112.749 27.3436 117.427 30.6748C119.839 32.4852 122.711 35.1042 122.297 38.4768C122.265 38.9685 122.123 39.4693 122.003 39.9472C120.666 43.9493 116.774 46.4121 113.08 47.9881C102.815 52.0959 89.7152 52.0316 79.9053 46.7108C79.455 46.4489 79.8409 45.755 80.3004 46.0215C90.0093 51.4756 102.59 51.448 112.768 47.2667C116.237 45.7091 119.853 43.4301 121.135 39.6807C121.236 39.3728 121.273 39.0282 121.36 38.7158C121.406 38.4493 121.401 37.9944 121.438 37.7279C121.438 36.8962 121.116 36.0554 120.675 35.2926C117.725 30.6978 111.982 28.1798 106.863 26.6957C101.901 25.3448 96.6626 25.0783 91.5761 25.7997C86.4942 26.5532 81.61 28.4923 77.1989 31.0929C66.2724 37.103 60.4691 48.9071 58.089 60.7434C54.9737 75.525 56.1014 93.4964 56.9285 108.476C56.9285 112.63 56.6896 108.692 56.469 108.705C56.2485 108.719 56.2393 108.476 56.0857 105.741L56.0903 105.731Z" fill="#292929"/>
<path d="M79.61 47.1143C80.1312 47.4956 81.3635 48.8331 81.7068 50.8926L82.6932 50.7282C82.3012 48.3767 80.9028 46.8211 80.2005 46.3072L79.61 47.1143ZM81.7068 50.8926C82.0647 53.0401 82.0069 56.7599 81.9303 58.3681L82.9291 58.4157C83.0057 56.8075 83.0704 52.9918 82.6932 50.7282L81.7068 50.8926ZM56.0903 105.731L56.985 106.178L57.1033 105.941L57.0887 105.676L56.0903 105.731ZM79.308 29.0482L79.7425 29.9489L79.7432 29.9485L79.308 29.0482ZM101.432 25.0369L101.539 24.0427L101.529 24.0417L101.432 25.0369ZM117.427 30.6748L118.027 29.875L118.017 29.8675L118.007 29.8603L117.427 30.6748ZM122.297 38.4768L121.305 38.3551L121.301 38.3833L121.299 38.4116L122.297 38.4768ZM122.003 39.9472L122.952 40.2641L122.964 40.2273L122.973 40.1897L122.003 39.9472ZM113.08 47.9881L113.452 48.9166L113.462 48.9124L113.472 48.9079L113.08 47.9881ZM79.9053 46.7108L79.4025 47.5752L79.4154 47.5827L79.4285 47.5898L79.9053 46.7108ZM80.3004 46.0215L79.7987 46.8867L79.8107 46.8934L80.3004 46.0215ZM112.768 47.2667L113.148 48.1917L113.162 48.1856L113.177 48.179L112.768 47.2667ZM121.135 39.6807L122.081 40.0042L122.085 39.9926L121.135 39.6807ZM121.36 38.7158L122.323 38.9849L122.337 38.9358L122.345 38.8857L121.36 38.7158ZM121.438 37.7279L122.429 37.8645L122.438 37.7965V37.7279H121.438ZM120.675 35.2926L121.541 34.792L121.529 34.7719L121.517 34.7524L120.675 35.2926ZM106.863 26.6957L107.142 25.7352L107.134 25.733L107.126 25.7308L106.863 26.6957ZM91.5761 25.7997L91.4357 24.8096L91.4295 24.8105L91.5761 25.7997ZM77.1989 31.0929L77.6809 31.9691L77.6939 31.9619L77.7068 31.9544L77.1989 31.0929ZM58.089 60.7434L59.0676 60.9496L59.0694 60.9405L58.089 60.7434ZM56.9285 108.476H57.9285V108.448L57.927 108.42L56.9285 108.476ZM56.0857 105.741L55.191 105.294L55.0724 105.532L55.0872 105.797L56.0857 105.741ZM57.0887 105.676C56.3865 92.93 55.4358 77.1473 58.0071 62.9258C60.5758 48.7182 66.6194 36.2799 79.7425 29.9489L78.8734 28.1476C64.9284 34.8751 58.6624 48.0598 56.039 62.57C53.4181 77.0661 54.3926 93.0958 55.0918 105.786L57.0887 105.676ZM79.7432 29.9485C86.4064 26.7269 93.9696 25.3154 101.335 26.0322L101.529 24.0417C93.7867 23.2882 85.8562 24.7714 78.8727 28.1479L79.7432 29.9485ZM101.325 26.0312C106.869 26.6297 112.347 28.2847 116.847 31.4894L118.007 29.8603C113.151 26.4024 107.317 24.6664 101.539 24.0427L101.325 26.0312ZM116.826 31.4746C118.012 32.3641 119.239 33.402 120.119 34.5864C120.991 35.7606 121.47 37.0058 121.305 38.3551L123.29 38.5985C123.538 36.5752 122.788 34.8247 121.724 33.3936C120.669 31.9727 119.254 30.7959 118.027 29.875L116.826 31.4746ZM121.299 38.4116C121.275 38.7888 121.165 39.175 121.033 39.7046L122.973 40.1897C123.08 39.7636 123.255 39.1482 123.295 38.5421L121.299 38.4116ZM121.055 39.6303C119.862 43.1986 116.334 45.5126 112.688 47.0683L113.472 48.9079C117.214 47.3116 121.47 44.6999 122.952 40.2641L121.055 39.6303ZM112.708 47.0597C102.679 51.0735 89.8941 50.991 80.3821 45.8317L79.4285 47.5898C89.5364 53.0722 102.952 53.1183 113.452 48.9166L112.708 47.0597ZM80.4081 45.8464C80.5343 45.9198 80.6534 46.0649 80.6922 46.255C80.7261 46.4211 80.6875 46.5622 80.6324 46.6598C80.5773 46.7573 80.4724 46.8697 80.3014 46.9274C80.1061 46.9934 79.9179 46.9557 79.7987 46.8866L80.8021 45.1565C80.4532 44.9541 80.0445 44.9032 79.6616 45.0325C79.3031 45.1536 79.0437 45.4058 78.891 45.6762C78.7382 45.9467 78.6588 46.2937 78.7327 46.6553C78.8114 47.0408 79.0511 47.3708 79.4025 47.5752L80.4081 45.8464ZM79.8107 46.8934C89.8284 52.521 102.735 52.4694 113.148 48.1917L112.388 46.3418C102.445 50.4267 90.1902 50.4302 80.7902 45.1497L79.8107 46.8934ZM113.177 48.179C116.679 46.6067 120.653 44.1793 122.081 40.0042L120.188 39.3572C119.052 42.6808 115.794 44.8115 112.358 46.3545L113.177 48.179ZM122.085 39.9926C122.156 39.7755 122.2 39.559 122.233 39.3961C122.269 39.2141 122.292 39.0957 122.323 38.9849L120.397 38.4467C120.34 38.6483 120.301 38.8584 120.272 39.0038C120.239 39.1683 120.214 39.278 120.185 39.3687L122.085 39.9926ZM122.345 38.8857C122.38 38.6818 122.393 38.4377 122.401 38.2727C122.411 38.0687 122.418 37.9437 122.429 37.8645L120.447 37.5912C120.422 37.7785 120.412 38.0143 120.404 38.1709C120.394 38.3667 120.385 38.4832 120.374 38.5459L122.345 38.8857ZM122.438 37.7279C122.438 36.6496 122.026 35.6309 121.541 34.792L119.81 35.7932C120.207 36.4798 120.438 37.1428 120.438 37.7279H122.438ZM121.517 34.7524C118.357 29.8301 112.295 27.2294 107.142 25.7352L106.585 27.6561C111.669 29.1302 117.094 31.5655 119.834 35.8329L121.517 34.7524ZM107.126 25.7308C102.025 24.3421 96.6488 24.0702 91.4357 24.8096L91.7166 26.7898C96.6764 26.0864 101.777 26.3475 106.6 27.6606L107.126 25.7308ZM91.4295 24.8105C86.1955 25.5866 81.1895 27.5793 76.691 30.2315L77.7068 31.9544C82.0304 29.4052 86.793 27.5199 91.7228 26.7889L91.4295 24.8105ZM76.717 30.2167C65.4258 36.4274 59.5175 48.5669 57.1086 60.5463L59.0694 60.9405C61.4207 49.2473 67.119 37.7786 77.6809 31.9691L76.717 30.2167ZM57.1105 60.5372C53.9621 75.4757 55.1053 93.5947 55.93 108.531L57.927 108.42C57.0975 93.3981 55.9853 75.5743 59.0675 60.9496L57.1105 60.5372ZM55.9285 108.476C55.9285 108.991 55.9248 109.375 55.9181 109.654C55.9111 109.943 55.9015 110.088 55.8949 110.143C55.8935 110.154 55.894 110.146 55.898 110.127C55.8994 110.12 55.9136 110.046 55.9563 109.953C55.9773 109.907 56.0274 109.805 56.1245 109.7C56.2241 109.591 56.4312 109.419 56.7513 109.386C57.0793 109.352 57.3264 109.484 57.4582 109.586C57.5816 109.681 57.6518 109.782 57.6813 109.828C57.7416 109.921 57.7679 110 57.7713 110.009C57.7793 110.032 57.7824 110.045 57.7813 110.041C57.7794 110.033 57.7736 110.008 57.7642 109.958C57.7457 109.86 57.7245 109.727 57.6991 109.566C57.6748 109.412 57.6473 109.236 57.6186 109.074C57.5912 108.919 57.5568 108.741 57.5147 108.591C57.4959 108.524 57.4607 108.408 57.4006 108.29C57.3725 108.235 57.3095 108.121 57.1969 108.008C57.0875 107.899 56.8163 107.682 56.4066 107.707L56.5314 109.703C56.1355 109.728 55.8782 109.518 55.7826 109.422C55.6838 109.324 55.6347 109.23 55.6204 109.202C55.588 109.139 55.5806 109.101 55.5894 109.133C55.6027 109.18 55.6231 109.274 55.6491 109.422C55.6739 109.562 55.6983 109.718 55.7235 109.878C55.7477 110.031 55.7736 110.195 55.7987 110.328C55.8112 110.394 55.8263 110.469 55.8444 110.539C55.8497 110.56 55.8915 110.743 56.0013 110.913C56.0352 110.966 56.1098 111.072 56.2375 111.17C56.3737 111.275 56.625 111.409 56.9572 111.375C57.2815 111.341 57.4927 111.166 57.5964 111.054C57.6975 110.944 57.7516 110.836 57.7764 110.782C57.8573 110.604 57.8758 110.421 57.8806 110.382C57.9152 110.094 57.9285 109.492 57.9285 108.476H55.9285ZM56.4066 107.707C56.4612 107.704 56.637 107.698 56.8378 107.797C57.0514 107.903 57.1661 108.062 57.2181 108.158C57.285 108.282 57.2713 108.349 57.2448 108.132C57.201 107.774 57.1623 107.077 57.0841 105.685L55.0872 105.797C55.1626 107.139 55.2054 107.932 55.2596 108.375C55.2822 108.56 55.3218 108.855 55.4573 109.107C55.5436 109.267 55.6963 109.464 55.9532 109.591C56.1974 109.711 56.4217 109.71 56.5314 109.703L56.4066 107.707ZM56.9804 106.187L56.985 106.178L55.1956 105.285L55.191 105.294L56.9804 106.187Z" fill="black" mask="url(#path-17-inside-1_1_2716)"/>
<path d="M101.942 60.9874C99.2084 57.6194 93.6854 60.1649 92.1599 64.2635C91.149 66.9791 91.7785 70.6779 92.4953 73.1086C93.6624 77.0555 96.9523 78.434 101.17 75.8379C105.65 73.0764 101.34 66.4782 99.9619 64.7644C98.5835 63.0505 101.938 60.992 101.938 60.992L101.942 60.9874Z" fill="#CF2929"/>
<path d="M101.552 60.9235C101.341 60.8454 101.226 60.85 101.139 60.7352C98.0603 58.3137 93.5298 61.1625 92.4317 64.4478C91.3749 67.4804 92.2663 73.4674 94.4672 75.8476C96.5211 77.9888 100.638 76.4449 102.154 74.3359C103.79 71.5054 101.433 67.2001 99.6364 64.82C98.6025 63.1934 100.459 61.6036 101.649 60.7122L101.69 60.68C101.699 60.6708 101.626 60.726 101.603 60.7673C101.571 60.8133 101.552 60.873 101.552 60.9189V60.9235ZM102.334 61.0568C102.292 61.2268 102.141 61.3463 101.998 61.4198C101.842 61.5163 101.681 61.622 101.539 61.7322C100.735 62.3388 99.4847 63.4139 100.151 64.4753C100.422 64.8751 100.79 65.3208 101.061 65.7343C101.644 66.6074 102.191 67.5079 102.641 68.4683C103.854 70.8392 104.282 74.3542 101.649 75.99C99.4204 77.4374 96.2821 78.1542 94.0536 76.3116C91.3794 74.4002 90.704 67.1449 91.8435 64.2364C93.0106 61.2682 96.0524 58.7456 99.3745 59.0902C100.555 59.2556 101.828 59.9357 102.338 61.0522L102.334 61.0568Z" fill="#292929"/>
<path d="M95.9485 69.5766C95.2685 66.4797 94.3265 61.2049 97.621 59.3118C97.8737 59.1877 98.0759 59.5645 97.8324 59.7069C95.0112 61.4805 96.0863 66.6314 96.8353 69.3285C97.0053 69.9213 96.1139 70.174 95.9485 69.5766Z" fill="#292929"/>
<path d="M98.044 41.6833C97.0653 40.9711 96.105 40.2313 95.1033 39.5467C94.0925 38.8804 93.0816 38.2096 92.0477 37.5801C91.8318 37.4469 91.7629 37.1666 91.8961 36.946C92.034 36.7117 92.3556 36.652 92.567 36.822C94.4922 38.3015 96.5001 39.6478 98.5632 40.9251C99.0778 41.2698 98.554 42.0371 98.044 41.6833Z" fill="#292929"/>
<path d="M97.7399 36.5119C97.0277 37.4906 96.288 38.4509 95.6033 39.4525C94.9371 40.4634 94.2662 41.4743 93.6368 42.5081C93.5035 42.7241 93.2232 42.793 93.0027 42.6597C92.7683 42.5219 92.7086 42.2003 92.8786 41.9889C94.3581 40.0637 95.7044 38.0557 96.9818 35.9926C97.3264 35.478 98.0937 36.0018 97.7399 36.5119Z" fill="#292929"/>
<path d="M112.579 41.9907C111.238 39.969 109.827 38.007 108.288 36.1323C107.897 35.6315 108.664 35.0617 109.027 35.5901C110.351 37.621 111.798 39.5647 113.319 41.4485C113.687 41.9448 112.942 42.4962 112.579 41.9907Z" fill="#292929"/>
<path d="M113.995 37.0071C111.973 38.3488 110.011 39.7594 108.136 41.2987C107.635 41.6892 107.066 40.9219 107.594 40.5589C109.625 39.2356 111.569 37.7882 113.452 36.2673C113.949 35.8997 114.5 36.6441 113.995 37.0071Z" fill="#292929"/>
<path d="M88.1757 139.031C86.5675 136.964 60.6067 137.883 58.5391 130.531L59.458 137.423L58.5391 137.883C58.7688 138.036 59.6878 138.48 61.5257 139.031C63.5934 138.112 77.3779 140.41 83.8106 143.856C90.2434 147.302 93.6895 156.492 93.6895 156.492C93.6895 156.492 99.4331 140.18 110.461 136.734C110.69 136.581 111.15 134.115 111.15 125.477C102.42 139.491 95.2977 137.423 88.1757 139.031Z" fill="#124B46"/>
<path d="M115.054 105.029L112.297 65.0544C112.067 62.2975 109.77 57.6567 102.418 61.1488C100.12 62.757 99.6609 63.2165 99.8906 64.3652C100.12 65.5139 102.877 68.7303 103.107 70.7979C103.337 72.8656 103.107 73.7846 102.877 74.2441C102.647 74.7035 100.58 77.001 97.8229 77.2307C95.066 77.4604 94.1471 76.7712 92.3091 72.6359C89.0927 73.6314 82.66 73.1413 82.66 63.2165C82.66 53.2916 82.66 52.0357 82.66 52.6483C82.7366 51.1933 82.3383 47.9157 80.1328 46.4453" stroke="black" stroke-width="1.5"/>
<circle cx="101.595" cy="28.4373" r="0.689225" fill="black"/>
<circle cx="89.0975" cy="102.734" r="2.52716" fill="#16423E"/>
<circle cx="84.9647" cy="123.963" r="2.52716" fill="#16423E"/>
<circle cx="66.1678" cy="106.578" r="2.52716" fill="#16423E"/>
<circle cx="68.1973" cy="70.3379" r="1.83793" fill="#16423E"/>
<circle cx="66.8081" cy="53.7984" r="1.37845" fill="#16423E"/>
<circle cx="74.0894" cy="38.9546" r="1.37845" fill="#16423E"/>
<circle cx="98.8394" cy="125.97" r="1.37845" fill="#16423E"/>
<circle cx="107.707" cy="111.691" r="1.37845" fill="#16423E"/>
<circle cx="97.1235" cy="74.4732" r="0.459483" fill="#A31818"/>
<circle cx="98.2844" cy="72.8665" r="0.229742" fill="#A31818"/>
<circle cx="95.5266" cy="71.9465" r="0.229742" fill="#A31818"/>
<circle cx="99.8892" cy="69.4204" r="0.459483" fill="#A31818"/>
<path d="M116.713 131.57L115.055 104.932" stroke="black" stroke-width="1.5" stroke-linecap="round"/>
<path d="M58.2051 134.755L56.5547 107.238" stroke="black" stroke-width="0.5" stroke-linecap="round"/>
<path d="M97.7609 24.5161C98.178 24.3399 98.4646 23.9839 98.5868 23.4843C98.7959 22.6476 98.5143 21.5156 97.9208 20.7832C95.3891 18.1656 92.2566 14.9278 88.5842 13.0107C87.6393 12.5196 86.6841 12.4698 85.7432 12.8673C83.7732 13.6996 82.2086 16.4092 81.4015 18.6621C81.3821 18.7195 81.3844 18.7895 81.4191 18.8459C81.4538 18.9022 81.5032 18.9414 81.5679 18.9524C84.4068 19.5173 87.0155 20.6493 89.1932 21.6793L89.3508 21.7548C90.6552 22.3726 92.0077 23.0139 93.3726 23.5679C94.2891 23.94 95.2812 24.2583 96.4043 24.5376C96.9368 24.6731 97.3908 24.6616 97.757 24.5068L97.7609 24.5161Z" fill="#FFCF00"/>
<path d="M84.3265 13.817C84.074 14.4863 83.9211 15.1846 83.9542 15.9353C84.0104 17.3483 85.4033 18.0981 86.5379 18.5856C87.7998 19.1285 89.0697 19.6517 90.3315 20.1947C92.4313 21.1047 94.6596 22.3319 96.9648 22.6034C97.5062 22.6696 98.1552 22.6412 98.5961 22.3402C98.6655 22.737 98.6647 23.1361 98.5817 23.4825C98.4595 23.9821 98.1729 24.338 97.7558 24.5143C97.3896 24.669 96.9356 24.6806 96.4031 24.545C95.28 24.2657 94.2879 23.9475 93.3714 23.5754C92.0065 23.0213 90.654 22.3801 89.3496 21.7622L89.192 21.6868C87.0143 20.6567 84.4056 19.5248 81.5667 18.9598C81.502 18.9489 81.4507 18.905 81.4179 18.8533C81.3878 18.795 81.3828 18.7316 81.4003 18.6696C82.0043 16.9832 83.0305 15.0419 84.335 13.8243L84.3265 13.817Z" fill="#F89C00"/>
<path d="M95.7994 25.5075C90.5771 24.2015 86.2152 20.7949 80.8248 19.9314C80.3739 19.8597 80.1798 19.4392 80.2943 19.0248C81.2071 15.8587 83.7358 11.3325 87.5825 11.4771C89.1415 11.5339 90.879 12.9958 92.0526 13.8601C94.5533 15.6932 96.7931 17.9043 98.9489 20.1235C98.989 20.1666 99.0179 20.2091 99.0467 20.2515C101.176 23.0282 99.3951 26.4027 95.7974 25.5028L95.7994 25.5075ZM88.6472 13.2341C85.3609 11.5198 82.7925 15.9263 81.7789 18.7635C84.4753 19.3013 86.9689 20.329 89.457 21.5119C90.8379 22.1685 92.2122 22.8224 93.6298 23.3979C94.6056 23.794 95.6097 24.1018 96.6305 24.3588C99.0562 24.9672 98.9337 22.1948 97.9219 20.9507C95.1851 18.1194 92.1845 15.0772 88.6537 13.2368L88.6472 13.2341Z" fill="#3D0801"/>
<path d="M109.253 25.5454C109.029 25.3889 108.906 25.1431 108.897 24.8337C108.88 24.3148 109.189 23.6844 109.631 23.3285C111.452 22.1086 113.705 20.5997 116.109 19.9364C116.727 19.767 117.295 19.8585 117.799 20.2116C118.853 20.9507 119.43 22.7431 119.62 24.171C119.624 24.2073 119.614 24.2482 119.587 24.2769C119.559 24.3057 119.525 24.3225 119.486 24.3208C117.743 24.2939 116.065 24.6299 114.653 24.9604L114.551 24.9848C113.705 25.1833 112.828 25.3895 111.955 25.5428C111.368 25.6458 110.744 25.7075 110.048 25.7297C109.718 25.742 109.452 25.6778 109.256 25.5404L109.253 25.5454Z" fill="#FFCF00"/>
<path d="M118.503 20.9501C118.567 21.376 118.569 21.8062 118.454 22.2438C118.242 23.0681 117.328 23.3331 116.598 23.4763C115.787 23.6362 114.973 23.7833 114.162 23.9431C112.811 24.2129 111.345 24.653 109.954 24.521C109.627 24.4914 109.249 24.3926 109.027 24.1597C108.936 24.3844 108.886 24.6193 108.891 24.8337C108.9 25.1431 109.023 25.3889 109.247 25.5454C109.443 25.6828 109.708 25.747 110.039 25.7347C110.735 25.7125 111.359 25.6507 111.945 25.5478C112.819 25.3945 113.696 25.1883 114.542 24.9898L114.644 24.9653C116.056 24.6349 117.734 24.2989 119.476 24.3257C119.516 24.3275 119.551 24.3082 119.577 24.2819C119.602 24.2514 119.613 24.2147 119.611 24.176C119.469 23.1072 119.111 21.835 118.497 20.9533L118.503 20.9501Z" fill="#F89C00"/>
<path d="M110.283 26.3748C113.522 26.2673 116.52 24.8147 119.801 24.9888C120.075 25.0037 120.243 24.7807 120.228 24.5224C120.092 22.5438 119.176 19.5602 116.894 19.1585C115.97 18.9946 114.762 19.635 113.962 19.995C112.259 20.7573 110.661 21.7749 109.112 22.8079C109.082 22.8283 109.06 22.8496 109.038 22.8709C107.433 24.2354 108.054 26.4465 110.285 26.3723L110.283 26.3748ZM116.046 20.0577C118.196 19.4648 119.15 22.3829 119.387 24.1808C117.733 24.156 116.135 24.4451 114.521 24.8263C113.626 25.0379 112.734 25.2487 111.827 25.408C111.203 25.5176 110.573 25.5716 109.94 25.5936C108.435 25.6447 108.858 24.0287 109.611 23.4247C111.58 22.105 113.731 20.6945 116.041 20.0584L116.046 20.0577Z" fill="#3D0801"/>
<path d="M117.806 44.6564C119.161 43.869 120.155 42.5886 120.927 40.6287C121.75 38.5474 122 36.3021 122.153 34.1869C122.251 32.8116 122.444 31.5047 123.713 30.6893C123.766 30.6589 123.798 30.5941 123.797 30.5353C123.748 29.2219 123.65 28.1533 123.493 27.1779C123.482 27.1019 123.421 27.0454 123.35 27.036C118.71 26.3402 113.872 27.5464 109.599 28.608C108.028 29.0013 106.151 29.4157 104.124 29.5316C101.682 29.6728 99.201 29.1288 96.8004 28.6024C96.4259 28.5212 96.0549 28.438 95.6879 28.3617C89.9059 27.1342 84.2583 27.4552 79.7774 29.2673C77.6623 30.1236 75.6396 31.0503 73.7621 32.0258C73.6498 32.0818 73.545 32.1427 73.4402 32.2036C70.9523 33.6485 70.0135 36.1006 70.8607 38.9307C71.0816 39.5513 71.4641 39.7749 72.0062 39.5978C72.0701 39.5791 72.1315 39.548 72.184 39.5176C72.7745 39.1746 72.6973 38.3189 72.6598 38.0696L72.6588 38.0196C72.6563 38.0073 72.6508 37.9737 72.6483 37.9614C72.5105 36.6721 72.9706 35.8076 74.1411 35.1277C74.6897 34.8091 75.3432 34.5583 75.9752 34.3107L76.3671 34.1566C77.9715 33.5234 80.1675 32.6615 81.5862 33.3722C82.2398 33.7002 82.6719 34.3223 82.9169 35.2736C83.1098 36.0391 83.2739 36.8031 83.4329 37.5424C84.0635 40.4982 84.665 43.2917 87.0503 45.6557C89.7913 48.3738 95.6777 48.4471 99.1081 46.6937C99.1905 46.6504 99.2763 46.6052 99.3567 46.5585C101.404 45.3693 102.347 42.9473 102.876 41.2293C102.92 41.0887 102.964 40.9302 103.008 40.7663C103.25 39.8956 103.585 38.7039 104.361 38.2533C104.469 38.1904 104.582 38.1433 104.703 38.1099C105.435 37.9143 106.087 38.1191 106.763 38.751C107.224 39.1817 107.472 39.8559 107.714 40.5054C107.795 40.7249 107.875 40.9355 107.957 41.1317C108.48 42.3531 109.242 43.4132 110.214 44.2872C112.257 46.1193 115.229 45.8038 117.154 44.975C117.374 44.8793 117.588 44.7733 117.795 44.6536L117.806 44.6564ZM109.421 31.1055C109.959 30.793 110.573 30.5788 111.164 30.3734C111.293 30.3305 111.421 30.2841 111.541 30.2418C113.728 29.4537 116.037 29.2754 118.032 29.7389C118.095 29.7434 118.123 29.7504 118.152 29.7609C118.196 29.7721 118.227 29.786 118.259 29.7999C119.244 30.1835 119.956 30.9004 120.396 31.9454C121.316 34.1218 120.874 37.4434 119.963 39.5987C119.315 41.1284 118.227 42.3993 116.892 43.1745C114.925 44.3171 112.779 44.1804 111.01 42.7954C108.418 40.7673 107.047 35.7513 108.183 32.4726C108.374 31.9251 108.778 31.479 109.417 31.1076L109.421 31.1055ZM87.7341 31.7176C88.1639 31.468 88.6526 31.2714 89.1898 31.1341C92.1458 30.5016 94.4459 30.365 96.6513 30.6923C97.7777 30.8606 100.511 31.4371 101.541 33.2146C102.652 35.1241 102.066 38.4235 101.766 39.7557C101.268 41.9378 99.8645 43.7594 97.7091 45.0204C95.8327 46.1102 93.6974 46.4176 91.6777 45.8951C89.6654 45.3775 87.9835 44.0937 86.9394 42.2833C85.1289 39.1396 84.177 33.7835 87.7306 31.7196L87.7341 31.7176Z" fill="black"/>
<path d="M84.8758 35.6737C84.9983 34.9041 85.3471 34.3063 85.8368 33.8382C84.7197 36.3616 85.5872 39.9334 86.941 42.2762C87.9851 44.0867 89.6651 45.3671 91.6793 45.8881C93.699 46.4106 95.8343 46.1032 97.7107 45.0134C99.8661 43.7523 101.27 41.9307 101.768 39.7487C102.021 38.6413 102.462 36.1701 101.963 34.2682C103.417 37.1597 102.081 41.6618 100.242 43.9567C97.5757 47.2882 92.6875 47.9584 89.1469 45.7139C87.5075 44.672 86.4345 42.9886 85.7199 41.2302C85.0329 39.5432 84.5908 37.4979 84.8793 35.6716L84.8758 35.6737Z" fill="#5C4F4F"/>
<path d="M107.854 33.9957C107.48 37.1447 108.799 41.0602 111.014 42.793C112.783 44.1779 114.929 44.3146 116.896 43.1721C118.231 42.3968 119.325 41.1274 119.967 39.5963C120.699 37.8571 121.129 35.3654 120.786 33.3221C122.128 36.3607 121.325 40.4667 118.785 42.6906C116.165 44.9845 111.912 44.8584 109.712 42.1706C108.032 40.1185 106.72 36.6025 107.85 33.9978L107.854 33.9957Z" fill="#5C4F4F"/>
<path d="M71.0599 37.8643C71.0601 38.411 71.1247 38.9478 71.2053 39.48C71.0649 39.3593 70.95 39.1779 70.8601 38.9269C70.0128 36.0969 70.9517 33.6448 73.4395 32.1999C73.5444 32.139 73.6492 32.0781 73.7615 32.0221C75.6354 31.0486 77.6617 30.1199 79.7768 29.2636C84.2576 27.4515 89.9053 27.1305 95.6873 28.358C96.0563 28.4378 96.4287 28.5155 96.7997 28.5987C99.2004 29.125 101.681 29.669 104.124 29.5279C106.151 29.412 108.031 28.9955 109.599 28.6043C113.871 27.5427 118.709 26.3364 123.349 27.0323C123.426 27.0431 123.483 27.1016 123.493 27.1742C123.519 27.3242 123.537 27.4838 123.559 27.6413C120.291 26.9429 116.58 27.7153 113.499 28.6548C111.138 29.3781 108.849 30.3536 106.379 30.6396C104.039 30.9094 101.765 30.0705 99.4991 29.6545C96.9138 29.1803 94.2849 28.5751 91.6577 28.3826C89.2496 28.2051 86.8292 28.4483 84.4739 29.0122C80.8684 29.8702 77.1656 30.7618 74.0154 32.8119C72.0991 34.0582 71.0616 35.5613 71.0579 37.8609L71.0599 37.8643Z" fill="#5C4F4F"/>
<path d="M80.5506 34.3753C79.4205 34.3011 78.2252 34.9769 77.1337 35.6476C77.1355 35.0998 77.1407 34.55 77.1534 34.005C77.1552 33.9442 77.1878 33.8885 77.2399 33.8583C77.2468 33.8542 77.3202 33.8208 77.3202 33.8208C78.6331 33.2513 80.6183 32.3923 81.827 32.9769C82.2724 33.1915 82.5723 33.5871 82.7146 34.1431C82.9319 34.9956 83.1071 35.8634 83.2787 36.7011C83.7889 39.2305 84.271 41.6156 85.8582 43.7447C87.8021 46.3513 90.6502 47.6379 94.3212 47.5689C96.1128 47.5346 97.2699 47.5223 99.0578 46.4839C99.5057 46.2238 99.9111 45.9148 100.257 45.567C101.399 44.4166 102.245 42.9649 102.768 41.2458C102.801 41.1348 102.839 40.9842 102.888 40.8043C103.116 39.8952 103.464 38.5215 104.165 38.1142C104.38 37.9892 105.86 37.743 106.299 38.0348C107.003 38.5032 107.276 39.2271 107.543 39.9264C107.637 40.1752 107.737 40.4343 107.851 40.6711C108.618 42.261 110.861 45.9073 115.064 45.4923C115.389 45.4598 115.722 45.409 116.05 45.3424C116.137 45.3241 116.244 45.3678 116.272 45.448C116.311 45.5542 116.296 45.5894 116.277 45.6743C116.219 45.7812 116.168 45.8251 116.075 45.8475C114.353 46.282 112.427 46.261 110.8 45.5475C109.243 44.8667 108.015 43.452 107.27 41.9641C106.997 41.4151 105.705 38.4944 104.457 40.5084C103.857 41.3531 103.724 42.4645 103.356 43.4133C103.019 44.2796 102.51 45.0576 101.895 45.7553C99.3097 48.681 95.5724 49.0247 91.9197 48.6144C87.4176 48.1093 84.7763 44.4558 83.3061 40.5081C82.8345 39.2427 82.4876 37.9279 82.1749 36.6162C81.9438 35.6522 81.7686 34.449 80.5555 34.3679L80.5506 34.3753Z" fill="#465508"/>
<path d="M88.5952 43.4218C90.17 43.8948 91.8975 43.8748 93.496 43.4886C95.4985 43.001 97.3159 41.826 98.3718 40.0411C99.2974 38.4742 99.3855 36.1992 98.2477 34.7418C96.5439 32.5609 92.8319 32.8421 90.4296 33.4378C88.7961 33.8443 87.1982 34.561 86.0643 35.6975C86.2021 34.3033 86.7913 33.0743 88.0807 32.3254C88.458 32.1062 88.8939 31.9312 89.3776 31.8065C91.2747 31.4031 93.5033 31.0231 95.6712 31.2619C98.2096 31.5429 99.824 32.14 100.605 33.088C101.852 34.5967 101.565 37.8646 101.086 39.5719C100.496 41.6836 99.3784 43.2334 97.768 44.1779L97.7471 44.19C95.8253 45.3062 93.5038 45.6712 91.539 45.1628C90.3671 44.8601 89.3718 44.2665 88.5972 43.4252L88.5952 43.4218Z" fill="#070707"/>
<path d="M97.7995 45.1658C93.8745 47.4592 88.9982 46.1973 86.7881 42.3669C84.632 38.6291 83.8685 32.3273 89.1468 30.9618C91.6465 30.429 94.1438 30.1411 96.6802 30.5151C98.4452 30.7765 100.764 31.5158 101.694 33.1217C102.729 34.9006 102.371 37.8697 101.935 39.7867C101.4 42.1375 99.8606 43.9596 97.794 45.1644L97.7995 45.1658ZM100.468 33.1997C99.4701 31.9917 97.1239 31.5991 95.6495 31.4353C93.574 31.2026 91.4497 31.545 89.4153 31.9776C84.6207 33.2184 86.1525 39.1291 87.9489 42.2487C89.9531 45.7254 94.4651 45.9032 97.6793 44.0272C99.3979 43.0198 100.397 41.3871 100.919 39.5268C101.394 37.8215 101.662 34.6424 100.468 33.1997Z" fill="#3D0801"/>
<path d="M108.026 32.4138C108.521 30.9912 110.22 30.5283 111.488 30.0722C113.578 29.3177 115.926 29.0616 118.083 29.5638C118.127 29.5661 118.174 29.5753 118.222 29.5934C118.272 29.6061 118.316 29.6262 118.355 29.645C121.943 31.0303 121.401 36.6707 120.135 39.6619C118.573 43.3578 114.362 45.6336 110.904 42.9279C108.148 40.7701 106.892 35.6637 108.021 32.4124L108.026 32.4138ZM118.52 40.5495C120.062 38.2752 121.176 31.7286 117.939 30.6083C115.283 29.9496 111.976 30.5885 109.611 32.0124C108.278 32.8143 108.711 35.4712 108.878 36.7066C109.055 38.0235 109.546 39.2597 110.195 40.408C112.124 43.8364 116.267 43.8611 118.516 40.5515L118.52 40.5495Z" fill="#3D0801"/>
<path d="M87.7488 42.9178C88.5711 44.3471 89.8695 45.3252 91.4918 45.7431C93.4566 46.2515 95.7781 45.8865 97.6999 44.7703L97.7209 44.7581C99.3332 43.8171 100.451 42.2673 101.039 40.1522C101.515 38.4469 101.807 35.1804 100.557 33.6682C99.7733 32.7223 98.1589 32.1252 95.6241 31.8422C93.4597 31.6013 91.2275 31.9834 89.3304 32.3868C88.8467 32.5115 88.4109 32.6865 88.0335 32.9057C84.7035 34.8397 86.0368 39.9513 87.7488 42.9178ZM108.637 37.1408C108.449 35.789 108.477 33.2488 109.206 32.3406C109.506 31.9139 109.874 31.7229 109.874 31.7229C112.372 30.2719 115.552 30.0282 118.124 30.6713C119.02 30.9824 119.469 31.8018 119.824 32.8866C120.674 35.4806 119.68 39.6643 118.615 41.2336C118.07 42.0326 117.413 42.6625 116.658 43.1008C115.547 43.7462 114.285 43.9321 113.11 43.6226C111.835 43.2877 110.73 42.3855 109.996 41.084C109.262 39.7826 108.827 38.5516 108.661 37.3196L108.635 37.1463L108.637 37.1408Z" fill="#FFCF00"/>
<circle cx="92.2066" cy="36.2046" r="1.37845" fill="#16423E"/>
<circle cx="112.378" cy="34.5484" r="1.37845" fill="#16423E"/>
<path d="M176.566 175.32C177.296 175.32 177.996 175.252 178.646 175.124C180.284 174.798 181.124 173.743 181.148 172C181.148 171.884 181.075 171.779 180.971 171.743C180.94 171.73 180.909 171.724 180.885 171.724C180.805 171.724 180.725 171.761 180.67 171.829C180.351 172.24 179.909 172.553 179.345 172.755C178.903 172.921 178.4 172.994 177.812 172.994C177.002 172.994 176.161 172.847 175.37 172.694C173.512 172.332 171.635 171.755 169.782 170.963C166.163 169.417 163.39 166.858 161.385 164.803C160.826 164.269 160.293 163.723 159.777 163.189L159.6 163.005C158.833 162.219 158.078 161.33 157.22 160.207C155.827 158.544 154.484 156.783 153.226 154.96C152.374 153.795 151.638 152.745 150.987 151.745C152.337 153.586 153.76 155.476 155.349 157.568C156.023 158.409 156.821 159.397 157.673 160.366L157.919 160.642C159.182 162.084 160.495 163.575 161.881 164.968C162.403 165.435 162.949 165.932 163.458 166.459C164.599 167.484 165.654 168.3 166.697 168.975C169.598 170.853 173.291 172.154 176.836 172.559C177.186 172.602 177.499 172.62 177.793 172.62C179.179 172.62 180.142 172.172 180.652 171.289C180.805 171.025 180.909 170.742 180.977 170.423C180.983 170.387 180.983 170.356 180.977 170.319C180.811 169.466 180.553 168.607 180.326 167.846C180.216 167.472 180.112 167.122 180.026 166.809C179.842 166.11 179.695 165.337 179.572 164.435C179.572 164.416 179.566 164.398 179.56 164.379C179.21 163.391 178.811 162.397 178.351 161.342C176.664 157.476 174.72 153.788 172.591 150.377C169.524 145.474 165.899 141.222 162.059 137.957C165.881 140.86 169.402 144.793 172.72 149.849C174.751 152.948 176.646 156.513 178.689 161.078L178.799 161.324C178.842 161.422 178.94 161.483 179.044 161.483C179.063 161.483 179.087 161.483 179.106 161.477C179.235 161.446 179.32 161.33 179.314 161.201C179.29 160.667 179.271 160.127 179.253 159.587C179.21 158.39 179.173 157.151 179.063 155.948C178.683 151.628 177.572 147.419 175.763 143.424C171.978 135.073 165.163 128.127 156.575 123.863C152.22 121.703 147.221 120.39 141.725 119.972C140.302 119.862 138.781 119.764 137.266 119.764C135.855 119.764 134.591 119.85 133.407 120.028C130.727 120.433 128.359 121.838 126.163 123.243C125.642 123.574 125.089 123.912 124.47 124.274C124.36 124.341 124.304 124.476 124.353 124.599C124.39 124.703 124.494 124.777 124.605 124.777C124.623 124.777 124.642 124.777 124.654 124.777C124.948 124.722 125.243 124.673 125.531 124.63C124.758 124.789 123.967 124.985 123.157 125.213C122.857 125.298 122.556 125.384 122.262 125.476C122.249 125.476 122.182 125.513 122.17 125.519C122.047 125.581 121.967 125.734 122.016 125.863C122.053 125.973 122.145 126.053 122.256 126.053C122.268 126.053 122.286 126.053 122.305 126.053C123.274 125.857 124.016 125.728 124.709 125.636C126.034 125.464 127.359 125.372 128.635 125.372C131.604 125.372 134.26 125.857 136.407 126.777C136.1 126.716 135.793 126.661 135.487 126.599C134.076 126.329 132.616 126.047 131.15 125.912C130.371 125.838 129.549 125.802 128.715 125.802C127.439 125.802 126.108 125.881 124.648 126.053C122.765 126.268 120.882 126.765 119.06 127.244C118.305 127.44 117.551 127.642 116.796 127.82C115.668 128.219 114.539 128.581 113.318 128.931C111.68 129.403 109.981 130.097 108.129 131.042C105.675 132.294 103.534 133.926 101.762 135.883C101.67 135.981 101.67 136.135 101.756 136.239C101.811 136.3 101.884 136.337 101.964 136.337C102.013 136.337 102.062 136.325 102.105 136.3C102.835 135.859 103.547 135.484 104.142 135.178C107.417 133.49 111.196 132.619 116.379 132.355C116.459 132.355 116.821 132.343 116.821 132.343C117.723 132.281 118.471 132.251 119.17 132.245H119.508C122.783 132.245 126.046 132.692 129.199 133.576L129.488 133.65C129.672 133.699 129.856 133.742 130.04 133.797C131.653 134.263 133.285 134.92 135.033 135.81C135.628 136.104 136.223 136.417 136.799 136.748C136.977 136.853 137.161 136.951 137.339 137.055C137.339 137.055 137.652 137.239 137.738 137.295C138.21 137.577 138.658 137.877 139.087 138.178C139.173 138.239 139.492 138.467 139.492 138.467L139.572 138.528C141.013 139.571 142.338 140.718 143.541 141.958C142.326 140.829 141.112 139.823 139.873 138.908C139.48 138.657 139.112 138.405 138.738 138.16C137.959 137.638 137.149 137.098 136.321 136.638C135.585 136.227 134.775 135.834 133.849 135.429L133.64 135.337C133.487 135.27 133.334 135.202 133.18 135.141C133.064 135.092 132.947 135.049 132.831 135.006L132.659 134.938C129.512 133.742 125.869 132.956 122.139 132.668C121.139 132.6 120.084 132.57 119.011 132.57C118.606 132.57 118.207 132.57 117.808 132.582C113.576 132.754 109.319 133.705 105.485 135.319C103.553 136.135 101.841 137.209 100.394 138.503C99.805 139.031 99.2345 139.669 98.6395 140.455C97.6151 142.492 96.922 144.67 96.554 146.971C96.5478 147.008 96.554 147.045 96.554 147.082L96.6276 147.364C96.8361 147.935 96.9833 148.499 97.0815 149.076C97.0999 149.199 97.2042 149.291 97.333 149.303H97.3514C97.4679 149.303 97.5722 149.229 97.609 149.113C99.3756 143.228 103.044 139.123 108.509 136.908C111.496 135.699 114.668 135.086 117.925 135.086C126.887 135.086 136.48 139.712 144.258 147.781C146.141 149.739 147.552 152.138 148.92 154.457C149.196 154.924 149.466 155.384 149.742 155.844C151.797 159.262 154.429 162.318 156.968 165.109C161.569 170.172 166.482 173.301 171.984 174.676C173.775 175.124 175.229 175.332 176.566 175.332V175.32Z" fill="#DDF040"/>
<path d="M121.946 127.039C124.583 126.303 127.301 125.929 130.067 125.984C133.919 126.057 137.735 127.101 141.335 128.401C148.432 130.973 155.045 134.906 160.566 140.066C166.166 145.3 170.429 151.713 173.766 158.573C174.502 160.088 175.269 161.579 175.858 163.156C176.201 164.083 176.956 165.924 176.33 166.906C175.772 167.783 174.741 167.623 173.766 167.206C173.766 167.206 173.766 167.206 173.76 167.206C171.276 166.31 169.049 165.353 166.865 163.837C164.547 162.23 162.467 160.291 160.602 158.18C156.597 153.645 154.505 147.847 150.579 143.294C146.672 138.753 141.789 134.685 136.293 132.249C131.791 130.248 126.871 129.377 121.964 129.076C118.633 128.874 118.652 127.96 121.933 127.045L121.946 127.039Z" fill="#E3EEB8"/>
<path d="M137.452 122.932C138.912 122.417 140.434 122.079 142.005 121.955C144.192 121.781 146.406 122.097 148.51 122.555C152.659 123.46 156.599 125.078 159.98 127.373C163.409 129.701 166.138 132.695 168.363 135.965C168.854 136.688 169.362 137.396 169.772 138.158C170.012 138.605 170.529 139.491 170.222 140.019C169.949 140.491 169.357 140.468 168.784 140.311C168.784 140.311 168.784 140.311 168.78 140.311C167.328 139.996 166.019 139.637 164.708 138.993C163.315 138.311 162.042 137.449 160.882 136.489C158.39 134.426 156.923 131.621 154.475 129.545C152.039 127.473 149.073 125.693 145.839 124.768C143.189 124.008 140.358 123.839 137.562 123.956C135.664 124.037 135.63 123.576 137.445 122.935L137.452 122.932Z" fill="#E3EEB8"/>
<path d="M141.667 242.576C141.716 242.576 141.765 242.564 141.808 242.54C141.906 242.484 141.949 242.368 141.93 242.257C141.464 239.815 142.243 236.802 143.249 235.084C143.304 234.986 143.298 234.869 143.225 234.777C142.305 233.63 141.918 232.36 141.636 231.157C141.01 228.469 140.121 227.175 137.833 225.598C136.226 224.493 134.588 223.487 132.913 222.475C132.098 222.057 131.319 221.652 130.552 221.217C128.951 220.302 127.448 219.161 125.988 218.057L125.485 217.676C125.338 217.566 125.197 217.455 125.062 217.339L124.774 217.112C124.774 217.112 124.7 217.062 124.7 217.056C121.032 214.191 118.112 211.276 115.763 208.134L115.701 208.061C115.609 207.944 115.517 207.821 115.425 207.705L115.339 207.582C115.033 207.165 114.726 206.729 114.432 206.275C117.903 210.399 121.927 213.645 125.442 216.302C125.448 216.308 125.485 216.326 125.491 216.332C125.939 216.682 126.405 217.032 126.988 217.449C127.08 217.517 127.172 217.584 127.264 217.645L127.423 217.756C129.018 218.879 130.656 219.897 131.901 220.658L133.054 221.352C134.416 222.168 135.827 223.014 137.189 223.898C137.361 224.009 137.532 224.119 137.698 224.236L138.446 224.726C138.636 224.855 138.827 224.978 139.017 225.107C140.035 225.813 141.292 226.794 141.961 228.181C142.335 228.96 142.519 229.807 142.691 230.623C142.918 231.685 143.151 232.783 143.814 233.765C143.856 233.832 143.936 233.875 144.016 233.882C144.022 233.882 144.028 233.882 144.034 233.882C144.108 233.882 144.182 233.851 144.231 233.796C145.868 232.028 148.696 230.249 151.334 230.249C151.463 230.249 151.592 230.249 151.72 230.261H151.739C151.837 230.261 151.929 230.206 151.978 230.12C152.027 230.022 152.015 229.905 151.947 229.826C148.107 225.156 147.439 219.805 146.973 213.301C146.868 211.871 146.838 210.423 146.807 209.024C146.758 206.588 146.703 204.072 146.261 201.557C145.004 194.451 141.526 187.241 135.925 180.123C135.115 179.092 134.257 178.086 133.429 177.123C131.766 175.177 130.043 173.165 128.681 170.882C126.994 168.066 125.595 164.795 124.154 160.291C121.725 152.701 120.492 144.706 120.492 136.538C120.492 136.397 120.382 136.281 120.24 136.268C119.682 136.225 119.106 136.207 118.523 136.207C114.787 136.207 110.812 137.066 107.334 138.619C98.5321 142.552 97.2501 152.106 97.2624 157.45C97.6365 160.856 98.0966 164.814 98.7284 168.673C99.2743 172.005 100.109 175.484 101.427 179.964C102.648 184.093 104.28 188.143 105.862 192.058C106.292 193.126 106.733 194.218 107.169 195.316C102.654 188.321 99.4399 179.467 97.3544 168.305C96.422 163.31 95.9865 158.757 96.0233 154.382C96.0233 154.063 96.0294 153.744 96.0355 153.425C95.9681 151.719 95.8699 150.431 95.6982 149.246C95.6675 149.044 95.6368 148.841 95.6 148.645C95.5142 148.295 95.4037 147.97 95.2811 147.663C95.2259 147.565 95.2013 147.516 95.1891 147.473C93.0667 142.656 86.9388 142.141 84.4054 142.141H84.1355C77.8481 142.227 73.358 145.976 69.4322 150.026C66.4695 153.081 63.7766 156.579 61.4212 160.42C61.3905 160.469 61.3782 160.524 61.3844 160.586C62.556 175.576 67.0461 190.285 74.7382 204.299C78.345 210.871 81.7617 215.522 85.8162 219.394C90.1837 223.554 95.6123 227.255 102.403 230.703C108.273 233.685 114.726 236.011 121.572 237.612C124.54 238.306 127.663 238.809 130.846 239.109C133.588 239.367 136.416 239.631 139.17 241.024C140.004 241.447 140.777 242 141.489 242.54C141.538 242.576 141.593 242.595 141.648 242.595L141.667 242.576Z" fill="#DDF040"/>
<path d="M61.3894 160.574C61.3894 160.519 61.3956 160.463 61.4262 160.408C63.7817 156.567 66.4807 153.063 69.4373 150.014C73.3569 145.97 77.8532 142.215 84.1406 142.135H84.4105C86.95 142.135 93.0779 142.65 95.1941 147.467C95.2064 147.516 95.2309 147.565 95.2861 147.657C95.4088 147.964 95.5131 148.289 95.6051 148.639C95.6419 148.842 95.6787 149.038 95.7032 149.24C95.8689 150.431 95.9731 151.713 96.0406 153.419C96.0345 153.738 96.0283 154.057 96.0283 154.376C96.0283 155.002 96.0284 155.628 96.0468 156.266C94.7586 150.738 93.5993 148.639 91.7775 147.111C87.2689 143.344 78.6752 145.688 74.2403 149.75C69.0693 154.487 70.7929 163.912 71.4799 170.367C72.2528 177.681 74.5899 184.818 77.7489 191.426C81.0736 198.378 85.5023 204.778 90.6795 210.473C95.7155 216.007 101.831 220.462 108.327 224.132C116.639 228.82 132.845 237.017 134.544 230.384C134.912 228.942 133.477 227.218 132.655 226.199C131.336 224.555 129.778 223.101 128.22 221.683C124.478 218.272 119.988 214.829 117.51 210.307C119.522 212.639 121.889 214.866 124.705 217.063L124.779 217.118L125.067 217.345C125.208 217.455 125.349 217.572 125.49 217.682L125.993 218.063C127.453 219.167 128.956 220.315 130.557 221.223C131.324 221.659 132.103 222.064 132.918 222.481C134.593 223.493 136.237 224.5 137.838 225.604C140.12 227.181 141.009 228.476 141.641 231.163C141.923 232.366 142.31 233.636 143.23 234.784C143.297 234.87 143.31 234.992 143.254 235.091C142.248 236.809 141.469 239.822 141.935 242.264C141.954 242.374 141.905 242.485 141.813 242.546C141.77 242.571 141.721 242.583 141.672 242.583C141.617 242.583 141.555 242.564 141.512 242.528C140.801 241.988 140.028 241.435 139.194 241.012C136.439 239.613 133.605 239.355 130.87 239.097C127.68 238.797 124.558 238.3 121.595 237.6C114.749 235.999 108.303 233.673 102.426 230.691C95.6358 227.243 90.2071 223.542 85.8397 219.382C81.779 215.516 78.3623 210.859 74.7616 204.287C67.0696 190.273 62.5794 175.564 61.4078 160.574H61.3894Z" fill="#35683F"/>
<path d="M151.739 230.261H151.72C151.592 230.249 151.463 230.249 151.334 230.249C148.702 230.249 145.868 232.034 144.231 233.795C144.182 233.851 144.108 233.881 144.034 233.881C144.028 233.881 144.022 233.881 144.016 233.881C143.936 233.881 143.857 233.832 143.814 233.765C143.151 232.783 142.918 231.685 142.691 230.623C142.519 229.807 142.335 228.96 141.961 228.181C141.292 226.794 140.041 225.812 139.017 225.107C138.827 224.978 138.636 224.849 138.446 224.726L137.698 224.235C137.526 224.119 137.361 224.008 137.189 223.898C135.833 223.014 134.422 222.167 133.054 221.351L131.901 220.658C130.656 219.897 129.018 218.885 127.423 217.756L127.264 217.645C127.172 217.578 127.074 217.516 126.988 217.449C126.411 217.032 125.939 216.682 125.491 216.332C125.485 216.332 125.448 216.307 125.442 216.301C123.614 214.921 121.645 213.374 119.688 211.632C122.578 213.466 125.516 215.227 128.626 216.676C131.607 218.069 134.858 219.216 138.109 219.787C139.495 220.032 140.998 220.038 142.225 219.283C143.758 218.338 143.899 216.093 143.875 214.497C143.826 211.214 142.605 208.036 141.832 204.882C140.918 201.157 139.544 197.568 137.845 194.132C134.416 187.204 129.435 181.227 125.332 174.711C121.271 168.256 117.591 161.365 116.033 153.854C115.425 150.921 114.726 145.57 111.205 144.767C108.156 144.073 105.114 147.835 103.593 149.964C100.01 154.965 99.0719 161.463 99.0596 167.47C99.0596 168.728 99.1148 169.98 99.2007 171.232C99.0228 170.36 98.8695 169.514 98.7284 168.679C98.0966 164.819 97.6304 160.855 97.2624 157.456C97.244 152.112 98.5321 142.551 107.334 138.624C110.819 137.072 114.787 136.213 118.523 136.213C119.106 136.213 119.682 136.237 120.24 136.274C120.382 136.287 120.492 136.403 120.492 136.544C120.492 144.718 121.719 152.707 124.154 160.297C125.595 164.807 126.994 168.072 128.681 170.888C130.049 173.171 131.766 175.183 133.429 177.128C134.257 178.098 135.116 179.098 135.925 180.129C141.526 187.247 145.004 194.457 146.261 201.562C146.709 204.078 146.758 206.594 146.807 209.03C146.838 210.429 146.868 211.871 146.973 213.307C147.445 219.811 148.107 225.162 151.947 229.831C152.015 229.911 152.027 230.028 151.978 230.126C151.929 230.212 151.837 230.267 151.739 230.267V230.261Z" fill="#35683F"/>
<path d="M145.922 244.323C147.395 244.323 148.983 243.531 150.793 241.911C152.124 240.715 153.277 239.236 154.216 237.518C155.258 235.603 155.265 233.867 154.216 232.045C154.203 232.02 154.185 231.995 154.16 231.977C153.473 231.37 152.651 231.057 151.725 231.057C149.075 231.057 146.272 233.542 145.186 234.609C143.923 235.855 142.874 239.488 143.45 241.96C143.726 243.163 144.358 243.961 145.278 244.262C145.518 244.304 145.72 244.317 145.922 244.317V244.323Z" fill="#778C20"/>
<path d="M50.0206 220.999C51.1861 220.999 52.2043 219.913 52.9772 217.858C54.5843 213.562 54.2776 209.163 53.7685 205.426C53.6458 204.542 53.5231 203.653 53.4004 202.769C52.511 196.467 51.5848 189.945 52.4558 183.446C53.3023 177.096 55.3817 170.383 58.6389 163.492C59.3811 161.921 60.2031 160.375 61.16 158.749C61.1784 158.712 61.1907 158.675 61.1968 158.638C61.2091 158.509 61.2704 158.405 61.3686 158.344C61.4054 158.319 61.4299 158.295 61.4544 158.258C63.2946 155.202 65.4661 152.214 67.9136 149.385C70.9745 145.844 75.1333 141.586 80.1755 140.083C81.8317 139.586 83.678 139.328 85.4998 139.328C88.1252 139.328 90.5666 139.856 92.5601 140.843C92.5969 140.862 92.6399 140.874 92.6767 140.874C92.7626 140.874 92.8423 140.831 92.8975 140.758C92.9711 140.647 92.9588 140.5 92.8668 140.408C92.0387 139.598 91.229 138.941 90.3887 138.389C88.3706 137.057 85.9906 136.315 83.31 136.18C83.0401 136.168 82.7702 136.162 82.5003 136.162C77.7894 136.162 73.0048 138.236 68.6619 142.15C68.6128 142.193 68.4104 142.39 68.4104 142.39C64.9631 145.808 61.8102 150.091 59.0254 155.122C57.406 158.055 56.0687 161.16 54.8726 164.081C54.0936 165.977 53.4311 167.941 52.7932 169.837C52.5662 170.512 52.3331 171.193 52.1 171.88C52.8606 167.99 54.2592 163.842 56.265 159.503C57.7556 156.061 59.559 152.815 61.6139 149.857C64.2884 145.826 67.2143 142.482 70.3181 139.923C73.8881 136.972 78.3353 135.278 82.5248 135.278C83.2855 135.278 84.04 135.333 84.7699 135.438C86.1807 135.646 87.5547 136.051 88.8368 136.646C88.8736 136.665 88.9104 136.671 88.9472 136.671C89.0392 136.671 89.1312 136.622 89.1803 136.536C89.2477 136.419 89.2171 136.266 89.1067 136.18C87.1744 134.775 84.9478 133.584 82.6537 132.744C80.243 131.854 77.6483 131.461 74.2255 131.461C73.0907 131.461 71.9498 131.504 71.0787 131.541C70.7598 131.553 70.4531 131.56 70.1464 131.56C69.7599 131.56 69.3735 131.547 68.9932 131.535C68.0608 131.602 67.1591 131.67 66.2574 131.75C60.792 132.216 56.2405 133.376 52.4067 135.278C55.6148 133.186 59.5529 131.995 64.8588 131.48C64.9876 131.467 65.0919 131.363 65.098 131.234C65.1103 131.105 65.0244 130.983 64.8956 130.952C63.6013 130.627 62.3439 130.173 61.0373 129.571C60.6631 129.4 60.2951 129.228 59.9271 129.056C57.0011 127.694 54.2408 126.411 50.9284 126.006C50.1801 125.914 49.4011 125.865 48.6159 125.865C46.2175 125.865 43.6228 126.307 40.887 127.172C34.8634 129.081 29.0177 133.437 24.4171 139.444C19.7737 145.507 17.9273 152.766 16.8354 158.411C15.4124 165.781 15.6761 173.224 17.5961 179.937C19.4731 186.508 23.4357 192.62 30.0482 199.167C31.0971 200.21 32.1644 201.235 33.2256 202.266C34.7652 203.757 36.354 205.297 37.8813 206.85C37.9181 206.886 37.9549 206.923 37.9856 206.966L38.0838 207.07C38.139 207.126 38.2064 207.156 38.28 207.156C38.3352 207.156 38.3905 207.138 38.4334 207.107C38.5438 207.034 38.5806 206.892 38.5193 206.77C37.685 205.033 36.9551 203.291 36.354 201.591C33.7531 194.252 32.4588 188.208 32.3607 182.851C33.2563 188.901 34.4033 195.197 36.5625 201.29C37.4458 203.781 38.6051 206.365 40.0098 208.96C40.3104 209.513 40.6478 210.096 41.0956 210.844C41.6047 211.574 42.0893 212.305 42.58 213.022C43.1873 213.931 43.8252 214.876 44.4631 215.765C45.4323 217.109 46.3647 218.257 47.3093 219.275C47.3339 219.3 47.3646 219.324 47.4014 219.337C47.7449 219.49 48.0884 219.564 48.4135 219.564C49.6893 219.564 50.7321 218.373 51.2781 216.293C52.2472 212.611 51.4928 208.365 50.8241 204.616C50.7444 204.168 50.6647 203.732 50.5972 203.303C49.9715 199.64 49.6525 195.639 49.6035 190.718C49.5667 187.521 49.6157 183.913 50.4377 180.532C50.0819 184.361 49.8059 188.705 49.9408 193.215C50.0451 196.664 50.5542 200.088 51.0388 203.395C51.2781 204.996 51.5234 206.659 51.7197 208.304V208.39C52.1246 211.66 52.7809 217.14 49.9347 219.465C49.5544 219.778 49.1496 219.956 48.7263 219.999C48.6159 220.011 48.5239 220.091 48.4932 220.202C48.4687 220.312 48.5055 220.423 48.5975 220.49C49.0821 220.828 49.5605 220.999 50.0206 220.999Z" fill="#DDF040"/>
<path d="M37.0348 169.819C37.8322 163.247 39.8503 156.773 43.4633 151.196C47.1314 145.532 52.5723 140.813 58.6143 137.843C59.2216 137.549 62.4481 136.052 65.2882 135.315C71.3854 133.745 70.1647 136.279 67.2081 139.365C59.0253 147.925 51.7872 157.651 48.0331 173.666C47.1253 177.556 46.7879 181.551 46.4137 185.521C46.2727 187.006 45.9107 191.878 46.2542 198.505C46.7572 208.169 43.132 210.569 39.8197 199.929C37.182 191.448 35.9307 178.919 37.0348 169.819Z" fill="#E3EEB8"/>
<path d="M21.0868 162.186C21.2524 158.983 21.688 155.853 22.5835 152.761C24.3133 146.772 27.6257 141.127 32.3121 136.819C36.7102 132.775 42.7952 129.652 48.9415 129.401C56.1244 129.106 53.9407 131.223 50.0333 133.23C37.4402 139.703 27.2147 159.578 29.4107 177.514C29.7174 180.017 30.0977 182.441 30.5394 184.914C31.6128 190.903 30.0916 191.915 25.7548 184.846C21.9149 178.594 20.6758 170.028 21.0868 162.18V162.186Z" fill="#E3EEB8"/>
<path d="M41.2585 127.106C43.7121 126.4 46.2209 126.124 48.7113 126.241C48.7113 126.241 48.7482 126.241 48.7604 126.241C51.4962 126.112 54.0112 126.916 56.5445 127.953C56.5445 127.91 56.5384 127.867 56.5322 127.824C57.0414 128.149 57.6793 128.352 58.2252 128.474C58.2314 128.548 58.2375 128.622 58.2498 128.689C72.125 136.218 84.4728 125.67 95.7103 144.299C98.0167 135.236 106.065 129.407 114.99 127.112C123.718 124.854 130.104 116.932 139.839 118.442C139.832 118.436 139.826 118.423 139.82 118.417C140.55 118.448 141.28 118.503 142.004 118.583C142.016 118.601 142.035 118.614 142.047 118.632C160.498 121.847 172.024 130.646 178.201 146.183C180.992 153.614 179.937 161.585 181.924 169.144C184.979 183.135 164.583 174.98 159.627 169.795C151.714 163.708 148.236 153.915 141.341 147.061C140.753 156.627 134.766 164.432 132.226 173.421C140.464 182.681 147.426 193.1 148.34 205.783C148.868 212.754 147.831 220.418 151.426 226.732C152.83 228.99 155.91 230.843 156.149 233.696C156.578 238.826 151.407 245.097 146.359 245.821C139.826 245.379 140.452 240.102 128.951 240.182C87.7484 236.267 64.1323 201.893 60.4642 162.916C55.6489 171.605 52.7659 181.539 52.7107 191.118C52.6678 199.168 55.5937 207.158 54.6736 215.184C54.2749 218.663 52.355 226.621 47.3619 223.43C41.7615 218.736 38.8846 211.526 33.3885 206.636C27.9906 201.347 22.5129 196.346 18.7957 189.67C7.39248 167.985 16.1887 134.365 41.2524 127.112L41.2585 127.106ZM144.372 147.729C151.996 157.964 158.406 171.317 171.969 174.55C174.747 175.219 180.796 176.403 180.796 172.145C169.276 178.349 152.984 157.504 148.96 148.766C154.278 155.946 159.382 163.665 166.755 168.911C170.122 170.727 177.072 174.458 180.335 171.317C180.648 168.046 179.09 164.69 178.029 161.615C173.337 151.006 166.516 140.335 156.241 134.408C167.203 139.372 174.201 150.632 178.961 161.388C179.931 140.47 162.51 121.393 141.617 120.418C135.44 119.473 129.49 120.884 124.522 124.682C126.558 124.302 128.626 124.179 130.613 124.388C127.877 124.584 124.859 125.02 122.16 125.952C126.982 124.995 133.705 124.682 137.667 127.456C125.62 124.615 110.929 127.554 101.875 136.23C113.352 129.781 128.969 130.904 139.661 138.476C141.857 140.231 145.255 142.827 146.077 145.128C144.108 142.992 141.979 140.998 139.642 139.28C128.908 129.965 94.962 129.499 97.2806 149.184C103.801 127.916 132.864 133.678 144.384 147.742L144.372 147.729ZM135.158 161.91C137.71 156.768 139.342 151.534 139.888 145.815C139.348 145.367 138.802 144.937 138.244 144.514C137.931 148.705 137.158 153.276 135.189 156.884C136.121 152.614 137.238 147.975 136.9 143.526C132.423 140.36 127.448 137.678 122.025 136.691C122.289 148.766 124.51 161.352 131.006 171.722C131.999 168.298 133.582 165.125 135.152 161.916L135.158 161.91ZM145.145 244.22C150.033 244.299 156.456 237.046 153.769 232.383C151.144 230.057 147.181 233.015 145.157 235.009C143.384 236.758 142.163 243.226 145.145 244.22ZM75.1797 204.126C84.0863 222.173 102.807 232.843 121.841 237.304C128.454 239.305 136.189 237.752 141.863 242.274C141.403 239.851 142.114 236.795 143.218 234.917C142.335 233.819 141.906 232.61 141.581 231.193C140.593 225.873 134.747 223.977 130.625 221.418C123.577 216.871 116.572 211.066 112.83 203.574C118.032 210.397 124.927 215.901 132.245 220.393C139.452 224.829 141.973 224.964 144.237 233.58C146.101 231.567 149.205 229.769 151.941 229.959C145.39 221.995 147.61 211.158 146.2 201.568C139.569 173.599 120.811 176.956 120.424 136.5C85.1414 135.212 99.9612 177.569 108.316 196.984C97.7652 182.938 96.8083 164.315 95.146 147.496C93.4223 143.581 88.6132 142.311 84.3562 142.366C73.8854 142.876 67.3036 152.503 61.8689 160.517C63.065 175.87 67.8005 190.651 75.192 204.126H75.1797ZM17.1579 181.527C20.274 192.94 29.5793 200.5 37.5842 208.55C33.9038 200.322 30.8613 190.565 31.5238 181.625C32.9714 192.259 34.922 203.089 40.6328 212.367C50.3491 229.505 52.2323 216.767 49.6376 205.01C48.6929 197.064 47.4477 187.534 50.2019 180.232C49.7051 185.141 49.3677 189.927 49.5149 194.867C48.7972 201.696 55.8146 218.65 48.0611 221.927C53.7965 224.283 53.4775 210.483 52.815 207.121C51.8152 199.77 50.5086 192.504 51.5023 185.074C53.9989 167.488 69.7572 133.408 91.9931 142.256C75.6336 128.419 59.4214 151.577 54.4283 165.843C53.1279 168.997 52.1832 172.268 50.9993 175.458C50.9748 171.157 53.4162 165.481 55.3238 161.051C60.8567 148.772 72.7997 131.696 88.2575 138.065C77.7683 130.561 60.9242 132.543 49.975 138.194C52.8028 134.672 59.311 133.42 64.1385 132.874C31.9164 114.594 8.9076 152.577 17.1579 181.527Z" fill="#3D0801"/>
<path d="M131.15 169.949C131.249 169.932 131.33 169.862 131.353 169.769C132.261 166.649 133.716 163.674 135.124 160.799L135.27 160.502C137.882 155.17 139.302 150.35 139.739 145.344C139.739 145.297 139.75 145.257 139.768 145.204C139.803 145.105 139.768 144.989 139.686 144.925L139.611 144.861C139.436 144.715 139.262 144.576 139.087 144.436C138.767 144.18 138.447 143.93 138.121 143.685C138.074 143.65 138.022 143.633 137.964 143.633C137.929 143.633 137.894 143.638 137.859 143.656C137.772 143.697 137.714 143.778 137.714 143.877C137.527 147.16 136.905 150.292 135.863 153.226C136.626 149.832 137.172 146.328 136.951 142.928C136.946 142.853 136.905 142.783 136.847 142.736C132.733 139.785 128.572 137.719 124.487 136.601C123.899 136.438 123.277 136.31 122.625 136.205C122.613 136.205 122.602 136.205 122.584 136.205C122.526 136.205 122.462 136.228 122.415 136.263C122.357 136.316 122.328 136.386 122.328 136.461C122.34 142.655 123.16 148.813 124.825 155.28C126.355 161.241 128.345 166.003 130.894 169.839C130.94 169.909 131.022 169.949 131.103 169.949C131.115 169.949 131.127 169.949 131.144 169.949H131.15Z" fill="#35683F"/>
</svg>
