<svg width="180" height="243" viewBox="0 0 180 243" fill="none" xmlns="http://www.w3.org/2000/svg">
<g id="Group 1533210691">
<g id="Group 1533210680">
<path id="Rectangle 22554" d="M57.4766 92.4727H114.307V143.772L146.409 224.736L140.336 232.224L127.104 228.974L57.4766 143.772V92.4727Z" fill="#FFE9BB"/>
<g id="Group 1533210678">
<g id="Group 1533210282">
<path id="Vector 1326" d="M156.387 135.784C151.047 120.462 150.002 118.604 141.993 114.31C135.773 114.31 127.879 124.366 124.811 129.858L123.039 133.261L110.273 136.963C110.467 130.153 110.553 116.578 111.76 113.328C112.062 108.322 113.147 100.845 121.409 97.0467C135.097 91.2567 152.066 98.0102 160.183 105.971C169.817 115.421 171.092 142.299 171.208 145.665C171.324 149.032 170.882 153.418 167.722 157.709C163.427 154.226 161.726 151.106 156.387 135.784Z" fill="#FF90C6"/>
<path id="Vector" d="M170.231 143.217C169.5 136.036 167.819 128.963 164.724 122.434C162.306 117.326 158.389 111.626 152.338 110.804C148.197 110.241 143.959 111.644 140.265 113.373C130.877 117.762 123.533 126.557 119.609 134.887C120.679 134.585 121.761 134.355 122.844 134.21C122.946 134.198 123.031 134.12 123.061 134.023C123.762 131.677 125.086 129.277 126.996 126.896C130.829 122.114 136.112 118.015 141.873 115.356C144.273 114.249 147.078 113.065 149.956 113.065C150.065 113.065 150.173 113.065 150.282 113.065C151.896 113.113 153.468 113.494 154.961 114.195L155.076 114.249C155.203 114.31 155.33 114.376 155.457 114.443C156.436 114.939 157.355 115.591 158.189 116.377C158.365 116.54 158.54 116.716 158.709 116.891L158.806 116.994C163.461 121.763 165.957 128.927 167.227 134.095L167.311 134.434C167.348 134.573 167.529 135.389 167.529 135.389C167.577 135.601 167.62 135.812 167.662 136.024L167.777 136.592C167.807 136.743 167.879 137.13 167.879 137.13C167.879 137.13 167.964 137.602 168 137.795L168.061 138.164C168.109 138.442 168.152 138.726 168.194 139.004L168.218 139.191C168.829 143.411 168.907 147.679 168.46 151.644L168.436 151.137C168.339 149.873 168.297 148.61 168.26 147.098C168.103 143.181 167.91 138.309 166.664 133.709C166.556 133.316 166.447 132.923 166.326 132.536C165.316 129.314 164.023 125.56 162.028 122.126C160.613 119.684 158.328 116.25 154.81 114.588C154.665 114.527 154.52 114.461 154.369 114.407C153.389 114.05 152.344 113.869 151.255 113.869C149.436 113.869 147.495 114.346 145.15 115.368C144.098 115.827 143.143 116.262 142.23 116.71C142.127 116.758 142.067 116.867 142.085 116.982C142.097 117.097 142.182 117.187 142.297 117.211C150.149 118.85 154.375 132.203 156.406 138.617L156.454 138.756C156.684 139.488 156.914 140.255 157.155 141.041C158.806 146.506 160.68 152.702 165.05 156.16C165.782 156.74 166.677 157.381 167.553 157.689C168.962 156.323 169.693 154.153 170.074 152.346C170.703 149.365 170.545 146.228 170.237 143.224L170.231 143.217Z" fill="#FF90C6"/>
<path id="Vector_2" d="M165.758 132.457C165.759 132.457 165.759 132.457 165.759 132.458L165.757 132.458C165.87 132.865 165.977 133.27 166.079 133.673C166.08 133.676 166.081 133.679 166.082 133.682L166.107 133.676C166.118 133.719 166.13 133.762 166.141 133.805L165.758 132.457ZM165.758 132.457C165.753 132.44 165.748 132.424 165.743 132.407M170.066 139.57C167.33 121.78 157.404 91.1186 121.388 102.831C112.827 107.684 112.299 119.234 111.847 129.124M121.079 101.88L120.983 101.911L120.895 101.961C115.331 105.116 113.007 110.866 111.926 116.959C112.11 114.595 112.345 112.503 112.657 110.977L112.669 110.918L112.674 110.857C113.192 104.414 116.338 100.19 120.844 97.7503C125.4 95.2829 131.425 94.6038 137.663 95.4962C143.89 96.3871 150.231 98.8318 155.362 102.489C160.496 106.148 164.36 110.974 165.767 116.611L165.785 116.68L165.812 116.747C167.147 120.014 168.224 124.643 168.988 129.638C168.165 126.642 167.124 123.565 165.807 120.572C162.65 113.396 157.866 106.62 150.607 102.695C143.321 98.7545 133.704 97.7743 121.079 101.88ZM151.469 125.773C149.571 122.163 147.06 118.696 143.775 117.016C143.999 116.916 144.225 116.817 144.452 116.718L144.453 116.717C147.239 115.498 150.056 114.821 152.704 115.788L152.712 115.791L152.72 115.793C152.829 115.831 152.94 115.879 153.09 115.945C155.924 117.288 158.018 120.057 159.682 122.928C161.494 126.056 162.752 129.522 163.849 133.051L163.849 133.053C163.954 133.388 164.053 133.718 164.141 134.048V134.069L164.176 134.197C165.318 138.43 165.54 142.765 165.715 147.243C165.745 148.588 165.788 149.945 165.891 151.302C165.895 151.39 165.899 151.474 165.903 151.55L165.904 151.553C165.908 151.636 165.912 151.707 165.915 151.777L165.915 151.788L165.916 151.799C165.936 152.147 165.979 152.529 166.017 152.876C166.036 153.048 166.054 153.212 166.068 153.357C166.12 153.978 166.625 154.276 166.965 154.339C167.164 154.375 167.436 154.367 167.703 154.215C167.997 154.046 168.172 153.762 168.224 153.469L168.227 153.456L168.228 153.443C168.926 148.779 168.869 143.869 168.187 139.135L168.184 139.117L168.181 139.099C168.177 139.077 168.174 139.055 168.168 138.991L168.166 138.967L168.162 138.944C168.12 138.659 168.076 138.372 168.026 138.081L168.024 138.074L168.023 138.066C168.003 137.963 167.988 137.861 167.97 137.738L167.967 137.715L167.963 137.693C167.943 137.589 167.925 137.484 167.905 137.371L167.904 137.368C167.885 137.258 167.864 137.142 167.842 137.024L167.842 137.024L167.84 137.014C167.824 136.932 167.809 136.85 167.792 136.758L167.791 136.755C167.776 136.669 167.759 136.576 167.74 136.481C167.711 136.322 167.678 136.167 167.648 136.029C167.643 136.006 167.638 135.984 167.633 135.962L167.633 135.959C167.586 135.731 167.536 135.489 167.48 135.246C167.456 135.132 167.43 135.012 167.396 134.883C167.385 134.836 167.373 134.78 167.359 134.719C167.328 134.58 167.291 134.414 167.253 134.269C167.242 134.219 167.23 134.172 167.222 134.138L167.221 134.134C167.216 134.116 167.213 134.101 167.209 134.088C167.206 134.062 167.201 134.035 167.194 134.006C167.187 133.966 167.177 133.932 167.169 133.902C167.167 133.896 167.165 133.891 167.163 133.885C165.669 127.816 163.03 120.973 158.453 116.29L158.453 116.29L158.445 116.281L158.445 116.281L158.445 116.281L158.444 116.28L158.441 116.278L158.438 116.275C158.243 116.074 158.024 115.849 157.802 115.64L157.8 115.638C156.887 114.783 155.877 114.065 154.784 113.508C154.648 113.437 154.506 113.366 154.37 113.301L154.352 113.292L154.334 113.284L154.27 113.257L154.222 113.237C152.631 112.492 150.9 112.057 149.082 111.998L149.08 111.998C145.831 111.9 142.786 113.17 140.126 114.392L140.124 114.393C134.282 117.089 128.862 121.228 124.829 126.263L124.829 126.263C123.186 128.316 121.744 130.639 120.871 133.202C119.62 133.44 117.515 133.959 115.477 134.504C114.449 134.778 113.41 135.067 112.477 135.338C112.652 133.402 112.748 131.308 112.846 129.165C112.866 128.732 112.886 128.296 112.906 127.86C113.058 124.668 113.25 121.39 113.736 118.263C114.708 112.014 116.811 106.624 121.795 103.75C133.98 99.8088 142.977 100.842 149.656 104.454C156.381 108.091 160.919 114.429 163.977 121.378C167.032 128.322 168.569 135.788 169.339 141.539C169.723 144.411 169.915 146.844 170.011 148.558C170.059 149.414 170.083 150.09 170.095 150.55C170.101 150.78 170.104 150.955 170.105 151.073C170.106 151.13 170.106 151.173 170.107 151.202C170.043 151.859 169.773 152.572 169.389 153.335C169.195 153.718 168.983 154.096 168.767 154.474C168.735 154.53 168.703 154.586 168.671 154.642C168.49 154.959 168.306 155.28 168.146 155.584L168.105 155.66L168.079 155.742C167.892 156.321 167.681 156.53 167.563 156.606C167.462 156.672 167.308 156.717 167.023 156.662C166.365 156.535 165.5 155.978 164.574 155.247C162.305 153.453 160.717 150.753 159.464 147.708C158.537 145.454 157.825 143.099 157.146 140.852C156.904 140.051 156.666 139.263 156.424 138.499L156.375 138.342C155.38 135.199 153.802 130.21 151.469 125.773ZM168.06 153.176C168.06 153.173 168.06 153.17 168.059 153.167C168.06 153.172 168.06 153.177 168.061 153.182L168.06 153.176ZM166.202 134.165C166.182 134.083 166.162 134.001 166.141 133.918L166.968 137.816C166.952 137.726 166.936 137.635 166.92 137.544C166.9 137.433 166.881 137.321 166.86 137.21C166.842 137.119 166.825 137.029 166.808 136.938C166.792 136.848 166.775 136.758 166.757 136.667C166.732 136.524 166.702 136.385 166.671 136.243C166.666 136.217 166.66 136.192 166.655 136.167L166.654 136.166C166.606 135.931 166.558 135.696 166.504 135.461C166.48 135.347 166.456 135.238 166.426 135.124C166.408 135.051 166.392 134.978 166.376 134.904C166.346 134.77 166.316 134.635 166.281 134.503C166.272 134.461 166.261 134.418 166.251 134.376C166.24 134.334 166.23 134.292 166.221 134.25C166.221 134.238 166.221 134.225 166.215 134.213C166.215 134.195 166.208 134.183 166.202 134.165ZM165.141 133.918V133.936L164.783 132.689C164.79 132.711 164.797 132.733 164.804 132.754C164.924 133.14 165.039 133.526 165.141 133.918Z" fill="#FF90C6" stroke="#3D0801" stroke-width="2"/>
</g>
<path id="Vector_3" d="M174.258 174.047C174.977 174.047 175.666 173.98 176.307 173.853C177.921 173.533 178.749 172.493 178.773 170.776C178.773 170.662 178.701 170.559 178.598 170.522C178.568 170.51 178.538 170.504 178.513 170.504C178.435 170.504 178.356 170.541 178.302 170.607C177.988 171.012 177.552 171.32 176.996 171.52C176.561 171.683 176.065 171.756 175.485 171.756C174.687 171.756 173.859 171.611 173.079 171.459C171.247 171.103 169.397 170.535 167.572 169.755C164.005 168.231 161.273 165.711 159.296 163.685C158.746 163.16 158.22 162.622 157.712 162.096L157.537 161.914C156.781 161.14 156.038 160.264 155.192 159.158C153.819 157.519 152.495 155.785 151.256 153.989C150.416 152.841 149.69 151.807 149.05 150.822C150.38 152.635 151.782 154.497 153.348 156.558C154.013 157.386 154.799 158.36 155.639 159.315L155.881 159.587C157.126 161.008 158.42 162.476 159.786 163.849C160.3 164.308 160.838 164.798 161.339 165.318C162.464 166.327 163.504 167.131 164.531 167.796C167.391 169.646 171.03 170.927 174.524 171.326C174.868 171.369 175.177 171.387 175.467 171.387C176.833 171.387 177.782 170.946 178.284 170.075C178.435 169.815 178.538 169.537 178.604 169.223C178.61 169.187 178.61 169.156 178.604 169.12C178.441 168.28 178.187 167.433 177.963 166.684C177.855 166.315 177.752 165.971 177.667 165.662C177.486 164.973 177.341 164.211 177.22 163.323C177.22 163.305 177.214 163.287 177.208 163.268C176.863 162.295 176.47 161.316 176.017 160.276C174.354 156.468 172.438 152.835 170.341 149.473C167.318 144.643 163.745 140.454 159.961 137.238C163.727 140.097 167.197 143.972 170.467 148.954C172.468 152.006 174.336 155.519 176.349 160.016L176.458 160.258C176.5 160.355 176.597 160.415 176.7 160.415C176.718 160.415 176.742 160.415 176.76 160.409C176.887 160.379 176.972 160.264 176.966 160.137C176.942 159.611 176.924 159.079 176.906 158.547C176.863 157.368 176.827 156.147 176.718 154.962C176.343 150.707 175.249 146.56 173.466 142.624C169.736 134.397 163.02 127.554 154.557 123.353C150.265 121.225 145.338 119.931 139.922 119.52C138.519 119.411 137.02 119.314 135.527 119.314C134.136 119.314 132.891 119.399 131.724 119.574C129.083 119.973 126.749 121.358 124.585 122.742C124.071 123.068 123.527 123.401 122.917 123.758C122.808 123.824 122.753 123.957 122.802 124.078C122.838 124.181 122.941 124.253 123.05 124.253C123.068 124.253 123.086 124.253 123.098 124.253C123.388 124.199 123.678 124.151 123.963 124.108C123.201 124.265 122.421 124.459 121.623 124.683C121.327 124.767 121.031 124.852 120.74 124.942C120.728 124.942 120.662 124.979 120.65 124.985C120.529 125.045 120.45 125.196 120.499 125.323C120.535 125.432 120.626 125.511 120.734 125.511C120.747 125.511 120.765 125.511 120.783 125.511C121.738 125.317 122.469 125.19 123.152 125.1C124.458 124.93 125.764 124.84 127.021 124.84C129.947 124.84 132.565 125.317 134.68 126.224C134.378 126.164 134.076 126.109 133.774 126.049C132.383 125.783 130.945 125.505 129.5 125.372C128.732 125.299 127.922 125.263 127.1 125.263C125.843 125.263 124.531 125.341 123.092 125.511C121.236 125.722 119.38 126.212 117.585 126.677C116.841 126.871 116.098 127.07 115.354 127.246C114.242 127.639 113.13 127.995 111.927 128.34C110.313 128.805 108.638 129.488 106.813 130.419C104.395 131.652 102.285 133.26 100.538 135.189C100.447 135.286 100.447 135.437 100.532 135.539C100.586 135.6 100.659 135.636 100.737 135.636C100.786 135.636 100.834 135.624 100.876 135.6C101.596 135.165 102.297 134.796 102.883 134.494C106.111 132.831 109.835 131.973 114.943 131.713C115.022 131.713 115.378 131.701 115.378 131.701C116.267 131.64 117.005 131.61 117.694 131.604H118.026C121.254 131.604 124.47 132.045 127.577 132.916L127.862 132.988C128.043 133.037 128.224 133.079 128.406 133.134C129.996 133.593 131.604 134.24 133.326 135.116C133.913 135.407 134.499 135.715 135.067 136.041C135.243 136.144 135.424 136.241 135.599 136.343C135.599 136.343 135.908 136.525 135.992 136.579C136.458 136.857 136.899 137.154 137.322 137.45C137.407 137.51 137.721 137.734 137.721 137.734L137.8 137.794C139.22 138.822 140.526 139.952 141.711 141.174C140.514 140.061 139.317 139.07 138.096 138.169C137.709 137.921 137.346 137.673 136.978 137.432C136.21 136.918 135.412 136.386 134.596 135.932C133.87 135.527 133.072 135.141 132.16 134.742L131.954 134.651C131.803 134.584 131.652 134.518 131.501 134.457C131.386 134.409 131.271 134.367 131.156 134.324L130.987 134.258C127.886 133.079 124.295 132.305 120.62 132.021C119.634 131.955 118.594 131.925 117.537 131.925C117.138 131.925 116.745 131.925 116.352 131.937C112.181 132.106 107.985 133.043 104.207 134.633C102.303 135.437 100.616 136.495 99.1897 137.77C98.6094 138.29 98.0472 138.919 97.4608 139.692C96.4513 141.699 95.7682 143.845 95.4055 146.112C95.3994 146.149 95.4055 146.185 95.4055 146.221L95.478 146.499C95.6835 147.061 95.8286 147.618 95.9254 148.186C95.9435 148.307 96.0463 148.397 96.1732 148.41H96.1913C96.3062 148.41 96.409 148.337 96.4452 148.222C98.1862 142.425 101.801 138.381 107.187 136.198C110.131 135.008 113.257 134.403 116.467 134.403C125.298 134.403 134.753 138.961 142.418 146.91C144.274 148.839 145.664 151.202 147.012 153.487C147.285 153.947 147.551 154.4 147.823 154.854C149.848 158.221 152.441 161.231 154.944 163.982C159.477 168.969 164.32 172.052 169.742 173.406C171.507 173.847 172.94 174.053 174.258 174.053V174.047Z" fill="#FF90C6"/>
<path id="Vector 1326_2" d="M16.9775 127.51C22.3171 112.188 23.3618 110.33 31.3713 106.036C37.5911 106.036 44.9969 116.547 48.065 122.039L49.3632 134.01L62.0156 129.367C61.8222 122.557 61.1336 108.125 59.9264 104.875C58.4174 100.812 57.0773 89.917 48.6553 87.8674C35.0039 82.1491 19.0866 89.4598 10.9699 97.4208C1.33551 106.87 1.03865 134.011 0.922569 137.377C0.806488 140.743 1.13571 145.842 5.64209 149.435C9.93698 145.952 11.6379 142.832 16.9775 127.51Z" fill="#FF90C6"/>
<path id="Vector_4" d="M129.502 169.717C129.605 169.699 129.689 169.627 129.714 169.53C130.657 166.29 132.168 163.201 133.631 160.214L133.782 159.906C136.496 154.369 137.971 149.363 138.425 144.165C138.425 144.116 138.437 144.074 138.455 144.02C138.491 143.917 138.455 143.796 138.37 143.729L138.292 143.663C138.11 143.512 137.929 143.367 137.747 143.222C137.415 142.956 137.083 142.696 136.744 142.442C136.696 142.406 136.641 142.387 136.581 142.387C136.544 142.387 136.508 142.393 136.472 142.412C136.381 142.454 136.321 142.538 136.321 142.641C136.127 146.051 135.481 149.303 134.398 152.35C135.19 148.825 135.759 145.186 135.529 141.656C135.523 141.577 135.481 141.505 135.42 141.456C131.146 138.392 126.824 136.246 122.58 135.085C121.97 134.916 121.323 134.783 120.646 134.674C120.634 134.674 120.622 134.674 120.604 134.674C120.543 134.674 120.477 134.698 120.428 134.734C120.368 134.789 120.338 134.861 120.338 134.94C120.35 141.372 121.202 147.768 122.931 154.484C124.521 160.674 126.588 165.619 129.236 169.602C129.284 169.675 129.369 169.717 129.454 169.717C129.466 169.717 129.478 169.717 129.496 169.717H129.502Z" fill="#B523B2"/>
<path id="Vector_5" d="M140.137 239.233C140.185 239.233 140.234 239.221 140.276 239.197C140.373 239.143 140.415 239.028 140.397 238.919C139.937 236.513 140.705 233.545 141.697 231.852C141.751 231.755 141.745 231.641 141.672 231.55C140.766 230.419 140.385 229.168 140.107 227.983C139.49 225.335 138.614 224.06 136.359 222.506C134.775 221.418 133.161 220.427 131.511 219.429C130.707 219.018 129.939 218.619 129.183 218.19C127.605 217.289 126.124 216.165 124.686 215.077L124.19 214.702C124.045 214.593 123.906 214.485 123.773 214.37L123.489 214.146C123.489 214.146 123.416 214.098 123.416 214.092C119.801 211.269 116.924 208.397 114.608 205.302L114.548 205.23C114.457 205.115 114.367 204.994 114.276 204.879L114.191 204.758C113.889 204.347 113.587 203.918 113.297 203.47C116.718 207.533 120.684 210.731 124.148 213.348C124.154 213.354 124.19 213.372 124.196 213.378C124.637 213.723 125.097 214.067 125.671 214.479C125.762 214.545 125.852 214.612 125.943 214.672L126.1 214.781C127.672 215.887 129.286 216.891 130.513 217.64L131.65 218.323C132.992 219.127 134.382 219.961 135.724 220.832C135.893 220.941 136.063 221.05 136.226 221.164L136.963 221.648C137.151 221.775 137.338 221.896 137.525 222.023C138.529 222.718 139.768 223.685 140.427 225.051C140.796 225.819 140.977 226.653 141.146 227.457C141.37 228.503 141.6 229.585 142.253 230.552C142.295 230.619 142.374 230.661 142.452 230.667C142.458 230.667 142.464 230.667 142.47 230.667C142.543 230.667 142.615 230.637 142.664 230.583C144.278 228.842 147.065 227.089 149.664 227.089C149.791 227.089 149.918 227.089 150.045 227.101H150.063C150.16 227.101 150.25 227.046 150.299 226.962C150.347 226.865 150.335 226.75 150.268 226.671C146.484 222.071 145.825 216.8 145.366 210.392C145.263 208.984 145.233 207.557 145.203 206.179C145.154 203.779 145.1 201.3 144.665 198.822C143.425 191.821 139.998 184.718 134.479 177.706C133.681 176.691 132.834 175.699 132.018 174.75C130.38 172.834 128.681 170.851 127.339 168.602C125.677 165.828 124.299 162.606 122.878 158.168C120.484 150.691 119.269 142.814 119.269 134.768C119.269 134.629 119.16 134.514 119.021 134.502C118.471 134.46 117.903 134.441 117.329 134.441C113.647 134.441 109.73 135.288 106.302 136.817C97.6278 140.692 96.3643 150.104 96.3764 155.37C96.7452 158.725 97.1986 162.624 97.8212 166.426C98.3592 169.709 99.1814 173.136 100.481 177.549C101.684 181.617 103.292 185.607 104.852 189.464C105.275 190.516 105.71 191.592 106.139 192.674C101.69 185.782 98.5224 177.059 96.4671 166.063C95.5483 161.143 95.1191 156.657 95.1553 152.347C95.1553 152.033 95.1614 151.718 95.1674 151.404C95.1009 149.723 95.0042 148.454 94.8349 147.287C94.8047 147.088 94.7745 146.888 94.7382 146.695C94.6536 146.35 94.5448 146.03 94.4239 145.728C94.3695 145.631 94.3453 145.583 94.3332 145.54C92.2416 140.795 86.2025 140.287 83.7059 140.287H83.4399C77.2437 140.372 72.8187 144.065 68.9498 148.055C66.03 151.065 63.3762 154.511 61.0549 158.295C61.0247 158.344 61.0126 158.398 61.0187 158.459C62.1733 173.227 66.5983 187.717 74.1788 201.524C77.7334 207.998 81.1005 212.586 85.0963 216.395C89.4004 220.493 94.7503 224.139 101.442 227.536C107.227 230.474 113.587 232.765 120.333 234.343C123.259 235.026 126.336 235.522 129.473 235.818C132.176 236.072 134.962 236.332 137.677 237.704C138.499 238.121 139.26 238.665 139.962 239.197C140.01 239.233 140.064 239.251 140.119 239.251L140.137 239.233Z" fill="#FF08C9"/>
<path id="Vector_6" d="M48.9554 219.637C50.104 219.637 51.1075 218.567 51.8692 216.542C53.453 212.311 53.1507 207.976 52.649 204.295C52.5281 203.424 52.4072 202.548 52.2863 201.677C51.4098 195.469 50.4969 189.043 51.3554 182.641C52.1896 176.385 54.2389 169.771 57.4488 162.983C58.1803 161.435 58.9903 159.912 59.9334 158.31C59.9515 158.273 59.9636 158.237 59.9696 158.201C59.9817 158.074 60.0422 157.971 60.1389 157.911C60.1752 157.887 60.1993 157.862 60.2235 157.826C62.037 154.816 64.177 151.872 66.589 149.085C69.6055 145.597 73.7041 141.402 78.6732 139.921C80.3053 139.431 82.1249 139.177 83.9203 139.177C86.5076 139.177 88.9136 139.697 90.8782 140.67C90.9145 140.688 90.9568 140.7 90.9931 140.7C91.0777 140.7 91.1563 140.658 91.2107 140.586C91.2832 140.477 91.2711 140.332 91.1805 140.241C90.3644 139.443 89.5664 138.796 88.7382 138.252C86.7494 136.94 84.4039 136.209 81.7622 136.076C81.4962 136.064 81.2302 136.058 80.9642 136.058C76.3216 136.058 71.6064 138.101 67.3265 141.958C67.2781 142 67.0787 142.194 67.0787 142.194C63.6813 145.561 60.5741 149.78 57.8297 154.737C56.2337 157.627 54.9159 160.685 53.7371 163.563C52.9694 165.431 52.3165 167.365 51.6878 169.233C51.4642 169.898 51.2344 170.569 51.0047 171.246C51.7543 167.414 53.1326 163.327 55.1094 159.053C56.5783 155.662 58.3556 152.464 60.3807 149.55C63.0163 145.579 65.8999 142.284 68.9587 139.763C72.4769 136.856 76.8596 135.187 80.9884 135.187C81.738 135.187 82.4816 135.242 83.2009 135.344C84.5913 135.55 85.9454 135.949 87.2088 136.535C87.2451 136.553 87.2814 136.559 87.3176 136.559C87.4083 136.559 87.499 136.511 87.5474 136.426C87.6139 136.312 87.5836 136.161 87.4748 136.076C85.5706 134.692 83.3762 133.519 81.1154 132.691C78.7397 131.814 76.1826 131.427 72.8094 131.427C71.6911 131.427 70.5667 131.47 69.7083 131.506C69.3939 131.518 69.0917 131.524 68.7894 131.524C68.4086 131.524 68.0277 131.512 67.6529 131.5C66.7341 131.566 65.8455 131.633 64.9568 131.711C59.5706 132.171 55.0852 133.313 51.307 135.187C54.4686 133.126 58.3495 131.953 63.5785 131.445C63.7055 131.433 63.8083 131.33 63.8143 131.204C63.8264 131.077 63.7418 130.956 63.6148 130.925C62.3393 130.605 61.1 130.158 59.8124 129.565C59.4437 129.396 59.081 129.227 58.7183 129.058C55.8348 127.715 53.1145 126.452 49.8501 126.053C49.1126 125.962 48.3449 125.914 47.5711 125.914C45.2075 125.914 42.6504 126.349 39.9543 127.202C34.018 129.082 28.257 133.374 23.7232 139.292C19.1471 145.264 17.3275 152.416 16.2515 157.977C14.849 165.237 15.1089 172.57 17.001 179.183C18.8508 185.658 22.756 191.679 29.2726 198.129C30.3063 199.156 31.3582 200.166 32.404 201.182C33.9213 202.651 35.487 204.168 36.9922 205.697C37.0285 205.734 37.0647 205.77 37.095 205.812L37.1917 205.915C37.2461 205.969 37.3126 206 37.3851 206C37.4395 206 37.4939 205.981 37.5362 205.951C37.6451 205.879 37.6813 205.74 37.6209 205.619C36.7987 203.908 36.0794 202.191 35.487 200.517C32.9238 193.287 31.6483 187.332 31.5516 182.055C32.4342 188.015 33.5646 194.218 35.6925 200.22C36.563 202.675 37.7055 205.22 39.0898 207.777C39.386 208.321 39.7185 208.895 40.1598 209.633C40.6616 210.352 41.1391 211.071 41.6227 211.779C42.2212 212.673 42.8499 213.604 43.4786 214.481C44.4337 215.805 45.3526 216.935 46.2835 217.939C46.3077 217.963 46.3379 217.987 46.3742 217.999C46.7127 218.15 47.0512 218.223 47.3716 218.223C48.629 218.223 49.6567 217.05 50.1947 215.001C51.1498 211.374 50.4063 207.19 49.7474 203.497C49.6688 203.056 49.5902 202.626 49.5237 202.203C48.9071 198.594 48.5927 194.653 48.5444 189.805C48.5081 186.655 48.5565 183.101 49.3665 179.77C49.0159 183.542 48.7439 187.822 48.8769 192.265C48.9796 195.662 49.4814 199.036 49.9589 202.294C50.1947 203.872 50.4365 205.51 50.6299 207.13V207.215C51.0289 210.437 51.6757 215.835 48.8708 218.126C48.496 218.434 48.097 218.61 47.6799 218.652C47.5711 218.664 47.4804 218.743 47.4502 218.851C47.426 218.96 47.4623 219.069 47.553 219.136C48.0305 219.468 48.5021 219.637 48.9554 219.637Z" fill="#FF90C6"/>
<path id="Vector_7" d="M61.03 158.443C61.03 158.388 61.0361 158.334 61.0663 158.28C63.3876 154.495 66.0475 151.044 68.9612 148.039C72.824 144.056 77.2551 140.356 83.4513 140.277H83.7173C86.22 140.277 92.259 140.785 94.3446 145.531C94.3567 145.579 94.3808 145.627 94.4352 145.718C94.5562 146.02 94.6589 146.341 94.7496 146.685C94.7859 146.885 94.8221 147.078 94.8463 147.278C95.0095 148.45 95.1123 149.714 95.1788 151.394C95.1728 151.709 95.1667 152.023 95.1667 152.337C95.1667 152.954 95.1667 153.571 95.1848 154.199C93.9154 148.753 92.7728 146.685 90.9775 145.18C86.5343 141.468 78.0651 143.777 73.6945 147.779C68.5985 152.446 70.2972 161.731 70.9742 168.091C71.7359 175.297 74.0391 182.327 77.1523 188.838C80.4288 195.687 84.7933 201.992 89.8954 207.602C94.8584 213.054 100.885 217.443 107.287 221.058C115.478 225.676 131.449 233.753 133.124 227.218C133.487 225.797 132.072 224.099 131.262 223.095C129.962 221.475 128.427 220.042 126.891 218.646C123.204 215.285 118.779 211.894 116.337 207.438C118.319 209.736 120.653 211.93 123.428 214.094L123.5 214.148L123.784 214.372C123.923 214.481 124.062 214.596 124.201 214.705L124.697 215.079C126.136 216.168 127.617 217.298 129.195 218.193C129.95 218.622 130.718 219.021 131.522 219.432C133.172 220.429 134.792 221.421 136.37 222.509C138.619 224.062 139.495 225.338 140.118 227.986C140.396 229.171 140.777 230.422 141.684 231.552C141.75 231.637 141.762 231.758 141.708 231.855C140.717 233.547 139.949 236.515 140.408 238.921C140.426 239.03 140.378 239.139 140.287 239.199C140.245 239.224 140.197 239.236 140.148 239.236C140.094 239.236 140.033 239.217 139.991 239.181C139.29 238.649 138.528 238.105 137.706 237.688C134.992 236.31 132.199 236.056 129.503 235.802C126.359 235.506 123.282 235.016 120.363 234.327C113.616 232.749 107.263 230.458 101.472 227.52C94.7798 224.123 89.4299 220.478 85.1258 216.379C81.1239 212.571 77.7568 207.982 74.2084 201.508C66.6278 187.701 62.2028 173.211 61.0482 158.443H61.03Z" fill="#B523B2"/>
<path id="Vector_8" d="M150.063 227.1H150.045C149.918 227.088 149.791 227.088 149.664 227.088C147.071 227.088 144.278 228.848 142.664 230.582C142.615 230.637 142.543 230.667 142.47 230.667C142.464 230.667 142.458 230.667 142.452 230.667C142.374 230.667 142.295 230.619 142.253 230.552C141.6 229.585 141.37 228.503 141.146 227.457C140.977 226.653 140.796 225.819 140.427 225.051C139.768 223.685 138.535 222.718 137.525 222.023C137.338 221.896 137.151 221.769 136.963 221.648L136.226 221.164C136.056 221.049 135.893 220.941 135.724 220.832C134.388 219.961 132.998 219.127 131.65 218.323L130.513 217.64C129.286 216.89 127.672 215.893 126.1 214.781L125.943 214.672C125.852 214.605 125.756 214.545 125.671 214.478C125.103 214.067 124.637 213.723 124.196 213.378C124.19 213.378 124.154 213.354 124.148 213.348C122.346 211.988 120.406 210.464 118.477 208.748C121.325 210.555 124.22 212.29 127.285 213.717C130.223 215.089 133.427 216.219 136.631 216.782C137.997 217.023 139.478 217.029 140.687 216.286C142.198 215.355 142.337 213.142 142.313 211.571C142.265 208.337 141.062 205.205 140.3 202.098C139.399 198.429 138.045 194.892 136.371 191.507C132.992 184.682 128.083 178.794 124.039 172.374C120.037 166.015 116.41 159.226 114.874 151.827C114.276 148.937 113.587 143.666 110.117 142.874C107.113 142.191 104.114 145.897 102.615 147.994C99.0846 152.921 98.1597 159.323 98.1476 165.241C98.1476 166.48 98.2021 167.713 98.2867 168.947C98.1114 168.088 97.9602 167.254 97.8212 166.432C97.1986 162.63 96.7391 158.724 96.3764 155.375C96.3583 150.11 97.6278 140.692 106.302 136.823C109.736 135.294 113.647 134.447 117.329 134.447C117.903 134.447 118.471 134.471 119.021 134.508C119.16 134.52 119.269 134.635 119.269 134.774C119.269 142.826 120.478 150.696 122.878 158.174C124.299 162.617 125.677 165.833 127.339 168.608C128.687 170.857 130.38 172.84 132.018 174.756C132.834 175.711 133.681 176.696 134.479 177.712C139.998 184.724 143.425 191.827 144.665 198.828C145.106 201.306 145.154 203.785 145.203 206.184C145.233 207.563 145.263 208.983 145.366 210.398C145.831 216.806 146.484 222.077 150.268 226.677C150.335 226.756 150.347 226.871 150.299 226.967C150.25 227.052 150.16 227.107 150.063 227.107V227.1Z" fill="#B523B2"/>
<path id="Vector_9" d="M136.115 144.944C136.206 144.182 136.279 143.414 136.321 142.641C136.321 142.544 136.387 142.453 136.472 142.411C136.508 142.393 136.544 142.387 136.581 142.387C136.635 142.387 136.696 142.405 136.744 142.441C137.083 142.695 137.415 142.955 137.747 143.221C137.929 143.366 138.11 143.517 138.292 143.662L138.37 143.729C138.455 143.801 138.491 143.916 138.455 144.019C138.437 144.073 138.425 144.116 138.425 144.164C138.352 145.01 138.237 145.851 138.11 146.685C137.494 146.056 136.829 145.47 136.115 144.938V144.944Z" fill="#B523B2"/>
<path id="Vector_10" d="M3.12053 134.948C3.85199 127.766 5.53252 120.694 8.62761 114.165C11.0456 109.057 14.9629 103.356 21.014 102.534C25.1549 101.972 29.3925 103.374 33.0861 105.103C42.4741 109.492 49.8189 118.288 53.7422 126.618C52.6722 126.316 51.5901 126.086 50.5081 125.941C50.4053 125.929 50.3207 125.85 50.2904 125.753C49.5892 123.408 48.2653 121.008 46.3551 118.626C42.5225 113.845 37.2391 109.746 31.4781 107.086C29.0782 105.98 26.2733 104.795 23.3958 104.795C23.287 104.795 23.1782 104.795 23.0694 104.795C21.4553 104.843 19.8836 105.224 18.3905 105.925L18.2756 105.98C18.1487 106.04 18.0217 106.107 17.8948 106.173C16.9154 106.669 15.9966 107.322 15.1624 108.108C14.9871 108.271 14.8118 108.446 14.6425 108.622L14.5458 108.724C9.89104 113.494 7.39442 120.657 6.12495 125.826L6.04031 126.164C6.00404 126.303 5.82269 127.12 5.82269 127.12C5.77433 127.331 5.73202 127.543 5.6897 127.754L5.57484 128.323C5.54462 128.474 5.47207 128.861 5.47207 128.861C5.47207 128.861 5.38745 129.332 5.35118 129.526L5.29072 129.894C5.24236 130.172 5.20005 130.456 5.15773 130.735L5.13354 130.922C4.52299 135.141 4.44441 139.409 4.89174 143.375L4.91593 142.867C5.01265 141.604 5.05497 140.34 5.09124 138.829C5.24841 134.912 5.44185 130.039 6.68714 125.439C6.79595 125.046 6.90476 124.653 7.02566 124.266C8.03519 121.044 9.32885 117.29 11.3237 113.857C12.7383 111.414 15.0233 107.981 18.5416 106.318C18.6867 106.258 18.8317 106.191 18.9829 106.137C19.9622 105.78 21.008 105.599 22.0961 105.599C23.9157 105.599 25.8561 106.077 28.2016 107.098C29.2535 107.558 30.2086 107.993 31.1214 108.44C31.2242 108.489 31.2846 108.597 31.2665 108.712C31.2544 108.827 31.1698 108.918 31.0549 108.942C23.2023 110.58 18.9768 123.934 16.9457 130.348L16.8973 130.487C16.6676 131.218 16.4379 131.986 16.1961 132.772C14.5458 138.236 12.6718 144.433 8.30119 147.891C7.56973 148.471 6.67505 149.112 5.79851 149.42C4.39 148.054 3.65855 145.884 3.27771 144.076C2.64902 141.096 2.80618 137.958 3.11448 134.954L3.12053 134.948Z" fill="#B523B2"/>
<path id="Vector_11" d="M120.597 134.678C120.597 134.678 120.627 134.678 120.639 134.678C121.31 134.781 121.963 134.92 122.574 135.089C126.817 136.249 131.14 138.395 135.414 141.46C135.48 141.503 135.516 141.581 135.522 141.66C135.583 142.609 135.583 143.564 135.541 144.525C135.069 144.199 134.579 143.884 134.066 143.594C130.952 141.847 127.108 141.122 124.412 143.945C122.779 145.656 122.114 148.049 121.987 150.431C120.893 145.172 120.343 140.076 120.331 134.95C120.331 134.871 120.367 134.799 120.422 134.744C120.47 134.702 120.531 134.684 120.597 134.684V134.678Z" fill="#B523B2"/>
<path id="Vector_12" d="M52.6506 204.292C53.1523 207.973 53.4546 212.314 51.8708 216.539C51.1151 218.564 50.1056 219.634 48.957 219.634C48.5036 219.634 48.0321 219.465 47.5546 219.133C47.4639 219.072 47.4216 218.957 47.4518 218.849C47.476 218.74 47.5667 218.661 47.6815 218.649C48.0986 218.601 48.5037 218.425 48.8724 218.123C51.6713 215.832 51.0245 210.434 50.6376 207.212V207.127C50.432 205.507 50.1902 203.869 49.9605 202.291C49.4769 199.033 48.9752 195.666 48.8784 192.262C48.6185 183.642 50.0935 173.933 51.6834 169.224C52.3121 167.356 52.9649 165.422 53.7327 163.554C54.9175 160.677 56.2293 157.618 57.8252 154.728C60.5697 149.771 63.6768 145.552 67.0742 142.185C67.0742 142.185 67.2737 141.991 67.322 141.949C71.608 138.086 76.3232 136.049 80.9598 136.049C81.2258 136.049 81.4918 136.049 81.7577 136.067C84.3995 136.2 86.7449 136.931 88.7338 138.243C89.562 138.787 90.3599 139.44 91.176 140.232C91.2727 140.323 91.2848 140.468 91.2062 140.577C91.1518 140.649 91.0732 140.691 90.9886 140.691C90.9523 140.691 90.91 140.685 90.8738 140.661C88.9091 139.688 86.5031 139.168 83.9158 139.168C82.1204 139.168 80.3009 139.428 78.6687 139.912C73.6996 141.393 69.595 145.588 66.5845 149.076C64.1725 151.863 62.0326 154.807 60.2191 157.817C60.2009 157.854 60.1707 157.884 60.1344 157.902C60.0377 157.968 59.9772 158.065 59.9651 158.192C59.9651 158.228 59.947 158.265 59.9289 158.301C58.9858 159.903 58.1758 161.426 57.4444 162.974C54.2405 169.762 52.1912 176.376 51.3509 182.632C50.4925 189.034 51.3993 195.46 52.2818 201.668C52.4027 202.539 52.5297 203.409 52.6445 204.286L52.6506 204.292Z" fill="#B523B2"/>
<path id="Vector_13" d="M50.3572 207.811C50.2242 206.723 50.0731 205.635 49.922 204.547C50.2363 206.36 50.5326 208.253 50.6172 210.133C50.5446 209.292 50.4419 208.494 50.3572 207.811Z" fill="#B523B2"/>
<path id="Vector_14" d="M47.3628 218.228H47.3568C47.7074 218.113 48.0459 217.962 48.3724 217.757C48.8499 217.46 49.2308 217.08 49.5391 216.65C48.9769 217.66 48.2212 218.228 47.3628 218.228Z" fill="#B523B2"/>
<path id="Vector_15" d="M97.241 120.539C97.271 120.461 97.3612 120.413 97.4573 120.455C97.4814 120.467 97.4994 120.473 97.5234 120.485C97.4273 120.503 97.3371 120.521 97.241 120.539Z" fill="#CC0DBA"/>
<path id="Vector_16" d="M50.3234 174.146C50.3234 174.146 50.3657 174.146 50.3778 174.171C50.5047 174.503 50.4382 174.811 50.414 175.156C50.3899 175.501 50.3113 175.803 50.1662 176.111C50.1541 176.147 50.0997 176.141 50.0876 176.111C49.7612 175.585 49.6765 174.479 50.3294 174.146H50.3234Z" fill="#3D0801"/>
<path id="Vector_17" d="M145.147 143.983C145.474 144.298 145.794 144.715 145.987 145.126C146.006 145.162 145.969 145.205 145.927 145.18C145.546 144.945 145.081 144.497 145.063 144.02C145.063 143.977 145.111 143.959 145.141 143.983H145.147Z" fill="#3D0801"/>
<path id="Vector_18" d="M47.1467 138.251C47.1104 138.275 47.056 138.245 47.0621 138.202C47.1527 137.386 48.0051 136.606 48.8575 136.794C48.8998 136.806 48.9119 136.854 48.8816 136.884C48.3618 137.392 47.7452 137.827 47.1527 138.251H47.1467Z" fill="#3D0801"/>
<path id="Vector_19" d="M108.405 196.57C109.644 197.368 110.043 198.698 110.762 199.919C110.774 199.943 110.75 199.968 110.726 199.949C109.439 199.272 108.87 197.918 108.308 196.667C108.284 196.606 108.338 196.522 108.405 196.564V196.57Z" fill="#3D0801"/>
<path id="Vector_20" d="M70.5908 189.678C74.2904 197.065 78.6127 204.41 83.9686 210.721C87.777 215.206 92.202 219.033 96.7479 222.745C96.7963 222.787 96.7359 222.865 96.6815 222.835C91.5492 219.686 87.0395 215.648 83.1404 211.059C80.7103 208.2 78.5341 205.129 76.5452 201.949C74.103 198.05 72.2411 193.97 70.4639 189.738C70.4336 189.666 70.5606 189.617 70.5908 189.684V189.678Z" fill="#3D0801"/>
<path id="Vector_21" d="M69.4365 186.323C69.5212 187.151 69.8355 188.058 70.1378 188.825C70.1559 188.874 70.0834 188.922 70.0471 188.88C69.4305 188.094 68.9952 187.332 69.3398 186.311C69.3579 186.256 69.4305 186.268 69.4365 186.323Z" fill="#3D0801"/>
<path id="Vector_22" d="M35.5813 155.621C34.469 158.553 33.6348 161.587 33.0001 164.658C32.2505 168.297 31.5976 172.027 31.6157 175.751C31.6157 175.854 31.4707 175.848 31.4646 175.751C30.9206 168.708 32.462 161.587 34.9647 155.022C37.2558 149.013 40.6048 143.295 45.7492 139.335C45.8036 139.293 45.864 139.384 45.8217 139.426C41.2456 143.96 37.8664 149.624 35.5813 155.615V155.621Z" fill="#3D0801"/>
<g id="Group 1533210171">
<path id="Vector_23" d="M143.143 241.429C144.753 241.429 146.49 240.563 148.469 238.792C149.925 237.484 151.186 235.868 152.213 233.989C153.353 231.897 153.36 229.998 152.213 228.006C152.199 227.979 152.179 227.952 152.152 227.932C151.401 227.268 150.502 226.926 149.489 226.926C146.591 226.926 143.525 229.643 142.338 230.81C140.956 232.172 139.809 236.143 140.44 238.846C140.742 240.161 141.433 241.033 142.439 241.362C142.7 241.409 142.922 241.422 143.143 241.422V241.429Z" fill="#FF08C9"/>
<path id="Vector_24" d="M142.053 235.882C141.436 231.918 147.493 228.631 150.867 228.865C150.894 228.865 150.914 228.906 150.881 228.919C149.298 229.67 147.668 230.254 146.199 231.233C144.387 232.441 143.374 234.125 142.214 235.902C142.174 235.963 142.06 235.963 142.053 235.882Z" fill="#3D0801"/>
<path id="Vector_25" d="M142.069 236.651C142.036 236.826 142.069 237.067 142.069 237.242C142.076 237.463 142.103 237.657 142.069 237.879C142.029 238.174 141.627 238.06 141.6 237.818C141.566 237.57 141.62 237.342 141.694 237.107C141.761 236.893 141.888 236.792 142.016 236.624C142.036 236.598 142.069 236.624 142.063 236.651H142.069Z" fill="#3D0801"/>
</g>
<g id="Vector_26">
<mask id="path-29-inside-1_1_3004" fill="white">
<path d="M142.47 146.28C144.712 148.607 146.244 151.501 147.896 154.25C149.861 157.518 152.405 160.496 154.968 163.312C159.001 167.749 163.746 171.167 169.594 172.632C171.662 173.151 173.904 173.507 176.021 173.085C177.715 172.747 178.251 171.626 178.269 170.269C177.944 170.697 177.48 171.041 176.853 171.27C175.593 171.728 174.079 171.463 172.801 171.216C170.914 170.854 169.027 170.257 167.261 169.497C163.963 168.087 161.352 165.874 158.917 163.39C158.302 162.805 157.723 162.196 157.162 161.624C156.312 160.749 155.54 159.815 154.799 158.85C153.406 157.192 152.098 155.468 150.868 153.69C149.391 151.676 147.992 149.614 146.804 147.395C146.744 147.275 146.907 147.184 146.979 147.293C149.065 150.223 151.218 153.087 153.388 155.944C154.13 156.867 154.877 157.789 155.661 158.682C156.987 160.189 158.338 161.744 159.785 163.191C160.315 163.667 160.846 164.15 161.34 164.656C162.329 165.542 163.366 166.374 164.475 167.092C167.321 168.931 170.944 170.191 174.326 170.571C175.58 170.709 177.118 170.667 177.823 169.449C177.968 169.202 178.058 168.943 178.113 168.678C177.871 167.442 177.431 166.188 177.184 165.247C176.979 164.469 176.841 163.68 176.732 162.884C176.376 161.883 175.978 160.9 175.55 159.917C173.935 156.228 172.041 152.598 169.907 149.18C166.013 142.964 160.587 136.821 154.142 133.179C154.111 133.161 154.142 133.125 154.166 133.137C161.081 136.332 166.356 142.09 170.48 148.372C172.765 151.851 174.67 155.643 176.37 159.435C176.406 159.514 176.443 159.598 176.479 159.682C176.4 157.958 176.382 156.228 176.232 154.534C175.858 150.271 174.773 146.208 173.012 142.319C169.238 133.999 162.413 127.265 154.28 123.225C149.771 120.989 144.773 119.807 139.781 119.427C137.074 119.222 134.367 119.078 131.666 119.482C129.073 119.867 126.812 121.218 124.648 122.604C124.093 122.96 123.533 123.298 122.972 123.623C124.974 123.25 127.005 123.129 128.959 123.334C128.983 123.334 128.983 123.37 128.959 123.37C126.451 123.443 124.027 123.895 121.622 124.564C121.326 124.648 121.037 124.733 120.747 124.823C120.717 124.841 120.687 124.853 120.651 124.871C121.441 124.715 122.23 124.564 123.032 124.461C127.192 123.919 132.214 124.106 135.934 126.234C136.001 126.27 135.952 126.361 135.886 126.354C133.704 125.999 131.569 125.468 129.369 125.263C127.259 125.07 125.136 125.161 123.032 125.402C120.446 125.697 117.908 126.523 115.351 127.132C114.248 127.524 113.115 127.886 111.945 128.223C110.203 128.73 108.503 129.453 106.893 130.279C104.481 131.509 102.413 133.095 100.713 134.982C101.431 134.548 102.136 134.18 102.733 133.867C106.501 131.931 110.679 131.28 114.869 131.063C115.014 131.057 115.159 131.057 115.303 131.051C116.081 130.997 116.853 130.961 117.618 130.955C120.976 130.924 124.335 131.371 127.554 132.275C127.831 132.347 128.109 132.414 128.38 132.492C130.098 132.986 131.744 133.68 133.336 134.488C133.927 134.783 134.511 135.09 135.084 135.416C135.259 135.512 135.434 135.615 135.615 135.717C135.747 135.796 135.88 135.874 136.013 135.959C136.471 136.236 136.917 136.525 137.351 136.839C137.484 136.935 137.616 137.032 137.749 137.128C137.779 137.152 137.809 137.17 137.839 137.194C140.293 138.967 142.488 141.101 144.308 143.603C144.381 143.7 144.224 143.82 144.146 143.73C142.21 141.632 140.118 139.672 137.821 137.984C136.67 137.243 135.548 136.429 134.361 135.772C133.583 135.338 132.775 134.952 131.955 134.596C131.738 134.5 131.527 134.403 131.304 134.319C131.135 134.252 130.966 134.186 130.798 134.12C127.554 132.884 123.991 132.172 120.53 131.907C119.114 131.817 117.703 131.793 116.298 131.823C112.192 131.992 108.032 132.908 104.282 134.494C102.486 135.253 100.804 136.272 99.3567 137.574C98.7297 138.141 98.1751 138.78 97.6686 139.449C96.704 141.373 96.0288 143.483 95.667 145.731C95.6911 145.822 95.7153 145.918 95.7394 146.009C95.9323 146.545 96.0891 147.112 96.1855 147.715C97.7772 142.422 101.171 137.936 107.056 135.555C119.825 130.382 133.517 136.996 142.482 146.298L142.47 146.28ZM133.414 160.219C135.862 155.227 137.532 150.175 138.02 144.616C138.026 144.538 138.044 144.471 138.068 144.405C137.863 144.236 137.659 144.067 137.447 143.899C137.122 143.639 136.784 143.38 136.453 143.121C136.212 147.317 135.289 151.417 133.565 155.263C133.547 155.299 133.511 155.305 133.48 155.293C133.48 155.293 133.462 155.281 133.456 155.275C133.45 155.275 133.438 155.269 133.438 155.257C133.426 155.239 133.426 155.221 133.432 155.203C134.481 151.007 135.428 146.497 135.144 142.144C131.28 139.371 127.005 137.086 122.423 135.832C121.808 135.663 121.169 135.531 120.524 135.428C120.542 142.054 121.447 148.438 123.099 154.853C124.443 160.08 126.342 165.331 129.351 169.847C130.327 166.483 131.883 163.366 133.426 160.213L133.414 160.219ZM148.384 238.824C149.728 237.618 150.832 236.153 151.694 234.58C152.767 232.62 152.586 231.011 151.7 229.461C149.12 227.176 145.225 230.082 143.235 232.042C141.493 233.76 140.293 240.114 143.223 241.091C145.11 241.387 146.997 240.072 148.384 238.83V238.824ZM74.4633 201.698C77.4476 207.13 80.7937 212.17 85.3033 216.463C90.0601 220.997 95.7032 224.566 101.545 227.532C107.49 230.553 113.832 232.783 120.325 234.296C123.316 234.996 126.354 235.472 129.405 235.762C132.347 236.039 135.006 236.316 137.683 237.673C138.509 238.089 139.262 238.631 140.004 239.186C139.552 236.805 140.251 233.802 141.33 231.957C140.462 230.878 140.04 229.69 139.72 228.298C139.13 225.76 138.292 224.506 136.091 222.992C134.511 221.907 132.89 220.912 131.268 219.93C130.49 219.532 129.712 219.128 128.953 218.7C127.186 217.693 125.564 216.421 123.943 215.197C123.702 215.016 123.478 214.829 123.237 214.642C123.213 214.624 123.189 214.612 123.171 214.594C123.171 214.594 123.165 214.582 123.159 214.582C119.807 211.971 116.823 209.108 114.339 205.78C114.23 205.635 114.116 205.496 114.013 205.352C113.983 205.309 113.953 205.267 113.923 205.225C113 203.977 112.192 202.663 111.427 201.258C111.403 201.21 111.427 201.174 111.469 201.167C111.493 201.161 111.523 201.167 111.541 201.192C111.969 201.776 112.409 202.337 112.849 202.904C116.129 206.967 120.054 210.277 124.22 213.43C124.244 213.448 124.268 213.461 124.292 213.479C124.763 213.852 125.245 214.208 125.727 214.558C125.866 214.66 126.011 214.763 126.155 214.859C127.584 215.866 129.055 216.795 130.538 217.699C132.275 218.748 134.029 219.779 135.735 220.888C135.976 221.045 136.218 221.208 136.459 221.364C136.525 221.407 136.591 221.449 136.652 221.491C136.664 221.503 136.682 221.509 136.694 221.521C136.977 221.708 137.255 221.889 137.532 222.082C138.72 222.902 139.877 223.885 140.51 225.205C141.378 227.008 141.197 229.003 142.313 230.655C144.146 228.678 147.196 226.911 149.885 227.098C145.948 222.317 145.376 216.837 144.935 210.717C144.658 206.847 144.923 203.067 144.242 199.208C142.868 191.443 138.967 184.407 134.132 178.27C131.714 175.201 129.013 172.53 126.993 169.166C125.04 165.91 123.671 162.305 122.514 158.7C120.084 151.115 118.903 143.235 118.903 135.277C114.652 134.958 110.052 135.91 106.344 137.562C99.0673 140.812 96.5834 148.444 96.6015 155.824C96.6015 155.824 96.6015 155.83 96.6015 155.836C97.0054 159.501 97.4456 163.173 98.0424 166.815C98.6574 170.565 99.61 174.23 100.689 177.872C102.389 183.623 104.855 189.085 107.001 194.674C107.001 194.686 107.001 194.698 107.001 194.704C107.001 194.716 106.989 194.729 106.977 194.735C106.965 194.735 106.959 194.735 106.947 194.735C106.947 194.735 106.941 194.735 106.935 194.735C106.923 194.735 106.905 194.729 106.899 194.71C101.081 186.445 98.0183 176.376 96.1735 166.531C95.3234 161.985 94.817 157.434 94.8592 152.803C94.8592 152.49 94.8652 152.176 94.8712 151.857C94.817 150.488 94.7326 149.132 94.5457 147.793C94.5215 147.594 94.4854 147.401 94.4492 147.215C94.3708 146.895 94.2683 146.588 94.1538 146.298C94.1116 146.232 94.0754 146.159 94.0573 146.075C92.3632 142.229 87.6365 140.981 83.4524 141.035C77.4898 141.113 73.1912 144.574 69.188 148.698C66.2579 151.718 63.6233 155.155 61.3444 158.868C62.52 173.953 67.1743 188.477 74.4392 201.716L74.4633 201.698ZM40.1527 127.97C33.7138 130.008 28.1551 134.638 24.0916 139.938C19.9558 145.34 17.9662 151.863 16.6881 158.465C15.3376 165.44 15.4702 172.651 17.4296 179.493C19.5579 186.933 24.1881 192.914 29.596 198.274C32.1523 200.806 34.7809 203.26 37.301 205.822C37.3733 205.894 37.4336 205.973 37.506 206.045C36.7041 204.375 35.9807 202.675 35.3657 200.926C33.0024 194.246 31.0309 186.722 31.4891 179.596C31.4891 179.56 31.5494 179.548 31.5554 179.59C32.5442 186.698 33.6655 193.661 36.0711 200.45C36.9875 203.036 38.139 205.539 39.4473 207.95C39.7849 208.571 40.1466 209.186 40.5084 209.795C41.6298 211.399 42.6909 213.057 43.8062 214.612C44.6683 215.806 45.5787 216.957 46.5855 218.036C48.4786 218.862 49.5699 216.987 50.0341 215.221C51.0831 211.236 50.0341 206.527 49.3588 202.572C48.6535 198.454 48.4183 194.343 48.3761 190.165C48.3339 186.204 48.4425 181.977 49.7568 178.209C49.7869 178.131 49.9195 178.137 49.9135 178.233C49.4252 183.057 49.0936 187.759 49.2383 192.612C49.389 197.628 50.3898 202.452 50.9867 207.413C51.3786 210.687 52.0719 216.216 49.1418 218.615C48.7077 218.971 48.2616 219.152 47.8155 219.2C49.6603 220.478 50.9384 218.838 51.7222 216.74C53.1872 212.821 53.0425 208.722 52.4879 204.652C51.5051 197.43 50.221 190.291 51.1977 182.99C52.1141 176.147 54.3568 169.528 57.2929 163.306C58.0526 161.696 58.8906 160.141 59.7829 158.621C59.807 158.398 59.9155 158.235 60.0723 158.133C61.9352 155.046 64.0634 152.134 66.4509 149.379C69.7185 145.599 73.7217 141.62 78.6293 140.161C82.4938 139.015 87.3471 139.112 90.9946 140.92C90.2591 140.209 89.4753 139.546 88.6011 138.967C86.5392 137.61 84.2241 136.965 81.7764 136.845C76.3745 136.574 71.479 139.112 67.5662 142.645C67.4818 142.717 67.4034 142.801 67.319 142.88C63.6474 146.521 60.645 150.808 58.149 155.323C56.5815 158.157 55.3094 161.111 54.0795 164.096C52.8074 167.194 51.8729 170.408 50.7153 173.543C50.6731 173.663 50.5104 173.615 50.5285 173.489C51.2218 168.665 52.8737 163.885 54.9658 159.381C56.4067 156.059 58.1792 152.833 60.2471 149.861C62.6647 146.22 65.5164 142.801 68.8504 140.046C72.7993 136.779 78.1168 134.831 83.2655 135.585C84.7004 135.796 86.069 136.206 87.3351 136.797C85.3817 135.374 83.2113 134.246 81.0529 133.451C77.3753 132.094 73.6373 132.118 69.7788 132.287C69.0674 132.317 68.3801 132.311 67.7109 132.281C66.8246 132.347 65.9444 132.414 65.0582 132.492C59.7165 132.95 54.3629 134.144 49.7146 136.929C49.594 137.002 49.4553 136.827 49.5638 136.736C53.6213 133.396 58.5228 132.203 63.6353 131.702C62.3572 131.377 61.0911 130.93 59.7949 130.334C56.5272 128.832 53.561 127.301 49.9376 126.855C46.6398 126.451 43.3179 126.994 40.1768 127.988L40.1527 127.97ZM49.4614 125.239C49.4433 125.197 49.4252 125.149 49.4071 125.106C49.4191 125.149 49.4312 125.197 49.4493 125.239H49.4614ZM5.35512 107.629C1.8704 116.154 0.202175 133.336 0.985935 142.506C1.13063 144.224 2.34893 145.958 3.06269 147.311C3.97909 150.145 6.31228 148.734 8.13904 147.293C13.0707 143.392 14.8191 135.754 16.6218 130.062C18.6113 123.774 22.8919 110.07 30.9405 108.394C29.9879 107.93 29.0233 107.49 28.0406 107.062C25.1889 105.814 22.0659 105.006 19.0454 106.109C18.8886 106.164 18.7379 106.23 18.5872 106.296C15.4582 107.773 13.2335 110.776 11.5454 113.688C9.67642 116.913 8.39226 120.464 7.28897 124.015C7.16839 124.401 7.05384 124.787 6.95135 125.179C6.95135 125.179 6.95135 125.191 6.95135 125.197C5.77571 129.556 5.55266 133.999 5.37782 138.473C5.34768 139.823 5.30546 141.168 5.20297 142.506C5.19694 142.675 5.18487 142.838 5.17884 143C5.1487 143.507 5.07635 144.025 5.02812 144.532C5.02209 144.622 4.87136 144.658 4.85327 144.556C4.17201 139.998 4.22628 135.187 4.89549 130.539C4.90754 130.472 4.91359 130.412 4.91962 130.352C4.96182 130.068 5.00401 129.791 5.05224 129.514C5.07636 129.387 5.09445 129.266 5.11254 129.14C5.15474 128.917 5.1909 128.694 5.2331 128.471C5.26928 128.29 5.29942 128.109 5.3356 127.928C5.36574 127.759 5.40192 127.596 5.43809 127.428C5.48632 127.193 5.53454 126.957 5.5888 126.722C5.61292 126.608 5.63705 126.499 5.6672 126.385C5.71543 126.18 5.75763 125.969 5.81189 125.764C5.82998 125.679 5.85408 125.595 5.87217 125.51C5.87217 125.498 5.87217 125.486 5.8782 125.474C5.8782 125.456 5.88423 125.444 5.89025 125.426C7.36734 119.409 9.95376 112.753 14.3549 108.25C14.3549 108.25 14.3609 108.244 14.3669 108.238C14.5659 108.033 14.7709 107.822 14.9759 107.629C15.826 106.833 16.7604 106.17 17.7673 105.657C17.8939 105.591 18.0265 105.525 18.1531 105.464C18.1953 105.446 18.2375 105.428 18.2797 105.41C19.7568 104.717 21.3605 104.313 23.0426 104.258C26.0329 104.168 28.8846 105.338 31.5494 106.561C37.2588 109.196 42.5522 113.242 46.4831 118.149C48.2013 120.295 49.6603 122.707 50.4561 125.348C52.4034 125.607 60.3356 127.735 62.1865 128.471C61.6801 123.991 62.1865 106.561 59.148 102.263C56.9673 75.1351 11.2769 83.9136 5.35512 107.629Z"/>
</mask>
<path d="M142.47 146.28C144.712 148.607 146.244 151.501 147.896 154.25C149.861 157.518 152.405 160.496 154.968 163.312C159.001 167.749 163.746 171.167 169.594 172.632C171.662 173.151 173.904 173.507 176.021 173.085C177.715 172.747 178.251 171.626 178.269 170.269C177.944 170.697 177.48 171.041 176.853 171.27C175.593 171.728 174.079 171.463 172.801 171.216C170.914 170.854 169.027 170.257 167.261 169.497C163.963 168.087 161.352 165.874 158.917 163.39C158.302 162.805 157.723 162.196 157.162 161.624C156.312 160.749 155.54 159.815 154.799 158.85C153.406 157.192 152.098 155.468 150.868 153.69C149.391 151.676 147.992 149.614 146.804 147.395C146.744 147.275 146.907 147.184 146.979 147.293C149.065 150.223 151.218 153.087 153.388 155.944C154.13 156.867 154.877 157.789 155.661 158.682C156.987 160.189 158.338 161.744 159.785 163.191C160.315 163.667 160.846 164.15 161.34 164.656C162.329 165.542 163.366 166.374 164.475 167.092C167.321 168.931 170.944 170.191 174.326 170.571C175.58 170.709 177.118 170.667 177.823 169.449C177.968 169.202 178.058 168.943 178.113 168.678C177.871 167.442 177.431 166.188 177.184 165.247C176.979 164.469 176.841 163.68 176.732 162.884C176.376 161.883 175.978 160.9 175.55 159.917C173.935 156.228 172.041 152.598 169.907 149.18C166.013 142.964 160.587 136.821 154.142 133.179C154.111 133.161 154.142 133.125 154.166 133.137C161.081 136.332 166.356 142.09 170.48 148.372C172.765 151.851 174.67 155.643 176.37 159.435C176.406 159.514 176.443 159.598 176.479 159.682C176.4 157.958 176.382 156.228 176.232 154.534C175.858 150.271 174.773 146.208 173.012 142.319C169.238 133.999 162.413 127.265 154.28 123.225C149.771 120.989 144.773 119.807 139.781 119.427C137.074 119.222 134.367 119.078 131.666 119.482C129.073 119.867 126.812 121.218 124.648 122.604C124.093 122.96 123.533 123.298 122.972 123.623C124.974 123.25 127.005 123.129 128.959 123.334C128.983 123.334 128.983 123.37 128.959 123.37C126.451 123.443 124.027 123.895 121.622 124.564C121.326 124.648 121.037 124.733 120.747 124.823C120.717 124.841 120.687 124.853 120.651 124.871C121.441 124.715 122.23 124.564 123.032 124.461C127.192 123.919 132.214 124.106 135.934 126.234C136.001 126.27 135.952 126.361 135.886 126.354C133.704 125.999 131.569 125.468 129.369 125.263C127.259 125.07 125.136 125.161 123.032 125.402C120.446 125.697 117.908 126.523 115.351 127.132C114.248 127.524 113.115 127.886 111.945 128.223C110.203 128.73 108.503 129.453 106.893 130.279C104.481 131.509 102.413 133.095 100.713 134.982C101.431 134.548 102.136 134.18 102.733 133.867C106.501 131.931 110.679 131.28 114.869 131.063C115.014 131.057 115.159 131.057 115.303 131.051C116.081 130.997 116.853 130.961 117.618 130.955C120.976 130.924 124.335 131.371 127.554 132.275C127.831 132.347 128.109 132.414 128.38 132.492C130.098 132.986 131.744 133.68 133.336 134.488C133.927 134.783 134.511 135.09 135.084 135.416C135.259 135.512 135.434 135.615 135.615 135.717C135.747 135.796 135.88 135.874 136.013 135.959C136.471 136.236 136.917 136.525 137.351 136.839C137.484 136.935 137.616 137.032 137.749 137.128C137.779 137.152 137.809 137.17 137.839 137.194C140.293 138.967 142.488 141.101 144.308 143.603C144.381 143.7 144.224 143.82 144.146 143.73C142.21 141.632 140.118 139.672 137.821 137.984C136.67 137.243 135.548 136.429 134.361 135.772C133.583 135.338 132.775 134.952 131.955 134.596C131.738 134.5 131.527 134.403 131.304 134.319C131.135 134.252 130.966 134.186 130.798 134.12C127.554 132.884 123.991 132.172 120.53 131.907C119.114 131.817 117.703 131.793 116.298 131.823C112.192 131.992 108.032 132.908 104.282 134.494C102.486 135.253 100.804 136.272 99.3567 137.574C98.7297 138.141 98.1751 138.78 97.6686 139.449C96.704 141.373 96.0288 143.483 95.667 145.731C95.6911 145.822 95.7153 145.918 95.7394 146.009C95.9323 146.545 96.0891 147.112 96.1855 147.715C97.7772 142.422 101.171 137.936 107.056 135.555C119.825 130.382 133.517 136.996 142.482 146.298L142.47 146.28ZM133.414 160.219C135.862 155.227 137.532 150.175 138.02 144.616C138.026 144.538 138.044 144.471 138.068 144.405C137.863 144.236 137.659 144.067 137.447 143.899C137.122 143.639 136.784 143.38 136.453 143.121C136.212 147.317 135.289 151.417 133.565 155.263C133.547 155.299 133.511 155.305 133.48 155.293C133.48 155.293 133.462 155.281 133.456 155.275C133.45 155.275 133.438 155.269 133.438 155.257C133.426 155.239 133.426 155.221 133.432 155.203C134.481 151.007 135.428 146.497 135.144 142.144C131.28 139.371 127.005 137.086 122.423 135.832C121.808 135.663 121.169 135.531 120.524 135.428C120.542 142.054 121.447 148.438 123.099 154.853C124.443 160.08 126.342 165.331 129.351 169.847C130.327 166.483 131.883 163.366 133.426 160.213L133.414 160.219ZM148.384 238.824C149.728 237.618 150.832 236.153 151.694 234.58C152.767 232.62 152.586 231.011 151.7 229.461C149.12 227.176 145.225 230.082 143.235 232.042C141.493 233.76 140.293 240.114 143.223 241.091C145.11 241.387 146.997 240.072 148.384 238.83V238.824ZM74.4633 201.698C77.4476 207.13 80.7937 212.17 85.3033 216.463C90.0601 220.997 95.7032 224.566 101.545 227.532C107.49 230.553 113.832 232.783 120.325 234.296C123.316 234.996 126.354 235.472 129.405 235.762C132.347 236.039 135.006 236.316 137.683 237.673C138.509 238.089 139.262 238.631 140.004 239.186C139.552 236.805 140.251 233.802 141.33 231.957C140.462 230.878 140.04 229.69 139.72 228.298C139.13 225.76 138.292 224.506 136.091 222.992C134.511 221.907 132.89 220.912 131.268 219.93C130.49 219.532 129.712 219.128 128.953 218.7C127.186 217.693 125.564 216.421 123.943 215.197C123.702 215.016 123.478 214.829 123.237 214.642C123.213 214.624 123.189 214.612 123.171 214.594C123.171 214.594 123.165 214.582 123.159 214.582C119.807 211.971 116.823 209.108 114.339 205.78C114.23 205.635 114.116 205.496 114.013 205.352C113.983 205.309 113.953 205.267 113.923 205.225C113 203.977 112.192 202.663 111.427 201.258C111.403 201.21 111.427 201.174 111.469 201.167C111.493 201.161 111.523 201.167 111.541 201.192C111.969 201.776 112.409 202.337 112.849 202.904C116.129 206.967 120.054 210.277 124.22 213.43C124.244 213.448 124.268 213.461 124.292 213.479C124.763 213.852 125.245 214.208 125.727 214.558C125.866 214.66 126.011 214.763 126.155 214.859C127.584 215.866 129.055 216.795 130.538 217.699C132.275 218.748 134.029 219.779 135.735 220.888C135.976 221.045 136.218 221.208 136.459 221.364C136.525 221.407 136.591 221.449 136.652 221.491C136.664 221.503 136.682 221.509 136.694 221.521C136.977 221.708 137.255 221.889 137.532 222.082C138.72 222.902 139.877 223.885 140.51 225.205C141.378 227.008 141.197 229.003 142.313 230.655C144.146 228.678 147.196 226.911 149.885 227.098C145.948 222.317 145.376 216.837 144.935 210.717C144.658 206.847 144.923 203.067 144.242 199.208C142.868 191.443 138.967 184.407 134.132 178.27C131.714 175.201 129.013 172.53 126.993 169.166C125.04 165.91 123.671 162.305 122.514 158.7C120.084 151.115 118.903 143.235 118.903 135.277C114.652 134.958 110.052 135.91 106.344 137.562C99.0673 140.812 96.5834 148.444 96.6015 155.824C96.6015 155.824 96.6015 155.83 96.6015 155.836C97.0054 159.501 97.4456 163.173 98.0424 166.815C98.6574 170.565 99.61 174.23 100.689 177.872C102.389 183.623 104.855 189.085 107.001 194.674C107.001 194.686 107.001 194.698 107.001 194.704C107.001 194.716 106.989 194.729 106.977 194.735C106.965 194.735 106.959 194.735 106.947 194.735C106.947 194.735 106.941 194.735 106.935 194.735C106.923 194.735 106.905 194.729 106.899 194.71C101.081 186.445 98.0183 176.376 96.1735 166.531C95.3234 161.985 94.817 157.434 94.8592 152.803C94.8592 152.49 94.8652 152.176 94.8712 151.857C94.817 150.488 94.7326 149.132 94.5457 147.793C94.5215 147.594 94.4854 147.401 94.4492 147.215C94.3708 146.895 94.2683 146.588 94.1538 146.298C94.1116 146.232 94.0754 146.159 94.0573 146.075C92.3632 142.229 87.6365 140.981 83.4524 141.035C77.4898 141.113 73.1912 144.574 69.188 148.698C66.2579 151.718 63.6233 155.155 61.3444 158.868C62.52 173.953 67.1743 188.477 74.4392 201.716L74.4633 201.698ZM40.1527 127.97C33.7138 130.008 28.1551 134.638 24.0916 139.938C19.9558 145.34 17.9662 151.863 16.6881 158.465C15.3376 165.44 15.4702 172.651 17.4296 179.493C19.5579 186.933 24.1881 192.914 29.596 198.274C32.1523 200.806 34.7809 203.26 37.301 205.822C37.3733 205.894 37.4336 205.973 37.506 206.045C36.7041 204.375 35.9807 202.675 35.3657 200.926C33.0024 194.246 31.0309 186.722 31.4891 179.596C31.4891 179.56 31.5494 179.548 31.5554 179.59C32.5442 186.698 33.6655 193.661 36.0711 200.45C36.9875 203.036 38.139 205.539 39.4473 207.95C39.7849 208.571 40.1466 209.186 40.5084 209.795C41.6298 211.399 42.6909 213.057 43.8062 214.612C44.6683 215.806 45.5787 216.957 46.5855 218.036C48.4786 218.862 49.5699 216.987 50.0341 215.221C51.0831 211.236 50.0341 206.527 49.3588 202.572C48.6535 198.454 48.4183 194.343 48.3761 190.165C48.3339 186.204 48.4425 181.977 49.7568 178.209C49.7869 178.131 49.9195 178.137 49.9135 178.233C49.4252 183.057 49.0936 187.759 49.2383 192.612C49.389 197.628 50.3898 202.452 50.9867 207.413C51.3786 210.687 52.0719 216.216 49.1418 218.615C48.7077 218.971 48.2616 219.152 47.8155 219.2C49.6603 220.478 50.9384 218.838 51.7222 216.74C53.1872 212.821 53.0425 208.722 52.4879 204.652C51.5051 197.43 50.221 190.291 51.1977 182.99C52.1141 176.147 54.3568 169.528 57.2929 163.306C58.0526 161.696 58.8906 160.141 59.7829 158.621C59.807 158.398 59.9155 158.235 60.0723 158.133C61.9352 155.046 64.0634 152.134 66.4509 149.379C69.7185 145.599 73.7217 141.62 78.6293 140.161C82.4938 139.015 87.3471 139.112 90.9946 140.92C90.2591 140.209 89.4753 139.546 88.6011 138.967C86.5392 137.61 84.2241 136.965 81.7764 136.845C76.3745 136.574 71.479 139.112 67.5662 142.645C67.4818 142.717 67.4034 142.801 67.319 142.88C63.6474 146.521 60.645 150.808 58.149 155.323C56.5815 158.157 55.3094 161.111 54.0795 164.096C52.8074 167.194 51.8729 170.408 50.7153 173.543C50.6731 173.663 50.5104 173.615 50.5285 173.489C51.2218 168.665 52.8737 163.885 54.9658 159.381C56.4067 156.059 58.1792 152.833 60.2471 149.861C62.6647 146.22 65.5164 142.801 68.8504 140.046C72.7993 136.779 78.1168 134.831 83.2655 135.585C84.7004 135.796 86.069 136.206 87.3351 136.797C85.3817 135.374 83.2113 134.246 81.0529 133.451C77.3753 132.094 73.6373 132.118 69.7788 132.287C69.0674 132.317 68.3801 132.311 67.7109 132.281C66.8246 132.347 65.9444 132.414 65.0582 132.492C59.7165 132.95 54.3629 134.144 49.7146 136.929C49.594 137.002 49.4553 136.827 49.5638 136.736C53.6213 133.396 58.5228 132.203 63.6353 131.702C62.3572 131.377 61.0911 130.93 59.7949 130.334C56.5272 128.832 53.561 127.301 49.9376 126.855C46.6398 126.451 43.3179 126.994 40.1768 127.988L40.1527 127.97ZM49.4614 125.239C49.4433 125.197 49.4252 125.149 49.4071 125.106C49.4191 125.149 49.4312 125.197 49.4493 125.239H49.4614ZM5.35512 107.629C1.8704 116.154 0.202175 133.336 0.985935 142.506C1.13063 144.224 2.34893 145.958 3.06269 147.311C3.97909 150.145 6.31228 148.734 8.13904 147.293C13.0707 143.392 14.8191 135.754 16.6218 130.062C18.6113 123.774 22.8919 110.07 30.9405 108.394C29.9879 107.93 29.0233 107.49 28.0406 107.062C25.1889 105.814 22.0659 105.006 19.0454 106.109C18.8886 106.164 18.7379 106.23 18.5872 106.296C15.4582 107.773 13.2335 110.776 11.5454 113.688C9.67642 116.913 8.39226 120.464 7.28897 124.015C7.16839 124.401 7.05384 124.787 6.95135 125.179C6.95135 125.179 6.95135 125.191 6.95135 125.197C5.77571 129.556 5.55266 133.999 5.37782 138.473C5.34768 139.823 5.30546 141.168 5.20297 142.506C5.19694 142.675 5.18487 142.838 5.17884 143C5.1487 143.507 5.07635 144.025 5.02812 144.532C5.02209 144.622 4.87136 144.658 4.85327 144.556C4.17201 139.998 4.22628 135.187 4.89549 130.539C4.90754 130.472 4.91359 130.412 4.91962 130.352C4.96182 130.068 5.00401 129.791 5.05224 129.514C5.07636 129.387 5.09445 129.266 5.11254 129.14C5.15474 128.917 5.1909 128.694 5.2331 128.471C5.26928 128.29 5.29942 128.109 5.3356 127.928C5.36574 127.759 5.40192 127.596 5.43809 127.428C5.48632 127.193 5.53454 126.957 5.5888 126.722C5.61292 126.608 5.63705 126.499 5.6672 126.385C5.71543 126.18 5.75763 125.969 5.81189 125.764C5.82998 125.679 5.85408 125.595 5.87217 125.51C5.87217 125.498 5.87217 125.486 5.8782 125.474C5.8782 125.456 5.88423 125.444 5.89025 125.426C7.36734 119.409 9.95376 112.753 14.3549 108.25C14.3549 108.25 14.3609 108.244 14.3669 108.238C14.5659 108.033 14.7709 107.822 14.9759 107.629C15.826 106.833 16.7604 106.17 17.7673 105.657C17.8939 105.591 18.0265 105.525 18.1531 105.464C18.1953 105.446 18.2375 105.428 18.2797 105.41C19.7568 104.717 21.3605 104.313 23.0426 104.258C26.0329 104.168 28.8846 105.338 31.5494 106.561C37.2588 109.196 42.5522 113.242 46.4831 118.149C48.2013 120.295 49.6603 122.707 50.4561 125.348C52.4034 125.607 60.3356 127.735 62.1865 128.471C61.6801 123.991 62.1865 106.561 59.148 102.263C56.9673 75.1351 11.2769 83.9136 5.35512 107.629Z" stroke="#3D0801" stroke-width="4" mask="url(#path-29-inside-1_1_3004)"/>
</g>
<path id="Vector_27" d="M97.4743 138.795C98.0546 138.022 98.6229 137.393 99.2032 136.873C100.63 135.597 102.316 134.54 104.221 133.736C107.999 132.14 112.194 131.209 116.365 131.039C116.758 131.033 117.157 131.027 117.55 131.027C118.608 131.027 119.648 131.058 120.633 131.124C124.315 131.408 127.899 132.176 131 133.361L131.17 133.427C131.285 133.47 131.399 133.518 131.514 133.56C131.665 133.621 131.817 133.687 131.968 133.754L132.173 133.844C133.086 134.243 133.884 134.63 134.609 135.035C135.425 135.489 136.223 136.021 136.991 136.534C137.36 136.782 137.729 137.024 138.109 137.272C144.632 141.649 150.623 152.234 151.264 153.104C152.503 154.899 153.827 156.634 155.199 158.273C156.045 159.379 156.789 160.249 157.544 161.029L157.72 161.211C158.228 161.73 158.753 162.268 159.304 162.8C161.28 164.825 164.013 167.346 167.579 168.87C169.399 169.649 171.255 170.224 173.086 170.574C173.866 170.725 174.7 170.871 175.492 170.871C176.073 170.871 176.568 170.798 177.004 170.635C177.554 170.435 177.995 170.127 178.309 169.722C178.364 169.656 178.442 169.619 178.521 169.619C178.551 169.619 178.581 169.619 178.606 169.637C178.714 169.674 178.787 169.776 178.781 169.891C178.757 171.614 177.929 172.648 176.314 172.968C175.674 173.095 174.985 173.162 174.265 173.162C172.947 173.162 171.515 172.956 169.75 172.515C164.327 171.155 159.485 168.078 154.951 163.091C152.448 160.34 149.855 157.33 147.83 153.962C147.558 153.509 147.286 153.05 147.02 152.596C145.672 150.311 144.282 147.948 142.426 146.019C134.767 138.07 125.306 133.512 116.474 133.512C113.264 133.512 110.139 134.116 107.195 135.307C101.809 137.49 98.1937 141.534 96.4527 147.331C96.4164 147.446 96.3137 147.518 96.1988 147.518H96.1807C96.0537 147.512 95.957 147.416 95.9328 147.295C95.8361 146.726 95.691 146.164 95.4855 145.608L95.4129 145.33C95.4008 145.294 95.4008 145.258 95.4129 145.221C95.7756 142.954 96.4587 140.808 97.4683 138.801L97.4743 138.795Z" fill="#B523B2"/>
</g>
<g id="Group">
<path id="Vector_28" d="M113.365 23.6694C110.082 15.4472 94.7927 10.8278 76.6916 25.0275C67.2627 32.428 61.9816 44.3094 59.5768 56.6881C56.6962 71.5366 57.7645 87.0944 58.2446 96.4801H114.248C114.248 96.4801 112.639 53.9157 106.458 36.5023C109.689 33.9548 115.117 28.0811 113.361 23.6737L113.365 23.6694Z" fill="#FFE9BB"/>
<path id="Vector_29" d="M106.461 36.6973C106.461 36.6973 94.9516 45.0666 84.0391 46.1176C84.0391 46.1176 91.9456 46.3598 99.4022 44.3399C106.859 42.32 107.88 40.75 107.88 40.75L106.457 36.6973H106.461Z" fill="#A8217B"/>
<path id="Vector_30" d="M110.65 24.213C108.397 25.3332 107.752 26.6221 107.904 27.5434C108.098 28.7328 110.832 28.2311 112.666 26.8038C114.5 25.3764 113.643 22.7294 110.65 24.2173V24.213Z" fill="#FE1C67"/>
<path id="Vector_31" d="M57.8592 96.4976C56.6092 71.8568 56.2199 38.358 78.9619 22.8953C84.3944 19.0459 90.6443 15.9707 97.3874 15.5035C102.374 15.1662 107.82 16.3686 111.457 20.0104C113.278 21.7881 114.498 24.5346 113.663 27.0994C111.95 32.7525 106.972 36.9912 102.206 40.14C96.5396 43.7299 90.0085 45.9531 83.3304 46.5845C83.1185 46.6062 82.9282 46.4461 82.9109 46.2342C82.8936 46.0223 83.0449 45.8363 83.2569 45.8147C86.5311 45.4643 89.762 44.742 92.8718 43.6737C99.0353 41.4894 104.931 38.0682 109.334 33.1807C111.349 30.7932 113.49 27.8563 113.226 24.5995C113.006 23.0424 112.11 21.6151 110.99 20.4689C107.491 16.9655 102.258 15.8149 97.4263 16.1307C87.6253 16.9006 78.5035 22.9083 71.9724 29.993C65.411 37.4929 61.8687 47.1036 60.0348 56.805C57.5824 69.8672 57.8938 83.2408 58.6248 96.4629C58.6377 96.6749 58.4719 98.4847 58.2557 98.4934C58.0394 98.5064 57.8592 96.7138 57.8505 96.5019L57.8592 96.4976Z" fill="#292929"/>
<path id="Vector_32" d="M88.6308 39.6248C90.9146 38.5911 91.5936 37.3238 91.4682 36.4025C91.3082 35.2088 88.5616 35.6067 86.6888 36.9648C84.816 38.3229 85.5989 41.0002 88.6308 39.6248Z" fill="#FE1C67"/>
<path id="Vector_33" d="M113.875 96.4861C113.433 81.3997 112.175 66.2961 109.787 51.3827C108.991 46.4563 108.178 41.4088 106.115 36.837C106.024 36.651 106.107 36.4218 106.297 36.3353C106.491 36.2445 106.729 36.3396 106.803 36.5429C111.85 50.9113 112.677 66.2874 113.753 81.3521C114.013 86.391 114.497 91.4126 114.619 96.4644C114.916 102.6 114.47 102.591 114.267 102.6C114.064 102.604 114.055 103.019 114.051 102.816L113.875 96.4861Z" fill="#292929"/>
<path id="Vector_34" d="M77.2947 56.1921C85.5126 62.7837 94.2149 68.8909 103.605 73.7136C106.282 75.1885 109.323 76.6677 112.139 77.8961C115.011 79.185 117.917 80.5258 120.889 81.5249C121.044 81.5682 121.135 81.7325 121.083 81.8882C121.036 82.0353 120.88 82.1175 120.733 82.0699C118.67 81.4514 116.706 80.6728 114.738 79.8597C110.828 78.2075 107.061 76.2568 103.242 74.4013C98.5358 71.9402 94.0679 69.0683 89.6345 66.1617C85.1622 63.3633 80.7808 60.2016 76.9097 56.616C76.7973 56.5079 76.7886 56.3262 76.8967 56.2137C77.0005 56.1013 77.1736 56.0926 77.2903 56.1921H77.2947Z" fill="#292929"/>
<path id="Vector_35" d="M111.456 57.7033C112.217 59.7016 113.091 61.6566 113.766 63.7067C114.574 65.705 115.608 67.6124 116.369 69.6323C117.892 73.5942 119.509 77.742 121.067 81.6866C121.201 82.0154 120.695 82.2489 120.543 81.9116C119.228 78.9488 117.983 75.9601 116.862 72.9194C116.547 72.0198 116.11 70.7611 115.682 69.922C114.808 67.9584 114.068 65.9299 113.19 63.9576C112.187 62.0415 111.4 60.0043 110.907 57.872C110.829 57.539 111.33 57.3746 111.452 57.7076L111.456 57.7033Z" fill="#292929"/>
<g id="Group_2">
<path id="Vector_36" d="M91.0684 28.7958C91.9248 30.7595 91.0251 33.0518 89.0615 33.9082C87.0978 34.7646 84.8055 33.865 83.9491 31.9013C83.0927 29.9377 83.9923 27.6453 85.956 26.7889C87.9196 25.9325 90.212 26.8322 91.0684 28.7958Z" fill="#4827FF"/>
<path id="Vector_37" d="M84.8949 28.7209C83.9823 29.7027 84.5187 30.6846 85.2626 31.2382C86.0022 31.7961 86.6856 30.8446 86.9105 30.3169C87.2003 29.6335 87.8447 28.9329 87.4122 28.2062C86.9797 27.4796 86.0238 27.5055 84.8949 28.7166V28.7209Z" fill="#FFE9BB"/>
<path id="Vector_38" d="M86.1809 31.9927C85.8349 32.8102 86.7043 33.1129 87.1714 32.9918C87.6385 32.8707 87.8418 32.4123 87.4612 31.9668C87.2795 31.7505 87.033 31.6121 86.8038 31.5905C86.5529 31.5688 86.315 31.6813 86.1809 31.997V31.9927Z" fill="#FFE9BB"/>
<path id="Vector_39" d="M107.576 21.1611C108.433 23.129 107.533 25.4171 105.569 26.2735C103.606 27.1299 101.313 26.2302 100.457 24.2666C99.6005 22.3029 100.5 20.0105 102.464 19.1542C104.427 18.2978 106.72 19.1974 107.576 21.1611Z" fill="#4827FF"/>
<path id="Vector_40" d="M101.395 21.0862C100.482 22.068 101.019 23.0498 101.763 23.6034C102.507 24.1571 103.186 23.2098 103.411 22.6822C103.7 22.0031 104.345 21.2981 103.912 20.5715C103.48 19.8448 102.524 19.8708 101.395 21.0818V21.0862Z" fill="#FFE9BB"/>
<path id="Vector_41" d="M102.673 24.358C102.327 25.1754 103.196 25.4782 103.664 25.3571C104.131 25.236 104.334 24.7775 103.953 24.332C103.772 24.1157 103.525 23.9773 103.296 23.9557C103.045 23.9341 102.807 24.0465 102.673 24.3623V24.358Z" fill="#FFE9BB"/>
</g>
<path id="Vector_42" d="M124.283 83.7528C124.015 83.1645 123.691 83.1429 123.691 83.1429C123.691 83.1429 123.674 82.2822 123.116 81.9881C122.558 81.694 122.389 81.6507 122.389 81.6507C122.389 81.6507 122.246 81.2095 121.619 80.8938C120.988 80.5781 120.806 80.418 120.482 80.2969C119.859 80.0634 119.093 81.2139 119.093 81.2139C119.093 81.2139 118.825 81.8107 119.011 82.3081C119.197 82.8055 119.906 83.437 119.906 83.437C119.906 83.437 119.772 83.7528 120.174 84.1507C120.581 84.5486 121.022 84.6135 121.022 84.6135C121.022 84.6135 120.996 84.9725 121.615 85.0763C121.792 85.1066 122.008 85.1541 122.216 85.1844C122.735 85.5088 123.176 85.4958 123.635 85.245C124.327 84.8687 124.547 84.341 124.275 83.7528H124.283Z" fill="#292929"/>
<g id="Group_3">
<path id="Vector_43" d="M103.838 64.0226C98.1199 62.2795 96.1736 56.8427 96.9781 54.1914C97.8864 51.194 101.026 53.6248 101.026 53.6248C101.026 53.6248 101.243 49.1006 104.063 50.5106C106.524 51.739 106.277 56.7389 105.421 59.9828C104.776 62.4223 103.838 64.0226 103.838 64.0226Z" fill="#FA0154"/>
<path id="Vector_44" d="M103.968 64.3821C100.863 63.7592 98.1376 61.2073 97.0174 58.2748C95.5468 54.7498 96.9006 50.217 101.204 53.383L100.711 53.6123C100.858 52.345 101.074 50.7619 102.35 50.0872C103.752 49.5293 105.183 50.6668 105.711 51.9038C107.173 55.7792 106.135 60.5196 104.245 64.075C104.18 64.1961 104.098 64.3345 103.968 64.3864V64.3821ZM103.687 63.6597C103.622 63.6814 103.548 63.7333 103.514 63.7895C103.523 63.7852 103.557 63.703 103.566 63.6943C104.963 60.857 105.759 57.6347 105.629 54.4687C105.529 53.0024 105.114 51.1685 103.592 50.6452C101.883 50.0353 101.42 52.3796 101.325 53.6339C101.317 53.8761 101.018 54.0059 100.832 53.8631C97.225 51.3588 96.5113 55.2861 97.6532 58.0283C98.449 60.0655 100.01 61.7739 101.927 62.812C102.247 62.9893 102.575 63.1407 102.913 63.2834C103.112 63.37 103.54 63.4738 103.691 63.6597H103.687Z" fill="#292929"/>
</g>
<path id="Vector_45" d="M74.4579 28.206C75.1759 27.2891 77.0877 25.0962 77.5418 24.3652C77.2564 24.5815 76.9709 24.8021 76.6811 25.027C67.2565 32.4274 61.9754 44.3088 59.5705 56.6876C54.7897 96.5464 63.8294 123.492 64.3052 132.878H66.6841C65.8752 126.256 57.9356 49.3823 74.4579 28.2104V28.206Z" fill="#A8217B"/>
</g>
</g>
<path id="Vector 1722" d="M69.6019 9.2026C70.8292 12.4748 74.0863 18.5948 77.2965 16.8969C81.3093 14.7746 83.316 -0.0832739 90.674 0.978004C98.032 2.03928 102.714 9.2026 98.3664 9.2026C94.0185 9.2026 71.7816 3.98238 69.6019 4.95748C68.5892 5.41053 68.5308 6.76601 69.6019 9.2026Z" stroke="#FF08C9"/>
<g id="Group 1533210681">
<circle id="Ellipse 142" cx="85.2946" cy="152.078" r="2.01336" fill="#FF90C6"/>
<circle id="Ellipse 141" cx="85.3633" cy="152.15" r="1.76169" fill="#B523B2"/>
<circle id="Ellipse 143" cx="85.6888" cy="152.195" r="1.29822" fill="#3D0801"/>
</g>
<g id="Group 1533210682">
<circle id="Ellipse 142_2" cx="88.1227" cy="161.318" r="2.01336" fill="#FF90C6"/>
<circle id="Ellipse 141_2" cx="88.1914" cy="161.391" r="1.76169" fill="#B523B2"/>
</g>
<g id="Group 1533210684">
<circle id="Ellipse 142_3" cx="91.5915" cy="181.619" r="2.01336" fill="#FF90C6"/>
<circle id="Ellipse 141_3" cx="91.6601" cy="181.691" r="1.76169" fill="#B523B2"/>
</g>
<g id="Group 1533210685">
<circle id="Ellipse 142_4" cx="96.3727" cy="190.906" r="2.01336" fill="#FF90C6"/>
<circle id="Ellipse 141_4" cx="96.4414" cy="190.978" r="1.76169" fill="#B523B2"/>
</g>
<g id="Group 1533210683">
<circle id="Ellipse 142_5" cx="91.0212" cy="172.531" r="2.01336" fill="#FF90C6"/>
<circle id="Ellipse 141_5" cx="91.0898" cy="172.602" r="1.76169" fill="#B523B2"/>
</g>
<g id="Group 1533210686">
<circle id="Ellipse 142_6" cx="107.164" cy="157.295" r="2.01336" transform="rotate(45 107.164 157.295)" fill="#FF90C6"/>
<circle id="Ellipse 141_6" cx="107.164" cy="157.398" r="1.76169" transform="rotate(45 107.164 157.398)" fill="#B523B2"/>
</g>
<g id="Group 1533210688">
<circle id="Ellipse 142_7" cx="107.408" cy="167.675" r="2.01336" transform="rotate(31.3174 107.408 167.675)" fill="#FF90C6"/>
<circle id="Ellipse 141_7" cx="107.433" cy="167.772" r="1.76169" transform="rotate(31.3174 107.433 167.772)" fill="#B523B2"/>
</g>
<g id="Group 1533210689">
<circle id="Ellipse 142_8" cx="109.65" cy="176.819" r="2.01336" transform="rotate(31.3174 109.65 176.819)" fill="#FF90C6"/>
<circle id="Ellipse 141_8" cx="109.675" cy="176.917" r="1.76169" transform="rotate(31.3174 109.675 176.917)" fill="#B523B2"/>
</g>
<g id="Group 1533210690">
<circle id="Ellipse 142_9" cx="113.033" cy="190.044" r="2.01336" transform="rotate(31.3174 113.033 190.044)" fill="#FF90C6"/>
<circle id="Ellipse 141_9" cx="113.058" cy="190.141" r="1.76169" transform="rotate(31.3174 113.058 190.141)" fill="#B523B2"/>
</g>
<g id="Group 1533210687">
<circle id="Ellipse 142_10" cx="105.68" cy="148.652" r="2.01336" transform="rotate(45 105.68 148.652)" fill="#FF90C6"/>
<circle id="Ellipse 141_10" cx="105.68" cy="148.755" r="1.76169" transform="rotate(45 105.68 148.755)" fill="#B523B2"/>
</g>
<path id="Vector 1724" d="M86.1172 152.398L105.792 158.331L92.3639 172.383L108.602 176.443L97.6726 190.183H112.974L92.3639 181.439L105.792 168.324L89.2412 161.141L105.792 148.65" stroke="#3D0801" stroke-width="2" stroke-linecap="round"/>
<circle id="Ellipse 144" cx="88.3529" cy="161.318" r="1.29822" fill="#3D0801"/>
<circle id="Ellipse 145" cx="91.2045" cy="172.605" r="1.29822" fill="#3D0801"/>
<circle id="Ellipse 146" cx="91.7357" cy="181.687" r="1.29822" fill="#3D0801"/>
<circle id="Ellipse 147" cx="96.7826" cy="190.716" r="1.29822" fill="#3D0801"/>
<circle id="Ellipse 148" cx="112.97" cy="190.195" r="1.29822" fill="#3D0801"/>
<circle id="Ellipse 149" cx="109.54" cy="176.544" r="1.29822" fill="#3D0801"/>
<circle id="Ellipse 150" cx="106.447" cy="168.117" r="1.29822" fill="#3D0801"/>
<circle id="Ellipse 151" cx="106.947" cy="157.687" r="1.29822" fill="#3D0801"/>
<circle id="Ellipse 152" cx="105.65" cy="148.65" r="1.29822" fill="#3D0801"/>
</g>
</svg>
