<svg width="174" height="223" viewBox="0 0 174 223" fill="none" xmlns="http://www.w3.org/2000/svg">
<g id="Group 1533210724">
<g id="Vector 2135">
<path d="M149.723 37.7877C149.677 37.7405 149.631 37.693 149.585 37.6452C149.631 37.6933 149.677 37.7408 149.723 37.7877C157.813 46.159 149.769 44.927 146.102 44.6715L168.74 56.2091L155.502 32.4989C156.378 36.6598 157.194 45.4328 149.723 37.7877Z" fill="#C71010"/>
<path d="M110.053 89.6698C147.823 78.1077 117.726 25.7008 136.166 25.6981C141.07 25.6974 141.265 29.1174 149.585 37.6452M149.585 37.6452C157.904 46.1729 149.79 44.9285 146.102 44.6715L168.74 56.2091L155.502 32.4989C156.384 36.6853 157.204 45.5406 149.585 37.6452Z" stroke="black"/>
</g>
<g id="Group 1533210718">
<g id="Group">
<path id="Vector" d="M116.946 116.99L125.295 114.568C125.295 114.568 133.316 95.0396 140.936 97.5454C148.555 100.051 155.172 116.242 160.607 129.073C166.798 141.53 172.503 137.061 172.339 130.578C172.174 124.095 170.939 90.5831 151.562 83.7302C132.19 76.8772 119.08 93.2654 115.453 116.935L116.942 116.99H116.946Z" fill="#F84200"/>
<path id="Vector_2" d="M124.784 114.239C124.375 114.365 124 113.974 124.139 113.575C125.552 109.589 131.662 94.4456 143.789 91.5825C157.773 88.2821 171.009 96.3038 170.529 132.986C170.529 133.041 170.495 133.226 170.499 133.28C170.541 134.596 168.374 141.491 161.72 130.257C157.621 123.337 153.159 109.522 149.162 104.54C145.164 99.5579 143.288 96.8168 139.012 96.9429C134.736 97.069 128.921 105.221 125.109 113.945C125.046 114.088 124.932 114.201 124.78 114.243L124.784 114.239Z" fill="#C71010"/>
<path id="Vector_3" d="M116.946 116.99L125.295 114.568C125.295 114.568 133.316 95.0396 140.936 97.5454C148.555 100.051 155.172 116.242 160.607 129.073C166.798 141.53 172.503 137.061 172.339 130.578C172.174 124.095 170.939 90.5831 151.562 83.7302C132.186 76.8772 119.08 93.2654 115.453 116.935L116.942 116.99H116.946Z" stroke="#3D0801" stroke-width="2" stroke-miterlimit="10"/>
<path id="Vector_4" d="M135.312 99.1087C135.312 97.654 169.962 74.6441 169.279 134.752" stroke="#3D0801" stroke-width="2" stroke-miterlimit="10"/>
</g>
<g id="Group_2">
<path id="Vector_5" d="M65.4911 115.243L56.8378 112.733C56.8378 112.733 48.5253 92.4936 40.628 95.0906C32.7307 97.6875 25.8736 114.468 20.2401 127.766C13.8244 140.677 7.91128 136.045 8.08172 129.326C8.25217 122.607 9.53269 87.8705 29.6146 80.7724C49.6966 73.6743 63.2797 90.6548 67.0383 115.187L65.4955 115.243H65.4911Z" fill="#F84200"/>
<path id="Vector_6" d="M57.3684 112.391C57.7924 112.522 58.1813 112.117 58.0371 111.703C56.573 107.572 50.2403 91.8771 37.6711 88.9098C23.1789 85.4893 9.46026 93.8031 9.95848 131.816C9.95848 131.873 9.99344 132.065 9.98907 132.121C9.94537 133.485 12.1917 140.631 19.0882 128.989C23.3362 121.816 27.9601 107.498 32.1032 102.335C36.2464 97.1713 38.1912 94.3303 42.6228 94.461C47.0194 94.5874 53.0811 103.041 57.0319 112.082C57.0975 112.23 57.2155 112.348 57.3728 112.391H57.3684Z" fill="#C71010"/>
<path id="Vector_7" d="M65.4911 115.243L56.8378 112.733C56.8378 112.733 48.5253 92.493 40.628 95.0899C32.7307 97.6869 25.8736 114.467 20.2401 127.766C13.8244 140.676 7.91128 136.045 8.08172 129.326C8.25217 122.607 9.53269 87.8698 29.6146 80.7717C49.6922 73.6693 63.2797 90.6542 67.0383 115.186L65.4955 115.243H65.4911Z" stroke="#3D0801" stroke-width="2" stroke-miterlimit="10"/>
<path id="Vector_8" d="M46.456 96.7102C46.456 95.2025 10.5445 71.3548 11.2525 133.652" stroke="#3D0801" stroke-width="2" stroke-miterlimit="10"/>
</g>
<path id="Vector_9" d="M34.6848 80.5126C36.468 80.3252 38.2423 80.334 40.0517 80.6651C43.5567 81.3056 47.0662 83.0921 50.0074 85.9593C52.7695 88.6521 55.2257 92.6129 56.1085 96.8962C57.1443 101.898 55.7151 100.569 54.1331 98.0247C49.0416 89.8242 36.8613 84.5606 27.2595 87.7981C25.9178 88.2512 24.6329 88.748 23.3218 89.2926C20.1577 90.6129 19.4147 89.6456 22.7755 85.9375C25.7518 82.6564 30.3101 80.9745 34.6805 80.517L34.6848 80.5126Z" fill="#FFCF00"/>
<path id="Vector_10" d="M145.62 83.6059C143.899 83.4252 142.187 83.4336 140.442 83.7531C137.06 84.3711 133.674 86.0949 130.836 88.8613C128.171 91.4595 125.801 95.2812 124.949 99.414C123.949 104.24 125.328 102.958 126.855 100.503C131.768 92.5904 143.52 87.5117 152.784 90.6355C154.079 91.0727 155.319 91.552 156.584 92.0775C159.637 93.3514 160.354 92.4181 157.111 88.8402C154.239 85.6744 149.841 84.0516 145.624 83.6101L145.62 83.6059Z" fill="#FFCF00"/>
<path id="Vector_11" d="M87.3746 85.1252C84.8045 90.8345 78.4933 96.0738 71.9134 94.457C68.4207 93.6032 65.6833 91.1022 63.3869 88.4598C61.4099 86.161 59.7117 83.6449 58.2315 81.0025C56.072 77.1828 54.2217 73.0449 53.4512 68.7201C53.4208 68.4725 53.1876 68.3007 52.9392 68.3462C52.6857 68.3866 52.5235 68.6443 52.5894 68.8918C53.806 73.242 55.2863 77.4658 57.3646 81.4774C58.9817 84.433 60.9131 87.2624 63.2247 89.733C67.0723 94.164 72.7194 97.0439 78.5288 94.6743C81.7123 93.3809 84.4446 91.1527 86.5027 88.4346C87.1718 87.51 87.7903 86.545 88.206 85.4284C88.2921 85.201 88.1755 84.9484 87.9474 84.8676C87.7193 84.7817 87.4659 84.9029 87.3847 85.1252H87.3746Z" fill="#292929"/>
<path id="Vector_12" d="M53.5335 68.8419C52.8187 66.5229 50.5528 64.5777 47.9979 64.9314C47.714 64.9667 47.5214 65.2295 47.5619 65.5074C47.6025 65.8054 47.9066 66.0025 48.2006 65.9216C50.2334 65.3709 52.2206 67.1393 52.5551 69.0845C52.7021 69.7716 53.7312 69.519 53.5386 68.8369L53.5335 68.8419Z" fill="#292929"/>
<path id="Vector_13" d="M53.6372 69.8592C52.7298 68.0807 50.3929 67.1814 48.5426 68.0807C48.2841 68.202 48.1776 68.5102 48.3043 68.7679C48.4412 69.0457 48.8011 69.1367 49.0546 68.9548C50.2965 68.0555 52.2431 68.8285 52.6994 70.2432C52.9325 70.9252 53.9464 70.516 53.6372 69.8642V69.8592Z" fill="#292929"/>
<path id="Vector_14" d="M53.7668 70.6056C53.493 70.4085 53.2142 70.2014 52.8644 70.0498C52.1953 69.7365 51.3335 69.8679 50.6948 70.1458C50.2386 70.3883 49.2805 70.4944 49.5288 71.1967C49.6556 71.4897 50.0358 71.5958 50.2943 71.4089C50.786 71.0603 51.3183 70.7369 51.805 70.6611C52.3322 70.6005 52.7276 70.9895 53.0875 71.3584C53.5995 71.8838 54.3446 71.0603 53.7668 70.6056Z" fill="#292929"/>
<path id="Vector_15" d="M72.6472 17.7061C69.8338 16.2409 67.9683 10.7187 71.603 7.24765C73.4583 5.47426 76.875 4.94375 76.875 4.94375C76.875 4.94375 70.8527 2.4125 65.3171 6.80304C60.8714 10.3296 60.0451 15.6599 61.7382 19.424C62.9396 22.0866 65.454 23.476 68.8352 22.4402C72.2164 21.4045 72.6422 17.7061 72.6422 17.7061H72.6472Z" fill="#CF2929"/>
<path id="Vector_16" d="M71.5231 16.8536C69.1253 18.7482 65.9215 19.3495 64.0256 16.0553C62.9205 14.1354 62.6215 11.8012 62.8394 9.46191C60.6343 12.6854 60.4315 16.5201 61.7445 19.4303C62.9459 22.0929 65.4602 23.4823 68.8414 22.4466C72.2226 21.4109 72.6484 17.7125 72.6484 17.7125C72.248 17.5053 71.8728 17.2123 71.5231 16.8586V16.8536Z" fill="#A82121"/>
<path id="Vector_17" d="M73.0585 17.4958C69.211 15.1515 68.9017 9.14415 72.8963 6.77457C74.1129 6.05208 75.5526 5.60241 76.9568 5.35485C77.3725 5.31948 77.4485 4.68793 77.0531 4.55657C71.9737 2.49013 65.9362 4.59699 62.7832 8.937C61.7338 10.3618 61.0089 12.0341 60.7149 13.7873C59.8227 18.577 62.6716 24.4075 68.2985 23.104C70.8787 22.6543 72.7544 20.3757 73.0991 17.8545C73.1244 17.7383 73.1194 17.5968 73.0636 17.4907L73.0585 17.4958ZM72.2525 17.9202C72.212 17.8596 72.1917 17.713 72.2018 17.6676V17.6827V17.7181C71.9027 19.2237 71.0764 20.7243 69.7382 21.5124C64.0302 24.3115 60.5983 19.2591 61.4347 13.9035C62.6412 6.8251 70.0981 3.02569 76.7286 5.32958L76.825 4.5313C73.7936 5.07696 70.5492 6.59269 69.5506 9.72518C68.6026 12.5444 69.5303 15.9649 71.923 17.7787L72.1663 17.9404C72.1663 17.9404 72.2119 17.9353 72.2626 17.9151L72.2525 17.9202Z" fill="#292929"/>
<path id="Vector 1367" d="M89.6289 16.9837C143.736 25.0945 115.068 132.23 115.068 137.553C106.703 145.495 72.0878 173.615 60.8544 147.01C56.5431 136.799 68.845 55.2566 66.4301 51.9615C85.813 56.2703 99.2604 44.8646 101.408 36.7538C95.8317 45.3715 80.3706 43.5973 68.845 41.823C51.2224 40.3023 44.1254 35.7399 41.978 30.9242C43.8367 22.4755 59.6447 12.489 89.6289 16.9837Z" fill="#E30B0B" stroke="#292929" stroke-width="1.5"/>
<g id="Group 1533210290">
<path id="Vector_18" d="M45.0859 31.3217C43.942 30.5604 43.1465 29.3809 42.5885 27.6117C41.9932 25.7327 41.9112 23.7365 41.9067 21.8599C41.9057 20.6399 41.8162 19.4756 40.75 18.6938C40.7058 18.6644 40.6813 18.6055 40.6862 18.5536C40.81 17.3954 40.9622 16.4558 41.1595 15.6014C41.1743 15.5348 41.2314 15.4878 41.2943 15.483C45.4181 15.0923 49.5987 16.392 53.2907 17.5365C54.6482 17.9599 56.273 18.4168 58.0485 18.6171C60.1878 18.8599 62.4032 18.499 64.5469 18.1499C64.8812 18.0963 65.2126 18.0407 65.54 17.9909C70.7005 17.1855 75.6476 17.7421 79.4767 19.5599C81.2841 20.4188 83.006 21.3354 84.597 22.2881C84.6924 22.3431 84.7808 22.4019 84.8692 22.4608C86.9683 23.8579 87.643 26.0701 86.7237 28.53C86.4912 29.0678 86.1411 29.2469 85.6752 29.0642C85.6201 29.0446 85.5681 29.0142 85.5238 28.9847C85.0256 28.6531 85.1462 27.9006 85.1945 27.6822L85.1985 27.6381C85.2014 27.6273 85.2083 27.5979 85.2113 27.5871C85.4118 26.4545 85.0604 25.6683 84.0728 25.011C83.61 24.7029 83.0507 24.4496 82.5102 24.2003L82.175 24.0452C80.8029 23.4082 78.9247 22.5404 77.6333 23.1C77.0383 23.3582 76.62 23.887 76.3461 24.7158C76.1292 25.383 75.938 26.0502 75.7526 26.6958C75.0161 29.2774 74.3152 31.7169 72.0719 33.6907C69.4941 35.9602 64.3128 35.7405 61.4039 34.0253C61.3341 33.9831 61.2614 33.939 61.1936 33.8939C59.466 32.744 58.7864 30.5582 58.4268 29.0146C58.3964 28.8881 58.368 28.746 58.3386 28.599C58.1799 27.8179 57.9586 26.7486 57.3041 26.313C57.2127 26.2521 57.1164 26.205 57.0122 26.1697C56.3802 25.9614 55.7941 26.1109 55.1605 26.6366C54.7286 26.995 54.4695 27.5788 54.2164 28.1411C54.1317 28.3311 54.048 28.5133 53.9643 28.6828C53.4286 29.7368 52.6934 30.6368 51.7854 31.3622C49.8758 32.8825 47.2814 32.4601 45.6392 31.6347C45.4514 31.5395 45.2696 31.4355 45.0957 31.3197L45.0859 31.3217ZM53.2939 19.7521C52.8399 19.4499 52.313 19.231 51.8059 19.0209C51.6948 18.9767 51.5857 18.9296 51.4825 18.8864C49.6072 18.0843 47.5879 17.8152 45.8051 18.1284C45.7491 18.1293 45.7245 18.1342 45.6979 18.142C45.6586 18.1498 45.6301 18.1606 45.6016 18.1714C44.7115 18.4627 44.0415 19.0619 43.5905 19.9641C42.6471 21.8428 42.8316 24.7994 43.4996 26.7481C43.9754 28.1311 44.8544 29.3068 45.9806 30.0563C47.6403 31.161 49.536 31.1439 51.1768 30.0055C53.5811 28.3385 55.0957 23.9721 54.2987 21.02C54.1644 20.5269 53.8363 20.1132 53.2968 19.7541L53.2939 19.7521ZM72.3284 21.3408C71.9658 21.0994 71.5481 20.9021 71.0841 20.7548C68.5234 20.0531 66.509 19.8212 64.5494 20.0039C63.5484 20.0982 61.1088 20.4755 60.0939 21.9966C58.9993 23.6303 59.3116 26.5742 59.4935 27.766C59.7968 29.7182 60.9193 31.3958 62.7373 32.6143C64.3204 33.668 66.1793 34.0428 67.9877 33.6787C69.7892 33.3185 71.3474 32.2653 72.3771 30.7158C74.1627 28.0253 75.3295 23.3382 72.3313 21.3427L72.3284 21.3408Z" fill="black"/>
<g id="Group_3">
<path id="Vector_19" d="M74.5966 24.9663C74.5366 24.2803 74.267 23.7353 73.8656 23.2981C74.6912 25.5818 73.7067 28.6973 72.3709 30.7032C71.3404 32.2535 69.7837 33.3048 67.9802 33.669C66.1718 34.0342 64.3132 33.6605 62.7309 32.6076C60.9139 31.39 59.7925 29.7129 59.4904 27.7605C59.3364 26.7697 59.1016 24.5645 59.6583 22.9073C58.2009 25.3934 59.0958 29.4364 60.5705 31.5526C62.7085 34.6245 66.9652 35.4506 70.2178 33.6361C71.7241 32.7936 72.7721 31.357 73.5095 29.8371C74.2184 28.3789 74.734 26.5923 74.5937 24.9644L74.5966 24.9663Z" fill="#5C4F4F"/>
<path id="Vector_20" d="M54.4989 22.378C54.6327 25.1791 53.2291 28.5767 51.1744 30.0023C49.533 31.1418 47.6375 31.16 45.9786 30.0562C44.853 29.3072 43.9698 28.1329 43.4998 26.7489C42.9642 25.1768 42.7412 22.954 43.1693 21.1644C41.8002 23.7859 42.2523 27.4534 44.3474 29.5403C46.5092 31.693 50.2567 31.7848 52.3577 29.5144C53.9626 27.781 55.3343 24.7362 54.5019 22.38L54.4989 22.378Z" fill="#5C4F4F"/>
</g>
<path id="Vector_21" d="M86.6139 27.5778C86.5801 28.0609 86.4902 28.5322 86.3866 28.9985C86.5175 28.8987 86.6297 28.7439 86.7242 28.5265C87.6435 26.0666 86.9688 23.8543 84.8698 22.4573C84.7813 22.3984 84.6929 22.3395 84.5976 22.2846C83.0094 21.3338 81.2846 20.4152 79.4772 19.5564C75.6481 17.7385 70.7011 17.182 65.5406 17.9874C65.2112 18.04 64.8788 18.0907 64.5474 18.1463C62.4038 18.4955 60.1883 18.8563 58.0491 18.6136C56.2736 18.4133 54.6457 17.9544 53.2912 17.5329C49.5992 16.3884 45.4187 15.0887 41.2948 15.4794C41.227 15.4853 41.1729 15.5342 41.16 15.5979C41.1275 15.7292 41.1018 15.8693 41.0732 16.0074C43.9897 15.5482 47.2061 16.4101 49.858 17.3891C51.8897 18.1423 53.8425 19.115 55.9974 19.4871C58.0383 19.8385 60.0897 19.2071 62.1085 18.949C64.4113 18.6548 66.7605 18.247 69.0829 18.2038C71.2115 18.1633 73.3252 18.4952 75.3619 19.1073C78.4799 20.0397 81.6814 21.0064 84.3256 22.9703C85.9342 24.1641 86.7541 25.5426 86.6158 27.5749L86.6139 27.5778Z" fill="#5C4F4F"/>
<path id="Vector_22" d="M78.9456 24.8697C79.9485 24.8616 80.9646 25.5209 81.8893 26.1704C81.9202 25.6853 81.9481 25.1983 81.9691 24.7152C81.9711 24.6613 81.9456 24.6104 81.9014 24.5809C81.8955 24.577 81.8326 24.5436 81.8326 24.5436C80.7063 23.9724 79.0031 23.1107 77.9005 23.5665C77.4943 23.7338 77.206 24.0687 77.0473 24.5536C76.8049 25.2972 76.5988 26.0565 76.3976 26.7893C75.7971 29.0025 75.2302 31.0894 73.7018 32.8932C71.83 35.1015 69.2375 36.0951 65.9981 35.8466C64.4172 35.7248 62.4058 35.4567 60.8875 34.4462C60.5072 34.1931 60.1673 33.8988 59.8824 33.5733C58.9413 32.4966 58.2797 31.1682 57.9191 29.6197C57.8966 29.5197 57.8721 29.3844 57.8398 29.2227C57.6919 28.4063 57.4658 27.1724 56.8703 26.7761C56.6875 26.6544 56.3848 26.5591 55.9795 26.795C55.3293 27.1737 55.0456 27.8006 54.7679 28.406C54.6704 28.6215 54.567 28.8458 54.4518 29.0496C53.6799 30.4179 51.4829 33.5314 47.7934 32.9494C47.5083 32.9041 47.2174 32.8422 46.9313 32.7665C46.8556 32.7458 46.7789 32.784 46.7494 32.8536C46.709 32.9456 46.6656 33.0358 46.6253 33.1278C46.7108 33.1593 46.7982 33.1877 46.8798 33.2123C48.3749 33.6848 50.0778 33.7645 51.5579 33.216C52.9741 32.6928 54.1421 31.5031 54.8884 30.2239C55.1621 29.7518 55.7762 27.76 56.4704 28.8806C56.9506 29.6591 57.0029 30.6498 57.2716 31.5085C57.5178 32.2926 57.9214 33.0073 58.4242 33.6564C60.535 36.3784 64.8065 37.0716 68.0581 36.8948C72.0658 36.6774 74.6157 33.5779 76.1482 30.1582C76.6397 29.062 77.024 27.9158 77.3779 26.7705C77.6391 25.9289 77.8651 24.8727 78.9417 24.8628L78.9456 24.8697Z" fill="#252525"/>
<path id="Vector_23" d="M70.8522 31.6409C69.4381 31.9828 67.9201 31.8816 66.538 31.4631C64.807 30.9355 63.281 29.8094 62.4623 28.181C61.7447 26.7517 61.8072 24.737 62.8976 23.5042C64.5302 21.6592 67.7774 22.0871 69.8534 22.7296C71.2649 23.1677 72.6261 23.8782 73.5534 24.9373C73.518 23.6986 73.0754 22.5841 71.9876 21.8601C71.6692 21.6481 71.2967 21.4724 70.879 21.3388C69.2354 20.8907 67.2988 20.4473 65.3776 20.5535C63.1279 20.6792 61.6714 21.1288 60.9265 21.9288C59.7368 23.2018 59.7877 26.1035 60.104 27.6353C60.4929 29.5299 61.3806 30.9534 62.7386 31.8658L62.7563 31.8776C64.3778 32.9568 66.3969 33.3915 68.1561 33.0372C69.2054 32.8263 70.1172 32.3498 70.8502 31.6438L70.8522 31.6409Z" fill="#070707"/>
<path id="Vector_24" d="M62.6381 32.7383C65.9488 34.9545 70.3149 34.075 72.4943 30.7969C74.6205 27.5981 75.6798 22.0662 71.1219 20.6045C68.9563 20.0129 66.7779 19.6378 64.5242 19.8457C62.9559 19.9915 60.8711 20.5328 59.9546 21.9069C58.9348 23.4289 59.0665 26.07 59.3326 27.785C59.6583 29.8882 60.8998 31.5727 62.643 32.7373L62.6381 32.7383ZM61.0282 22.0351C61.9797 21.0158 64.0673 20.7822 65.374 20.7088C67.2136 20.6034 69.0608 21.0086 70.8233 21.4891C74.9635 22.8172 73.2526 27.9664 71.4807 30.6363C69.5041 33.6118 65.5251 33.5509 62.8139 31.7379C61.3645 30.7647 60.586 29.2736 60.2422 27.6045C59.9287 26.0746 59.8887 23.2523 61.0282 22.0351Z" fill="#3D0801"/>
<path id="Vector_25" d="M54.4396 20.9731C54.0916 19.692 52.626 19.2009 51.539 18.7366C49.7472 17.9689 47.6985 17.6292 45.7702 17.9687C45.7318 17.9687 45.6895 17.9745 45.6462 17.9882C45.602 17.997 45.5617 18.0126 45.5263 18.0273C42.2858 19.0782 42.4156 24.0887 43.3445 26.7931C44.4903 30.1346 48.0536 32.3491 51.2616 30.1252C53.8183 28.3515 55.2367 23.8998 54.4445 20.9721L54.4396 20.9731ZM44.7105 27.6555C43.494 25.5712 42.9175 19.7323 45.8333 18.8987C48.2091 18.4449 51.0785 19.1693 53.0704 20.5418C54.1936 21.3149 53.649 23.6418 53.4259 24.7254C53.1891 25.8806 52.6819 26.9493 52.0401 27.9327C50.1323 30.869 46.4877 30.6908 44.7135 27.6575L44.7105 27.6555Z" fill="#3D0801"/>
<path id="Vector_26" d="M71.4817 30.5636C70.6705 31.787 69.4684 32.5886 68.016 32.8795C66.2568 33.2338 64.2376 32.7991 62.6162 31.7199L62.5985 31.7081C61.2385 30.7987 60.3508 29.3751 59.9639 27.4777C59.6505 25.9477 59.5947 23.0471 60.7864 21.7712C61.5343 20.9731 62.9908 20.5235 65.2375 20.3959C67.1558 20.2876 69.0953 20.733 70.7388 21.1812C71.1566 21.3148 71.5291 21.4905 71.8475 21.7024C74.657 23.5723 73.1698 28.025 71.4817 30.5636ZM53.4673 24.4495C53.716 23.264 54.172 21.0565 53.0164 20.2619L52.8984 20.1834C50.7906 18.7805 47.9516 18.1569 45.6505 18.601C44.8432 18.8326 44.2439 19.428 43.8646 20.3694C42.9573 22.6206 43.6005 26.1459 44.44 27.5841C44.8701 28.3165 45.4094 28.9048 46.0462 29.3287C46.9837 29.9526 48.0818 30.1779 49.1349 29.9612C50.2766 29.7269 51.3037 28.9829 52.0292 27.8683C52.7547 26.7537 53.2137 25.687 53.4347 24.6063L53.4683 24.4544L53.4673 24.4495Z" fill="#FF1500"/>
</g>
<g id="Group 1533210303">
<path id="Vector_27" d="M93.4941 21.7413C96.3075 20.2761 98.173 14.7538 94.5383 11.2828C92.683 9.50941 89.2663 8.97891 89.2663 8.97891C89.2663 8.97891 95.2886 6.44765 100.824 10.8382C105.27 14.3648 106.096 19.6951 104.403 23.4591C103.202 26.1217 100.687 27.5111 97.3061 26.4754C93.9249 25.4397 93.4991 21.7413 93.4991 21.7413H93.4941Z" fill="#CF2929"/>
<path id="Vector_28" d="M94.6153 20.8887C97.0131 22.7834 100.217 23.3846 102.113 20.0905C103.218 18.1705 103.517 15.8363 103.299 13.4971C105.504 16.7205 105.707 20.5553 104.394 23.4655C103.192 26.1281 100.678 27.5175 97.2969 26.4818C93.9157 25.446 93.4899 21.7477 93.4899 21.7477C93.8904 21.5405 94.2655 21.2475 94.6153 20.8938V20.8887Z" fill="#A82121"/>
<path id="Vector_29" d="M93.9004 21.9554C94.017 22.016 94.022 21.9453 94.24 21.8139C96.6327 20.0001 97.5553 16.5746 96.6124 13.7604C95.6087 10.6279 92.3695 9.11215 89.3381 8.56649L89.4344 9.36477C96.0649 7.06593 103.522 10.8603 104.728 17.9387C105.57 23.2842 102.123 28.3517 96.4249 25.5476C95.0866 24.7544 94.2552 23.2538 93.9663 21.7533C93.9612 21.7432 93.9663 21.7129 93.9561 21.7028C93.9714 21.7432 93.946 21.8947 93.9055 21.9554H93.9004ZM93.0994 21.531C93.0437 21.6371 93.0386 21.7735 93.064 21.8947C93.4087 24.4159 95.2843 26.6996 97.8645 27.1442C103.491 28.4427 106.34 22.6172 105.448 17.8276C105.154 16.0744 104.429 14.402 103.38 12.9772C100.227 8.64228 94.1843 6.53037 89.1099 8.59681C88.7145 8.74333 88.7957 9.35467 89.2063 9.39509C90.6104 9.64265 92.0501 10.0923 93.2667 10.8148C97.2562 13.1844 96.947 19.1917 93.1045 21.536L93.0994 21.531Z" fill="#292929"/>
</g>
<path id="Vector_30" d="M117.96 45.5313C121.249 59.4705 110.859 105.151 106.443 135.232L115.626 138.928C115.626 138.928 120.601 112.379 121.335 83.5493C122.109 53.2027 117.96 45.5313 117.96 45.5313Z" fill="#C71111"/>
<path id="Vector_31" d="M66.4336 51.526L66.5902 51.5854C66.8929 51.6974 67.1956 51.8028 67.4984 51.9082C67.514 51.9148 67.5297 51.9214 67.5453 51.9214C67.8481 52.0268 68.156 52.1257 68.4587 52.2245C68.5057 52.2377 68.5474 52.2509 68.5944 52.264C69.2625 52.4683 69.9305 52.6528 70.5986 52.811C70.9378 52.8966 71.2771 52.9691 71.6163 53.0416C72.2896 53.1865 72.9681 53.3052 73.6362 53.404C73.9233 53.4501 74.2103 53.4897 74.4974 53.5226C74.8732 53.5687 75.2542 53.6083 75.6299 53.6412C75.964 53.6742 76.2928 53.6939 76.6164 53.7137C76.8878 53.7335 77.154 53.7466 77.4202 53.7532C84.6958 54.0036 91.1885 51.8423 95.4631 48.6202C96.2877 48.0008 97.0028 47.3616 97.6134 46.7159C97.9788 46.3337 98.3076 45.9449 98.6103 45.5562V45.5496C98.8138 45.2926 98.9965 45.0356 99.1687 44.7852C99.8681 43.7507 100.354 42.7359 100.688 41.7871C100.813 41.4378 100.917 41.0952 101.006 40.7592C101.157 40.1793 101.256 39.6324 101.319 39.1382C101.34 38.9866 101.356 38.8351 101.361 38.6967C101.46 37.6029 101.371 36.8385 101.335 36.5947C101.335 36.687 101.335 36.8583 101.277 37.0955C101.267 37.1285 101.256 37.168 101.246 37.2009C101.246 37.2273 101.23 37.2602 101.22 37.2932C101.199 37.3591 101.173 37.425 101.147 37.4975C101.006 37.8599 100.755 38.3211 100.327 38.8483C100.275 38.9142 100.213 38.9866 100.15 39.0591C99.4088 39.9091 98.198 40.9371 96.2407 42.0638C96.0789 42.1561 95.9172 42.2483 95.7501 42.3406C95.724 42.3538 95.7032 42.3669 95.6771 42.3801C95.5153 42.4658 95.3535 42.5514 95.1864 42.6371C94.5654 42.96 93.8869 43.2894 93.1405 43.6255C84.3617 47.5527 71.5955 44.5678 67.9211 43.5596C67.9211 43.5596 67.7593 43.553 67.4775 43.553C68.1455 49.2462 66.9399 51.0384 66.4284 51.526H66.4336Z" fill="#CF2929" stroke="#292929" stroke-width="2" stroke-linecap="round" stroke-linejoin="round"/>
<path id="Vector 1380" d="M95.2698 45.2104C97.9378 43.9903 100.958 39.4134 101.406 37.7666C97.9378 41.1035 96.337 41.6168 89.4001 43.1569C86.9497 43.701 73.1819 43.2153 65.9215 41.5685C66.4593 42.6664 66.7707 44.3431 66.7219 44.9537C66.4551 48.2906 92.2447 46.5938 95.2698 45.2104Z" fill="#EDDB35"/>
<path id="Vector_32" d="M110.695 86.6409C108.125 92.3501 101.814 97.5894 95.2337 95.9726C91.741 95.1188 89.0036 92.6179 86.7072 89.9754C84.7302 87.6766 83.032 85.1605 81.5518 82.5181C79.3923 78.6985 77.542 74.5605 76.7715 70.2357C76.7411 69.9881 76.5079 69.8163 76.2595 69.8618C76.006 69.9022 75.8438 70.1599 75.9097 70.4075C77.1263 74.7576 78.6066 78.9814 80.685 82.993C82.3021 85.9487 84.2334 88.778 86.545 91.2486C90.3926 95.6796 96.0397 98.5595 101.849 96.1899C105.033 94.8965 107.765 92.6684 109.823 89.9502C110.492 89.0256 111.111 88.0606 111.526 86.944C111.612 86.7166 111.496 86.464 111.268 86.3832C111.04 86.2973 110.786 86.4185 110.705 86.6409H110.695Z" fill="#292929"/>
<path id="Vector_33" d="M76.846 70.3576C76.1312 68.0385 73.8653 66.0933 71.3104 66.447C71.0265 66.4824 70.8339 66.7451 70.8744 67.023C70.915 67.3211 71.2191 67.5181 71.5131 67.4373C73.5459 66.8866 75.5331 68.6549 75.8676 70.6001C76.0146 71.2872 77.0437 71.0346 76.8511 70.3525L76.846 70.3576Z" fill="#292929"/>
<path id="Vector_34" d="M76.9497 71.3748C76.0423 69.5964 73.7054 68.697 71.8551 69.5964C71.5966 69.7176 71.4901 70.0258 71.6168 70.2835C71.7537 70.5614 72.1136 70.6523 72.3671 70.4704C73.609 69.5711 75.5556 70.3441 76.0119 71.7588C76.2451 72.4409 77.2589 72.0316 76.9497 71.3799V71.3748Z" fill="#292929"/>
<path id="Vector_35" d="M77.0714 72.1192C76.7977 71.9222 76.5189 71.715 76.1691 71.5635C75.5 71.2502 74.6382 71.3816 73.9995 71.6595C73.5432 71.902 72.5852 72.0081 72.8336 72.7104C72.9603 73.0034 73.3405 73.1095 73.599 72.9226C74.0907 72.5739 74.623 72.2506 75.1096 72.1748C75.6368 72.1142 76.0322 72.5032 76.3922 72.872C76.9042 73.3975 77.6493 72.5739 77.0714 72.1192Z" fill="#292929"/>
<path id="Vector 1381" d="M78.8572 56.5237C81.0217 59.2294 86.799 56.0168 88.7422 55.0029C88.1339 57.8417 83.5885 62.2689 81.3918 64.1276L79.6175 61.8464L76.576 67.9295L75.3087 61.8464C74.2948 62.3533 74.5483 65.9018 73.5344 64.888C72.2671 63.6207 66.9967 53.788 69.7325 56.5237C71.5067 58.2979 74.7173 57.3686 76.3225 56.2702C76.576 56.2702 77.8433 55.2564 78.8572 56.5237Z" fill="#292929"/>
<path id="Vector 1382" d="M70.2456 27.1202L72.2734 29.1479C68.9784 36.4983 61.3745 31.1756 61.1211 29.9083C61.0648 29.6271 61.1211 29.2324 61.1211 28.8945C61.5435 29.3169 62.3377 30.0097 62.1349 29.4014C61.9322 28.793 62.5574 27.9651 62.8953 27.6271C63.1488 28.303 63.6557 29.452 63.6557 28.641C63.6557 27.8299 64.8385 25.7684 65.43 24.839C65.3455 25.9374 65.3286 27.7285 65.9369 26.1064C66.6973 24.0787 68.9784 22.8113 67.9646 24.3321C67.1535 25.5487 68.3025 27.8806 68.9784 28.8945L70.2456 27.1202Z" fill="#FFCF00"/>
<path id="Vector 1383" d="M52.5009 26.3613L53.0078 27.6286C49.7128 35.486 44.1366 29.4029 43.8832 27.8821C43.7777 27.2496 43.9677 26.1923 44.1366 25.8544C44.4746 26.5303 45.0998 27.6793 44.897 26.8682C44.6435 25.8544 46.6713 23.8267 46.1643 24.8405C45.6574 25.8544 47.4316 27.8821 47.1782 27.1217C46.9754 26.5134 47.6006 25.6854 47.9386 25.3475C48.1075 25.9389 48.5469 26.9189 48.9524 26.1078C49.4593 25.094 51.487 23.3198 50.7266 24.8405C50.1183 26.0571 51.1491 27.0372 51.7405 27.3752L52.5009 26.3613Z" fill="#FFCF00"/>
<path id="Vector_36" d="M5.57696 156.845C4.89388 156.845 4.23951 156.782 3.63105 156.661C2.09843 156.358 1.31202 155.374 1.28906 153.748C1.28906 153.64 1.35794 153.542 1.45553 153.508C1.48423 153.497 1.51293 153.491 1.53589 153.491C1.61051 153.491 1.68513 153.525 1.7368 153.588C2.03528 153.972 2.44858 154.263 2.97667 154.452C3.38996 154.607 3.86066 154.676 4.41171 154.676C5.16941 154.676 5.95581 154.538 6.6963 154.395C8.43557 154.057 10.1921 153.519 11.9256 152.781C15.3123 151.339 17.9068 148.953 19.7839 147.035C20.3062 146.537 20.8056 146.028 21.2878 145.53L21.4543 145.358C22.1718 144.626 22.8778 143.796 23.6814 142.749C24.9845 141.198 26.2416 139.555 27.4183 137.856C28.2162 136.768 28.905 135.79 29.5134 134.857C28.2506 136.574 26.9189 138.336 25.4322 140.288C24.8008 141.072 24.0545 141.993 23.2567 142.898L23.0271 143.155C21.8446 144.5 20.6162 145.891 19.3189 147.19C18.831 147.625 18.3201 148.088 17.8437 148.581C16.776 149.536 15.7887 150.297 14.8129 150.927C12.0978 152.678 8.64221 153.891 5.3244 154.269C4.99721 154.309 4.70446 154.326 4.42893 154.326C3.13165 154.326 2.23045 153.909 1.75402 153.085C1.61051 152.838 1.51293 152.575 1.44979 152.278C1.44405 152.243 1.44405 152.215 1.44979 152.18C1.60477 151.385 1.84586 150.584 2.05824 149.874C2.16157 149.525 2.25915 149.199 2.33951 148.907C2.51172 148.254 2.64948 147.533 2.76428 146.692C2.76428 146.675 2.77002 146.658 2.77576 146.64C3.10295 145.719 3.47606 144.792 3.90658 143.807C5.48512 140.202 7.30475 136.762 9.29659 133.58C12.1667 129.008 15.5591 125.042 19.1524 121.997C15.5763 124.704 12.2815 128.373 9.17605 133.088C7.27605 135.978 5.50234 139.303 3.59087 143.561L3.48754 143.79C3.44736 143.882 3.35552 143.939 3.25794 143.939C3.24072 143.939 3.21776 143.939 3.20054 143.933C3.07999 143.905 2.99963 143.796 3.00537 143.676C3.02833 143.178 3.04555 142.674 3.06277 142.171C3.10295 141.055 3.13739 139.899 3.24072 138.777C3.59661 134.748 4.63558 130.822 6.32893 127.096C9.87061 119.307 16.2479 112.829 24.2842 108.851C28.3597 106.837 33.0379 105.612 38.1811 105.223C39.5128 105.12 40.9364 105.028 42.3542 105.028C43.6744 105.028 44.8569 105.108 45.9648 105.274C48.4732 105.652 50.6889 106.963 52.7439 108.273C53.2318 108.582 53.7484 108.897 54.3282 109.235C54.4315 109.298 54.4831 109.424 54.4372 109.538C54.4028 109.635 54.3052 109.704 54.2019 109.704C54.1847 109.704 54.1674 109.704 54.156 109.704C53.8804 109.653 53.6049 109.607 53.3351 109.567C54.0584 109.715 54.7989 109.899 55.5566 110.11C55.8378 110.19 56.1191 110.271 56.3946 110.356C56.4061 110.356 56.4692 110.391 56.4807 110.397C56.5955 110.454 56.6701 110.597 56.6242 110.717C56.5898 110.82 56.5037 110.894 56.4004 110.894C56.3889 110.894 56.3717 110.894 56.3544 110.894C55.4475 110.711 54.7529 110.591 54.1043 110.505C52.8644 110.345 51.6245 110.259 50.4306 110.259C47.6524 110.259 45.1669 110.711 43.1578 111.57C43.4448 111.513 43.7318 111.461 44.0188 111.404C45.3391 111.152 46.7052 110.889 48.0771 110.763C48.8061 110.694 49.5753 110.66 50.356 110.66C51.5499 110.66 52.7955 110.734 54.1617 110.894C55.9239 111.095 57.6862 111.558 59.391 112.005C60.097 112.188 60.8031 112.377 61.5091 112.543C62.5653 112.915 63.6215 113.252 64.7638 113.579C66.2964 114.019 67.8864 114.666 69.62 115.547C71.916 116.715 73.9193 118.237 75.5782 120.063C75.6643 120.154 75.6643 120.297 75.584 120.395C75.5323 120.452 75.4634 120.486 75.3888 120.486C75.3429 120.486 75.297 120.475 75.2568 120.452C74.5737 120.04 73.9079 119.691 73.3511 119.405C70.2858 117.831 66.7499 117.018 61.8994 116.772C61.8248 116.772 61.4861 116.761 61.4861 116.761C60.6423 116.703 59.942 116.675 59.2877 116.669H58.972C55.9067 116.669 52.8529 117.087 49.9025 117.911L49.6327 117.98C49.4605 118.025 49.2883 118.065 49.1161 118.117C47.6064 118.552 46.0795 119.164 44.4436 119.994C43.8868 120.269 43.33 120.561 42.7904 120.87C42.624 120.967 42.4518 121.058 42.2853 121.156C42.2853 121.156 41.9926 121.327 41.9122 121.379C41.4702 121.642 41.0512 121.923 40.6494 122.203C40.569 122.26 40.2705 122.472 40.2705 122.472L40.1959 122.529C38.8469 123.502 37.6071 124.572 36.482 125.728C37.6186 124.675 38.7551 123.737 39.9146 122.884C40.282 122.65 40.6264 122.415 40.9765 122.186C41.7055 121.699 42.4633 121.196 43.2382 120.767C43.927 120.383 44.6847 120.017 45.5515 119.639L45.7466 119.553C45.8901 119.49 46.0336 119.427 46.1771 119.37C46.2862 119.324 46.3953 119.284 46.5043 119.244L46.6651 119.181C49.6098 118.065 53.0194 117.333 56.5094 117.064C57.4451 117.001 58.4324 116.972 59.4369 116.972C59.8158 116.972 60.1889 116.972 60.562 116.984C64.5227 117.144 68.5064 118.031 72.094 119.536C73.9021 120.297 75.5036 121.299 76.8583 122.506C77.4094 122.999 77.9432 123.594 78.5 124.326C79.4586 126.226 80.1072 128.258 80.4516 130.404C80.4574 130.439 80.4516 130.473 80.4516 130.507L80.3828 130.77C80.1876 131.303 80.0498 131.829 79.958 132.367C79.9408 132.482 79.8432 132.567 79.7226 132.579H79.7054C79.5964 132.579 79.4988 132.51 79.4643 132.402C77.8112 126.913 74.3786 123.084 69.2641 121.018C66.4686 119.891 63.501 119.319 60.4529 119.319C52.0665 119.319 43.0889 123.634 35.8104 131.16C34.0482 132.985 32.7279 135.223 31.4479 137.386C31.1896 137.821 30.937 138.25 30.6787 138.68C28.7557 141.867 26.2932 144.717 23.9168 147.321C19.6117 152.043 15.0138 154.962 9.86487 156.244C8.18874 156.661 6.82832 156.856 5.57696 156.856V156.845Z" fill="#F84200"/>
<path id="Vector_37" d="M48.0848 153.595C47.9872 153.578 47.9068 153.509 47.8839 153.418C46.9884 150.35 45.5534 147.426 44.1643 144.599L44.0208 144.307C41.4434 139.065 40.0428 134.326 39.6123 129.404C39.6123 129.358 39.6008 129.318 39.5836 129.267C39.5492 129.169 39.5836 129.055 39.664 128.992L39.7386 128.929C39.9108 128.786 40.083 128.649 40.2552 128.511C40.5709 128.259 40.8866 128.013 41.2081 127.773C41.254 127.739 41.3057 127.722 41.3631 127.722C41.3975 127.722 41.4319 127.727 41.4664 127.744C41.5525 127.784 41.6099 127.865 41.6099 127.962C41.7936 131.19 42.4078 134.269 43.4353 137.153C42.6833 133.817 42.1437 130.371 42.3619 127.029C42.3676 126.955 42.4078 126.886 42.4652 126.84C46.5235 123.939 50.6277 121.907 54.6573 120.808C55.237 120.648 55.8512 120.522 56.4941 120.419C56.5056 120.419 56.5171 120.419 56.5343 120.419C56.5917 120.419 56.6549 120.442 56.7008 120.476C56.7582 120.528 56.7869 120.596 56.7869 120.671C56.7754 126.76 55.966 132.815 54.3243 139.173C52.8147 145.034 50.8516 149.715 48.3374 153.487C48.2914 153.555 48.2111 153.595 48.1307 153.595C48.1192 153.595 48.1078 153.595 48.0905 153.595H48.0848Z" fill="#FFCF00"/>
<path id="Vector_38" d="M34.3775 221.257C32.9999 221.257 31.5132 220.519 29.8198 219.008C28.5742 217.892 27.4951 216.513 26.6168 214.91C25.641 213.125 25.6353 211.505 26.6168 209.805C26.6283 209.782 26.6455 209.759 26.6685 209.742C27.3114 209.176 28.0806 208.884 28.9473 208.884C31.4271 208.884 34.0503 211.202 35.0664 212.197C36.2488 213.359 37.2304 216.747 36.6908 219.054C36.4325 220.175 35.8413 220.919 34.9803 221.2C34.7564 221.24 34.567 221.251 34.3775 221.251V221.257Z" fill="#FFCF00"/>
<path id="Vector_39" d="M37.9584 219.409C37.9125 219.409 37.8666 219.397 37.8264 219.374C37.7345 219.323 37.6943 219.214 37.7116 219.111C38.1478 216.833 37.4188 214.023 36.4774 212.421C36.4258 212.329 36.4315 212.221 36.5004 212.135C37.3614 211.065 37.7231 209.88 37.9871 208.758C38.5726 206.252 39.4049 205.044 41.546 203.573C43.0499 202.543 44.5825 201.604 46.1496 200.66C46.9131 200.271 47.6421 199.893 48.3596 199.487C49.8578 198.634 51.2641 197.57 52.6303 196.54L53.1009 196.185C53.2387 196.082 53.3707 195.979 53.497 195.87L53.7668 195.658C53.7668 195.658 53.8357 195.612 53.8357 195.607C57.2683 192.934 60.0006 190.216 62.1991 187.285L62.2565 187.217C62.3426 187.108 62.4287 186.994 62.5148 186.885L62.5952 186.77C62.8822 186.381 63.1692 185.975 63.4447 185.551C60.1958 189.397 56.4302 192.425 53.1411 194.903C53.1354 194.909 53.101 194.926 53.0952 194.931C52.6762 195.258 52.2399 195.584 51.6946 195.973C51.6085 196.036 51.5224 196.099 51.4363 196.156L51.2871 196.259C49.7946 197.306 48.262 198.256 47.0967 198.966L46.0176 199.613C44.7433 200.374 43.423 201.164 42.1487 201.988C41.988 202.091 41.8273 202.194 41.6723 202.303L40.972 202.76C40.794 202.881 40.6161 202.995 40.4381 203.115C39.4853 203.773 38.3085 204.689 37.6829 205.983C37.3327 206.709 37.1605 207.499 36.9998 208.26C36.7874 209.25 36.5693 210.275 35.9493 211.19C35.9092 211.253 35.8345 211.294 35.7599 211.299C35.7542 211.299 35.7484 211.299 35.7427 211.299C35.6738 211.299 35.6049 211.271 35.559 211.219C34.0264 209.571 31.3802 207.911 28.9119 207.911C28.7914 207.911 28.6708 207.911 28.5503 207.923H28.533C28.4412 207.923 28.3551 207.871 28.3092 207.791C28.2633 207.699 28.2747 207.591 28.3379 207.516C31.9312 203.161 32.5569 198.171 32.9932 192.104C33.0907 190.771 33.1194 189.42 33.1481 188.115C33.1941 185.843 33.2457 183.497 33.659 181.15C34.8357 174.523 38.0904 167.799 43.3312 161.16C44.0889 160.198 44.8925 159.26 45.6674 158.361C47.223 156.547 48.836 154.67 50.1103 152.541C51.6889 149.914 52.9976 146.864 54.3466 142.663C56.6197 135.584 57.7734 128.127 57.7734 120.509C57.7734 120.378 57.8768 120.269 58.0088 120.257C58.5311 120.217 59.0707 120.2 59.616 120.2C63.1118 120.2 66.8314 121.001 70.0861 122.449C78.3232 126.118 79.5229 135.029 79.5114 140.013C79.1613 143.19 78.7308 146.881 78.1395 150.481C77.6287 153.588 76.848 156.833 75.6139 161.011C74.4716 164.863 72.9447 168.64 71.4637 172.291C71.0619 173.287 70.6486 174.306 70.2411 175.33C74.4658 168.806 77.4737 160.547 79.4253 150.137C80.2978 145.479 80.7054 141.232 80.671 137.152C80.671 136.854 80.6652 136.557 80.6595 136.259C80.7226 134.668 80.8145 133.466 80.9752 132.362C81.0039 132.173 81.0326 131.984 81.067 131.801C81.1474 131.475 81.2507 131.171 81.3655 130.885C81.4172 130.794 81.4401 130.748 81.4516 130.708C83.4377 126.215 89.1721 125.734 91.5428 125.734H91.7954C97.6791 125.814 101.881 129.311 105.555 133.088C108.327 135.938 110.847 139.201 113.051 142.783C113.08 142.829 113.091 142.881 113.086 142.938C111.989 156.919 107.787 170.637 100.589 183.709C97.2141 189.838 94.0168 194.176 90.2226 197.787C86.1356 201.667 81.0555 205.118 74.7012 208.335C69.2078 211.116 63.1692 213.285 56.7632 214.779C53.9849 215.426 51.0632 215.895 48.084 216.175C45.5182 216.416 42.872 216.662 40.2946 217.961C39.514 218.356 38.7907 218.871 38.1249 219.374C38.0789 219.409 38.0273 219.426 37.9756 219.426L37.9584 219.409Z" fill="#FFCF00"/>
<path id="Vector_40" d="M124.559 200.862C123.468 200.862 122.516 199.849 121.792 197.931C120.288 193.925 120.575 189.822 121.052 186.337C121.167 185.512 121.281 184.683 121.396 183.858C122.229 177.981 123.095 171.897 122.28 165.837C121.488 159.913 119.542 153.652 116.494 147.225C115.8 145.76 115.03 144.318 114.135 142.802C114.118 142.767 114.106 142.733 114.101 142.698C114.089 142.578 114.032 142.481 113.94 142.424C113.905 142.401 113.882 142.378 113.859 142.344C112.137 139.494 110.105 136.706 107.815 134.068C104.951 130.766 101.059 126.794 96.3405 125.392C94.7906 124.929 93.0628 124.688 91.358 124.688C88.9012 124.688 86.6166 125.18 84.7511 126.102C84.7166 126.119 84.6765 126.13 84.642 126.13C84.5617 126.13 84.487 126.09 84.4354 126.022C84.3665 125.919 84.378 125.781 84.4641 125.695C85.239 124.94 85.9967 124.328 86.7831 123.813C88.6716 122.571 90.8988 121.878 93.4072 121.752C93.6598 121.741 93.9124 121.735 94.165 121.735C98.5734 121.735 103.051 123.669 107.115 127.321C107.161 127.361 107.35 127.544 107.35 127.544C110.576 130.732 113.527 134.726 116.133 139.419C117.648 142.155 118.899 145.051 120.019 147.775C120.748 149.543 121.368 151.375 121.965 153.143C122.177 153.773 122.395 154.408 122.613 155.049C121.901 151.42 120.593 147.552 118.716 143.505C117.321 140.295 115.633 137.267 113.71 134.509C111.207 130.749 108.469 127.63 105.565 125.243C102.224 122.491 98.0625 120.911 94.142 120.911C93.4302 120.911 92.7242 120.962 92.0411 121.06C90.7208 121.254 89.4351 121.632 88.2354 122.187C88.2009 122.204 88.1665 122.21 88.132 122.21C88.0459 122.21 87.9598 122.164 87.9139 122.084C87.8508 121.975 87.8795 121.832 87.9828 121.752C89.7909 120.442 91.8746 119.331 94.0214 118.547C96.2773 117.718 98.7054 117.351 101.908 117.351C102.97 117.351 104.038 117.391 104.853 117.426C105.152 117.437 105.439 117.443 105.726 117.443C106.087 117.443 106.449 117.431 106.805 117.42C107.677 117.483 108.521 117.546 109.365 117.62C114.479 118.055 118.739 119.137 122.326 120.911C119.324 118.959 115.639 117.849 110.674 117.368C110.553 117.357 110.456 117.26 110.45 117.139C110.438 117.019 110.519 116.905 110.639 116.876C111.85 116.573 113.027 116.149 114.25 115.589C114.6 115.428 114.944 115.268 115.289 115.108C118.027 113.837 120.61 112.641 123.71 112.263C124.41 112.178 125.139 112.132 125.874 112.132C128.118 112.132 130.546 112.544 133.106 113.351C138.743 115.131 144.213 119.194 148.519 124.797C152.864 130.451 154.592 137.222 155.613 142.487C156.945 149.36 156.698 156.302 154.902 162.563C153.145 168.692 149.437 174.393 143.249 180.499C142.268 181.472 141.269 182.428 140.276 183.389C138.835 184.78 137.348 186.216 135.919 187.664C135.884 187.699 135.85 187.733 135.821 187.773L135.729 187.87C135.678 187.922 135.615 187.95 135.546 187.95C135.494 187.95 135.442 187.933 135.402 187.905C135.299 187.836 135.265 187.704 135.322 187.59C136.103 185.97 136.786 184.345 137.348 182.76C139.782 175.915 140.993 170.278 141.085 165.282C140.247 170.924 139.174 176.796 137.153 182.479C136.326 184.803 135.242 187.212 133.927 189.633C133.646 190.148 133.33 190.692 132.911 191.39C132.435 192.071 131.981 192.752 131.522 193.422C130.954 194.269 130.357 195.15 129.76 195.98C128.853 197.233 127.98 198.303 127.096 199.253C127.073 199.276 127.045 199.299 127.01 199.311C126.689 199.454 126.367 199.522 126.063 199.522C124.869 199.522 123.893 198.412 123.382 196.472C122.475 193.038 123.181 189.078 123.807 185.581C123.882 185.163 123.956 184.757 124.02 184.356C124.605 180.94 124.904 177.208 124.949 172.618C124.984 169.637 124.938 166.272 124.169 163.118C124.502 166.689 124.76 170.741 124.634 174.948C124.536 178.164 124.06 181.357 123.606 184.442C123.382 185.936 123.153 187.487 122.969 189.021V189.101C122.59 192.151 121.976 197.262 124.639 199.431C124.995 199.723 125.374 199.889 125.77 199.929C125.874 199.94 125.96 200.015 125.988 200.118C126.011 200.221 125.977 200.324 125.891 200.387C125.437 200.701 124.99 200.862 124.559 200.862Z" fill="#F84200"/>
<path id="Vector_41" d="M113.094 142.925C113.094 142.874 113.088 142.822 113.059 142.771C110.855 139.188 108.33 135.92 105.563 133.076C101.895 129.304 97.6873 125.802 91.8036 125.728H91.551C89.1746 125.728 83.4402 126.208 81.4598 130.701C81.4484 130.747 81.4254 130.792 81.3737 130.878C81.2589 131.164 81.1613 131.468 81.0752 131.794C81.0408 131.983 81.0064 132.166 80.9834 132.355C80.8284 133.465 80.7308 134.661 80.6677 136.252C80.6734 136.55 80.6792 136.847 80.6792 137.145C80.6792 137.729 80.6792 138.312 80.6619 138.908C81.8674 133.751 82.9523 131.794 84.6571 130.369C88.8761 126.855 96.9181 129.041 101.068 132.83C105.907 137.248 104.294 146.039 103.651 152.059C102.928 158.881 100.741 165.537 97.7849 171.701C94.6737 178.185 90.5293 184.154 85.6846 189.465C80.9719 194.627 75.249 198.782 69.1701 202.204C61.3922 206.577 46.2267 214.223 44.6367 208.036C44.2923 206.691 45.6355 205.083 46.4047 204.133C47.6388 202.599 49.0968 201.243 50.5548 199.921C54.0563 196.739 58.2581 193.528 60.5771 189.31C58.6943 191.485 56.4786 193.563 53.8439 195.611L53.775 195.663L53.5052 195.875C53.3732 195.978 53.2412 196.086 53.1092 196.189L52.6385 196.544C51.2723 197.574 49.866 198.645 48.3678 199.492C47.6503 199.898 46.9213 200.276 46.1578 200.665C44.5908 201.609 43.0524 202.548 41.5542 203.578C39.4189 205.049 38.5866 206.256 37.9953 208.763C37.7313 209.885 37.3696 211.069 36.5086 212.139C36.4455 212.22 36.434 212.334 36.4857 212.426C37.427 214.028 38.156 216.838 37.7198 219.116C37.7026 219.219 37.7485 219.322 37.8346 219.379C37.8748 219.402 37.9207 219.413 37.9666 219.413C38.0183 219.413 38.0757 219.396 38.1159 219.362C38.7817 218.858 39.505 218.343 40.2856 217.948C42.863 216.643 45.5149 216.403 48.075 216.163C51.0599 215.882 53.9817 215.419 56.7542 214.766C63.1602 213.273 69.1931 211.104 74.6922 208.322C81.0465 205.106 86.1266 201.655 90.2136 197.775C94.0136 194.169 97.2108 189.825 100.58 183.696C107.778 170.625 111.98 156.907 113.077 142.925H113.094Z" fill="#F84200"/>
<path id="Vector_42" d="M28.533 207.925H28.5503C28.6708 207.913 28.7914 207.913 28.9119 207.913C31.3744 207.913 34.0264 209.579 35.559 211.221C35.6049 211.273 35.6738 211.301 35.7427 211.301C35.7484 211.301 35.7542 211.301 35.7599 211.301C35.8345 211.301 35.9092 211.256 35.9493 211.193C36.5693 210.277 36.7874 209.252 36.9998 208.262C37.1605 207.501 37.3327 206.711 37.6829 205.985C38.3085 204.691 39.4795 203.776 40.4381 203.117C40.6161 202.997 40.794 202.877 40.972 202.763L41.6723 202.305C41.833 202.196 41.988 202.093 42.1487 201.99C43.4173 201.166 44.7375 200.376 46.0176 199.615L47.0967 198.968C48.262 198.259 49.7946 197.314 51.2871 196.261L51.4363 196.158C51.5224 196.095 51.6142 196.038 51.6946 195.975C52.2342 195.586 52.6762 195.26 53.0952 194.933C53.1009 194.933 53.1354 194.911 53.1411 194.905C54.8517 193.617 56.6943 192.175 58.5254 190.55C55.8218 192.261 53.0722 193.903 50.162 195.254C47.3723 196.553 44.33 197.623 41.2877 198.156C39.9904 198.384 38.5841 198.39 37.436 197.686C36.001 196.805 35.869 194.71 35.8919 193.222C35.9379 190.16 37.0802 187.196 37.8034 184.254C38.6587 180.78 39.9445 177.432 41.5345 174.228C44.7433 167.766 49.4043 162.192 53.2444 156.114C57.0444 150.094 60.4885 143.667 61.9465 136.662C62.5148 133.926 63.1692 128.936 66.464 128.186C69.3169 127.539 72.164 131.047 73.5876 133.033C76.9398 137.698 77.8181 143.758 77.8296 149.361C77.8296 150.534 77.7779 151.702 77.6975 152.869C77.864 152.057 78.0075 151.267 78.1395 150.489C78.7308 146.889 79.167 143.192 79.5114 140.021C79.5287 135.036 78.3232 126.12 70.0861 122.457C66.8257 121.009 63.1118 120.208 59.616 120.208C59.0707 120.208 58.5311 120.231 58.0088 120.265C57.8768 120.277 57.7734 120.385 57.7734 120.517C57.7734 128.14 56.6254 135.591 54.3466 142.671C52.9976 146.877 51.6889 149.922 50.1103 152.549C48.8303 154.678 47.223 156.555 45.6674 158.369C44.8925 159.273 44.0889 160.206 43.3312 161.168C38.0904 167.806 34.8357 174.531 33.659 181.158C33.24 183.505 33.1941 185.851 33.1481 188.123C33.1194 189.428 33.0907 190.773 32.9932 192.112C32.5512 198.178 31.9312 203.169 28.3379 207.524C28.2747 207.599 28.2633 207.707 28.3092 207.799C28.3551 207.879 28.4412 207.93 28.533 207.93V207.925Z" fill="#F84200"/>
<path id="Vector_43" d="M41.7972 130.141C41.7111 129.419 41.6423 128.693 41.6021 127.96C41.6021 127.869 41.5389 127.783 41.4586 127.743C41.4241 127.725 41.3897 127.72 41.3552 127.72C41.3036 127.72 41.2462 127.737 41.2003 127.771C40.8788 128.012 40.5631 128.258 40.2474 128.51C40.0752 128.647 39.903 128.79 39.7308 128.927L39.6562 128.99C39.5758 129.059 39.5414 129.168 39.5758 129.265C39.593 129.316 39.6045 129.362 39.6045 129.402C39.6734 130.204 39.7824 130.999 39.903 131.789C40.4885 131.194 41.1199 130.638 41.7972 130.135V130.141Z" fill="#F89C00"/>
<path id="Vector_44" d="M56.5226 120.425C56.5226 120.425 56.4939 120.425 56.4825 120.425C55.8453 120.522 55.2254 120.654 54.6456 120.814C50.616 121.913 46.5118 123.944 42.4535 126.846C42.3904 126.886 42.3559 126.96 42.3502 127.035C42.2928 127.933 42.2928 128.838 42.333 129.748C42.7807 129.439 43.2456 129.141 43.7336 128.866C46.6897 127.212 50.3405 126.526 52.9006 129.198C54.4504 130.818 55.0819 133.084 55.2024 135.339C56.2414 130.36 56.7637 125.535 56.7752 120.682C56.7752 120.608 56.7408 120.539 56.6891 120.488C56.6432 120.448 56.5858 120.431 56.5226 120.431V120.425Z" fill="#F89C00"/>
<path id="Vector_45" d="M121.05 186.331C120.574 189.816 120.287 193.925 121.791 197.926C122.508 199.843 123.467 200.856 124.558 200.856C124.988 200.856 125.436 200.696 125.889 200.381C125.975 200.324 126.016 200.215 125.987 200.112C125.964 200.009 125.878 199.934 125.769 199.923C125.373 199.877 124.988 199.711 124.638 199.425C121.98 197.256 122.594 192.145 122.962 189.095V189.015C123.157 187.481 123.387 185.93 123.605 184.436C124.064 181.352 124.54 178.164 124.632 174.942C124.879 166.781 123.478 157.59 121.969 153.132C121.372 151.363 120.752 149.532 120.023 147.763C118.898 145.039 117.652 142.143 116.137 139.408C113.531 134.715 110.58 130.72 107.354 127.532C107.354 127.532 107.165 127.349 107.119 127.309C103.049 123.652 98.5719 121.724 94.1692 121.724C93.9166 121.724 93.664 121.724 93.4115 121.741C90.903 121.867 88.6758 122.559 86.7873 123.801C86.0009 124.316 85.2432 124.934 84.4683 125.684C84.3765 125.77 84.365 125.907 84.4396 126.01C84.4913 126.079 84.5659 126.119 84.6463 126.119C84.6807 126.119 84.7209 126.113 84.7553 126.09C86.6209 125.169 88.9055 124.677 91.3622 124.677C93.0671 124.677 94.7949 124.923 96.3447 125.381C101.063 126.783 104.961 130.755 107.819 134.057C110.11 136.695 112.142 139.482 113.864 142.332C113.881 142.367 113.91 142.395 113.944 142.412C114.036 142.475 114.093 142.567 114.105 142.687C114.105 142.721 114.122 142.756 114.139 142.79C115.035 144.307 115.804 145.749 116.498 147.214C119.541 153.641 121.487 159.902 122.284 165.825C123.1 171.886 122.239 177.969 121.401 183.847C121.286 184.671 121.165 185.495 121.056 186.325L121.05 186.331Z" fill="#F89C00"/>
<path id="Vector_46" d="M123.208 189.66C123.334 188.63 123.478 187.599 123.621 186.569C123.323 188.286 123.041 190.078 122.961 191.857C123.03 191.062 123.127 190.306 123.208 189.66Z" fill="#F89C00"/>
<path id="Vector_47" d="M126.074 199.528H126.08C125.747 199.419 125.426 199.276 125.116 199.081C124.662 198.801 124.301 198.441 124.008 198.034C124.542 198.99 125.259 199.528 126.074 199.528Z" fill="#F89C00"/>
<path id="Vector_48" d="M78.4946 124.32C77.9435 123.587 77.404 122.992 76.8529 122.5C75.4982 121.292 73.8967 120.291 72.0886 119.53C68.501 118.019 64.5173 117.138 60.5566 116.977C60.1835 116.972 59.8046 116.966 59.4315 116.966C58.427 116.966 57.4397 116.994 56.504 117.057C53.0083 117.326 49.6043 118.053 46.6596 119.175L46.4989 119.238C46.3899 119.278 46.2808 119.324 46.1717 119.364C46.0282 119.421 45.8847 119.484 45.7412 119.547L45.5461 119.633C44.6793 120.01 43.9216 120.377 43.2328 120.76C42.4578 121.189 41.7001 121.693 40.9711 122.179C40.621 122.414 40.2708 122.643 39.9092 122.878C33.7156 127.021 28.0271 137.042 27.4186 137.866C26.2419 139.566 24.9848 141.209 23.6818 142.759C22.8781 143.807 22.1721 144.631 21.4546 145.369L21.2881 145.541C20.8059 146.033 20.3066 146.542 19.7842 147.046C17.9072 148.963 15.3126 151.35 11.9259 152.792C10.1981 153.53 8.4359 154.074 6.69663 154.406C5.95615 154.549 5.16401 154.686 4.41204 154.686C3.86099 154.686 3.3903 154.618 2.977 154.463C2.45465 154.274 2.03562 153.982 1.73713 153.599C1.68547 153.536 1.61085 153.502 1.53622 153.502C1.50752 153.502 1.47882 153.502 1.45586 153.519C1.35254 153.553 1.28366 153.65 1.2894 153.759C1.31236 155.39 2.09876 156.369 3.63138 156.672C4.23984 156.792 4.89422 156.855 5.5773 156.855C6.82865 156.855 8.18907 156.661 9.8652 156.243C15.0141 154.955 19.612 152.042 23.9171 147.321C26.2935 144.717 28.7561 141.867 30.679 138.679C30.9373 138.25 31.1956 137.815 31.4482 137.386C32.7283 135.222 34.0485 132.985 35.8107 131.159C43.0835 123.633 52.0669 119.318 60.4533 119.318C63.5013 119.318 66.4689 119.89 69.2644 121.018C74.3789 123.084 77.8115 126.912 79.4647 132.401C79.4991 132.51 79.5967 132.578 79.7058 132.578H79.723C79.8435 132.572 79.9354 132.481 79.9583 132.366C80.0502 131.829 80.1879 131.296 80.3831 130.77L80.452 130.506C80.4635 130.472 80.4635 130.438 80.452 130.403C80.1076 128.257 79.4589 126.226 78.5003 124.326L78.4946 124.32Z" fill="#F89C00"/>
<path id="Vector_49" d="M136.723 153.125C135.976 146.995 134.088 140.958 130.707 135.755C127.274 130.473 122.183 126.072 116.529 123.302C115.96 123.027 112.941 121.631 110.283 120.944C104.578 119.479 105.72 121.843 108.487 124.721C116.144 132.705 122.918 141.776 126.43 156.713C127.28 160.341 127.596 164.067 127.946 167.77C128.078 169.155 128.417 173.699 128.095 179.88C127.624 188.894 131.017 191.131 134.117 181.208C136.585 173.298 137.756 161.612 136.723 153.125Z" fill="#FFCF00"/>
<path id="Vector_50" d="M151.634 146.003C151.479 143.016 151.072 140.097 150.234 137.213C148.615 131.627 145.515 126.362 141.13 122.344C137.014 118.573 131.32 115.66 125.568 115.425C118.847 115.15 120.89 117.125 124.547 118.996C136.331 125.034 145.9 143.571 143.845 160.299C143.558 162.634 143.202 164.895 142.789 167.201C141.784 172.787 143.208 173.731 147.266 167.138C150.859 161.307 152.019 153.317 151.634 145.998V146.003Z" fill="#FFCF00"/>
<path id="Vector_51" d="M57.2578 113.225C54.7895 112.538 52.2466 112.189 49.6578 112.24C46.053 112.309 42.4826 113.282 39.1131 114.495C32.4718 116.893 26.2839 120.562 21.1177 125.375C15.877 130.256 11.8875 136.237 8.76489 142.635C8.07607 144.049 7.35855 145.44 6.8075 146.91C6.48605 147.775 5.78001 149.491 6.3655 150.407C6.88786 151.226 7.85221 151.077 8.76489 150.688C8.76489 150.688 8.76489 150.688 8.77063 150.688C11.0954 149.852 13.1791 148.959 15.2226 147.546C17.3924 146.046 19.3383 144.238 21.0833 142.269C24.8316 138.04 26.789 132.631 30.4627 128.385C34.1192 124.15 38.6884 120.356 43.8316 118.084C48.0448 116.218 52.6484 115.405 57.2406 115.125C60.3575 114.936 60.3403 114.083 57.2693 113.23L57.2578 113.225Z" fill="#FFCF00"/>
<path id="Vector_52" d="M42.4423 106.848C39.2737 106.722 35.7895 107.437 34.188 107.843C23.9245 110.442 14.04 115.787 9.83243 125.596C8.41461 128.898 9.05751 129.723 11.078 127.13C19.3554 116.485 31.2892 110.482 42.6834 108.393C45.7027 107.838 45.6511 106.979 42.4423 106.848Z" fill="#FFCF00"/>
<path id="Vector_53" d="M78.7167 107.042C78.6878 106.967 78.6012 106.921 78.5088 106.961C78.4857 106.973 78.4684 106.979 78.4453 106.99C78.5377 107.007 78.6243 107.025 78.7167 107.042Z" fill="#CC0DBA"/>
<path id="Vector_54" d="M123.256 157.796C123.256 157.796 123.216 157.796 123.204 157.819C123.084 158.134 123.147 158.425 123.17 158.752C123.193 159.078 123.268 159.364 123.405 159.656C123.417 159.69 123.468 159.684 123.48 159.656C123.79 159.158 123.87 158.111 123.25 157.796H123.256Z" fill="#3D0801"/>
<path id="Vector_55" d="M33.2165 129.232C32.9065 129.53 32.6023 129.924 32.4186 130.314C32.4014 130.348 32.4358 130.388 32.476 130.365C32.8376 130.142 33.2796 129.718 33.2969 129.266C33.2969 129.226 33.2509 129.209 33.2222 129.232H33.2165Z" fill="#3D0801"/>
<path id="Vector_56" d="M126.273 123.807C126.307 123.83 126.359 123.802 126.353 123.761C126.267 122.989 125.458 122.251 124.648 122.428C124.608 122.439 124.597 122.485 124.625 122.514C125.119 122.995 125.704 123.407 126.267 123.807H126.273Z" fill="#3D0801"/>
<path id="Vector_57" d="M68.1011 179.023C66.9244 179.779 66.5455 181.038 65.8624 182.194C65.8509 182.217 65.8739 182.24 65.8969 182.223C67.1195 181.582 67.6591 180.3 68.1929 179.115C68.2159 179.058 68.1642 178.978 68.1011 179.018V179.023Z" fill="#3D0801"/>
<path id="Vector_58" d="M103.995 172.492C100.482 179.485 96.3779 186.439 91.2921 192.414C87.6758 196.66 83.474 200.283 79.1574 203.797C79.1115 203.837 79.1689 203.911 79.2206 203.883C84.0939 200.901 88.3761 197.078 92.0785 192.734C94.3861 190.027 96.4525 187.12 98.341 184.11C100.66 180.418 102.428 176.555 104.116 172.549C104.144 172.48 104.024 172.435 103.995 172.498V172.492Z" fill="#3D0801"/>
<path id="Vector_59" d="M105.106 169.317C105.026 170.101 104.727 170.96 104.44 171.687C104.423 171.732 104.492 171.778 104.526 171.738C105.112 170.994 105.525 170.273 105.198 169.306C105.181 169.254 105.112 169.266 105.106 169.317Z" fill="#3D0801"/>
<path id="Vector_60" d="M137.261 140.25C138.317 143.025 139.109 145.898 139.712 148.805C140.424 152.251 141.044 155.782 141.026 159.307C141.026 159.404 141.164 159.399 141.17 159.307C141.686 152.64 140.223 145.898 137.846 139.683C135.671 133.994 132.491 128.58 127.606 124.832C127.554 124.792 127.497 124.877 127.537 124.918C131.882 129.21 135.091 134.572 137.261 140.244V140.25Z" fill="#3D0801"/>
<path id="Vector_61" d="M35.2954 217.184C35.3241 217.333 35.2954 217.539 35.2954 217.687C35.2896 217.876 35.2667 218.042 35.2954 218.231C35.3298 218.483 35.6742 218.386 35.6972 218.18C35.7259 217.968 35.68 217.773 35.6168 217.573C35.5594 217.39 35.4504 217.304 35.3413 217.161C35.3241 217.138 35.2954 217.161 35.3011 217.184H35.2954Z" fill="#3D0801"/>
<path id="Vector_62" d="M132.002 112.189C129.706 111.53 127.358 111.273 125.027 111.382C125.027 111.382 124.993 111.382 124.982 111.382C122.421 111.261 120.068 112.011 117.697 112.978C117.697 112.938 117.703 112.898 117.709 112.858C117.232 113.161 116.635 113.35 116.124 113.465C116.119 113.533 116.113 113.602 116.102 113.665C103.117 120.687 91.5623 110.849 81.0464 128.224C78.8881 119.772 71.357 114.335 63.005 112.194C54.8368 110.088 48.8613 102.7 39.7516 104.108C39.7574 104.102 39.7631 104.091 39.7689 104.085C39.0858 104.113 38.4027 104.165 37.7254 104.239C37.7139 104.256 37.6967 104.268 37.6852 104.285C20.4188 107.284 9.633 115.491 3.85265 129.981C1.24088 136.912 2.22819 144.346 0.368376 151.397C-2.49023 164.445 16.5958 156.84 21.2339 152.004C28.6387 146.326 31.8933 137.192 38.3453 130.8C38.8963 139.722 44.4987 147.002 46.8752 155.386C39.1661 164.022 32.6511 173.74 31.7958 185.569C31.3021 192.07 32.2722 199.219 28.9085 205.108C27.594 207.214 24.7124 208.942 24.4885 211.603C24.0867 216.388 28.9257 222.237 33.6498 222.912C39.7631 222.5 39.1776 217.578 49.9404 217.652C88.4971 214.001 110.597 181.941 114.029 145.588C118.535 153.692 121.233 162.957 121.285 171.891C121.325 179.4 118.587 186.851 119.448 194.337C119.821 197.582 121.618 205.005 126.29 202.029C131.531 197.65 134.223 190.926 139.366 186.365C144.418 181.431 149.544 176.767 153.022 170.54C163.693 150.315 155.462 118.959 132.008 112.194L132.002 112.189ZM35.5097 131.424C28.3746 140.97 22.3762 153.423 9.68466 156.439C7.08437 157.063 1.42457 158.167 1.42457 154.196C12.2046 159.982 27.4505 140.54 31.216 132.391C26.2393 139.087 21.4635 146.286 14.5638 151.18C11.4124 152.874 4.90884 156.353 1.85508 153.423C1.56233 150.373 3.02033 147.242 4.01338 144.375C8.4046 134.48 14.7877 124.527 24.4024 118.999C14.1448 123.629 7.59524 134.131 3.14087 144.163C2.23393 124.653 18.536 106.86 38.087 105.95C43.8673 105.069 49.4353 106.385 54.0848 109.928C52.1791 109.573 50.2446 109.459 48.3848 109.653C50.9449 109.836 53.7691 110.243 56.2948 111.113C51.783 110.22 45.4918 109.928 41.7836 112.515C53.0573 109.865 66.805 112.606 75.2775 120.699C64.5377 114.684 49.9232 115.731 39.9181 122.793C37.8631 124.43 34.6831 126.851 33.9139 128.997C35.7565 127.005 37.7483 125.145 39.9353 123.543C49.9806 114.856 81.7467 114.421 79.5769 132.78C73.4751 112.944 46.2782 118.318 35.4982 131.435L35.5097 131.424ZM44.1314 144.65C41.7435 139.854 40.2166 134.972 39.7057 129.638C40.2108 129.22 40.7217 128.82 41.2441 128.425C41.5368 132.334 42.2601 136.597 44.1027 139.962C43.2302 135.979 42.1855 131.653 42.5012 127.503C46.6915 124.55 51.3468 122.049 56.4211 121.128C56.1742 132.391 54.0963 144.129 48.0175 153.801C47.0876 150.607 45.6066 147.648 44.1371 144.655L44.1314 144.65ZM34.7864 221.418C30.2115 221.493 24.2015 214.728 26.7157 210.378C29.1725 208.209 32.8807 210.968 34.7749 212.828C36.4338 214.459 37.5761 220.491 34.7864 221.418ZM100.259 184.024C91.924 200.855 74.405 210.808 56.5933 214.968C50.4054 216.834 43.167 215.386 37.8574 219.604C38.2879 217.343 37.622 214.493 36.5888 212.742C37.4154 211.718 37.8172 210.59 38.1214 209.268C39.0456 204.306 44.516 202.538 48.3734 200.151C54.9688 195.911 61.5241 190.497 65.0256 183.509C60.1579 189.873 53.706 195.006 46.858 199.196C40.1133 203.333 37.7541 203.459 35.6359 211.494C33.8909 209.617 30.9864 207.94 28.4263 208.118C34.5568 200.689 32.4788 190.582 33.7991 181.637C40.0042 155.552 57.5576 158.682 57.9192 120.951C90.9367 119.749 77.0684 159.255 69.2503 177.362C79.1234 164.262 80.0189 146.893 81.5745 131.206C83.1874 127.555 87.6877 126.37 91.6714 126.422C101.47 126.897 107.629 135.876 112.715 143.35C111.596 157.669 107.164 171.456 100.247 184.024H100.259ZM154.555 162.946C151.639 173.591 142.931 180.642 135.44 188.15C138.884 180.476 141.731 171.376 141.111 163.038C139.757 172.956 137.931 183.057 132.587 191.71C123.495 207.694 121.733 195.813 124.161 184.848C125.045 177.437 126.21 168.549 123.633 161.738C124.098 166.317 124.413 170.781 124.276 175.388C124.947 181.758 118.38 197.57 125.636 200.626C120.269 202.824 120.567 189.953 121.187 186.817C122.123 179.961 123.346 173.185 122.416 166.254C120.079 149.852 105.333 118.066 84.5249 126.319C99.8339 113.413 115.005 135.012 119.678 148.318C120.895 151.26 121.779 154.31 122.886 157.286C122.909 153.274 120.625 147.98 118.84 143.848C113.662 132.397 102.486 116.469 88.0207 122.41C97.8363 115.411 113.599 117.259 123.845 122.53C121.199 119.245 115.108 118.078 110.591 117.568C140.744 100.519 162.275 135.945 154.555 162.946Z" fill="#3D0801"/>
</g>
</g>
</svg>
