<svg width="180" height="220" viewBox="0 0 180 220" fill="none" xmlns="http://www.w3.org/2000/svg">
<path d="M125.648 157.301C125.764 157.28 125.86 157.198 125.887 157.088C126.956 153.414 128.67 149.911 130.328 146.525L130.499 146.175C133.576 139.896 135.248 134.22 135.762 128.324C135.762 128.269 135.776 128.221 135.797 128.16C135.838 128.043 135.797 127.906 135.701 127.831L135.612 127.755C135.406 127.584 135.2 127.419 134.995 127.255C134.618 126.953 134.241 126.658 133.857 126.37C133.802 126.329 133.741 126.309 133.672 126.309C133.631 126.309 133.59 126.316 133.549 126.336C133.446 126.384 133.378 126.48 133.378 126.597C133.158 130.463 132.425 134.151 131.198 137.606C132.096 133.609 132.74 129.483 132.48 125.479C132.473 125.39 132.425 125.308 132.356 125.253C127.512 121.777 122.612 119.344 117.801 118.028C117.109 117.836 116.376 117.685 115.608 117.562C115.594 117.562 115.581 117.562 115.56 117.562C115.492 117.562 115.416 117.589 115.361 117.63C115.293 117.692 115.259 117.774 115.259 117.863C115.272 125.157 116.239 132.41 118.199 140.026C120.001 147.046 122.344 152.653 125.346 157.171C125.401 157.253 125.497 157.301 125.593 157.301C125.606 157.301 125.62 157.301 125.641 157.301H125.648Z" fill="#D4C731"/>
<path d="M67.0773 120.752L57.1969 117.877C57.1969 117.877 47.7058 94.6905 38.6887 97.6656C29.6717 100.641 21.8423 119.864 15.41 135.099C8.08461 149.889 1.33304 144.583 1.52766 136.886C1.72227 129.189 3.18436 89.3993 26.1137 81.2627C49.0381 73.1261 64.5523 92.584 68.8438 120.688L67.0823 120.752H67.0773Z" fill="#FFCF00"/>
<path d="M57.8109 117.486C58.295 117.636 58.7391 117.172 58.5744 116.698C56.9027 111.966 49.6721 93.9853 35.3207 90.5859C18.7736 86.6674 3.10973 96.1916 3.6786 139.745C3.6786 139.81 3.71852 140.029 3.71353 140.094C3.66363 141.657 6.22853 149.843 14.1029 136.505C18.9532 128.289 24.2327 111.886 28.9633 105.97C33.6939 100.055 35.9145 96.8006 40.9744 96.9504C46.0344 97.1001 52.9157 106.779 57.4267 117.137C57.5015 117.307 57.6363 117.442 57.8159 117.491L57.8109 117.486Z" fill="#54660B"/>
<path d="M45.3438 99.5242C45.3438 97.797 4.34032 70.4772 5.14871 141.844" stroke="#3D0801" stroke-width="2" stroke-miterlimit="10"/>
<path d="M63.7232 32.0029C65.8975 33.0901 70.5508 33.8729 64.8105 43.0922" stroke="black"/>
<path d="M53.5125 21.8438C53.4864 14.3467 76.6626 1.60811 98.6715 16.5285C127.876 36.3268 115.797 101.208 118.308 117.516L117.004 168.83L118.308 191.661L92.6507 176.658L66.5585 145.13L62.2249 128.387C62.2249 128.387 61.1927 78.812 61.3405 74.6807C61.4884 70.5494 61.9928 46.8489 64.3731 44.0646C65.9517 41.7554 68.1739 38.7026 68.1174 33.2711C59.6244 31.5403 53.5298 27.358 53.5125 21.8438Z" fill="#ADC44E"/>
<path d="M116.883 57.8535C105.577 47.5905 106.665 34.298 108.622 28.9346C114.709 38.0669 119.056 55.679 118.186 81.5538C113.839 104.095 109.449 148.698 90.139 122.432C105.142 115.691 101.445 111.343 109.491 97.8617C104.794 89.5122 113.187 83.221 117.971 81.1192C101.793 73.2915 110.505 62.3472 116.883 57.8535Z" fill="#D4C731" stroke="black" stroke-width="0.6"/>
<path d="M115.386 120.826L124.855 118.071C124.855 118.071 133.951 95.8492 142.593 98.7005C151.235 101.552 158.738 119.975 164.902 134.575C171.923 148.75 178.394 143.665 178.207 136.288C178.02 128.911 176.619 90.7734 154.644 82.9803C132.669 75.1873 117.806 93.8304 113.693 120.764L115.381 120.826H115.386Z" fill="#FFCF00"/>
<path d="M124.278 117.697C123.815 117.84 123.389 117.395 123.547 116.941C125.149 112.406 132.078 95.1737 145.833 91.9158C161.691 88.1604 176.703 97.2882 176.157 139.024C176.157 139.086 176.119 139.296 176.124 139.358C176.172 140.856 173.714 148.702 166.167 135.919C161.519 128.044 156.459 112.324 151.925 106.655C147.392 100.986 145.263 97.8671 140.414 98.0106C135.603 98.1493 128.97 107.43 124.647 117.357C124.575 117.52 124.446 117.649 124.274 117.697H124.278Z" fill="#54660B"/>
<path d="M115.386 120.826L124.855 118.07C124.855 118.07 133.951 95.8489 142.593 98.7001C151.235 101.551 158.738 119.974 164.902 134.575C171.923 148.75 178.394 143.665 178.207 136.288C178.02 128.911 176.619 90.7731 154.644 82.98C132.674 75.1821 117.806 93.83 113.693 120.764L115.381 120.826H115.386Z" stroke="#3D0801" stroke-width="2" stroke-miterlimit="10"/>
<path d="M136.217 100.482C136.217 98.8264 175.513 72.6437 174.739 141.04" stroke="#3D0801" stroke-width="2" stroke-miterlimit="10"/>
<path d="M66.632 120.866L56.7516 118.004C56.7516 118.004 47.2605 94.928 38.2434 97.8889C29.2264 100.85 21.3969 119.981 14.9647 135.143C7.6393 149.863 0.887729 144.582 1.08234 136.922C1.27695 129.261 2.73904 89.662 25.6684 81.5643C48.5978 73.4666 64.107 92.8316 68.3984 120.801L66.6369 120.866H66.632Z" stroke="#3D0801" stroke-width="2" stroke-miterlimit="10"/>
<path d="M168.779 155.629C169.445 155.629 170.083 155.567 170.677 155.449C172.172 155.153 172.939 154.189 172.961 152.599C172.961 152.492 172.894 152.397 172.799 152.364C172.771 152.352 172.743 152.347 172.72 152.347C172.647 152.347 172.575 152.38 172.524 152.442C172.233 152.817 171.83 153.103 171.315 153.288C170.912 153.439 170.453 153.506 169.915 153.506C169.176 153.506 168.409 153.372 167.687 153.232C165.991 152.901 164.277 152.375 162.587 151.652C159.283 150.241 156.753 147.905 154.922 146.029C154.412 145.542 153.925 145.044 153.455 144.556L153.293 144.388C152.593 143.671 151.904 142.859 151.12 141.834C149.849 140.317 148.623 138.709 147.476 137.046C146.697 135.982 146.026 135.024 145.432 134.111C146.664 135.791 147.963 137.516 149.413 139.426C150.029 140.193 150.756 141.095 151.535 141.98L151.759 142.232C152.912 143.548 154.11 144.909 155.375 146.18C155.851 146.606 156.35 147.06 156.814 147.541C157.856 148.477 158.819 149.222 159.77 149.838C162.419 151.551 165.789 152.739 169.025 153.108C169.344 153.148 169.63 153.164 169.898 153.164C171.164 153.164 172.043 152.756 172.507 151.949C172.647 151.708 172.743 151.451 172.804 151.159C172.81 151.126 172.81 151.098 172.804 151.064C172.653 150.286 172.418 149.502 172.211 148.807C172.11 148.465 172.015 148.146 171.936 147.861C171.768 147.222 171.634 146.516 171.522 145.693C171.522 145.676 171.516 145.66 171.511 145.643C171.192 144.741 170.828 143.834 170.408 142.871C168.868 139.342 167.093 135.976 165.151 132.862C162.351 128.387 159.043 124.506 155.538 121.527C159.026 124.176 162.239 127.766 165.268 132.381C167.121 135.209 168.851 138.463 170.716 142.63L170.817 142.854C170.856 142.943 170.945 142.999 171.041 142.999C171.057 142.999 171.08 142.999 171.097 142.994C171.214 142.966 171.293 142.859 171.287 142.742C171.265 142.254 171.248 141.762 171.231 141.269C171.192 140.177 171.158 139.045 171.057 137.948C170.71 134.005 169.697 130.163 168.045 126.517C164.591 118.894 158.371 112.555 150.533 108.662C146.557 106.691 141.994 105.492 136.978 105.111C135.679 105.011 134.291 104.921 132.908 104.921C131.62 104.921 130.467 104.999 129.386 105.162C126.94 105.531 124.778 106.814 122.774 108.096C122.298 108.399 121.794 108.707 121.229 109.037C121.128 109.099 121.078 109.222 121.123 109.334C121.156 109.429 121.251 109.497 121.352 109.497C121.369 109.497 121.386 109.497 121.397 109.497C121.666 109.446 121.934 109.401 122.197 109.362C121.492 109.508 120.77 109.687 120.031 109.894C119.756 109.973 119.482 110.051 119.213 110.135C119.202 110.135 119.141 110.169 119.129 110.174C119.017 110.23 118.945 110.37 118.989 110.488C119.023 110.589 119.107 110.662 119.208 110.662C119.219 110.662 119.236 110.662 119.253 110.662C120.137 110.482 120.815 110.365 121.447 110.281C122.657 110.124 123.866 110.04 125.03 110.04C127.74 110.04 130.164 110.482 132.124 111.322C131.844 111.266 131.564 111.216 131.284 111.16C129.996 110.914 128.664 110.656 127.326 110.533C126.615 110.465 125.865 110.432 125.103 110.432C123.939 110.432 122.724 110.505 121.391 110.662C119.672 110.858 117.954 111.311 116.291 111.748C115.602 111.927 114.914 112.112 114.225 112.274C113.195 112.639 112.165 112.969 111.05 113.288C109.556 113.719 108.005 114.352 106.314 115.215C104.074 116.357 102.121 117.847 100.503 119.634C100.419 119.723 100.419 119.863 100.497 119.958C100.547 120.014 100.614 120.048 100.687 120.048C100.732 120.048 100.777 120.037 100.816 120.014C101.482 119.611 102.132 119.27 102.675 118.99C105.665 117.449 109.113 116.654 113.844 116.413C113.917 116.413 114.247 116.402 114.247 116.402C115.07 116.346 115.753 116.318 116.392 116.313H116.7C119.689 116.313 122.668 116.721 125.546 117.528L125.809 117.595C125.977 117.64 126.145 117.679 126.313 117.729C127.785 118.155 129.274 118.754 130.87 119.566C131.413 119.835 131.956 120.121 132.482 120.423C132.645 120.519 132.813 120.608 132.975 120.703C132.975 120.703 133.261 120.871 133.339 120.922C133.77 121.179 134.179 121.454 134.571 121.728C134.649 121.784 134.94 121.992 134.94 121.992L135.013 122.048C136.329 123 137.538 124.047 138.635 125.178C137.527 124.148 136.418 123.229 135.287 122.395C134.929 122.165 134.593 121.935 134.251 121.711C133.54 121.235 132.801 120.743 132.046 120.323C131.374 119.947 130.635 119.589 129.789 119.219L129.599 119.135C129.459 119.074 129.319 119.012 129.179 118.956C129.073 118.911 128.966 118.872 128.86 118.833L128.703 118.771C125.831 117.679 122.505 116.962 119.101 116.699C118.189 116.637 117.226 116.609 116.246 116.609C115.877 116.609 115.513 116.609 115.149 116.621C111.286 116.777 107.4 117.645 103.901 119.118C102.137 119.863 100.575 120.843 99.254 122.025C98.7165 122.507 98.1958 123.089 97.6528 123.806C96.7178 125.665 96.0851 127.654 95.7492 129.754C95.7436 129.788 95.7492 129.821 95.7492 129.855L95.8164 130.112C96.0067 130.633 96.1411 131.148 96.2307 131.675C96.2475 131.787 96.3427 131.871 96.4602 131.882H96.477C96.5834 131.882 96.6786 131.815 96.7122 131.709C98.3246 126.338 101.673 122.591 106.661 120.569C109.388 119.466 112.282 118.906 115.255 118.906C123.435 118.906 132.191 123.128 139.29 130.493C141.009 132.28 142.297 134.47 143.545 136.587C143.797 137.012 144.044 137.432 144.296 137.852C146.171 140.972 148.573 143.761 150.891 146.309C155.09 150.93 159.574 153.786 164.596 155.041C166.231 155.449 167.558 155.64 168.779 155.64V155.629Z" fill="#FFCF00"/>
<path d="M118.932 111.559C121.339 110.887 123.819 110.545 126.344 110.596C129.86 110.663 133.343 111.615 136.629 112.802C143.107 115.149 149.142 118.739 154.181 123.449C159.293 128.226 163.184 134.079 166.229 140.34C166.901 141.724 167.601 143.085 168.139 144.524C168.452 145.37 169.141 147.05 168.57 147.946C168.06 148.747 167.12 148.601 166.229 148.22C166.229 148.22 166.229 148.22 166.224 148.22C163.956 147.403 161.924 146.529 159.931 145.146C157.815 143.678 155.917 141.909 154.215 139.982C150.559 135.843 148.65 130.551 145.066 126.395C141.5 122.251 137.043 118.537 132.027 116.314C127.918 114.488 123.427 113.693 118.948 113.418C115.908 113.234 115.925 112.399 118.92 111.565L118.932 111.559Z" fill="#8FA633"/>
<path d="M133.08 107.812C134.412 107.342 135.801 107.034 137.235 106.921C139.232 106.762 141.252 107.051 143.173 107.468C146.959 108.295 150.556 109.771 153.641 111.866C156.772 113.99 159.262 116.723 161.293 119.708C161.742 120.368 162.205 121.014 162.579 121.71C162.798 122.118 163.27 122.926 162.99 123.408C162.74 123.84 162.2 123.818 161.677 123.675C161.677 123.675 161.677 123.675 161.674 123.675C160.349 123.388 159.154 123.059 157.957 122.472C156.686 121.85 155.523 121.063 154.465 120.186C152.191 118.303 150.851 115.744 148.618 113.848C146.394 111.957 143.687 110.333 140.735 109.488C138.316 108.794 135.732 108.64 133.18 108.747C131.447 108.821 131.416 108.4 133.074 107.816L133.08 107.812Z" fill="#8FA633"/>
<path d="M82.2011 115.876C86.5901 116.052 90.0647 119.612 91.2533 121.37C91.2932 121.235 91.3357 121.084 91.3798 120.917C91.8414 119.171 92.4769 115.748 92.0763 113.02C91.6374 110.031 85.3099 110.896 82.2011 111.701V115.876Z" fill="#8FA633"/>
<path d="M81.1139 115.715C85.5029 115.891 90.0647 119.611 91.2533 121.369C91.2932 121.234 91.3357 121.083 91.3798 120.916C91.8414 119.17 92.4769 115.746 92.0763 113.019C91.6374 110.03 84.4402 110.561 81.3313 111.366C81.3313 111.074 81.1139 111.672 81.1139 115.715Z" fill="#8FA633"/>
<path d="M136.929 217.015C136.973 217.015 137.018 217.004 137.057 216.981C137.147 216.931 137.186 216.825 137.169 216.724C136.744 214.495 137.455 211.745 138.373 210.177C138.423 210.087 138.418 209.981 138.351 209.897C137.511 208.849 137.158 207.69 136.901 206.592C136.329 204.139 135.518 202.957 133.429 201.518C131.962 200.51 130.468 199.592 128.939 198.667C128.195 198.287 127.484 197.917 126.784 197.519C125.322 196.685 123.951 195.643 122.618 194.635L122.159 194.288C122.025 194.187 121.896 194.086 121.773 193.98L121.51 193.773C121.51 193.773 121.443 193.728 121.443 193.722C118.094 191.107 115.429 188.446 113.285 185.579L113.229 185.512C113.145 185.405 113.061 185.293 112.977 185.187L112.899 185.075C112.619 184.694 112.339 184.296 112.07 183.882C115.239 187.645 118.912 190.608 122.12 193.033C122.126 193.039 122.159 193.056 122.165 193.061C122.573 193.38 122.999 193.7 123.531 194.081C123.615 194.142 123.699 194.204 123.783 194.26L123.928 194.361C125.384 195.385 126.879 196.315 128.015 197.01L129.068 197.643C130.311 198.387 131.599 199.16 132.841 199.967C132.998 200.068 133.155 200.168 133.306 200.275L133.989 200.723C134.163 200.84 134.336 200.952 134.51 201.07C135.439 201.714 136.587 202.61 137.197 203.876C137.539 204.587 137.707 205.36 137.864 206.105C138.071 207.074 138.283 208.076 138.888 208.973C138.927 209.034 139 209.073 139.073 209.079C139.078 209.079 139.084 209.079 139.09 209.079C139.157 209.079 139.224 209.051 139.269 209.001C140.764 207.388 143.345 205.763 145.752 205.763C145.87 205.763 145.987 205.763 146.105 205.775H146.122C146.211 205.775 146.295 205.724 146.34 205.646C146.385 205.556 146.374 205.45 146.312 205.377C142.807 201.115 142.197 196.231 141.771 190.295C141.676 188.99 141.648 187.668 141.62 186.391C141.575 184.167 141.525 181.871 141.122 179.575C139.974 173.09 136.8 166.509 131.688 160.012C130.949 159.071 130.165 158.153 129.409 157.273C127.892 155.498 126.319 153.661 125.076 151.578C123.536 149.007 122.26 146.022 120.944 141.911C118.727 134.983 117.602 127.686 117.602 120.231C117.602 120.102 117.501 119.996 117.372 119.985C116.863 119.946 116.336 119.929 115.805 119.929C112.395 119.929 108.767 120.713 105.593 122.13C97.5584 125.72 96.3883 134.44 96.3995 139.318C96.741 142.426 97.1609 146.039 97.7376 149.561C98.2359 152.603 98.9973 155.778 100.201 159.867C101.315 163.636 102.804 167.332 104.249 170.905C104.641 171.88 105.044 172.877 105.441 173.879C101.321 167.495 98.387 159.413 96.4835 149.225C95.6325 144.667 95.235 140.511 95.2686 136.518C95.2686 136.226 95.2742 135.935 95.2798 135.644C95.2182 134.087 95.1286 132.911 94.9718 131.83C94.9438 131.645 94.9158 131.46 94.8823 131.281C94.8039 130.962 94.7031 130.665 94.5911 130.385C94.5407 130.295 94.5183 130.251 94.5071 130.211C92.57 125.815 86.9769 125.344 84.6646 125.344H84.4183C78.6796 125.423 74.5813 128.845 70.9982 132.541C68.294 135.33 65.8362 138.523 63.6863 142.029C63.6583 142.073 63.6471 142.124 63.6527 142.18C64.722 155.862 68.8203 169.287 75.8411 182.078C79.1331 188.077 82.2516 192.322 85.9523 195.856C89.9386 199.653 94.8934 203.03 101.091 206.178C106.449 208.9 112.339 211.022 118.587 212.484C121.297 213.117 124.147 213.576 127.052 213.851C129.555 214.086 132.136 214.327 134.65 215.598C135.411 215.984 136.117 216.489 136.766 216.981C136.811 217.015 136.861 217.032 136.912 217.032L136.929 217.015Z" fill="#D4C731"/>
<path d="M63.6542 142.169C63.6542 142.118 63.6598 142.068 63.6878 142.017C65.8377 138.511 68.3011 135.314 70.9997 132.53C74.5773 128.839 78.6811 125.412 84.4198 125.339H84.6661C86.984 125.339 92.5771 125.809 94.5087 130.206C94.5199 130.251 94.5423 130.295 94.5926 130.379C94.7046 130.659 94.7998 130.956 94.8838 131.275C94.9174 131.46 94.951 131.64 94.9734 131.824C95.1245 132.911 95.2197 134.081 95.2813 135.638C95.2757 135.93 95.2701 136.221 95.2701 136.512C95.2701 137.083 95.2701 137.655 95.2869 138.237C94.1112 133.191 93.053 131.275 91.3902 129.881C87.2751 126.442 79.4314 128.582 75.3835 132.289C70.6638 136.613 72.237 145.215 72.8641 151.107C73.5695 157.783 75.7026 164.297 78.5859 170.328C81.6204 176.674 85.6627 182.515 90.388 187.713C94.9846 192.764 100.566 196.83 106.495 200.18C114.082 204.458 128.874 211.941 130.424 205.887C130.76 204.57 129.45 202.997 128.7 202.067C127.496 200.566 126.074 199.239 124.652 197.945C121.237 194.831 117.139 191.689 114.877 187.561C116.713 189.69 118.874 191.723 121.444 193.728L121.511 193.778L121.774 193.985C121.903 194.086 122.032 194.193 122.161 194.293L122.62 194.641C123.952 195.649 125.324 196.696 126.785 197.525C127.485 197.923 128.196 198.292 128.941 198.673C130.469 199.597 131.97 200.516 133.431 201.524C135.514 202.963 136.325 204.145 136.902 206.598C137.16 207.696 137.512 208.855 138.352 209.902C138.414 209.981 138.425 210.093 138.375 210.182C137.456 211.75 136.745 214.5 137.171 216.729C137.188 216.83 137.143 216.931 137.059 216.987C137.02 217.009 136.975 217.021 136.93 217.021C136.88 217.021 136.824 217.004 136.784 216.97C136.135 216.477 135.43 215.973 134.668 215.587C132.154 214.31 129.568 214.075 127.071 213.839C124.159 213.565 121.31 213.111 118.605 212.473C112.357 211.011 106.473 208.889 101.11 206.167C94.9118 203.019 89.9569 199.642 85.9706 195.845C82.2643 192.316 79.1458 188.066 75.8594 182.067C68.8386 169.276 64.7403 155.851 63.671 142.169H63.6542Z" fill="#54660B"/>
<path d="M146.122 205.775H146.105C145.987 205.764 145.87 205.764 145.752 205.764C143.35 205.764 140.764 207.393 139.269 209.001C139.224 209.051 139.157 209.079 139.09 209.079C139.084 209.079 139.078 209.079 139.073 209.079C139 209.079 138.927 209.034 138.888 208.973C138.283 208.077 138.071 207.074 137.864 206.105C137.707 205.36 137.539 204.588 137.197 203.876C136.587 202.611 135.445 201.714 134.51 201.07C134.336 200.953 134.163 200.835 133.989 200.723L133.306 200.275C133.149 200.169 132.998 200.068 132.841 199.967C131.604 199.161 130.316 198.388 129.068 197.643L128.015 197.01C126.879 196.315 125.384 195.391 123.928 194.361L123.783 194.26C123.699 194.198 123.609 194.142 123.531 194.081C123.005 193.7 122.573 193.381 122.165 193.061C122.159 193.061 122.126 193.039 122.12 193.033C120.452 191.773 118.654 190.362 116.868 188.771C119.505 190.446 122.187 192.053 125.026 193.375C127.747 194.646 130.714 195.694 133.681 196.215C134.947 196.439 136.318 196.444 137.438 195.755C138.838 194.893 138.966 192.843 138.944 191.387C138.899 188.391 137.785 185.489 137.08 182.611C136.245 179.211 134.991 175.935 133.441 172.799C130.311 166.475 125.765 161.021 122.019 155.073C118.313 149.181 114.954 142.891 113.532 136.036C112.977 133.359 112.339 128.475 109.125 127.742C106.343 127.109 103.566 130.542 102.177 132.485C98.9077 137.05 98.0511 142.981 98.0399 148.464C98.0399 149.612 98.0903 150.755 98.1687 151.897C98.0063 151.102 97.8664 150.329 97.7376 149.567C97.1609 146.045 96.7354 142.427 96.3995 139.324C96.3827 134.446 97.5584 125.72 105.593 122.136C108.773 120.719 112.395 119.935 115.805 119.935C116.336 119.935 116.863 119.957 117.372 119.991C117.501 120.002 117.602 120.108 117.602 120.237C117.602 127.697 118.722 134.989 120.944 141.917C122.26 146.033 123.536 149.013 125.076 151.584C126.325 153.667 127.892 155.504 129.409 157.279C130.165 158.164 130.949 159.077 131.688 160.018C136.8 166.515 139.974 173.095 141.122 179.581C141.531 181.877 141.575 184.173 141.62 186.397C141.648 187.674 141.676 188.99 141.771 190.3C142.203 196.237 142.807 201.121 146.312 205.383C146.374 205.456 146.385 205.562 146.34 205.652C146.295 205.73 146.211 205.78 146.122 205.78V205.775Z" fill="#54660B"/>
<path d="M81.5328 56.9487C83.8471 61.1351 82.0829 99.1755 80.1544 117.564C76.0231 117.564 66.2244 111.182 65.8036 107.344C65.3829 103.506 63.3379 98.9433 61.6723 96.4722C61.2375 79.0774 60.3677 48.4194 63.6293 45.5925C66.8908 42.7656 73.1172 44.6807 73.1172 46.2647C73.1172 49.5063 78.64 51.7157 81.5328 56.9487Z" fill="#D5C731"/>
<path d="M63.6293 45.5925C66.8908 42.7656 73.1172 44.6807 73.1172 46.2647C73.1172 49.5063 78.64 51.7157 81.5328 56.9487C83.8471 61.1351 82.0829 99.1755 80.1544 117.564C76.0231 117.564 66.2244 111.182 65.8036 107.344C65.3829 103.506 63.3379 98.9433 61.6724 96.4722C61.2375 79.0774 60.3677 48.4194 63.6293 45.5925ZM63.6293 45.5925C63.6597 45.049 63.851 43.9619 64.3729 43.9619" stroke="black"/>
<path d="M118.636 82.3402C121.681 -5.50381 66.4518 10.8039 66.4518 10.8039C38.1854 21.8931 63.8428 31.8952 63.8428 31.8952C63.8428 31.8952 82.3248 36.0264 92.1094 31.0254C91.3847 31.8952 90.0657 34.1565 90.5876 36.2438C91.2399 38.8531 92.7619 54.5084 84.2819 55.1607C81.4988 54.9868 81.2378 54.6534 81.4553 54.5084M73.845 44.9413C73.1927 43.8541 69.7138 42.5495 64.7127 43.2018" stroke="#292929"/>
<path d="M98.3989 16.542L97.7174 18.7166L96.0063 15.0198L98.3989 16.542Z" fill="#D4C731" stroke="black" stroke-width="0.6"/>
<path d="M117.203 82.665C115.464 82.665 106.89 89.2777 109.049 95.0362C109.702 96.7756 114.811 84.8394 117.203 82.665Z" fill="#959540"/>
<path d="M117.203 82.665C115.464 82.665 106.89 89.2777 109.049 95.0362C109.702 96.7756 114.811 84.8394 117.203 82.665Z" fill="#959540"/>
<path d="M93.0698 122.673C93.7656 122.847 94.5194 124.63 94.8093 125.5C97.636 118.759 102.202 116.802 102.854 115.715C103.376 114.845 104.521 113.903 105.029 113.541L107.203 103.321C105.971 106.003 103.507 111.671 103.507 112.888C103.507 114.411 101.115 115.063 100.245 116.802C99.3754 118.542 92.2001 122.456 93.0698 122.673Z" fill="#959540"/>
<path d="M117.106 78.5097C115.888 77.292 116.308 65.3911 116.671 59.5928C114.786 61.1873 110.843 65.5505 110.148 70.2471C109.278 76.1179 118.628 80.0317 117.106 78.5097Z" fill="#959540"/>
<path d="M109.055 31.3271C111.664 37.9227 116.709 51.8531 116.013 54.8102C115.143 58.5066 106.446 41.1118 109.055 31.3271Z" fill="#959540"/>
<path d="M92.6373 30.917C92.6373 32.2417 95.319 30.6995 97.4209 30.917C98.5129 30.0432 97.421 25.4811 97.421 25.4811C96.3338 24.8288 90.6803 25.0463 90.8979 28.7425C90.8979 30.917 92.6373 29.8298 92.6373 30.917Z" fill="#8FA633"/>
<path d="M91.5471 39.8304C91.5471 41.1552 96.4033 38.7434 98.5051 38.9609C99.5971 38.0871 97.2719 31.8275 97.2719 31.8275C96.6888 31.4809 92.1994 30.6983 90.6774 35.2643C91.4967 36.8745 91.5471 38.7433 91.5471 39.8304Z" fill="#8FA633"/>
<path d="M83.2107 31.8037C83.2107 33.1284 88.286 31.8037 90.1686 30.9341C91.2606 30.0603 89.5905 23.9579 89.5905 23.9579C89.0074 23.6113 80.8931 22.4358 82.3409 27.2375C83.1602 28.8478 83.2107 30.7165 83.2107 31.8037Z" fill="#8FA633"/>
<path d="M82.7701 22.6703C82.7702 24.6091 88.0626 22.2173 89.5846 23.5219C90.6766 22.6481 88.4949 14.6674 88.4949 14.6674C87.9118 14.3207 83.4225 13.5382 81.9004 18.1041C82.7197 19.7144 82.7701 21.5831 82.7701 22.6703Z" fill="#8FA633"/>
<path d="M81.9782 14.6081C83.5003 15.2604 87.1967 13.086 88.419 14.3906C89.4888 14.0994 87.3514 11.4391 87.3514 11.4391C86.7802 11.3236 82.6306 10.6942 80.2388 10.6943C81.0414 11.2311 81.6452 14.4653 81.9782 14.6081Z" fill="#8FA633"/>
<path d="M75.0225 14.6101C77.4143 13.6902 80.4584 15.045 81.0284 13.7403C82.0981 13.449 79.9608 10.7887 79.9608 10.7887C79.3896 10.6732 75.2399 10.0439 72.8481 10.0439C73.6508 10.5807 74.6843 14.7402 75.0225 14.6101Z" fill="#8FA633"/>
<path d="M68.9418 15.4786C70.2466 16.1312 73.2907 14.7971 74.0779 15.0438C75.4651 15.4786 72.6383 10.4778 72.6383 10.4778C72.067 10.3623 69.3767 10.4779 65.8977 11.3475C66.7003 11.8843 68.6177 15.3165 68.9418 15.4786Z" fill="#8FA633"/>
<path d="M61.7589 15.4764C62.23 15.0416 66.7599 17.2159 67.7285 16.1287C69.1987 15.2218 66.0243 11.8174 66.0243 11.8174C65.4531 11.7019 61.9763 12.8673 59.5845 14.8243C60.3872 15.3611 61.4926 15.7222 61.7589 15.4764Z" fill="#8FA633"/>
<path d="M90.5812 17.1688C92.3013 15.6996 92.9318 15.6446 94.0904 15.5712C94.7713 15.0988 92.6032 13.7868 92.6032 13.7868C92.1721 13.8504 89.1544 12.2142 88.9009 15.8929C89.5999 16.064 90.3754 17.3447 90.5812 17.1688Z" fill="#8FA633"/>
<path d="M90.466 26.1313C91.7706 26.1313 95.1207 22.6523 98.0763 25.2615C99.1682 24.3877 96.4631 15.972 96.4631 15.972C95.8801 15.6254 91.3907 14.8428 89.8686 19.4088C90.6879 21.019 89.7271 26.1313 90.466 26.1313Z" fill="#8FA633"/>
<path d="M82.633 32.002C83.3288 31.1323 82.1981 28.3056 81.5458 27.001C81.5458 27.8707 78.2118 28.8129 76.5449 29.1753V32.4369C76.6898 32.6543 77.1972 33.0892 79.3715 32.8717C81.9039 32.6185 81.7632 33.0892 82.633 32.002Z" fill="#8FA633"/>
<path d="M75.6345 32.8165C76.6946 33.1581 76.0491 29.1177 75.7096 27.6992C75.5124 28.5463 72.0516 28.708 70.3459 28.683L69.5885 32.2186C69.6804 32.4633 70.0691 32.0005 72.5711 32.5498C75.0244 33.0884 74.807 32.5498 75.6345 32.8165Z" fill="#8FA633"/>
<path d="M69.0198 32.2186C70.08 32.5602 69.3595 28.248 69.02 26.8295C68.8228 27.6766 64.8053 24.8258 63.6563 27.8133L62.6309 30.6966C62.7228 30.9412 63.3794 31.1308 65.8815 31.6801C68.3348 32.2187 68.1923 31.952 69.0198 32.2186Z" fill="#8FA633"/>
<path d="M68.9105 26.6444C69.9706 26.986 69.2501 22.6738 68.9106 21.2553C68.7134 22.1024 64.6959 19.2516 63.5469 22.239L62.5216 25.1224C62.6134 25.367 63.2701 25.5566 65.7722 26.1059C68.2254 26.6445 68.0829 26.3778 68.9105 26.6444Z" fill="#8FA633"/>
<path d="M92.6372 111.583C93.5069 112.279 92.9996 117.091 92.6372 119.411C92.4496 120.802 97.3426 117.816 99.8125 116.149L98.7253 108.974C96.3336 109.553 91.7675 110.887 92.6372 111.583Z" fill="#8FA633"/>
<path d="M81.5536 110.714C85.9426 110.89 89.8521 109.826 91.0408 111.584C91.0806 111.45 91.8197 111.316 91.8638 111.149C92.3254 109.403 92.2643 105.962 91.8637 103.234C91.4248 100.246 85.3148 100.124 82.206 100.93C82.206 100.637 81.5536 106.671 81.5536 110.714Z" fill="#8FA633"/>
<path d="M92.425 101.8C93.2947 102.495 92.7873 107.308 92.425 109.627C92.2373 111.019 96.9129 108.468 99.3828 106.801L98.5131 99.1904C96.1213 99.7703 91.5552 101.104 92.425 101.8Z" fill="#8FA633"/>
<path d="M82.2011 100.06C86.5901 100.235 90.0647 99.389 91.2533 101.147C91.2932 101.013 91.3357 100.861 91.3798 100.694C91.8414 98.9483 92.4769 95.5249 92.0763 92.7971C91.6374 89.8088 85.3099 90.673 82.2011 91.4787V100.06Z" fill="#8FA633"/>
<path d="M92.6281 91.3641C93.4978 92.0599 92.9905 96.8725 92.6281 99.1918C92.4405 100.583 97.116 98.0321 99.5859 96.3651L98.7162 88.7549C96.3244 89.3347 91.7583 90.6683 92.6281 91.3641Z" fill="#8FA633"/>
<path d="M82.0917 100.06C86.4807 100.235 89.9553 99.389 91.144 101.147C91.1838 101.013 91.2263 100.861 91.2704 100.694C91.732 98.9483 92.3675 95.5249 91.9669 92.7971C91.528 89.8088 85.2006 90.673 82.0917 91.4787V100.06Z" fill="#8FA633"/>
<path d="M82.6386 90.2745C87.0276 90.4503 90.5022 89.6039 91.6908 91.3617C91.7307 91.2276 91.7732 91.0761 91.8173 90.9093C92.2789 89.1632 92.9144 85.7397 92.5138 83.012C92.0749 80.0236 85.7474 80.8879 82.6386 81.6936V90.2745Z" fill="#8FA633"/>
<path d="M83.0732 80.9261C87.4621 81.1019 91.3714 80.0379 92.5601 81.7957C92.5999 81.6616 92.6424 81.5101 92.6865 81.3433C93.1481 79.5972 93.7275 73.0984 93.075 72.1275C92.3323 71.0225 83.5078 70.0543 83.5078 72.1276C83.5078 71.8346 83.0732 76.883 83.0732 80.9261Z" fill="#8FA633"/>
<path d="M82.2795 66.4328C82.2795 66.7258 82.3924 61.2047 81.3023 57.3688C80.5271 57.5135 63.1073 58.1011 62.0274 56.1266C61.4462 55.8837 61.606 61.819 61.6061 64.2717C61.6063 67.3927 75.5488 69.0604 82.2795 66.4328Z" fill="url(#paint0_linear_0_3486)"/>
<path d="M81.5411 57.1951C76.5315 50.009 75.5108 51.3178 73.0801 47.5096C72.9293 45.7754 72.9748 44.9993 68.4884 44.3835C67.2244 44.3636 66.3512 44.2642 64.3296 45.2939C62.7012 45.1537 61.8124 53.4745 61.8125 55.9272C61.8126 59.0482 74.8105 59.8227 81.5411 57.1951Z" fill="url(#paint1_linear_0_3486)"/>
<path d="M82.3218 76.6758C82.3218 77.0422 83.0917 71.2571 82.3218 66.3713C81.5466 66.5522 62.6985 67.1831 61.6186 64.7131C61.0374 64.4094 61.18 73.1506 61.6189 75.302C62.3992 79.1272 75.5912 79.9626 82.3218 76.6758Z" fill="url(#paint2_linear_0_3486)"/>
<path d="M82.0673 89.349C82.0673 89.687 83.1574 81.2959 82.0673 76.8707C81.2921 77.0375 63.1897 77.6381 62.1099 75.3601C61.5287 75.0799 61.6137 85.2924 61.6138 88.122C61.6139 91.7226 75.3367 92.3804 82.0673 89.349Z" fill="url(#paint3_linear_0_3486)"/>
<path d="M81.2897 101.733C81.2897 102.071 82.2307 93.8705 82.0381 89.1377C81.2629 89.3045 63.1605 89.9051 62.0807 87.627C61.6657 87.427 61.8332 92.135 61.9227 96.1466C61.9586 97.7536 63.7142 100.338 63.7142 101.148C63.7143 104.748 74.5591 104.764 81.2897 101.733Z" fill="url(#paint4_linear_0_3486)"/>
<path d="M79.9458 117.329C79.9458 115.327 80.9563 106.957 81.2371 102.009C80.4619 102.176 65.0099 103.644 63.93 101.366C63.3488 101.085 65.8869 105.279 66.1043 107.454C66.2536 108.946 67.1915 110.28 68.0612 115.716C71.9693 115.716 78.1417 117.329 79.9458 117.329Z" fill="url(#paint5_linear_0_3486)"/>
<path d="M92.6372 91.3641C93.5069 92.0599 92.9996 96.8725 92.6372 99.1918C92.4496 100.583 97.3426 99.3368 99.8125 97.6697L98.7253 88.7549C96.3336 89.3347 91.7675 90.6683 92.6372 91.3641Z" fill="#8FA633"/>
<path d="M93.0734 80.9259C92.6598 81.9601 93.4358 86.4343 93.0734 88.7536C96.3348 87.6664 97.3439 88.6811 99.8138 87.0141L100.031 77.2295C97.6395 77.8093 93.5082 79.8387 93.0734 80.9259Z" fill="#8FA633"/>
<path d="M92.425 91.2938C93.2947 91.9896 92.7873 96.8022 92.425 99.1215C92.2373 100.513 96.9129 97.9618 99.3828 96.2948L98.5131 88.6846C96.1213 89.2644 91.5552 90.598 92.425 91.2938Z" fill="#8FA633"/>
<path d="M91.9757 101.146C92.8454 101.842 92.9905 107.203 92.6281 109.523C92.6281 109.523 97.116 109.554 99.5859 107.887V98.9717C97.1942 99.5515 91.1059 100.45 91.9757 101.146Z" fill="#8FA633"/>
<path d="M93.2921 70.9227C93.5105 72.0149 93.6545 77.0833 93.2921 79.4027C93.1045 80.7942 97.4233 77.0109 100.25 76.576L100.033 67.6611C97.6408 68.241 92.8572 68.7483 93.2921 70.9227Z" fill="#8FA633"/>
<path d="M99.8156 89.5537C99.4828 90.0004 100.613 95.7832 100.25 98.1025C100.063 99.4941 104.304 96.2218 106.773 94.5547L105.686 86.1436C103.294 86.7234 100.25 88.9702 99.8156 89.5537Z" fill="#8FA633"/>
<path d="M100.029 99.9554C99.5941 99.9554 100.391 105.464 100.029 107.783C99.8415 109.175 103.508 107.452 106.117 103.538V96.3623C103.725 96.9421 100.729 99.9554 100.029 99.9554Z" fill="#8FA633"/>
<path d="M100.466 114.628C101.335 114.628 102.857 110.641 103.292 109.192C103.944 108.322 104.336 105.322 104.162 106.365C103.944 107.67 99.3781 108.757 99.3781 109.844C99.3781 110.931 99.3783 114.628 100.466 114.628Z" fill="#8FA633"/>
<path d="M100.472 78.314C100.472 78.314 100.834 84.6577 100.472 86.977C100.284 88.3686 104.96 85.8173 107.43 84.1503L106.995 75.4873C104.82 76.5745 100.472 78.314 100.472 78.314Z" fill="#8FA633"/>
<path d="M100.469 68.5314C100.252 69.4011 101.267 74.2572 100.904 76.5765C100.717 77.9681 105.392 75.4169 107.862 73.7499C107.611 71.4383 107.603 69.8549 108.297 65.4873C105.905 66.0671 100.739 67.4508 100.469 68.5314Z" fill="#8FA633"/>
<path d="M101.801 57.2343C101.801 58.1275 102.527 63.8149 102.209 66.1416C102.044 67.5376 106.34 64.6527 108.297 65.305L107.21 54.1826C105.108 54.7643 101.801 57.0093 101.801 57.2343Z" fill="#8FA633"/>
<path d="M100.488 47.0136C100.488 47.9068 101.189 52.7576 100.871 55.0843C100.706 56.4803 104.814 54.984 106.984 53.3116L105.897 43.9619C103.796 44.5436 100.488 46.7886 100.488 47.0136Z" fill="#8FA633"/>
<path d="M100.488 47.0136C100.488 47.9068 101.189 52.7576 100.871 55.0843C100.706 56.4803 104.814 54.984 106.984 53.3116L105.897 43.9619C103.796 44.5436 100.488 46.7886 100.488 47.0136Z" fill="#8FA633"/>
<path d="M99.1916 37.0097C99.1916 37.9029 99.8922 42.7537 99.5737 45.0804C99.4089 46.4764 103.517 44.98 105.688 43.3077L104.6 33.958C102.499 34.5397 99.1916 36.7847 99.1916 37.0097Z" fill="#8FA633"/>
<path d="M97.8869 26.5722C97.8869 27.4654 98.5875 32.3162 98.2691 34.6429C98.1042 36.0389 102.213 34.5425 104.383 32.8702L103.731 24.1728L103.296 23.5205C101.194 24.1022 97.8869 26.3472 97.8869 26.5722Z" fill="#8FA633"/>
<path d="M86.9577 47.865C86.275 49.5132 84.9921 51.4353 83.0047 50.9961C81.2652 50.6134 79.6693 49.2001 78.3125 48.126C74.8987 45.4167 71.7633 42.8336 67.1232 43.1815C66.2622 43.2467 65.4229 43.3772 64.5923 43.5555C66.11 41.3246 67.9365 38.3544 67.8843 33.4273C66.5144 33.149 65.4043 32.6242 64.1519 32.2197C67.5613 32.7633 70.7848 33.3534 74.2508 33.6143C78.9604 33.9709 84.1702 34.0709 88.5841 32.2401C89.4626 35.1233 89.1712 37.8543 88.5146 40.7592C87.9884 43.0988 87.884 45.6298 86.9577 47.8607V47.865Z" fill="#A82121"/>
<path d="M87.7144 45.2645C86.7229 43.712 85.4313 42.3335 83.9832 41.2028C79.3822 37.6021 73.5159 36.4279 67.6668 36.3931C67.8147 35.4886 67.6799 35.9074 67.6668 34.829C66.5437 33.0895 65.6218 32.6242 64.3693 32.2197C67.7787 32.7633 70.7848 33.3534 74.2508 33.6143C78.9604 33.9709 84.1702 34.0709 88.5841 32.2401C89.4626 35.1233 89.1712 37.8543 88.5146 40.7592C88.1841 42.2248 88.0188 43.7686 87.7144 45.2645Z" fill="#991E1E"/>
<path d="M118.511 82.4457C121.556 -5.39834 66.3268 10.9094 66.3268 10.9094C38.0604 21.9986 63.7178 32.0006 63.7178 32.0006C63.7178 32.0006 82.1998 36.1319 91.9844 31.1309C91.2597 32.0006 89.9407 34.2619 90.4626 36.3493C91.1149 38.9585 92.6369 54.6139 84.1569 55.2662C81.3738 55.0923 81.1128 54.7589 81.3303 54.6139M73.72 45.0467C73.0677 43.9596 69.5888 42.6549 64.5877 43.3073" stroke="#292929"/>
<path d="M69.6567 14.1602C69.4434 14.07 69.2968 13.888 69.2343 13.6324C69.1273 13.2045 69.2714 12.6255 69.575 12.2508C70.8699 10.912 72.4721 9.25588 74.3505 8.27531C74.8338 8.02409 75.3224 7.99861 75.8037 8.20195C76.8113 8.62768 77.6116 10.0136 78.0244 11.1659C78.0343 11.1953 78.0331 11.2311 78.0154 11.2599C77.9976 11.2887 77.9724 11.3088 77.9393 11.3144C76.4872 11.6033 75.1529 12.1823 74.039 12.7092L73.9584 12.7478C73.2912 13.0638 72.5994 13.3918 71.9013 13.6752C71.4325 13.8655 70.9251 14.0283 70.3506 14.1712C70.0783 14.2405 69.846 14.2346 69.6588 14.1554L69.6567 14.1602Z" fill="#FFCF00"/>
<path d="M76.5208 8.6887C76.65 9.03106 76.7282 9.38822 76.7113 9.77222C76.6825 10.4949 75.97 10.8784 75.3897 11.1278C74.7443 11.4055 74.0948 11.6731 73.4493 11.9508C72.3753 12.4163 71.2356 13.044 70.0565 13.1828C69.7795 13.2167 69.4476 13.2022 69.2221 13.0482C69.1866 13.2512 69.187 13.4553 69.2295 13.6325C69.2919 13.888 69.4385 14.0701 69.6519 14.1603C69.8392 14.2394 70.0714 14.2453 70.3438 14.176C70.9182 14.0331 71.4257 13.8703 71.8945 13.68C72.5926 13.3966 73.2844 13.0686 73.9516 12.7526L74.0322 12.714C75.1461 12.1872 76.4804 11.6082 77.9324 11.3192C77.9655 11.3136 77.9918 11.2912 78.0085 11.2647C78.0239 11.2349 78.0265 11.2025 78.0175 11.1707C77.7086 10.3082 77.1837 9.31525 76.5165 8.69244L76.5208 8.6887Z" fill="#F89C00"/>
<path d="M70.6574 14.668C73.3285 14.0001 75.5596 12.2576 78.3167 11.816C78.5473 11.7793 78.6466 11.5642 78.5881 11.3523C78.1212 9.73281 76.8278 7.41769 74.8602 7.49165C74.0628 7.52075 73.1741 8.26847 72.5738 8.71055C71.2947 9.64817 70.1491 10.7791 69.0464 11.9142C69.0259 11.9363 69.0112 11.958 68.9964 11.9797C67.9074 13.3999 68.8182 15.1259 70.6584 14.6657L70.6574 14.668ZM74.3157 8.39036C75.9965 7.51354 77.3102 9.76738 77.8287 11.2186C76.4495 11.4937 75.1741 12.0193 73.9014 12.6244C73.1951 12.9602 72.4922 13.2947 71.7671 13.589C71.268 13.7916 70.7544 13.9491 70.2323 14.0805C68.9915 14.3917 69.0542 12.9736 69.5718 12.3373C70.9716 10.8891 72.5064 9.33307 74.3123 8.39173L74.3157 8.39036Z" fill="#3D0801"/>
<path d="M63.7748 14.6875C63.8889 14.6074 63.9522 14.4817 63.9566 14.3235C63.9654 14.0581 63.8073 13.7356 63.5813 13.5536C62.6498 12.9296 61.4974 12.1578 60.2679 11.8185C59.9517 11.7319 59.661 11.7787 59.4035 11.9593C58.8645 12.3373 58.5689 13.2542 58.4719 13.9845C58.4697 14.003 58.4749 14.024 58.489 14.0387C58.5031 14.0534 58.5205 14.062 58.5407 14.0611C59.4318 14.0474 60.2902 14.2192 61.0124 14.3883L61.0647 14.4008C61.4973 14.5023 61.9459 14.6078 62.3926 14.6862C62.6925 14.7388 63.0117 14.7704 63.3679 14.7818C63.5369 14.7881 63.6728 14.7552 63.773 14.6849L63.7748 14.6875Z" fill="#FFCF00"/>
<path d="M59.0385 12.3387C59.0059 12.5565 59.0051 12.7766 59.0636 13.0004C59.172 13.4221 59.6398 13.5576 60.0129 13.6309C60.4278 13.7126 60.8439 13.7879 61.2589 13.8696C61.9498 14.0076 62.6999 14.2327 63.4113 14.1652C63.5786 14.1501 63.7721 14.0995 63.8853 13.9804C63.9319 14.0953 63.9575 14.2155 63.9549 14.3251C63.9505 14.4834 63.8873 14.6091 63.7731 14.6892C63.6729 14.7594 63.537 14.7923 63.368 14.786C63.0118 14.7746 62.6926 14.743 62.3927 14.6904C61.946 14.612 61.4974 14.5065 61.0648 14.405L61.0125 14.3925C60.2903 14.2234 59.4318 14.0516 58.5408 14.0653C58.5206 14.0662 58.5023 14.0563 58.4891 14.0429C58.4763 14.0273 58.4707 14.0085 58.4719 13.9887C58.5446 13.442 58.7278 12.7913 59.0416 12.3404L59.0385 12.3387Z" fill="#F89C00"/>
<path d="M63.2442 15.1118C61.5879 15.0568 60.0545 14.3138 58.3761 14.4029C58.2358 14.4105 58.1501 14.2965 58.1577 14.1644C58.2275 13.1523 58.6956 11.6262 59.8628 11.4208C60.3357 11.337 60.9533 11.6645 61.3625 11.8486C62.2339 12.2385 63.0512 12.759 63.8437 13.2874C63.8586 13.2978 63.87 13.3087 63.8814 13.3196C64.702 14.0175 64.3845 15.1485 63.2434 15.1106L63.2442 15.1118ZM60.297 11.8807C59.1969 11.5774 58.7091 13.07 58.5877 13.9896C59.4341 13.9769 60.2511 14.1248 61.0766 14.3198C61.5348 14.428 61.9907 14.5359 62.4547 14.6173C62.774 14.6734 63.0962 14.701 63.4201 14.7123C64.1895 14.7384 63.9732 13.9118 63.5881 13.6029C62.5811 12.9279 61.481 12.2064 60.2992 11.8811L60.297 11.8807Z" fill="#3D0801"/>
<path d="M83.498 70.2706C87.8869 70.4464 91.3615 69.6 92.5502 71.3578C92.5901 71.2237 92.6326 71.0722 92.6767 70.9054C93.1383 69.1593 93.7738 65.7358 93.3731 63.0081C92.9342 60.0197 86.6068 60.884 83.498 61.6897V70.2706Z" fill="#8FA633"/>
<path d="M75.7966 40.516C75.8529 38.1043 77.8879 34.8826 78.8984 33.5732H75.3738C74.5278 33.5732 75.3032 38.2017 75.7966 40.516Z" fill="white" stroke="black"/>
<path d="M75.8805 39.0416C75.7514 37.426 75.7131 34.5174 76.6875 34.0719C76.2474 33.7939 75.4661 33.9277 75.4112 33.9277C75.1629 34.4606 75.7856 38.2823 75.8805 39.0416C75.8841 39.0861 75.8877 39.1296 75.8914 39.1721C75.8946 39.167 75.8905 39.1211 75.8805 39.0416Z" fill="#D9D9D9"/>
<path d="M72.6295 37.8124C77.0954 37.3423 79.779 40.9463 80.5625 42.8071C80.5625 45.5984 78.6526 45.4514 75.5676 42.8071C73.0996 40.6917 69.6424 41.2402 68.2224 41.7788V40.0159C67.8306 39.4773 68.1636 38.2825 72.6295 37.8124Z" fill="#7E1818"/>
<path d="M65.7364 39.3832C65.7926 36.9715 67.8801 34.1438 68.8906 32.8345C68.0682 32.8345 66.1595 32.4404 65.3135 32.4404C64.4676 32.4404 65.2429 37.0689 65.7364 39.3832Z" fill="white" stroke="black"/>
<path d="M65.7711 38.0064C65.6421 36.3908 65.6037 33.4823 66.5781 33.0367C66.138 32.7588 65.3567 32.8925 65.3018 32.8925C65.0535 33.4254 65.6762 37.2471 65.7711 38.0064C65.7747 38.0509 65.7783 38.0945 65.782 38.1369C65.7852 38.1319 65.7811 38.0859 65.7711 38.0064Z" fill="#D9D9D9"/>
<path d="M84.3764 60.7055C85.594 60.1837 90.7543 60.7055 92.8561 60.923C94.1608 58.966 91.3347 56.357 91.769 54.8348C91.9551 54.1825 85.3186 56.4293 82.6369 56.3568C82.7094 58.0238 83.1588 61.2274 84.3764 60.7055Z" fill="#8FA633"/>
<path d="M93.0111 53.7494C93.0111 55.0741 97.9221 52.6582 100.024 52.8756C101.116 52.0018 99.3671 46.2686 99.3671 46.2686C98.784 45.9219 93.5009 47.4397 92.1966 48.0919C93.0112 49.6929 93.0111 52.6282 93.0111 53.7304V53.7494Z" fill="#8FA633"/>
<path d="M91.7908 46.694C91.7908 48.0187 96.7019 45.6027 98.8037 45.8202C99.8957 44.9464 98.8037 39.3943 98.8037 39.3943C98.2206 39.0477 94.5964 40.264 91.7908 40.6988C92.6101 42.3091 91.7908 45.6068 91.7908 46.694Z" fill="#8FA633"/>
<path d="M92.4206 53.0938C92.2466 52.5719 92.2031 48.0928 91.3334 48.0928C91.6813 50.5281 88.6518 54.4709 86.9848 55.4856C87.4921 55.3406 88.8547 54.9637 90.2463 54.6158C91.9858 54.181 92.638 53.7461 92.4206 53.0938Z" fill="#8FA633"/>
<path d="M107.634 45.267C107.982 46.6586 109.881 49.9781 110.461 50.9203L107.634 51.79C106.33 47.0065 107.286 43.8754 107.634 45.267Z" fill="#8FA633"/>
<path d="M94.1613 60.7052C94.1613 62.0299 98.4154 59.4006 100.517 59.618C103.294 58.7484 99.8151 56.7912 100.517 53.2243C100.648 52.5588 94.719 54.6014 92.0373 54.529C92.8566 56.1392 94.1613 59.618 94.1613 60.7052Z" fill="#8FA633"/>
<path d="M108.076 95.7119C108.423 96.7556 108.655 97.9589 108.945 97.8864L106.771 101.583L106.554 96.5818C106.771 96.2194 107.728 94.6682 108.076 95.7119Z" fill="#8FA633"/>
<path d="M107.639 85.1939C107.639 84.0938 108.437 88.3116 108.727 88.2391L106.77 92.0148L106.117 86.0638C106.335 85.7014 107.639 85.1939 107.639 85.1939Z" fill="#8FA633"/>
<path d="M94.1635 67.879C94.1635 69.2037 100.034 66.7918 101.735 66.4863C101.735 62.878 102.208 61.3973 101.735 60.0927C101.503 59.4551 95.9365 61.4698 93.2548 61.3973C95.0332 63.0954 94.1635 66.7918 94.1635 67.879Z" fill="#8FA633"/>
<path d="M109.162 75.4895C109.609 76.2353 113.728 78.9686 115.033 80.9255L115.25 81.3604C114.163 83.0999 109.197 86.614 108.509 85.9264C107.857 85.2741 107.422 78.3162 107.64 77.4465C107.64 73.9675 108.509 74.4024 109.162 75.4895Z" fill="#8FA633"/>
<path d="M110.684 52.2232C111.299 52.8382 114.815 55.9234 115.25 58.0978C114.163 59.8373 111.988 60.0508 109.162 64.8344C108.692 65.6286 107.64 55.2672 107.857 54.3975C107.857 50.9185 109.814 51.3534 110.684 52.2232Z" fill="#8FA633"/>
<path d="M106.777 36.351C106.777 39.1342 107.212 42.1493 107.43 43.3089C107.14 43.9612 106.516 45.1789 106.343 44.831C106.125 44.3961 105.908 41.5694 105.69 41.352C105.473 41.1346 105.473 37.2207 105.473 36.7859C105.473 35.8491 105.038 33.0894 105.038 31.7848C105.835 31.2775 107.343 30.4367 106.995 31.1325C106.56 32.0023 106.777 32.872 106.777 36.351Z" fill="#8FA633"/>
<path d="M104.382 24.6104C105.469 24.6103 107.281 28.3068 108.078 28.9591C107.034 30.6986 105.324 30.8436 104.817 30.9161C104.599 28.7416 104.164 24.6104 104.382 24.6104Z" fill="#8FA633"/>
<path d="M98.5133 18.5206C99.383 17.8682 103.297 21.4739 103.297 22.6521C101.775 23.9567 99.4555 24.9714 98.9482 25.0439C98.8032 22.8695 97.7639 19.0827 98.5133 18.5206Z" fill="#8FA633"/>
<path d="M61.985 30.6981C62.9352 31.2793 63.2863 27.5905 63.2899 26.1319C62.899 26.9089 59.2208 21.5642 57.4015 24.1978L55.6795 26.1319C55.7113 26.3913 56.7016 26.8225 58.6552 28.4794C60.2457 29.8283 61.2434 30.2443 61.985 30.6981Z" fill="#8FA633"/>
<path d="M88.9363 32.4371L91.3281 31.5674L90.2409 35.4812C90.2409 37.2207 91.763 37.9165 90.8933 46.7879C90.0235 55.6593 84.0803 56.2101 81.3261 55.2679C79.0068 54.0357 74.0188 48.6618 69.7533 47.273C66.564 46.0836 62.9334 48.4386 62.9334 48.4386C62.9334 48.4386 61.7569 46.7879 64.801 43.0915C70.1934 41.6999 78.4994 47.5851 81.9784 50.7017C83.428 51.1366 86.4141 51.1801 86.762 47.8751C89.0233 43.5263 89.1538 35.7711 88.9363 32.4371Z" fill="#54660B" stroke="black"/>
<path d="M62.0072 113.786C61.8657 113.719 61.5794 113.431 61.5663 112.815C61.5532 112.199 61.6104 101.674 61.6406 96.4893" stroke="black"/>
<path d="M140.816 218.608C142.16 218.608 143.61 217.885 145.262 216.406C146.476 215.314 147.529 213.965 148.386 212.396C149.337 210.649 149.343 209.064 148.386 207.401C148.374 207.378 148.358 207.356 148.335 207.339C147.708 206.785 146.958 206.499 146.113 206.499C143.694 206.499 141.135 208.767 140.144 209.742C138.991 210.879 138.034 214.194 138.56 216.451C138.812 217.549 139.389 218.277 140.228 218.552C140.447 218.591 140.631 218.602 140.816 218.602V218.608Z" fill="#778C20"/>
<path d="M53.298 197.321C54.3617 197.321 55.2911 196.33 55.9965 194.453C57.4634 190.533 57.1835 186.517 56.7188 183.107C56.6068 182.3 56.4948 181.488 56.3829 180.681C55.571 174.93 54.7256 168.976 55.5207 163.045C56.2933 157.249 58.1912 151.122 61.1642 144.832C61.8416 143.398 62.5918 141.987 63.4652 140.503C63.482 140.469 63.4932 140.436 63.4988 140.402C63.51 140.284 63.566 140.189 63.6556 140.133C63.6892 140.111 63.7116 140.088 63.734 140.055C65.4136 137.266 67.3955 134.538 69.6294 131.956C72.4231 128.725 76.2191 124.838 80.8212 123.466C82.3329 123.012 84.0181 122.777 85.6809 122.777C88.0771 122.777 90.3054 123.259 92.125 124.16C92.1586 124.177 92.1978 124.188 92.2314 124.188C92.3098 124.188 92.3825 124.149 92.4329 124.082C92.5001 123.981 92.4889 123.847 92.4049 123.763C91.6491 123.023 90.9101 122.424 90.143 121.92C88.3011 120.705 86.1288 120.027 83.6821 119.904C83.4358 119.893 83.1895 119.887 82.9431 119.887C78.6433 119.887 74.2763 121.78 70.3124 125.353C70.2676 125.392 70.0829 125.572 70.0829 125.572C66.9364 128.691 64.0587 132.6 61.5169 137.193C60.0388 139.87 58.8183 142.704 57.7265 145.37C57.0155 147.1 56.4109 148.893 55.8286 150.623C55.6214 151.239 55.4087 151.861 55.1959 152.488C55.8902 148.937 57.1667 145.151 58.9975 141.192C60.3579 138.05 62.004 135.087 63.8795 132.388C66.3206 128.708 68.9911 125.656 71.8241 123.32C75.0825 120.626 79.1416 119.081 82.9655 119.081C83.6597 119.081 84.3484 119.131 85.0146 119.226C86.3023 119.417 87.5564 119.786 88.7266 120.329C88.7602 120.346 88.7938 120.352 88.8274 120.352C88.9113 120.352 88.9953 120.307 89.0401 120.229C89.1017 120.122 89.0737 119.982 88.9729 119.904C87.2093 118.621 85.177 117.535 83.0831 116.768C80.8828 115.955 78.5145 115.597 75.3905 115.597C74.3547 115.597 73.3133 115.636 72.5183 115.67C72.2272 115.681 71.9473 115.687 71.6673 115.687C71.3146 115.687 70.9619 115.675 70.6148 115.664C69.7638 115.726 68.9408 115.787 68.1177 115.86C63.1293 116.286 58.9751 117.344 55.4759 119.081C58.404 117.171 61.9984 116.084 66.8412 115.614C66.9588 115.603 67.054 115.507 67.0596 115.39C67.0708 115.272 66.9924 115.16 66.8748 115.132C65.6935 114.835 64.5458 114.421 63.3532 113.872C63.0117 113.715 62.6758 113.558 62.3399 113.402C59.6693 112.158 57.1499 110.988 54.1266 110.618C53.4435 110.534 52.7325 110.489 52.0159 110.489C49.8268 110.489 47.4585 110.892 44.9615 111.682C39.4636 113.424 34.128 117.4 29.929 122.883C25.6908 128.417 24.0055 135.042 23.009 140.195C21.7101 146.921 21.9508 153.715 23.7032 159.842C25.4164 165.84 29.0332 171.418 35.0686 177.394C36.026 178.346 37.0001 179.281 37.9687 180.222C39.374 181.583 40.8241 182.989 42.2181 184.406C42.2517 184.439 42.2853 184.473 42.3133 184.512L42.4029 184.607C42.4533 184.658 42.5149 184.686 42.582 184.686C42.6324 184.686 42.6828 184.669 42.722 184.641C42.8228 184.574 42.8564 184.445 42.8004 184.333C42.039 182.748 41.3727 181.158 40.8241 179.606C38.4502 172.908 37.2689 167.391 37.1793 162.502C37.9967 168.024 39.0437 173.77 41.0144 179.332C41.8206 181.606 42.8788 183.963 44.1609 186.332C44.4352 186.837 44.7431 187.369 45.1519 188.052C45.6165 188.718 46.0588 189.385 46.5067 190.04C47.061 190.869 47.6433 191.731 48.2255 192.544C49.1101 193.77 49.9611 194.817 50.8233 195.747C50.8457 195.769 50.8737 195.792 50.9073 195.803C51.2209 195.943 51.5344 196.01 51.8311 196.01C52.9956 196.01 53.9474 194.924 54.4457 193.025C55.3303 189.665 54.6417 185.789 54.0314 182.367C53.9586 181.958 53.8858 181.561 53.8242 181.169C53.2532 177.825 52.9621 174.174 52.9173 169.682C52.8837 166.764 52.9285 163.471 53.6787 160.385C53.354 163.88 53.102 167.845 53.2252 171.961C53.3204 175.109 53.7851 178.234 54.2274 181.253C54.4457 182.714 54.6697 184.232 54.8488 185.733V185.812C55.2183 188.797 55.8174 193.798 53.2196 195.921C52.8725 196.206 52.503 196.369 52.1166 196.408C52.0159 196.419 51.9319 196.492 51.9039 196.593C51.8815 196.694 51.9151 196.794 51.9991 196.856C52.4414 197.164 52.8781 197.321 53.298 197.321Z" fill="#FFCF00"/>
<path d="M41.4357 150.605C42.1636 144.606 44.0056 138.698 47.3032 133.607C50.6512 128.437 55.6173 124.131 61.132 121.42C61.6863 121.151 64.6312 119.784 67.2234 119.112C72.7885 117.679 71.6744 119.992 68.9758 122.809C61.5071 130.622 54.9006 139.499 51.4742 154.116C50.6456 157.667 50.3377 161.313 49.9962 164.936C49.8674 166.292 49.5371 170.739 49.8506 176.787C50.3097 185.608 47.0009 187.798 43.9776 178.087C41.5701 170.347 40.428 158.91 41.4357 150.605Z" fill="#8FA633"/>
<path d="M26.8824 143.64C27.0335 140.716 27.431 137.86 28.2484 135.037C29.8273 129.571 32.8506 124.418 37.128 120.487C41.1422 116.796 46.6962 113.945 52.3061 113.716C58.8622 113.447 56.869 115.379 53.3026 117.21C41.8085 123.119 32.4755 141.259 34.4798 157.63C34.7597 159.915 35.1068 162.127 35.51 164.384C36.4897 169.85 35.1012 170.774 31.143 164.323C27.6382 158.616 26.5072 150.797 26.8824 143.634V143.64Z" fill="#8FA633"/>
<path d="M45.2883 111.619C47.5278 110.975 49.8177 110.723 52.0908 110.83C52.0908 110.83 52.1244 110.83 52.1356 110.83C54.6326 110.712 56.9281 111.446 59.2403 112.392C59.2403 112.353 59.2347 112.314 59.2291 112.275C59.6938 112.571 60.2761 112.756 60.7744 112.868C60.78 112.935 60.7856 113.003 60.7968 113.064C73.461 119.936 84.7312 110.309 94.9881 127.312C97.0932 119.04 104.439 113.72 112.585 111.625C120.552 109.564 126.38 102.334 135.265 103.711C135.26 103.706 135.254 103.695 135.248 103.689C135.915 103.717 136.581 103.767 137.241 103.84C137.253 103.857 137.269 103.868 137.281 103.885C154.122 106.82 164.642 114.851 170.279 129.032C172.827 135.814 171.864 143.089 173.678 149.989C176.466 162.758 157.85 155.315 153.327 150.583C146.104 145.027 142.93 136.088 136.637 129.832C136.099 138.564 130.635 145.688 128.317 153.893C135.836 162.344 142.191 171.854 143.025 183.43C143.506 189.792 142.56 196.788 145.841 202.551C147.123 204.612 149.934 206.303 150.152 208.907C150.544 213.589 145.824 219.313 141.217 219.974C135.254 219.571 135.825 214.754 125.327 214.827C87.7209 211.254 66.1659 179.879 62.8179 144.304C58.4229 152.235 55.7915 161.302 55.7411 170.045C55.7019 177.393 58.3725 184.685 57.5327 192.01C57.1688 195.186 55.4164 202.45 50.8591 199.537C45.7474 195.253 43.1216 188.672 38.1052 184.209C33.1783 179.381 28.1787 174.816 24.7859 168.723C14.3779 148.93 22.4064 118.245 45.2828 111.625L45.2883 111.619ZM139.403 130.443C146.362 139.785 152.212 151.972 164.591 154.923C167.127 155.534 172.648 156.614 172.648 152.728C162.133 158.39 147.263 139.365 143.59 131.389C148.444 137.942 153.103 144.988 159.832 149.776C162.906 151.434 169.249 154.839 172.228 151.972C172.513 148.986 171.091 145.923 170.123 143.117C165.84 133.434 159.614 123.694 150.236 118.284C160.241 122.815 166.629 133.092 170.974 142.91C171.858 123.817 155.958 106.405 136.889 105.515C131.251 104.652 125.82 105.94 121.285 109.407C123.144 109.06 125.031 108.948 126.845 109.138C124.348 109.318 121.593 109.715 119.13 110.566C123.53 109.693 129.666 109.407 133.283 111.939C122.287 109.346 108.878 112.028 100.615 119.947C111.09 114.061 125.344 115.086 135.103 121.997C137.107 123.599 140.209 125.968 140.959 128.068C139.162 126.119 137.219 124.299 135.086 122.731C125.288 114.229 94.305 113.804 96.4213 131.77C102.373 112.359 128.899 117.618 139.414 130.454L139.403 130.443ZM130.993 143.386C133.322 138.693 134.812 133.915 135.31 128.696C134.817 128.287 134.319 127.895 133.809 127.508C133.524 131.333 132.818 135.506 131.021 138.799C131.872 134.901 132.891 130.667 132.583 126.607C128.496 123.717 123.956 121.269 119.006 120.367C119.247 131.389 121.274 142.876 127.203 152.341C128.11 149.216 129.554 146.321 130.988 143.391L130.993 143.386ZM140.108 218.512C144.57 218.585 150.432 211.965 147.98 207.709C145.584 205.586 141.967 208.286 140.119 210.106C138.501 211.702 137.387 217.605 140.108 218.512ZM76.2492 181.918C84.3785 198.389 101.466 208.129 118.839 212.2C124.874 214.026 131.934 212.609 137.113 216.737C136.693 214.525 137.342 211.736 138.35 210.022C137.544 209.019 137.152 207.916 136.855 206.622C135.954 201.766 130.618 200.036 126.856 197.7C120.423 193.55 114.029 188.252 110.614 181.414C115.362 187.642 121.655 192.666 128.334 196.765C134.912 200.814 137.213 200.938 139.279 208.801C140.981 206.964 143.814 205.323 146.311 205.496C140.332 198.227 142.359 188.336 141.071 179.583C135.019 154.055 117.898 157.119 117.545 120.194C85.3415 119.018 98.868 157.679 106.493 175.399C96.8636 162.579 95.9902 145.581 94.473 130.23C92.8997 126.657 88.5103 125.498 84.6248 125.548C75.0679 126.013 69.0604 134.8 64.1 142.115C65.1917 156.127 69.5139 169.619 76.2604 181.918H76.2492ZM23.291 161.291C26.1352 171.708 34.6284 178.608 41.9347 185.956C38.5755 178.446 35.7985 169.541 36.4032 161.381C37.7245 171.086 39.5049 180.971 44.7173 189.44C53.5856 205.082 55.3044 193.455 52.9362 182.724C52.074 175.472 50.9374 166.774 53.4513 160.109C52.9978 164.59 52.6898 168.958 52.8242 173.467C52.1692 179.7 58.5741 195.175 51.4973 198.165C56.7321 200.316 56.441 187.72 55.8363 184.651C54.9237 177.942 53.7312 171.31 54.6382 164.528C56.9169 148.477 71.2999 117.371 91.5952 125.447C76.6635 112.818 61.8661 133.955 57.3088 146.976C56.1218 149.855 55.2596 152.84 54.1791 155.752C54.1567 151.826 56.385 146.645 58.1262 142.602C63.1762 131.395 74.0769 115.809 88.1856 121.622C78.6118 114.772 63.2378 116.581 53.2441 121.74C55.8251 118.525 61.7653 117.382 66.1715 116.884C36.7615 100.2 15.7608 134.867 23.291 161.291Z" fill="#3D0801"/>
<path d="M72.8672 38.3156C70.9505 40.3281 65.8521 43.7495 60.7919 41.3344C55.7316 38.9193 53.604 39.6573 53.1728 40.3281" stroke="black"/>
<path d="M58.0631 36.4997C57.2629 37.2148 56.255 39.0025 58.625 40.4326" stroke="black"/>
<path d="M88.0666 52.2223C90.241 50.9177 90.8208 44.2497 90.8933 40.6982C90.8933 41.7854 92.0966 52.7276 86.1101 55.049C81.1004 56.9916 77.6403 52.1117 77.6403 52.1117C77.6403 52.1117 79.1297 52.2267 80.2168 52.4441C82.2283 52.8464 85.7082 53.6374 88.0666 52.2223Z" fill="#465509"/>
<path d="M56.2312 27.7853C55.2175 27.1966 54.4743 26.2393 53.8973 24.774C53.2823 23.2179 53.0951 21.5392 52.9807 19.9577C52.9079 18.9295 52.7634 17.9524 51.8143 17.3428C51.7751 17.32 51.7509 17.2716 51.752 17.2276C51.7885 16.2457 51.862 15.4467 51.9787 14.7175C51.9873 14.6606 52.0328 14.6184 52.0859 14.6114C55.5553 14.0911 59.1725 14.993 62.3667 15.7867C63.5413 16.0807 64.9444 16.3906 66.4599 16.4772C68.286 16.5827 70.1409 16.176 71.9358 15.7825C72.2158 15.7218 72.4931 15.6596 72.7675 15.6025C77.0904 14.6848 81.3129 14.9248 84.663 16.2796C86.2444 16.9198 87.7567 17.6126 89.1603 18.342C89.2443 18.3839 89.3227 18.4294 89.4011 18.4749C91.2611 19.5552 91.963 21.3886 91.3296 23.5044C91.1645 23.9685 90.8785 24.1356 90.4731 24.0032C90.4254 23.9892 90.3795 23.966 90.3403 23.9432C89.8988 23.6868 89.9565 23.047 89.9845 22.8606L89.9853 22.8233C89.9871 22.8141 89.9913 22.789 89.9931 22.7797C90.0961 21.8158 89.7522 21.1695 88.877 20.6612C88.4668 20.423 87.9783 20.2354 87.5058 20.0503L87.2128 19.9351C86.0132 19.4617 84.3714 18.8173 83.3107 19.3487C82.822 19.5939 82.4989 20.059 82.3158 20.7702C82.1715 21.3426 82.0489 21.9137 81.93 22.4665C81.4585 24.6764 81.0088 26.765 79.2254 28.5324C77.1762 30.5646 72.7752 30.6194 70.2104 29.3085C70.1488 29.2761 70.0846 29.2423 70.0245 29.2074C68.4936 28.3183 67.7891 26.5075 67.3935 25.223C67.3603 25.1179 67.3279 24.9994 67.2943 24.8769C67.1139 24.2258 66.8633 23.3349 66.2834 22.998C66.2024 22.951 66.118 22.9157 66.0277 22.8908C65.4802 22.7445 64.9926 22.8976 64.487 23.3701C64.1424 23.6921 63.9574 24.1962 63.7762 24.6818C63.7157 24.8459 63.6556 25.0033 63.5947 25.15C63.2032 26.0632 62.6336 26.8558 61.9074 27.5092C60.3798 28.8791 58.1578 28.6432 56.7182 28.0235C56.5536 27.952 56.3935 27.8727 56.2394 27.7832L56.2312 27.7853ZM62.5001 17.654C62.0978 17.4203 61.6387 17.2602 61.1968 17.1066C61.1001 17.0745 61.005 17.0398 60.915 17.0082C59.2795 16.419 57.5535 16.2857 56.0621 16.6322C56.0147 16.6356 55.9942 16.6408 55.9721 16.6486C55.9393 16.657 55.9158 16.6674 55.8922 16.6778C55.1557 16.9646 54.6236 17.5006 54.2948 18.2819C53.6067 19.9091 53.9373 22.3925 54.618 24.0039C55.1025 25.1476 55.9163 26.0978 56.9143 26.6774C58.3851 27.5316 59.9895 27.4294 61.312 26.3939C63.2498 24.8776 64.275 21.1273 63.4259 18.676C63.283 18.2667 62.9808 17.9331 62.5027 17.6555L62.5001 17.654ZM78.7142 18.1116C78.3928 17.925 78.0274 17.778 77.6258 17.6753C75.4158 17.2025 73.6961 17.1003 72.0472 17.345C71.2051 17.4708 69.1612 17.9018 68.3914 19.2308C67.5608 20.6584 67.9989 23.1253 68.2233 24.1213C68.5953 25.7527 69.6449 27.1146 71.2564 28.0574C72.6593 28.8722 74.2557 29.102 75.7658 28.7114C77.2702 28.3244 78.5278 27.3646 79.3084 26.011C80.6619 23.6607 81.3736 19.6562 78.7168 18.1131L78.7142 18.1116Z" fill="black"/>
<path d="M80.8482 21.069C80.7566 20.4936 80.4958 20.0467 80.1297 19.6967C80.9648 21.5833 80.3163 24.2538 79.3041 26.0054C78.5235 27.359 77.2675 28.3163 75.7615 28.7058C74.2515 29.0964 72.655 28.8666 71.2521 28.0518C69.6406 27.109 68.5911 25.7471 68.2191 24.1157C68.0297 23.2877 67.6996 21.4402 68.0726 20.0182C66.986 22.18 67.9845 25.546 69.3595 27.2618C71.3531 29.7526 75.0077 30.2537 77.6549 28.5756C78.8806 27.7966 79.6828 26.538 80.2171 25.2233C80.7307 23.962 81.0612 22.4329 80.8456 21.0675L80.8482 21.069Z" fill="#5C4F4F"/>
<path d="M63.6721 19.8155C63.952 22.1698 62.9651 25.0973 61.3096 26.3928C59.9871 27.4282 58.3827 27.5304 56.9119 26.6762C55.9139 26.0966 55.096 25.1475 54.6156 24.0028C54.0684 22.7025 53.7473 20.8395 54.0035 19.3119C52.9997 21.5836 53.6008 24.6535 55.4995 26.3162C57.4586 28.0312 60.6383 27.937 62.2829 25.9274C63.5391 24.3932 64.5199 21.7645 63.6747 19.817L63.6721 19.8155Z" fill="#5C4F4F"/>
<path d="M91.1807 22.7061C91.1805 23.1149 91.1322 23.5162 91.072 23.9141C91.1769 23.8239 91.2628 23.6883 91.3301 23.5006C91.9635 21.3847 91.2616 19.5514 89.4015 18.4711C89.3232 18.4256 89.2448 18.3801 89.1608 18.3382C87.7598 17.6103 86.2448 16.916 84.6635 16.2758C81.3134 14.921 77.0909 14.681 72.768 15.5987C72.4921 15.6584 72.2136 15.7165 71.9363 15.7787C70.1414 16.1722 68.2864 16.5789 66.4604 16.4734C64.9449 16.3868 63.5392 16.0754 62.3672 15.7829C59.1729 14.9892 55.5558 14.0873 52.0863 14.6076C52.0292 14.6156 51.9863 14.6594 51.9792 14.7137C51.9593 14.8258 51.9459 14.9451 51.9298 15.0629C54.3727 14.5407 57.1475 15.1183 59.4511 15.8207C61.2162 16.3614 62.9274 17.0908 64.7744 17.3046C66.5235 17.5063 68.2236 16.8791 69.918 16.5681C71.851 16.2136 73.8165 15.7611 75.7807 15.6171C77.5811 15.4844 79.3907 15.6663 81.1517 16.0879C83.8473 16.7293 86.6157 17.3959 88.971 18.9287C90.4037 19.8605 91.1794 20.9843 91.1822 22.7036L91.1807 22.7061Z" fill="#5C4F4F"/>
<path d="M84.0929 20.0962C84.9378 20.0407 85.8314 20.546 86.6475 21.0474C86.6461 20.6379 86.6422 20.2268 86.6328 19.8194C86.6314 19.7739 86.607 19.7323 86.5681 19.7097C86.5629 19.7066 86.508 19.6816 86.508 19.6816C85.5264 19.2558 84.0422 18.6137 83.1385 19.0507C82.8055 19.2111 82.5813 19.5069 82.4749 19.9226C82.3124 20.56 82.1815 21.2088 82.0532 21.8351C81.6717 23.7262 81.3113 25.5094 80.1246 27.1013C78.6712 29.0501 76.5419 30.012 73.7972 29.9604C72.4577 29.9348 71.5926 29.9256 70.2559 29.1492C69.9211 28.9547 69.6179 28.7237 69.3594 28.4637C68.5055 27.6036 67.873 26.5182 67.4818 25.2329C67.4572 25.1499 67.4289 25.0373 67.3926 24.9029C67.222 24.2232 66.9618 23.1961 66.4375 22.8916C66.2766 22.7981 65.1706 22.6141 64.8423 22.8322C64.3155 23.1824 64.1117 23.7237 63.9117 24.2465C63.8417 24.4325 63.7671 24.6263 63.6815 24.8033C63.1079 25.992 61.4314 28.7181 58.2886 28.4078C58.0457 28.3836 57.797 28.3456 57.5516 28.2958C57.4866 28.2821 57.4067 28.3147 57.3857 28.3747C57.3569 28.4541 57.3675 28.4805 57.3817 28.5439C57.4253 28.6238 57.4631 28.6567 57.5333 28.6734C58.8202 28.9982 60.2601 28.9825 61.4768 28.4491C62.6411 27.9401 63.5587 26.8824 64.1157 25.77C64.3198 25.3595 65.2864 23.1758 66.219 24.6816C66.6676 25.3132 66.7676 26.1441 67.0424 26.8534C67.2941 27.5012 67.6745 28.0828 68.135 28.6045C70.0676 30.7919 72.8617 31.0489 75.5927 30.7421C78.9587 30.3644 80.9335 27.6329 82.0327 24.6814C82.3852 23.7353 82.6447 22.7523 82.8784 21.7716C83.0512 21.0509 83.1822 20.1513 84.0892 20.0906L84.0929 20.0962Z" fill="#465508"/>
<path d="M78.0687 26.8622C76.8913 27.2158 75.5997 27.2008 74.4046 26.9121C72.9075 26.5476 71.5486 25.669 70.7592 24.3345C70.0672 23.1631 70.0013 21.4621 70.852 20.3725C72.1258 18.742 74.9011 18.9522 76.6972 19.3976C77.9185 19.7015 79.1131 20.2374 79.9609 21.087C79.8579 20.0447 79.4174 19.1258 78.4534 18.5659C78.1712 18.4021 77.8454 18.2712 77.4837 18.178C76.0653 17.8764 74.3991 17.5923 72.7783 17.7708C70.8804 17.9809 69.6735 18.4273 69.0898 19.1361C68.1573 20.2641 68.3715 22.7073 68.7298 23.9838C69.1709 25.5626 70.0066 26.7213 71.2106 27.4274L71.2263 27.4365C72.6631 28.271 74.3988 28.5439 75.8678 28.1638C76.7439 27.9375 77.488 27.4937 78.0672 26.8647L78.0687 26.8622Z" fill="#070707"/>
<path d="M71.1902 28.1652C74.1247 29.8799 77.7705 28.9364 79.4229 26.0726C81.0349 23.278 81.6057 18.5665 77.6594 17.5456C75.7905 17.1472 73.9234 16.932 72.0271 17.2116C70.7075 17.407 68.9738 17.9598 68.2787 19.1604C67.5048 20.4904 67.7721 22.7103 68.0986 24.1435C68.4985 25.9011 69.6492 27.2633 71.1943 28.1642L71.1902 28.1652ZM69.1954 19.2187C69.9412 18.3155 71.6953 18.022 72.7977 17.8996C74.3494 17.7256 75.9377 17.9816 77.4587 18.305C81.0434 19.2327 79.8981 23.6518 78.555 25.9842C77.0566 28.5836 73.6832 28.7165 71.2801 27.3139C69.9951 26.5607 69.2479 25.3401 68.8583 23.9492C68.5026 22.6742 68.3022 20.2974 69.1954 19.2187Z" fill="#3D0801"/>
<path d="M63.5464 18.6302C63.1761 17.5666 61.9059 17.2205 60.9579 16.8795C59.3951 16.3154 57.64 16.1239 56.027 16.4994C55.9945 16.5011 55.959 16.508 55.9232 16.5216C55.8862 16.531 55.853 16.5461 55.8239 16.5601C53.1415 17.5958 53.547 21.8129 54.4932 24.0492C55.6607 26.8125 58.8091 28.514 61.3947 26.491C63.4554 24.8778 64.394 21.06 63.5505 18.6291L63.5464 18.6302ZM55.7009 24.7129C54.5477 23.0125 53.7151 18.1179 56.1353 17.2803C58.1206 16.7878 60.5934 17.2655 62.3613 18.3301C63.3581 18.9297 63.0342 20.9161 62.9092 21.8397C62.7767 22.8243 62.4102 23.7486 61.9247 24.6071C60.4822 27.1703 57.3851 27.1888 55.7036 24.7144L55.7009 24.7129Z" fill="#3D0801"/>
<path d="M78.7019 26.4816C78.0871 27.5502 77.1163 28.2815 75.9034 28.5939C74.4345 28.974 72.6988 28.7011 71.2619 27.8666L71.2463 27.8575C70.0408 27.154 69.205 25.9952 68.7655 24.4139C68.4098 23.1389 68.1915 20.6967 69.1255 19.5661C69.7118 18.8589 70.9187 18.4125 72.8139 18.2009C74.4322 18.0208 76.101 18.3065 77.5194 18.6081C77.8811 18.7013 78.2069 18.8322 78.489 18.996C80.9787 20.442 79.9819 24.2637 78.7019 26.4816ZM63.0849 22.1624C63.2256 21.1517 63.2047 19.2525 62.6591 18.5736C62.4349 18.2545 62.1599 18.1117 62.1599 18.1117C60.292 17.0269 57.9145 16.8447 55.992 17.3255C55.3219 17.5581 54.9866 18.1707 54.7209 18.9817C54.0853 20.9211 54.8288 24.0491 55.6246 25.2224C56.032 25.8197 56.5235 26.2907 57.0878 26.6184C57.9185 27.1009 58.8618 27.2399 59.7409 27.0085C60.694 26.7582 61.5199 26.0836 62.0686 25.1106C62.6173 24.1376 62.9431 23.2172 63.0666 22.2961L63.086 22.1665L63.0849 22.1624Z" fill="#FFCF00"/>
<ellipse cx="0.586482" cy="2.99622" rx="0.586482" ry="2.99622" transform="matrix(-1 0 0 1 76.0234 19.2002)" fill="black"/>
<ellipse cx="0.586482" cy="2.99622" rx="0.586482" ry="2.99622" transform="matrix(-1 0 0 1 60.8516 18.8955)" fill="black"/>
<defs>
<linearGradient id="paint0_linear_0_3486" x1="71.2598" y1="56.1195" x2="75.5851" y2="66.1201" gradientUnits="userSpaceOnUse">
<stop stop-color="#F7E83F"/>
<stop offset="1" stop-color="#B9AE2A"/>
</linearGradient>
<linearGradient id="paint1_linear_0_3486" x1="66.2837" y1="46.0083" x2="71.6768" y2="56.4089" gradientUnits="userSpaceOnUse">
<stop stop-color="#F7E83F"/>
<stop offset="1" stop-color="#B9AE2A"/>
</linearGradient>
<linearGradient id="paint2_linear_0_3486" x1="71.2726" y1="65.1026" x2="77.4875" y2="76.59" gradientUnits="userSpaceOnUse">
<stop stop-color="#F7E83F"/>
<stop offset="1" stop-color="#B9AE2A"/>
</linearGradient>
<linearGradient id="paint3_linear_0_3486" x1="71.2671" y1="78.7169" x2="76.7385" y2="89.6824" gradientUnits="userSpaceOnUse">
<stop stop-color="#F7E83F"/>
<stop offset="1" stop-color="#B9AE2A"/>
</linearGradient>
<linearGradient id="paint4_linear_0_3486" x1="71.2377" y1="90.9838" x2="76.7091" y2="101.949" gradientUnits="userSpaceOnUse">
<stop stop-color="#F7E83F"/>
<stop offset="1" stop-color="#B9AE2A"/>
</linearGradient>
<linearGradient id="paint5_linear_0_3486" x1="71.236" y1="103.583" x2="76.7074" y2="114.549" gradientUnits="userSpaceOnUse">
<stop stop-color="#F7E83F"/>
<stop offset="1" stop-color="#B9AE2A"/>
</linearGradient>
</defs>
</svg>
