<svg width="587" height="158" viewBox="0 0 587 158" fill="none" xmlns="http://www.w3.org/2000/svg">
<path d="M15.5486 145.524L10.1396 67.9526L29.7719 66.5836C33.1557 66.3477 36.3042 66.4168 39.2172 66.7911C42.1303 67.1654 44.7234 68.011 46.9966 69.3281C49.3335 70.6407 51.1679 72.5658 52.4996 75.1033C53.8908 77.5725 54.731 80.8821 55.0204 85.032C55.2385 88.1604 54.9786 90.8731 54.2406 93.17C53.4981 95.403 52.3414 97.2159 50.7705 98.6085C49.1995 100.001 47.2166 101.006 44.8217 101.622C47.8535 101.859 50.4466 102.705 52.601 104.159C54.7553 105.612 56.4345 107.612 57.6386 110.159C58.8426 112.705 59.5737 115.83 59.8319 119.533C60.1035 123.427 59.8287 126.847 59.0075 129.791C58.2502 132.731 56.9784 135.193 55.1921 137.178C53.4059 139.163 51.1416 140.733 48.3992 141.886C45.6523 142.976 42.4274 143.65 38.7244 143.908L15.5486 145.524ZM30.5756 133.313L34.981 133.006C38.9393 132.73 41.5837 131.551 42.9142 129.47C44.3084 127.384 44.8676 124.362 44.5916 120.403C44.3779 117.339 43.8575 114.937 43.0306 113.198C42.1992 111.396 40.9565 110.135 39.3025 109.416C37.7079 108.629 35.6018 108.327 32.9841 108.51L28.8661 108.797L30.5756 133.313ZM28.1249 98.1667L32.0514 97.8929C34.7967 97.7015 36.8449 97.1737 38.1961 96.3096C39.5428 95.3817 40.4159 94.1019 40.8154 92.4701C41.2742 90.7701 41.4213 88.739 41.2566 86.3767C41.0919 84.0144 40.5455 82.1599 39.6176 80.8132C38.7491 79.3982 37.4626 78.4294 35.7581 77.9067C34.1174 77.3795 32.0521 77.2027 29.5622 77.3764L26.6891 77.5767L28.1249 98.1667ZM57.5442 142.596L67.1706 63.9758L84.6961 62.7538L105.045 139.284L90.3924 140.305L86.4265 123.452L74.1683 124.307L72.3881 141.561L57.5442 142.596ZM74.9303 114.535L84.2198 113.887L77.3435 82.898L74.9303 114.535ZM103.928 139.362L98.5188 61.7899L109.532 61.022L129.588 100.234L126.77 59.82L139.795 58.9118L145.204 136.483L134.669 137.218L114.439 95.5162L117.431 138.42L103.928 139.362ZM144.146 136.557L153.773 57.9371L171.298 56.715L191.647 133.245L176.995 134.267L173.029 117.414L160.77 118.268L158.99 135.522L144.146 136.557ZM161.533 108.496L170.822 107.848L163.946 76.8593L161.533 108.496ZM190.53 133.323L185.121 55.7512L196.134 54.9832L216.19 94.1951L213.372 53.7812L226.397 52.873L231.806 130.445L221.271 131.179L201.042 89.4774L204.033 132.381L190.53 133.323ZM230.749 130.518L240.375 51.8983L257.9 50.6763L278.249 127.206L263.597 128.228L259.631 111.375L247.373 112.23L245.593 129.483L230.749 130.518ZM248.135 102.457L257.424 101.809L250.548 70.8205L248.135 102.457ZM291.809 126.261L287.74 48.5956L304.5 47.4269L317.489 95.6963L324.323 46.0446L340.508 44.9161L347.258 122.394L335.766 123.196L330.855 70.7061L324.657 123.97L314.793 124.658L300.757 72.4198L303.396 125.453L291.809 126.261ZM371.423 121.768C365.741 122.164 361.168 121.456 357.706 119.645C354.244 117.833 351.647 115.095 349.916 111.431C348.244 107.698 347.223 103.182 346.854 97.883L344.837 68.9612C344.468 63.6621 344.854 59.0801 345.996 55.2153C347.202 51.3461 349.396 48.3061 352.577 46.0954C355.759 43.8847 360.191 42.5812 365.874 42.185C371.62 41.7844 376.224 42.4898 379.686 44.3013C383.208 46.0446 385.803 48.7507 387.47 52.4196C389.197 56.0202 390.245 60.4701 390.614 65.7692L392.631 94.691C393 99.9901 392.584 104.606 391.383 108.539C390.241 112.404 388.05 115.476 384.808 117.755C381.631 120.03 377.169 121.367 371.423 121.768ZM370.628 110.371C372.671 110.229 374.14 109.677 375.036 108.717C375.927 107.692 376.478 106.403 376.691 104.848C376.899 103.23 376.94 101.527 376.816 99.7393L374.258 63.0604C374.133 61.2727 373.858 59.6239 373.432 58.1138C373.006 56.6038 372.283 55.4353 371.263 54.6082C370.238 53.7173 368.705 53.3431 366.662 53.4856C364.746 53.6191 363.343 54.1982 362.452 55.2226C361.557 56.1832 361.003 57.4408 360.791 58.9953C360.578 60.5499 360.534 62.221 360.659 64.0086L363.217 100.688C363.341 102.475 363.587 104.158 363.954 105.737C364.38 107.247 365.105 108.447 366.129 109.338C367.149 110.165 368.649 110.509 370.628 110.371ZM406.265 118.28L386.108 41.7364L399.802 40.7815L412.736 93.7702L417.615 39.5394L431.885 38.5444L422.545 117.144L406.265 118.28ZM436.308 116.185L430.899 38.6131L464.705 36.2559L465.466 47.1734L447.462 48.4288L448.898 69.0188L462.784 68.0505L463.552 79.0638L449.666 80.0321L451.362 104.357L469.558 103.088L470.306 113.814L436.308 116.185Z" fill="#8AF1E9"/>
<mask id="path-2-outside-1_3_73" maskUnits="userSpaceOnUse" x="4.24483" y="25.8281" width="465.796" height="116.862" fill="black">
<rect fill="white" x="4.24483" y="25.8281" width="465.796" height="116.862"/>
<path d="M12.7283 138.501L7.31929 60.9291L26.9516 59.5602C30.3354 59.3242 33.4838 59.3934 36.3969 59.7677C39.31 60.1419 41.9031 60.9876 44.1762 62.3047C46.5132 63.6173 48.3476 65.5424 49.6793 68.0799C51.0704 70.5491 51.9107 73.8587 52.2001 78.0086C52.4182 81.137 52.1583 83.8496 51.4203 86.1465C50.6778 88.3796 49.5211 90.1924 47.9502 91.5851C46.3792 92.9777 44.3963 93.9821 42.0013 94.5982C45.0332 94.8359 47.6263 95.6815 49.7807 97.1352C51.935 98.5889 53.6142 100.589 54.8182 103.135C56.0223 105.682 56.7534 108.806 57.0116 112.509C57.2832 116.404 57.0084 119.823 56.1872 122.768C55.4299 125.707 54.1581 128.17 52.3718 130.155C50.5856 132.14 48.3213 133.709 45.5789 134.863C42.832 135.953 39.6071 136.627 35.9041 136.885L12.7283 138.501ZM27.7553 126.29L32.1606 125.983C36.119 125.707 38.7634 124.528 40.0939 122.446C41.4881 120.36 42.0473 117.338 41.7712 113.38C41.5576 110.315 41.0372 107.914 40.2103 106.175C39.3789 104.372 38.1362 103.112 36.4822 102.393C34.8876 101.606 32.7815 101.304 30.1638 101.486L26.0458 101.773L27.7553 126.29ZM25.3046 91.1433L29.231 90.8695C31.9764 90.678 34.0246 90.1503 35.3758 89.2862C36.7225 88.3583 37.5956 87.0784 37.9951 85.4467C38.4539 83.7467 38.601 81.7155 38.4363 79.3533C38.2715 76.991 37.7252 75.1365 36.7973 73.7898C35.9288 72.3748 34.6422 71.4059 32.9378 70.8832C31.2971 70.3561 29.2318 70.1793 26.7419 70.3529L23.8688 70.5533L25.3046 91.1433ZM54.7239 135.572L64.3503 56.9524L81.8758 55.7303L102.225 132.26L87.5721 133.282L83.6062 116.429L71.348 117.284L69.5678 134.537L54.7239 135.572ZM72.11 107.511L81.3995 106.863L74.5232 75.8746L72.11 107.511ZM101.107 132.338L95.6984 54.7665L106.712 53.9985L126.768 93.2104L123.95 52.7965L136.974 51.8883L142.383 129.46L131.849 130.195L111.619 88.4927L114.611 131.397L101.107 132.338ZM141.326 129.534L150.953 50.9136L168.478 49.6916L188.827 126.222L174.174 127.243L170.208 110.39L157.95 111.245L156.17 128.499L141.326 129.534ZM158.712 101.472L168.002 100.825L161.125 69.8359L158.712 101.472ZM187.71 126.299L182.301 48.7277L193.314 47.9598L213.37 87.1717L210.552 46.7578L223.576 45.8496L228.985 123.421L218.451 124.156L198.221 82.454L201.213 125.358L187.71 126.299ZM227.928 123.495L237.555 44.8749L255.08 43.6529L275.429 120.183L260.777 121.204L256.811 104.352L244.552 105.206L242.772 122.46L227.928 123.495ZM245.314 95.4336L254.604 94.7858L247.728 63.7971L245.314 95.4336ZM288.988 119.237L284.92 41.5721L301.679 40.4035L314.668 88.6729L321.503 39.0212L337.688 37.8926L344.438 115.371L332.946 116.172L328.034 63.6826L321.837 116.947L311.972 117.635L297.937 65.3964L300.576 118.429L288.988 119.237ZM368.603 114.744C362.92 115.141 358.348 114.433 354.886 112.621C351.423 110.81 348.827 108.072 347.095 104.407C345.424 100.675 344.403 96.1587 344.034 90.8595L342.017 61.9378C341.647 56.6386 342.034 52.0567 343.176 48.1919C344.381 44.3226 346.575 41.2827 349.757 39.072C352.939 36.8613 357.371 35.5578 363.053 35.1616C368.799 34.7609 373.404 35.4664 376.866 37.2779C380.388 39.0211 382.982 41.7272 384.65 45.3961C386.376 48.9967 387.424 53.4466 387.794 58.7458L389.81 87.6675C390.18 92.9667 389.764 97.5828 388.563 101.516C387.421 105.381 385.229 108.453 381.988 110.732C378.81 113.006 374.349 114.344 368.603 114.744ZM367.808 103.348C369.851 103.206 371.32 102.654 372.216 101.693C373.106 100.669 373.658 99.3795 373.87 97.8249C374.078 96.2066 374.12 94.5035 373.995 92.7159L371.438 56.0369C371.313 54.2493 371.038 52.6004 370.612 51.0904C370.186 49.5804 369.463 48.4119 368.443 47.5848C367.418 46.6939 365.884 46.3197 363.841 46.4622C361.926 46.5957 360.523 47.1747 359.632 48.1992C358.737 49.1598 358.183 50.4173 357.97 51.9719C357.758 53.5264 357.714 55.1975 357.839 56.9852L360.396 93.6641C360.521 95.4518 360.767 97.1348 361.133 98.7131C361.559 100.223 362.285 101.424 363.309 102.314C364.329 103.142 365.829 103.486 367.808 103.348ZM403.445 111.256L383.287 34.713L396.982 33.7581L409.915 86.7468L414.795 32.516L429.064 31.521L419.725 110.121L403.445 111.256ZM433.488 109.161L428.079 31.5897L461.885 29.2324L462.646 40.1499L444.642 41.4054L446.078 61.9954L459.964 61.0271L460.732 72.0403L446.845 73.0086L448.542 97.3336L466.737 96.0648L467.485 106.791L433.488 109.161Z"/>
</mask>
<path d="M12.7283 138.501L7.31929 60.9291L26.9516 59.5602C30.3354 59.3242 33.4838 59.3934 36.3969 59.7677C39.31 60.1419 41.9031 60.9876 44.1762 62.3047C46.5132 63.6173 48.3476 65.5424 49.6793 68.0799C51.0704 70.5491 51.9107 73.8587 52.2001 78.0086C52.4182 81.137 52.1583 83.8496 51.4203 86.1465C50.6778 88.3796 49.5211 90.1924 47.9502 91.5851C46.3792 92.9777 44.3963 93.9821 42.0013 94.5982C45.0332 94.8359 47.6263 95.6815 49.7807 97.1352C51.935 98.5889 53.6142 100.589 54.8182 103.135C56.0223 105.682 56.7534 108.806 57.0116 112.509C57.2832 116.404 57.0084 119.823 56.1872 122.768C55.4299 125.707 54.1581 128.17 52.3718 130.155C50.5856 132.14 48.3213 133.709 45.5789 134.863C42.832 135.953 39.6071 136.627 35.9041 136.885L12.7283 138.501ZM27.7553 126.29L32.1606 125.983C36.119 125.707 38.7634 124.528 40.0939 122.446C41.4881 120.36 42.0473 117.338 41.7712 113.38C41.5576 110.315 41.0372 107.914 40.2103 106.175C39.3789 104.372 38.1362 103.112 36.4822 102.393C34.8876 101.606 32.7815 101.304 30.1638 101.486L26.0458 101.773L27.7553 126.29ZM25.3046 91.1433L29.231 90.8695C31.9764 90.678 34.0246 90.1503 35.3758 89.2862C36.7225 88.3583 37.5956 87.0784 37.9951 85.4467C38.4539 83.7467 38.601 81.7155 38.4363 79.3533C38.2715 76.991 37.7252 75.1365 36.7973 73.7898C35.9288 72.3748 34.6422 71.4059 32.9378 70.8832C31.2971 70.3561 29.2318 70.1793 26.7419 70.3529L23.8688 70.5533L25.3046 91.1433ZM54.7239 135.572L64.3503 56.9524L81.8758 55.7303L102.225 132.26L87.5721 133.282L83.6062 116.429L71.348 117.284L69.5678 134.537L54.7239 135.572ZM72.11 107.511L81.3995 106.863L74.5232 75.8746L72.11 107.511ZM101.107 132.338L95.6984 54.7665L106.712 53.9985L126.768 93.2104L123.95 52.7965L136.974 51.8883L142.383 129.46L131.849 130.195L111.619 88.4927L114.611 131.397L101.107 132.338ZM141.326 129.534L150.953 50.9136L168.478 49.6916L188.827 126.222L174.174 127.243L170.208 110.39L157.95 111.245L156.17 128.499L141.326 129.534ZM158.712 101.472L168.002 100.825L161.125 69.8359L158.712 101.472ZM187.71 126.299L182.301 48.7277L193.314 47.9598L213.37 87.1717L210.552 46.7578L223.576 45.8496L228.985 123.421L218.451 124.156L198.221 82.454L201.213 125.358L187.71 126.299ZM227.928 123.495L237.555 44.8749L255.08 43.6529L275.429 120.183L260.777 121.204L256.811 104.352L244.552 105.206L242.772 122.46L227.928 123.495ZM245.314 95.4336L254.604 94.7858L247.728 63.7971L245.314 95.4336ZM288.988 119.237L284.92 41.5721L301.679 40.4035L314.668 88.6729L321.503 39.0212L337.688 37.8926L344.438 115.371L332.946 116.172L328.034 63.6826L321.837 116.947L311.972 117.635L297.937 65.3964L300.576 118.429L288.988 119.237ZM368.603 114.744C362.92 115.141 358.348 114.433 354.886 112.621C351.423 110.81 348.827 108.072 347.095 104.407C345.424 100.675 344.403 96.1587 344.034 90.8595L342.017 61.9378C341.647 56.6386 342.034 52.0567 343.176 48.1919C344.381 44.3226 346.575 41.2827 349.757 39.072C352.939 36.8613 357.371 35.5578 363.053 35.1616C368.799 34.7609 373.404 35.4664 376.866 37.2779C380.388 39.0211 382.982 41.7272 384.65 45.3961C386.376 48.9967 387.424 53.4466 387.794 58.7458L389.81 87.6675C390.18 92.9667 389.764 97.5828 388.563 101.516C387.421 105.381 385.229 108.453 381.988 110.732C378.81 113.006 374.349 114.344 368.603 114.744ZM367.808 103.348C369.851 103.206 371.32 102.654 372.216 101.693C373.106 100.669 373.658 99.3795 373.87 97.8249C374.078 96.2066 374.12 94.5035 373.995 92.7159L371.438 56.0369C371.313 54.2493 371.038 52.6004 370.612 51.0904C370.186 49.5804 369.463 48.4119 368.443 47.5848C367.418 46.6939 365.884 46.3197 363.841 46.4622C361.926 46.5957 360.523 47.1747 359.632 48.1992C358.737 49.1598 358.183 50.4173 357.97 51.9719C357.758 53.5264 357.714 55.1975 357.839 56.9852L360.396 93.6641C360.521 95.4518 360.767 97.1348 361.133 98.7131C361.559 100.223 362.285 101.424 363.309 102.314C364.329 103.142 365.829 103.486 367.808 103.348ZM403.445 111.256L383.287 34.713L396.982 33.7581L409.915 86.7468L414.795 32.516L429.064 31.521L419.725 110.121L403.445 111.256ZM433.488 109.161L428.079 31.5897L461.885 29.2324L462.646 40.1499L444.642 41.4054L446.078 61.9954L459.964 61.0271L460.732 72.0403L446.845 73.0086L448.542 97.3336L466.737 96.0648L467.485 106.791L433.488 109.161Z" fill="#4827FF"/>
<path d="M12.7283 138.501L10.7332 138.64L10.8723 140.635L12.8675 140.496L12.7283 138.501ZM7.31929 60.9291L7.18016 58.934L5.18501 59.0731L5.32413 61.0683L7.31929 60.9291ZM36.3969 59.7677L36.6518 57.784L36.3969 59.7677ZM44.1762 62.3047L43.1736 64.0352L43.1852 64.0419L43.1968 64.0484L44.1762 62.3047ZM49.6793 68.0799L47.9084 69.0093L47.9222 69.0356L47.9368 69.0616L49.6793 68.0799ZM51.4203 86.1465L53.3181 86.7775L53.3213 86.768L53.3244 86.7583L51.4203 86.1465ZM47.9502 91.5851L49.2769 93.0817L49.2769 93.0817L47.9502 91.5851ZM42.0013 94.5982L41.5031 92.6613L41.845 96.5921L42.0013 94.5982ZM49.7807 97.1352L48.662 98.7931L49.7807 97.1352ZM54.8182 103.135L56.6263 102.28L54.8182 103.135ZM56.1872 122.768L54.2607 122.23L54.2554 122.249L54.2504 122.269L56.1872 122.768ZM52.3718 130.155L53.8585 131.493L53.8585 131.493L52.3718 130.155ZM45.5789 134.863L46.3164 136.722L46.3354 136.714L46.3543 136.706L45.5789 134.863ZM27.7553 126.29L25.7602 126.429L25.8993 128.424L27.8945 128.285L27.7553 126.29ZM40.0939 122.446L38.4311 121.335L38.4197 121.352L38.4087 121.369L40.0939 122.446ZM40.2103 106.175L38.3942 107.012L38.3991 107.023L38.4042 107.034L40.2103 106.175ZM36.4822 102.393L35.5971 104.186L35.6406 104.208L35.6851 104.227L36.4822 102.393ZM26.0458 101.773L25.9067 99.7783L23.9115 99.9174L24.0507 101.913L26.0458 101.773ZM25.3046 91.1433L23.3094 91.2824L23.4485 93.2775L25.4437 93.1384L25.3046 91.1433ZM35.3758 89.2862L36.4533 90.9711L36.4823 90.9526L36.5106 90.9331L35.3758 89.2862ZM37.9951 85.4467L36.0642 84.9255L36.058 84.9483L36.0524 84.9711L37.9951 85.4467ZM36.7973 73.7898L35.0928 74.836L35.1204 74.881L35.1504 74.9246L36.7973 73.7898ZM32.9378 70.8832L32.3259 72.7873L32.3386 72.7914L32.3514 72.7953L32.9378 70.8832ZM23.8688 70.5533L23.7297 68.5581L21.7346 68.6972L21.8737 70.6924L23.8688 70.5533ZM14.7235 138.362L9.31444 60.79L5.32413 61.0683L10.7332 138.64L14.7235 138.362ZM7.45841 62.9243L27.0907 61.5553L26.8125 57.565L7.18016 58.934L7.45841 62.9243ZM27.0907 61.5553C30.3628 61.3272 33.3778 61.3962 36.1421 61.7514L36.6518 57.784C33.5898 57.3906 30.308 57.3213 26.8125 57.565L27.0907 61.5553ZM36.1421 61.7514C38.8226 62.0958 41.1561 62.8662 43.1736 64.0352L45.1789 60.5742C42.6502 59.109 39.7974 58.1881 36.6518 57.784L36.1421 61.7514ZM43.1968 64.0484C45.1732 65.1585 46.7432 66.7892 47.9084 69.0093L51.4502 67.1505C49.9519 64.2955 47.8532 62.0761 45.1557 60.5609L43.1968 64.0484ZM47.9368 69.0616C49.1304 71.1801 49.9273 74.1664 50.2049 78.1477L54.1952 77.8695C53.8941 73.5509 53.0105 69.9181 51.4218 67.0982L47.9368 69.0616ZM50.2049 78.1477C50.4104 81.0947 50.1568 83.5407 49.5161 85.5347L53.3244 86.7583C54.1597 84.1585 54.426 81.1792 54.1952 77.8695L50.2049 78.1477ZM49.5224 85.5155C48.8772 87.4561 47.9005 88.9564 46.6234 90.0885L49.2769 93.0817C51.1417 91.4285 52.4784 89.3031 53.3181 86.7775L49.5224 85.5155ZM46.6234 90.0885C45.3286 91.2364 43.6454 92.1102 41.5031 92.6613L42.4996 96.5351C45.1472 95.854 47.4298 94.7191 49.2769 93.0817L46.6234 90.0885ZM41.845 96.5921C44.5915 96.8074 46.8394 97.5633 48.662 98.7931L50.8993 95.4773C48.4132 93.7998 45.4749 92.8644 42.1576 92.6043L41.845 96.5921ZM48.662 98.7931C50.4938 100.029 51.9464 101.74 53.0102 103.99L56.6263 102.28C55.282 99.4374 53.3762 97.1486 50.8993 95.4773L48.662 98.7931ZM53.0102 103.99C54.08 106.253 54.7704 109.119 55.0165 112.649L59.0068 112.37C58.7365 108.494 57.9646 105.111 56.6263 102.28L53.0102 103.99ZM55.0165 112.649C55.2763 116.375 55.0062 119.557 54.2607 122.23L58.1137 123.305C59.0105 120.089 59.29 116.433 59.0068 112.37L55.0165 112.649ZM54.2504 122.269C53.5623 124.94 52.4281 127.102 50.8851 128.817L53.8585 131.493C55.888 129.237 57.2974 126.475 58.124 123.267L54.2504 122.269ZM50.8851 128.817C49.3173 130.559 47.3056 131.967 44.8034 133.019L46.3543 136.706C49.3369 135.452 51.8539 133.721 53.8585 131.493L50.8851 128.817ZM44.8413 133.004C42.3275 134.001 39.3128 134.642 35.7649 134.89L36.0432 138.88C39.9013 138.611 43.3365 137.904 46.3164 136.722L44.8413 133.004ZM35.7649 134.89L12.5892 136.506L12.8675 140.496L36.0432 138.88L35.7649 134.89ZM27.8945 128.285L32.2998 127.978L32.0215 123.988L27.6162 124.295L27.8945 128.285ZM32.2998 127.978C36.5034 127.685 39.9424 126.397 41.7791 123.523L38.4087 121.369C37.5845 122.659 35.7346 123.729 32.0215 123.988L32.2998 127.978ZM41.7566 123.558C43.5039 120.944 44.0565 117.401 43.7664 113.241L39.7761 113.519C40.038 117.275 39.4724 119.777 38.4311 121.335L41.7566 123.558ZM43.7664 113.241C43.5444 110.057 42.9957 107.375 42.0164 105.316L38.4042 107.034C39.0788 108.452 39.5707 110.573 39.7761 113.519L43.7664 113.241ZM42.0264 105.337C41.0116 103.137 39.4305 101.493 37.2792 100.559L35.6851 104.227C36.8419 104.73 37.7461 105.608 38.3942 107.012L42.0264 105.337ZM37.3673 100.6C35.339 99.5985 32.8389 99.2949 30.0247 99.4912L30.3029 103.481C32.724 103.313 34.4361 103.614 35.5971 104.186L37.3673 100.6ZM30.0247 99.4912L25.9067 99.7783L26.1849 103.769L30.3029 103.481L30.0247 99.4912ZM24.0507 101.913L25.7602 126.429L29.7505 126.151L28.041 101.634L24.0507 101.913ZM25.4437 93.1384L29.3702 92.8646L29.0919 88.8743L25.1654 89.1481L25.4437 93.1384ZM29.3702 92.8646C32.241 92.6645 34.6852 92.1018 36.4533 90.9711L34.2983 87.6013C33.364 88.1987 31.7118 88.6916 29.0919 88.8743L29.3702 92.8646ZM36.5106 90.9331C38.273 89.7188 39.4251 88.016 39.9377 85.9223L36.0524 84.9711C35.7661 86.1408 35.172 86.9978 34.241 87.6393L36.5106 90.9331ZM39.926 85.9679C40.459 83.9931 40.6066 81.7269 40.4314 79.2141L36.4411 79.4924C36.5953 81.7041 36.4488 83.5003 36.0642 84.9255L39.926 85.9679ZM40.4314 79.2141C40.2523 76.6452 39.6464 74.3998 38.4442 72.655L35.1504 74.9246C35.804 75.8732 36.2908 77.3368 36.4411 79.4924L40.4314 79.2141ZM38.5018 72.7436C37.3587 70.8813 35.657 69.6252 33.5241 68.9711L32.3514 72.7953C33.6275 73.1867 34.4988 73.8683 35.0928 74.836L38.5018 72.7436ZM33.5496 68.9791C31.5839 68.3475 29.2423 68.1737 26.6027 68.3578L26.881 72.3481C29.2213 72.1849 31.0103 72.3646 32.3259 72.7873L33.5496 68.9791ZM26.6027 68.3578L23.7297 68.5581L24.008 72.5484L26.881 72.3481L26.6027 68.3578ZM21.8737 70.6924L23.3094 91.2824L27.2997 91.0041L25.864 70.4141L21.8737 70.6924ZM54.7239 135.572L52.7387 135.329L52.444 137.736L54.863 137.568L54.7239 135.572ZM64.3503 56.9524L64.2112 54.9572L62.5656 55.072L62.3651 56.7093L64.3503 56.9524ZM81.8758 55.7303L83.8086 55.2164L83.3842 53.6203L81.7366 53.7352L81.8758 55.7303ZM102.225 132.26L102.364 134.255L104.78 134.087L104.157 131.746L102.225 132.26ZM87.5721 133.282L85.6253 133.74L86.0148 135.395L87.7112 135.277L87.5721 133.282ZM83.6062 116.429L85.553 115.971L85.1635 114.316L83.4671 114.434L83.6062 116.429ZM71.348 117.284L71.2088 115.289L69.5311 115.406L69.3585 117.079L71.348 117.284ZM69.5678 134.537L69.7069 136.533L71.3847 136.416L71.5573 134.743L69.5678 134.537ZM72.11 107.511L70.1158 107.359L69.9397 109.667L72.2491 109.506L72.11 107.511ZM81.3994 106.863L81.5386 108.858L83.855 108.697L83.352 106.43L81.3994 106.863ZM74.5232 75.8746L76.4757 75.4413L72.529 75.7225L74.5232 75.8746ZM56.709 135.816L66.3355 57.1955L62.3651 56.7093L52.7387 135.329L56.709 135.816ZM64.4894 58.9475L82.0149 57.7255L81.7366 53.7352L64.2112 54.9572L64.4894 58.9475ZM79.9429 56.2443L100.292 132.774L104.157 131.746L83.8086 55.2164L79.9429 56.2443ZM102.085 130.265L87.433 131.287L87.7112 135.277L102.364 134.255L102.085 130.265ZM89.5189 132.824L85.553 115.971L81.6594 116.887L85.6253 133.74L89.5189 132.824ZM83.4671 114.434L71.2088 115.289L71.4871 119.279L83.7453 118.424L83.4671 114.434ZM69.3585 117.079L67.5784 134.332L71.5573 134.743L73.3374 117.489L69.3585 117.079ZM69.4287 132.542L54.5847 133.577L54.863 137.568L69.7069 136.533L69.4287 132.542ZM72.2491 109.506L81.5386 108.858L81.2603 104.868L71.9709 105.516L72.2491 109.506ZM83.352 106.43L76.4757 75.4413L72.5707 76.3078L79.4469 107.297L83.352 106.43ZM72.529 75.7225L70.1158 107.359L74.1042 107.663L76.5174 76.0267L72.529 75.7225ZM101.107 132.338L99.1123 132.477L99.2515 134.472L101.247 134.333L101.107 132.338ZM95.6984 54.7665L95.5593 52.7713L93.5642 52.9105L93.7033 54.9056L95.6984 54.7665ZM106.712 53.9985L108.492 53.0878L107.891 51.9115L106.573 52.0034L106.712 53.9985ZM126.768 93.2104L124.987 94.1212L128.763 93.0713L126.768 93.2104ZM123.95 52.7965L123.811 50.8014L121.816 50.9405L121.955 52.9357L123.95 52.7965ZM136.974 51.8883L138.969 51.7492L138.83 49.7541L136.835 49.8932L136.974 51.8883ZM142.383 129.46L142.522 131.455L144.518 131.316L144.378 129.321L142.383 129.46ZM131.849 130.195L130.049 131.067L130.639 132.284L131.988 132.19L131.849 130.195ZM111.619 88.4927L113.418 87.6198L109.624 88.6319L111.619 88.4927ZM114.611 131.397L114.75 133.392L116.745 133.253L116.606 131.257L114.611 131.397ZM103.103 132.199L97.6936 54.6274L93.7033 54.9056L99.1123 132.477L103.103 132.199ZM95.8376 56.7616L106.851 55.9937L106.573 52.0034L95.5593 52.7713L95.8376 56.7616ZM104.931 54.9093L124.987 94.1212L128.548 92.2997L108.492 53.0878L104.931 54.9093ZM128.763 93.0713L125.945 52.6574L121.955 52.9357L124.773 93.3495L128.763 93.0713ZM124.089 54.7917L137.113 53.8835L136.835 49.8932L123.811 50.8014L124.089 54.7917ZM134.979 52.0275L140.388 129.599L144.378 129.321L138.969 51.7492L134.979 52.0275ZM142.244 127.465L131.71 128.199L131.988 132.19L142.522 131.455L142.244 127.465ZM133.648 129.322L113.418 87.6198L109.82 89.3657L130.049 131.067L133.648 129.322ZM109.624 88.6319L112.616 131.536L116.606 131.257L113.614 88.3536L109.624 88.6319ZM114.472 129.401L100.968 130.343L101.247 134.333L114.75 133.392L114.472 129.401ZM141.326 129.534L139.341 129.291L139.046 131.698L141.465 131.529L141.326 129.534ZM150.953 50.9136L150.813 48.9185L149.168 49.0332L148.967 50.6706L150.953 50.9136ZM168.478 49.6916L170.411 49.1777L169.986 47.5816L168.339 47.6964L168.478 49.6916ZM188.827 126.222L188.966 128.217L191.382 128.048L190.76 125.708L188.827 126.222ZM174.174 127.243L172.228 127.701L172.617 129.357L174.313 129.238L174.174 127.243ZM170.208 110.39L172.155 109.932L171.766 108.277L170.069 108.395L170.208 110.39ZM157.95 111.245L157.811 109.25L156.133 109.367L155.961 111.04L157.95 111.245ZM156.17 128.499L156.309 130.494L157.987 130.377L158.159 128.704L156.17 128.499ZM158.712 101.472L156.718 101.32L156.542 103.629L158.851 103.467L158.712 101.472ZM168.002 100.825L168.141 102.82L170.457 102.658L169.954 100.391L168.002 100.825ZM161.125 69.8358L163.078 69.4026L159.131 69.6837L161.125 69.8358ZM143.311 129.777L152.938 51.1567L148.967 50.6706L139.341 129.291L143.311 129.777ZM151.092 52.9088L168.617 51.6868L168.339 47.6964L150.813 48.9185L151.092 52.9088ZM166.545 50.2055L186.894 126.735L190.76 125.708L170.411 49.1777L166.545 50.2055ZM188.688 124.226L174.035 125.248L174.313 129.238L188.966 128.217L188.688 124.226ZM176.121 126.785L172.155 109.932L168.262 110.848L172.228 127.701L176.121 126.785ZM170.069 108.395L157.811 109.25L158.089 113.24L170.348 112.385L170.069 108.395ZM155.961 111.04L154.181 128.293L158.159 128.704L159.94 111.45L155.961 111.04ZM156.031 126.503L141.187 127.539L141.465 131.529L156.309 130.494L156.031 126.503ZM158.851 103.467L168.141 102.82L167.863 98.8294L158.573 99.4772L158.851 103.467ZM169.954 100.391L163.078 69.4026L159.173 70.2691L166.049 101.258L169.954 100.391ZM159.131 69.6837L156.718 101.32L160.706 101.624L163.12 69.988L159.131 69.6837ZM187.71 126.299L185.715 126.439L185.854 128.434L187.849 128.295L187.71 126.299ZM182.301 48.7277L182.162 46.7326L180.166 46.8717L180.306 48.8669L182.301 48.7277ZM193.314 47.9598L195.095 47.049L194.493 45.8727L193.175 45.9646L193.314 47.9598ZM213.37 87.1717L211.59 88.0824L215.365 87.0325L213.37 87.1717ZM210.552 46.7578L210.413 44.7626L208.418 44.9018L208.557 46.8969L210.552 46.7578ZM223.576 45.8496L225.572 45.7105L225.432 43.7153L223.437 43.8544L223.576 45.8496ZM228.985 123.421L229.125 125.416L231.12 125.277L230.981 123.282L228.985 123.421ZM218.451 124.156L216.652 125.029L217.242 126.245L218.59 126.151L218.451 124.156ZM198.221 82.454L200.021 81.5811L196.226 82.5931L198.221 82.454ZM201.213 125.358L201.352 127.353L203.347 127.214L203.208 125.219L201.213 125.358ZM189.705 126.16L184.296 48.5886L180.306 48.8669L185.715 126.439L189.705 126.16ZM182.44 50.7229L193.453 49.955L193.175 45.9646L182.162 46.7326L182.44 50.7229ZM191.533 48.8705L211.59 88.0824L215.151 86.2609L195.095 47.049L191.533 48.8705ZM215.365 87.0325L212.547 46.6187L208.557 46.8969L211.375 87.3108L215.365 87.0325ZM210.691 48.7529L223.716 47.8448L223.437 43.8544L210.413 44.7626L210.691 48.7529ZM221.581 45.9887L226.99 123.56L230.981 123.282L225.572 45.7105L221.581 45.9887ZM228.846 121.426L218.312 122.161L218.59 126.151L229.125 125.416L228.846 121.426ZM220.251 123.283L200.021 81.5811L196.422 83.3269L216.652 125.029L220.251 123.283ZM196.226 82.5931L199.218 125.497L203.208 125.219L200.216 82.3149L196.226 82.5931ZM201.074 123.363L187.571 124.304L187.849 128.295L201.352 127.353L201.074 123.363ZM227.928 123.495L225.943 123.252L225.648 125.659L228.067 125.49L227.928 123.495ZM237.555 44.8749L237.416 42.8797L235.77 42.9945L235.57 44.6318L237.555 44.8749ZM255.08 43.6529L257.013 43.1389L256.589 41.5428L254.941 41.6577L255.08 43.6529ZM275.429 120.183L275.568 122.178L277.984 122.009L277.362 119.669L275.429 120.183ZM260.777 121.204L258.83 121.663L259.219 123.318L260.916 123.2L260.777 121.204ZM256.811 104.352L258.757 103.893L258.368 102.238L256.672 102.356L256.811 104.352ZM244.552 105.206L244.413 103.211L242.736 103.328L242.563 105.001L244.552 105.206ZM242.772 122.46L242.911 124.455L244.589 124.338L244.762 122.665L242.772 122.46ZM245.314 95.4336L243.32 95.2815L243.144 97.5898L245.454 97.4288L245.314 95.4336ZM254.604 94.7858L254.743 96.781L257.059 96.6195L256.556 94.3526L254.604 94.7858ZM247.728 63.7971L249.68 63.3639L245.733 63.645L247.728 63.7971ZM229.913 123.738L239.54 45.118L235.57 44.6318L225.943 123.252L229.913 123.738ZM237.694 46.8701L255.219 45.648L254.941 41.6577L237.416 42.8797L237.694 46.8701ZM253.147 44.1668L273.496 120.697L277.362 119.669L257.013 43.1389L253.147 44.1668ZM275.29 118.188L260.637 119.209L260.916 123.2L275.568 122.178L275.29 118.188ZM262.723 120.746L258.757 103.893L254.864 104.81L258.83 121.663L262.723 120.746ZM256.672 102.356L244.413 103.211L244.692 107.201L256.95 106.347L256.672 102.356ZM242.563 105.001L240.783 122.255L244.762 122.665L246.542 105.412L242.563 105.001ZM242.633 120.465L227.789 121.5L228.067 125.49L242.911 124.455L242.633 120.465ZM245.454 97.4288L254.743 96.781L254.465 92.7907L245.175 93.4384L245.454 97.4288ZM256.556 94.3526L249.68 63.3639L245.775 64.2304L252.651 95.2191L256.556 94.3526ZM245.733 63.645L243.32 95.2815L247.309 95.5857L249.722 63.9492L245.733 63.645ZM288.988 119.237L286.991 119.342L287.097 121.374L289.127 121.232L288.988 119.237ZM284.92 41.5721L284.781 39.577L282.82 39.7137L282.923 41.6768L284.92 41.5721ZM301.679 40.4035L303.611 39.8838L303.183 38.2938L301.54 38.4084L301.679 40.4035ZM314.668 88.6729L312.737 89.1926L316.65 88.9456L314.668 88.6729ZM321.503 39.0212L321.364 37.026L319.743 37.1391L319.522 38.7485L321.503 39.0212ZM337.688 37.8926L339.68 37.7191L339.51 35.7608L337.549 35.8975L337.688 37.8926ZM344.438 115.371L344.577 117.366L346.607 117.224L346.43 115.197L344.438 115.371ZM332.946 116.172L330.954 116.358L331.136 118.303L333.085 118.167L332.946 116.172ZM328.034 63.6826L330.026 63.4963L326.048 63.4515L328.034 63.6826ZM321.837 116.947L321.976 118.942L323.631 118.826L323.823 117.178L321.837 116.947ZM311.972 117.635L310.041 118.154L310.468 119.744L312.112 119.63L311.972 117.635ZM297.937 65.3964L299.868 64.8774L295.939 65.4958L297.937 65.3964ZM300.576 118.429L300.715 120.424L302.671 120.288L302.574 118.33L300.576 118.429ZM290.986 119.133L286.917 41.4675L282.923 41.6768L286.991 119.342L290.986 119.133ZM285.059 43.5673L301.818 42.3987L301.54 38.4084L284.781 39.577L285.059 43.5673ZM299.748 40.9232L312.737 89.1926L316.6 88.1532L303.611 39.8838L299.748 40.9232ZM316.65 88.9456L323.484 39.2939L319.522 38.7485L312.687 88.4002L316.65 88.9456ZM321.642 41.0164L337.827 39.8878L337.549 35.8975L321.364 37.026L321.642 41.0164ZM335.695 38.0662L342.445 115.544L346.43 115.197L339.68 37.7191L335.695 38.0662ZM344.299 113.376L332.806 114.177L333.085 118.167L344.577 117.366L344.299 113.376ZM334.937 115.986L330.026 63.4963L326.043 63.8689L330.954 116.358L334.937 115.986ZM326.048 63.4515L319.85 116.716L323.823 117.178L330.021 63.9138L326.048 63.4515ZM321.697 114.952L311.833 115.639L312.112 119.63L321.976 118.942L321.697 114.952ZM313.904 117.116L299.868 64.8774L296.005 65.9154L310.041 118.154L313.904 117.116ZM295.939 65.4958L298.579 118.529L302.574 118.33L299.934 65.297L295.939 65.4958ZM300.437 116.434L288.849 117.242L289.127 121.232L300.715 120.424L300.437 116.434ZM354.886 112.621L355.813 110.849L354.886 112.621ZM347.095 104.407L345.27 105.225L345.278 105.243L345.287 105.262L347.095 104.407ZM343.176 48.1919L341.266 47.5968L341.262 47.611L341.258 47.6251L343.176 48.1919ZM349.757 39.072L350.898 40.7144L349.757 39.072ZM376.866 37.2779L375.939 39.05L375.959 39.0604L375.979 39.0703L376.866 37.2779ZM384.65 45.3961L382.829 46.2236L382.837 46.2423L382.846 46.2609L384.65 45.3961ZM388.563 101.516L386.65 100.932L386.647 100.94L386.645 100.949L388.563 101.516ZM381.988 110.732L380.838 109.095L380.831 109.1L380.824 109.105L381.988 110.732ZM372.216 101.693L373.679 103.057L373.702 103.032L373.725 103.006L372.216 101.693ZM373.87 97.8249L375.852 98.0957L375.853 98.0877L375.854 98.0798L373.87 97.8249ZM370.612 51.0904L368.687 51.6335L370.612 51.0904ZM368.443 47.5848L367.13 49.094L367.156 49.1166L367.183 49.1383L368.443 47.5848ZM359.632 48.1992L361.095 49.5628L361.118 49.5376L361.141 49.5116L359.632 48.1992ZM357.97 51.9719L359.952 52.2426L357.97 51.9719ZM361.133 98.7131L359.185 99.1657L359.196 99.2112L359.209 99.2562L361.133 98.7131ZM363.309 102.314L361.997 103.824L362.023 103.846L362.05 103.868L363.309 102.314ZM368.463 112.749C362.991 113.131 358.83 112.428 355.813 110.849L353.959 114.393C357.866 116.438 362.849 117.15 368.742 116.74L368.463 112.749ZM355.813 110.849C352.751 109.247 350.456 106.84 348.904 103.553L345.287 105.262C347.197 109.304 350.095 112.372 353.959 114.393L355.813 110.849ZM348.921 103.59C347.369 100.125 346.387 95.8516 346.029 90.7204L342.038 90.9987C342.42 96.4657 343.479 101.224 345.27 105.225L348.921 103.59ZM346.029 90.7204L344.012 61.7986L340.022 62.0769L342.038 90.9987L346.029 90.7204ZM344.012 61.7986C343.654 56.666 344.037 52.3347 345.094 48.7586L341.258 47.6251C340.03 51.7786 339.641 56.6112 340.022 62.0769L344.012 61.7986ZM345.085 48.7869C346.165 45.3215 348.1 42.6589 350.898 40.7144L348.616 37.4295C345.051 39.9064 342.598 43.3237 341.266 47.5968L345.085 48.7869ZM350.898 40.7144C353.676 38.7843 357.712 37.5389 363.192 37.1567L362.914 33.1664C357.031 33.5767 352.202 34.9383 348.616 37.4295L350.898 40.7144ZM363.192 37.1567C368.733 36.7704 372.925 37.473 375.939 39.05L377.793 35.5058C373.883 33.4598 368.865 32.7515 362.914 33.1664L363.192 37.1567ZM375.979 39.0703C379.076 40.6035 381.347 42.9626 382.829 46.2236L386.47 44.5687C384.618 40.4918 381.699 37.4388 377.753 35.4855L375.979 39.0703ZM382.846 46.2609C384.434 49.5724 385.441 53.7591 385.799 58.8849L389.789 58.6066C389.407 53.1342 388.318 48.4211 386.453 44.5313L382.846 46.2609ZM385.799 58.8849L387.815 87.8066L391.806 87.5284L389.789 58.6066L385.799 58.8849ZM387.815 87.8066C388.173 92.9294 387.762 97.2898 386.65 100.932L390.476 102.1C391.766 97.8758 392.187 93.0039 391.806 87.5284L387.815 87.8066ZM386.645 100.949C385.628 104.389 383.703 107.081 380.838 109.095L383.138 112.368C386.756 109.824 389.213 106.372 390.481 102.083L386.645 100.949ZM380.824 109.105C378.058 111.085 374.004 112.363 368.463 112.749L368.742 116.74C374.693 116.325 379.563 114.927 383.152 112.358L380.824 109.105ZM367.947 105.343C370.223 105.184 372.288 104.549 373.679 103.057L370.752 100.33C370.352 100.759 369.479 101.227 367.669 101.353L367.947 105.343ZM373.725 103.006C374.909 101.644 375.595 99.9745 375.852 98.0957L371.889 97.5542C371.721 98.7845 371.304 99.694 370.706 100.381L373.725 103.006ZM375.854 98.0798C376.08 96.3188 376.123 94.4831 375.99 92.5768L372 92.855C372.117 94.524 372.076 96.0944 371.887 97.5701L375.854 98.0798ZM375.99 92.5768L373.433 55.8978L369.443 56.1761L372 92.855L375.99 92.5768ZM373.433 55.8978C373.3 53.9923 373.005 52.2063 372.536 50.5473L368.687 51.6335C369.071 52.9946 369.326 54.5062 369.443 56.1761L373.433 55.8978ZM372.536 50.5473C372.021 48.719 371.101 47.1658 369.702 46.0313L367.183 49.1383C367.824 49.6579 368.351 50.4417 368.687 51.6335L372.536 50.5473ZM369.755 46.0756C368.166 44.6942 366.009 44.3061 363.702 44.467L363.98 48.4573C365.76 48.3332 366.67 48.6936 367.13 49.094L369.755 46.0756ZM363.702 44.467C361.479 44.622 359.485 45.3209 358.123 46.8868L361.141 49.5116C361.561 49.0286 362.373 48.5694 363.98 48.4573L363.702 44.467ZM358.169 46.8355C356.941 48.1532 356.246 49.819 355.989 51.7012L359.952 52.2426C360.12 51.0157 360.532 50.1663 361.095 49.5628L358.169 46.8355ZM355.989 51.7012C355.755 53.4091 355.711 55.2188 355.844 57.1243L359.834 56.8461C359.717 55.1762 359.761 53.6438 359.952 52.2426L355.989 51.7012ZM355.844 57.1243L358.401 93.8032L362.392 93.525L359.834 56.8461L355.844 57.1243ZM358.401 93.8032C358.532 95.6855 358.792 97.4741 359.185 99.1657L363.081 98.2605C362.741 96.7954 362.51 95.218 362.392 93.525L358.401 93.8032ZM359.209 99.2562C359.723 101.081 360.635 102.639 361.997 103.824L364.622 100.805C363.935 100.208 363.395 99.365 363.058 98.17L359.209 99.2562ZM362.05 103.868C363.623 105.144 365.714 105.499 367.947 105.343L367.669 101.353C365.943 101.473 365.035 101.139 364.569 100.761L362.05 103.868ZM403.445 111.256L401.511 111.766L401.932 113.367L403.584 113.251L403.445 111.256ZM383.287 34.713L383.148 32.7178L380.738 32.8859L381.353 35.2223L383.287 34.713ZM396.982 33.7581L398.925 33.2838L398.525 31.6456L396.843 31.7629L396.982 33.7581ZM409.915 86.7468L407.972 87.221L411.907 86.926L409.915 86.7468ZM414.795 32.516L414.656 30.5208L412.956 30.6394L412.803 32.3368L414.795 32.516ZM429.064 31.521L431.05 31.757L431.335 29.3578L428.925 29.5258L429.064 31.521ZM419.725 110.121L419.864 112.116L421.516 112.001L421.711 110.357L419.725 110.121ZM405.379 110.747L385.221 34.2037L381.353 35.2223L401.511 111.766L405.379 110.747ZM383.426 36.7082L397.121 35.7532L396.843 31.7629L383.148 32.7178L383.426 36.7082ZM395.039 34.2323L407.972 87.221L411.858 86.2726L398.925 33.2838L395.039 34.2323ZM411.907 86.926L416.787 32.6952L412.803 32.3368L407.923 86.5676L411.907 86.926ZM414.934 34.5112L429.203 33.5162L428.925 29.5258L414.656 30.5208L414.934 34.5112ZM427.078 31.285L417.739 109.885L421.711 110.357L431.05 31.757L427.078 31.285ZM419.586 108.126L403.305 109.261L403.584 113.251L419.864 112.116L419.586 108.126ZM433.488 109.161L431.493 109.3L431.632 111.296L433.627 111.157L433.488 109.161ZM428.079 31.5897L427.94 29.5946L425.945 29.7337L426.084 31.7288L428.079 31.5897ZM461.885 29.2324L463.88 29.0933L463.741 27.0982L461.746 27.2373L461.885 29.2324ZM462.646 40.1499L462.785 42.1451L464.78 42.006L464.641 40.0108L462.646 40.1499ZM444.642 41.4054L444.503 39.4102L442.508 39.5493L442.647 41.5445L444.642 41.4054ZM446.078 61.9954L444.082 62.1345L444.221 64.1296L446.217 63.9905L446.078 61.9954ZM459.964 61.0271L461.959 60.888L461.82 58.8928L459.825 59.0319L459.964 61.0271ZM460.732 72.0403L460.871 74.0355L462.866 73.8964L462.727 71.9012L460.732 72.0403ZM446.845 73.0086L446.706 71.0135L444.711 71.1526L444.85 73.1477L446.845 73.0086ZM448.542 97.3336L446.546 97.4727L446.686 99.4678L448.681 99.3287L448.542 97.3336ZM466.737 96.0648L468.733 95.9256L468.593 93.9305L466.598 94.0696L466.737 96.0648ZM467.485 106.791L467.624 108.786L469.62 108.647L469.481 106.652L467.485 106.791ZM435.483 109.022L430.074 31.4506L426.084 31.7288L431.493 109.3L435.483 109.022ZM428.218 33.5849L462.024 31.2276L461.746 27.2373L427.94 29.5946L428.218 33.5849ZM459.89 29.3716L460.651 40.289L464.641 40.0108L463.88 29.0933L459.89 29.3716ZM462.507 38.1548L444.503 39.4102L444.781 43.4005L462.785 42.1451L462.507 38.1548ZM442.647 41.5445L444.082 62.1345L448.073 61.8562L446.637 41.2662L442.647 41.5445ZM446.217 63.9905L460.103 63.0222L459.825 59.0319L445.938 60.0002L446.217 63.9905ZM457.969 61.1662L458.737 72.1795L462.727 71.9012L461.959 60.888L457.969 61.1662ZM460.593 70.0452L446.706 71.0135L446.985 75.0038L460.871 74.0355L460.593 70.0452ZM444.85 73.1477L446.546 97.4727L450.537 97.1944L448.841 72.8695L444.85 73.1477ZM448.681 99.3287L466.877 98.0599L466.598 94.0696L448.403 95.3384L448.681 99.3287ZM464.742 96.2039L465.49 106.93L469.481 106.652L468.733 95.9256L464.742 96.2039ZM467.346 104.796L433.349 107.166L433.627 111.157L467.624 108.786L467.346 104.796Z" fill="#8AF1E9" mask="url(#path-2-outside-1_3_73)"/>
</svg>
