<svg width="134" height="134" viewBox="0 0 134 134" fill="none" xmlns="http://www.w3.org/2000/svg">
<path d="M72.2052 124.853C103.988 121.752 127.239 93.4741 124.138 61.6918C121.037 29.9095 92.7591 6.65844 60.9768 9.75908C29.1945 12.8597 5.94341 41.1379 9.04405 72.9202C12.1447 104.703 40.4229 127.954 72.2052 124.853Z" fill="#0D0B0B"/>
<path fill-rule="evenodd" clip-rule="evenodd" d="M61.2479 12.5348C30.9985 15.4859 8.86887 42.4002 11.82 72.6496C14.7711 102.899 41.6854 125.029 71.9348 122.078C102.184 119.126 124.314 92.2122 121.363 61.9628C118.412 31.7134 91.4973 9.58372 61.2479 12.5348ZM6.26881 73.1912C3.01862 39.876 27.3911 10.2339 60.7064 6.98366C94.0216 3.73347 123.664 28.106 126.914 61.4212C130.164 94.7364 105.792 124.379 72.4763 127.629C39.1611 130.879 9.519 106.506 6.26881 73.1912Z" fill="#FFCF00"/>
<path d="M98.0157 92.1275L92.0871 65.4482L101.359 63.3878L102.252 67.4062L97.5396 68.4534L99.0108 75.0738L102.602 74.2757L103.51 78.3599L99.9184 79.158L101.69 87.1289L106.453 86.0704L107.339 90.0558L98.0157 92.1275Z" fill="#FD64FB"/>
<path d="M86.7242 94.6366L80.7955 67.9573L85.3551 66.9441L90.3981 89.6379L95.1359 88.5851L96.0215 92.5705L86.7242 94.6366Z" fill="#FD64FB"/>
<path d="M78.367 96.9086C76.8047 97.2557 75.4845 97.1689 74.4065 96.648C73.3406 96.1015 72.4744 95.2109 71.8081 93.9765C71.1368 92.72 70.6011 91.1915 70.201 89.3909L68.0638 79.7732C67.6539 77.9287 67.4894 76.3062 67.5702 74.9057C67.6461 73.4832 68.0536 72.3097 68.7926 71.385C69.5486 70.4566 70.7077 69.8189 72.27 69.4717C73.7983 69.1321 75.0602 69.1973 76.0557 69.6673C77.0633 70.1117 77.8747 70.8761 78.4899 71.9607C79.1051 73.0452 79.5811 74.345 79.9178 75.8602L80.4301 78.1658L75.9725 79.1564L75.3796 76.4884C75.2625 75.9614 75.1248 75.462 74.9665 74.9903C74.8252 74.5147 74.6185 74.1459 74.3464 73.8838C74.0694 73.5997 73.6847 73.5124 73.1922 73.6218C72.7168 73.7275 72.3967 73.9714 72.2322 74.3536C72.0846 74.732 72.033 75.1813 72.0773 75.7014C72.1337 76.1959 72.2229 76.7175 72.3449 77.2665L75.1335 89.8156C75.2653 90.4085 75.4212 90.9499 75.6014 91.4399C75.7937 91.9041 76.0343 92.2654 76.3234 92.5237C76.6246 92.7564 76.9959 92.8236 77.4374 92.7255C77.9129 92.6198 78.2184 92.3907 78.3539 92.038C78.4844 91.6633 78.5191 91.2178 78.4578 90.7014C78.3965 90.1851 78.3073 89.6634 78.1902 89.1364L77.5681 86.3367L82.0257 85.3461L82.5381 87.6518C82.8748 89.1669 82.999 90.5679 82.9108 91.8549C82.8346 93.1161 82.4416 94.1943 81.7317 95.0894C81.0339 95.9588 79.9123 96.5652 78.367 96.9086Z" fill="#FD64FB"/>
<path d="M62.8063 99.9514L60.3836 89.0491L52.955 74.1438L57.2598 73.1872L61.0949 81.1833L60.9787 72.3608L65.1052 71.4438L64.7649 88.0755L67.1876 98.9778L62.8063 99.9514Z" fill="#FD64FB"/>
<path d="M51.9489 102.779C50.3866 103.126 49.0665 103.039 47.9884 102.518C46.9225 101.972 46.0564 101.081 45.39 99.8468C44.7188 98.5904 44.1831 97.0619 43.7829 95.2613L41.6457 85.6436C41.2358 83.7991 41.0713 82.1766 41.1521 80.7761C41.2281 79.3536 41.6355 78.18 42.3745 77.2554C43.1305 76.327 44.2896 75.6892 45.8519 75.342C47.3803 75.0024 48.6422 75.0676 49.6376 75.5377C50.6452 75.982 51.4566 76.7465 52.0718 77.831C52.6871 78.9156 53.163 80.2154 53.4997 81.7305L54.0121 84.0361L49.5544 85.0267L48.9615 82.3588C48.8444 81.8318 48.7067 81.3324 48.5484 80.8606C48.4071 80.3851 48.2004 80.0163 47.9283 79.7541C47.6513 79.4701 47.2666 79.3827 46.7742 79.4922C46.2987 79.5978 45.9787 79.8418 45.8141 80.224C45.6666 80.6024 45.6149 81.0517 45.6592 81.5718C45.7156 82.0662 45.8048 82.5879 45.9268 83.1368L48.7155 95.686C48.8472 96.2789 49.0032 96.8203 49.1833 97.3102C49.3756 97.7744 49.6163 98.1357 49.9053 98.3941C50.2065 98.6267 50.5779 98.694 51.0194 98.5959C51.4949 98.4902 51.8003 98.261 51.9358 97.9083C52.0664 97.5337 52.101 97.0882 52.0398 96.5718C51.9785 96.0554 51.8893 95.5338 51.7722 95.0068L51.15 92.2071L55.6077 91.2165L56.12 93.5221C56.4567 95.0372 56.5809 96.4383 56.4927 97.7252C56.4166 98.9864 56.0235 100.065 55.3136 100.96C54.6158 101.829 53.4943 102.436 51.9489 102.779Z" fill="#FD64FB"/>
<path d="M97.1507 61.5943L95.1193 34.049L100.316 32.8943L110.091 58.7189L105.888 59.6528L103.948 54.1734L100.917 54.8469L101.455 60.6377L97.1507 61.5943ZM100.541 51.2321L102.732 50.7453L99.3239 40.5805L100.541 51.2321Z" fill="#FD64FB"/>
<path d="M83.864 64.5458L77.9353 37.8665L81.1448 37.1532L88.2277 49.0592L85.3732 36.2136L89.1431 35.3759L95.0718 62.0552L91.9896 62.7401L84.6871 49.846L87.7612 63.6797L83.864 64.5458Z" fill="#FD64FB"/>
<path d="M68.841 67.8841L66.8096 40.3388L72.006 39.1841L81.7809 65.0086L77.578 65.9426L75.6387 60.4632L72.6075 61.1367L73.1458 66.9275L68.841 67.8841ZM72.2318 57.5219L74.4225 57.0351L71.0142 46.8702L72.2318 57.5219Z" fill="#FD64FB"/>
<path d="M55.5574 70.8365L49.6287 44.1572L52.8382 43.444L59.9211 55.35L57.0666 42.5044L60.8365 41.6666L66.7652 68.3459L63.683 69.0309L56.3805 56.1368L59.4546 69.9705L55.5574 70.8365Z" fill="#FD64FB"/>
<path d="M40.5344 74.1759L38.503 46.6305L43.6994 45.4758L53.4743 71.3004L49.2714 72.2344L47.3321 66.7549L44.3009 67.4285L44.8392 73.2193L40.5344 74.1759ZM43.9252 63.8136L46.1159 63.3268L42.7077 53.162L43.9252 63.8136Z" fill="#FD64FB"/>
<path d="M26.602 77.2713L20.6733 50.592L26.048 49.3977C26.931 49.2015 27.7826 49.1044 28.6028 49.1065C29.44 49.1048 30.2203 49.2885 30.9439 49.6577C31.6626 50.0049 32.2942 50.6019 32.8388 51.4487C33.3955 52.2698 33.8397 53.4269 34.1715 54.92C34.4106 55.996 34.4857 56.9356 34.3969 57.7387C34.3202 58.5162 34.1014 59.1755 33.7405 59.7165C33.3966 60.2538 32.9275 60.6691 32.3334 60.9624C33.1608 60.9168 33.9072 61.1081 34.5726 61.5363C35.2331 61.9426 35.7992 62.5656 36.271 63.4055C36.7597 64.2417 37.1456 65.2965 37.4286 66.5701C37.736 67.9535 37.8576 69.1823 37.7934 70.2565C37.7413 71.305 37.5228 72.2062 37.1378 72.9599C36.7529 73.7137 36.204 74.3311 35.4912 74.8121C34.7954 75.2893 33.9465 75.6393 32.9446 75.8619L26.602 77.2713ZM30.2466 72.141L31.2145 71.9259C32.2164 71.7032 32.831 71.221 33.0582 70.4792C33.3024 69.7337 33.283 68.7241 33 67.4506C32.7755 66.4405 32.5125 65.6579 32.2109 65.1027C31.9094 64.5476 31.534 64.1817 31.0849 64.005C30.6309 63.8063 30.0727 63.7806 29.4105 63.9277L28.468 64.1372L30.2466 72.141ZM27.6043 60.2505L28.4958 60.0524C29.1921 59.8977 29.6892 59.649 29.9873 59.3062C30.2805 58.9415 30.4279 58.4825 30.4297 57.9291C30.4484 57.3719 30.3749 56.72 30.209 55.9734C30.0528 55.2707 29.8216 54.7115 29.5154 54.2957C29.2212 53.8541 28.852 53.5559 28.4078 53.4012C27.9805 53.2426 27.4782 53.2275 26.9008 53.3558L26.1112 53.5313L27.6043 60.2505Z" fill="#FD64FB"/>
<path fill-rule="evenodd" clip-rule="evenodd" d="M54.9501 70.6996L48.6235 42.7158L52.4617 41.8774L58.5896 52.2663L56.0631 41.0906L60.5604 40.1082L66.8869 68.092L63.1702 68.9039L56.8582 57.6737L59.5747 69.6894L54.9501 70.6996ZM55.9341 55.272L63.3588 68.4821L66.4416 67.8087L60.2791 40.5503L56.5083 41.374L59.4755 54.4984L52.279 42.2979L49.0688 42.9991L55.2313 70.2576L59.1294 69.406L55.9341 55.272Z" fill="#7BE2DA"/>
<path fill-rule="evenodd" clip-rule="evenodd" d="M97.314 92.7809L90.9875 64.7971L100.988 62.6125L102.08 67.4435L97.3667 68.4731L98.732 74.5119L102.324 73.7271L103.432 78.6254L99.8394 79.4101L101.517 86.8286L106.281 85.7879L107.365 90.5852L97.314 92.7809ZM101.235 87.2707L99.3941 79.1268L102.986 78.3421L102.043 74.1692L98.4507 74.9539L96.9215 68.1898L101.635 67.1601L100.707 63.0545L91.4327 65.0804L97.5953 92.3389L106.92 90.3018L106 86.2299L101.235 87.2707Z" fill="#7BE2DA"/>
<path fill-rule="evenodd" clip-rule="evenodd" d="M86.0194 95.2482L79.6929 67.2644L84.9799 66.1094L90.2219 89.2959L94.9608 88.2607L96.0454 93.058L86.0194 95.2482ZM89.9406 89.738L84.6987 66.5515L80.1381 67.5477L86.3007 94.8062L95.6001 92.7747L94.6795 88.7028L89.9406 89.738Z" fill="#7BE2DA"/>
<path fill-rule="evenodd" clip-rule="evenodd" d="M73.806 97.0878L73.802 97.0858C72.6517 96.4787 71.727 95.5032 71.0204 94.1853L71.0196 94.184C70.3173 92.8607 69.758 91.2644 69.3368 89.4015L67.1153 79.575C66.6843 77.6687 66.5002 75.978 66.5715 74.5077C66.6385 72.9982 67.0555 71.7264 67.8449 70.717L67.847 70.7144C68.6647 69.6885 69.9072 69.0143 71.5259 68.6607C73.1016 68.3165 74.4583 68.3833 75.5603 68.9183C76.6544 69.4176 77.5281 70.2642 78.1858 71.4325C78.8328 72.5818 79.3317 73.947 79.6878 75.5219L80.3024 78.2403L75.1172 79.373L74.4189 76.2844C74.2998 75.7574 74.161 75.2593 74.0029 74.7899L74.0008 74.7839L73.999 74.7778C73.8659 74.3333 73.6823 74.0172 73.4649 73.804L73.4608 73.7999L73.4568 73.7958C73.2906 73.6224 73.0507 73.5384 72.6485 73.6263C72.273 73.7083 72.0655 73.8847 71.957 74.1407C71.8389 74.4582 71.7929 74.8536 71.8369 75.339C71.8959 75.8281 71.987 76.3465 72.1109 76.8946L75.0096 89.7161C75.1429 90.3057 75.2985 90.841 75.4756 91.3229C75.6541 91.7523 75.8659 92.0667 76.1012 92.2845C76.2996 92.4365 76.5497 92.4952 76.8972 92.4193C77.284 92.3348 77.4621 92.1692 77.5404 91.9627C77.6444 91.6489 77.6759 91.2552 77.6153 90.7693C77.5512 90.2547 77.4596 89.734 77.3404 89.2069L76.6118 85.9838L81.7969 84.8511L82.4115 87.5695C82.7675 89.1442 82.9084 90.6089 82.8285 91.9614C82.759 93.3124 82.3523 94.483 81.5971 95.4562L81.5957 95.458C80.8329 96.4291 79.6234 97.0699 78.0274 97.4185C76.4088 97.7721 74.9927 97.6787 73.8099 97.0898L73.806 97.0878ZM82.4566 91.9386C82.5343 90.6268 82.3982 89.1968 82.0482 87.6488L81.5157 85.2931L77.057 86.2671L77.7037 89.1276C77.8254 89.666 77.9192 90.1988 77.9849 90.726C78.0506 91.2531 78.0195 91.7072 77.8918 92.0882C77.759 92.4468 77.4548 92.6781 76.9792 92.782C76.5376 92.8785 76.1649 92.8068 75.8612 92.5671C75.5694 92.3013 75.3252 91.9308 75.1287 91.4558C74.9441 90.9547 74.7833 90.4012 74.6464 89.7955L71.7477 76.9739C71.6209 76.413 71.5272 75.8803 71.4665 75.3756C71.4178 74.8447 71.4658 74.3869 71.6106 74.0021C71.7723 73.6137 72.0909 73.3675 72.5665 73.2636C73.0591 73.156 73.4453 73.2482 73.7252 73.5402C74.0001 73.8098 74.2103 74.1876 74.3558 74.6738C74.5183 75.1562 74.6605 75.6666 74.7822 76.2051L75.3985 78.9309L79.8571 77.9569L79.3245 75.6013C78.9746 74.0532 78.4868 72.7237 77.8613 71.6125C77.2358 70.5014 76.4164 69.7152 75.403 69.2538C74.4016 68.7663 73.1366 68.6895 71.6079 69.0234C70.0452 69.3648 68.889 70.0058 68.1392 70.9465C67.4063 71.8835 67.0078 73.0771 66.9435 74.5273C66.8741 75.955 67.0525 77.6111 67.4785 79.4957L69.7001 89.3222C70.116 91.1618 70.6655 92.7251 71.3486 94.012C72.0266 95.2765 72.9019 96.1918 73.9746 96.7579C75.0592 97.2979 76.3828 97.3972 77.9454 97.0558C79.4911 96.7182 80.6099 96.1089 81.302 95.2279C82.0059 94.3207 82.3908 93.2243 82.4566 91.9386Z" fill="#7BE2DA"/>
<path fill-rule="evenodd" clip-rule="evenodd" d="M62.0947 100.474L59.5042 89.0163L51.7457 73.3694L56.8035 72.2645L60.0964 79.1598L59.9366 71.5801L64.8208 70.5131L64.6128 87.8995L67.2034 99.3585L62.0947 100.474ZM64.2399 87.9362L64.4428 70.9763L60.3153 71.8779L60.505 80.877L56.5956 72.6905L52.2898 73.6311L59.8577 88.8935L62.3759 100.032L66.7582 99.0751L64.2399 87.9362Z" fill="#7BE2DA"/>
<path fill-rule="evenodd" clip-rule="evenodd" d="M47.3818 102.86L47.3778 102.858C46.2276 102.251 45.3028 101.275 44.5962 99.9576L44.5955 99.9562C43.8931 98.6329 43.3338 97.0366 42.9126 95.1737L40.6911 85.3472C40.2601 83.4409 40.076 81.7502 40.1473 80.2799C40.2143 78.7704 40.6313 77.4986 41.4207 76.4892L41.4228 76.4866C42.2405 75.4607 43.4831 74.7865 45.1017 74.4329C46.6774 74.0887 48.0341 74.1555 49.1361 74.6905C50.2302 75.1898 51.1039 76.0364 51.7616 77.2047C52.4086 78.354 52.9076 79.7192 53.2636 81.2941L53.8782 84.0125L48.693 85.1452L47.9948 82.0566C47.8756 81.5296 47.7368 81.0315 47.5787 80.5621L47.5767 80.5561L47.5748 80.55C47.4418 80.1055 47.2582 79.7895 47.0408 79.5762L47.0366 79.5722L47.0326 79.568C46.8664 79.3946 46.6265 79.3106 46.2243 79.3985C45.8488 79.4805 45.6414 79.6569 45.5329 79.9129C45.4148 80.2304 45.3688 80.6258 45.4127 81.1112C45.4717 81.6003 45.5629 82.1187 45.6868 82.6668L48.5854 95.4883C48.7187 96.0779 48.8743 96.6132 49.0514 97.0951C49.2299 97.5245 49.4418 97.839 49.677 98.0567C49.8754 98.2087 50.1256 98.2674 50.473 98.1915C50.8598 98.107 51.0379 97.9415 51.1163 97.7349C51.2202 97.4211 51.2517 97.0275 51.1911 96.5416C51.127 96.027 51.0354 95.5062 50.9163 94.9792L50.1876 91.756L55.3728 90.6233L55.9873 93.3417C56.3433 94.9164 56.4842 96.3812 56.4043 97.7336C56.3349 99.0847 55.9281 100.255 55.1729 101.228L55.1716 101.23C54.4087 102.201 53.1992 102.842 51.6032 103.191C49.9846 103.544 48.5685 103.451 47.3858 102.862L47.3818 102.86ZM56.0324 97.7108C56.1101 96.399 55.974 94.969 55.6241 93.421L55.0915 91.0654L50.6328 92.0394L51.2795 94.8998C51.4013 95.4382 51.495 95.971 51.5607 96.4982C51.6264 97.0253 51.5954 97.4794 51.4676 97.8604C51.3348 98.2191 51.0306 98.4503 50.555 98.5542C50.1134 98.6507 49.7407 98.5791 49.437 98.3393C49.1452 98.0735 48.901 97.7031 48.7045 97.228C48.5199 96.7269 48.3591 96.1734 48.2222 95.5677L45.3235 82.7461C45.1967 82.1853 45.103 81.6525 45.0424 81.1478C44.9936 80.6169 45.0416 80.1591 45.1864 79.7744C45.3481 79.3859 45.6667 79.1397 46.1423 79.0358C46.6349 78.9282 47.0211 79.0204 47.301 79.3124C47.5759 79.582 47.7861 79.9598 47.9316 80.446C48.0942 80.9284 48.2363 81.4389 48.358 81.9773L48.9743 84.7031L53.4329 83.7291L52.9004 81.3735C52.5504 79.8255 52.0626 78.4959 51.4371 77.3848C50.8116 76.2736 49.9922 75.4874 48.9789 75.026C47.9774 74.5385 46.7124 74.4617 45.1837 74.7956C43.6211 75.137 42.4648 75.778 41.715 76.7187C40.9822 77.6557 40.5836 78.8493 40.5193 80.2995C40.45 81.7272 40.6283 83.3833 41.0544 85.2679L43.2759 95.0944C43.6918 96.934 44.2413 98.4973 44.9244 99.7842C45.6024 101.049 46.4777 101.964 47.5504 102.53C48.635 103.07 49.9586 103.169 51.5212 102.828C53.0669 102.49 54.1857 101.881 54.8778 101C55.5817 100.093 55.9666 98.9965 56.0324 97.7108Z" fill="#7BE2DA"/>
<path fill-rule="evenodd" clip-rule="evenodd" d="M96.4977 61.6239L94.173 32.7659L100.001 31.4927L110.277 58.6138L105.333 59.6939L103.344 54.0896L100.956 54.6113L101.543 60.5217L96.4977 61.6239ZM100.553 54.3188L103.585 53.6565L105.573 59.2607L109.777 58.3424L99.7676 31.9244L94.5701 33.0598L96.8345 61.1698L101.14 60.2292L100.553 54.3188ZM102.337 50.1503L98.8377 39.7554L100.146 50.6289L102.337 50.1503ZM100.467 50.1783L101.853 49.8755L99.639 43.3001L100.467 50.1783Z" fill="#7BE2DA"/>
<path fill-rule="evenodd" clip-rule="evenodd" d="M83.2658 64.5146L76.9393 36.5308L80.7775 35.6923L86.9054 46.0812L84.3788 34.9056L88.8761 33.9232L95.2026 61.907L91.4859 62.7189L85.174 51.4886L87.8904 63.5043L83.2658 64.5146ZM84.2498 49.087L91.6745 62.2971L94.7574 61.6236L88.5948 34.3652L84.8241 35.1889L87.7912 48.3133L80.5947 36.1128L77.3845 36.8141L83.5471 64.0725L87.4452 63.221L84.2498 49.087Z" fill="#7BE2DA"/>
<path fill-rule="evenodd" clip-rule="evenodd" d="M68.1819 67.809L65.8573 38.951L71.6855 37.6778L81.9616 64.7988L77.0172 65.8789L75.0283 60.2746L72.64 60.7964L73.2276 66.7068L68.1819 67.809ZM72.2369 60.5038L75.2688 59.8415L77.2577 65.4458L81.4616 64.5275L71.4518 38.1094L66.2543 39.2448L68.5188 67.3548L72.8245 66.4142L72.2369 60.5038ZM74.0216 56.3353L70.5219 45.9405L71.8305 56.814L74.0216 56.3353ZM72.1511 56.3634L73.5371 56.0606L71.3233 49.4852L72.1511 56.3634Z" fill="#7BE2DA"/>
<path fill-rule="evenodd" clip-rule="evenodd" d="M39.8693 73.9945L37.5446 45.1365L43.3728 43.8634L53.6489 70.9844L48.7045 72.0645L46.7156 66.4602L44.3273 66.9819L44.9149 72.8923L39.8693 73.9945ZM43.9243 66.6894L46.9561 66.0271L48.945 71.6313L53.1489 70.713L43.1392 44.295L37.9417 45.4304L40.2061 73.5404L44.5119 72.5998L43.9243 66.6894ZM45.7089 62.5209L42.2092 52.126L43.5178 62.9995L45.7089 62.5209ZM43.8384 62.5489L45.2244 62.2461L43.0106 55.6708L43.8384 62.5489Z" fill="#7BE2DA"/>
<path fill-rule="evenodd" clip-rule="evenodd" d="M25.9886 77.026L19.662 49.0422L25.4012 47.7885C26.3088 47.5903 27.1892 47.4947 28.0416 47.5037C28.9373 47.5093 29.7785 47.7166 30.5597 48.1262C31.3559 48.5236 32.0387 49.1905 32.6167 50.0971C33.2159 50.992 33.683 52.2238 34.0326 53.7702C34.2868 54.8943 34.3766 55.8942 34.2895 56.7634C34.2148 57.6009 33.9868 58.3306 33.592 58.9385C33.411 59.228 33.1976 59.4856 32.9525 59.711C33.4391 59.8144 33.8982 60.0071 34.3271 60.2895C35.0553 60.7497 35.6658 61.4407 36.1674 62.3396C36.6876 63.2377 37.0938 64.354 37.3933 65.6786C37.7179 67.1144 37.8555 68.4029 37.7982 69.5399C37.7529 70.6474 37.533 71.6172 37.1258 72.4388C36.7184 73.2608 36.1317 73.934 35.3701 74.4541C34.6297 74.9676 33.7351 75.3338 32.6959 75.5608L25.9886 77.026ZM37.4262 69.5207C37.4816 68.4256 37.3496 67.1714 37.03 65.758C36.7358 64.4568 36.3404 63.3778 35.8437 62.521C35.364 61.6606 34.7915 61.0205 34.1262 60.6008C33.6466 60.2844 33.1264 60.0914 32.5656 60.0218C32.3427 59.9941 32.1134 59.9859 31.8776 59.9972C32.0875 59.893 32.2815 59.7732 32.4598 59.6375C32.785 59.39 33.0575 59.0902 33.2773 58.738C33.6345 58.1891 33.8483 57.5185 33.9187 56.7262C34.001 55.9078 33.9179 54.9489 33.6694 53.8496C33.3245 52.324 32.8697 51.1403 32.3051 50.2983C31.7523 49.4303 31.1144 48.8163 30.3914 48.4563C29.6633 48.0738 28.8797 47.8801 28.0409 47.875C27.219 47.8662 26.3664 47.9583 25.4832 48.1512L20.1073 49.3256L26.2699 76.584L32.6139 75.1981C33.616 74.9792 34.4637 74.6292 35.1571 74.1482C35.8674 73.6634 36.4123 73.0382 36.7917 72.2726C37.1712 71.5069 37.3827 70.5897 37.4262 69.5207ZM32.3266 69.5995L32.3276 69.5961C32.5375 68.9288 32.5246 67.9747 32.2362 66.6992C32.0063 65.6821 31.7453 64.919 31.4616 64.3931C31.1825 63.8758 30.8607 63.5753 30.513 63.4337L30.5064 63.431L30.5 63.4281C30.139 63.265 29.667 63.2268 29.0553 63.3604L28.4759 63.487L30.1607 70.9392L30.7656 70.807C31.6815 70.6069 32.1536 70.1888 32.3256 69.6029L32.3266 69.5995ZM29.8794 71.3812L28.0306 63.2037L28.9733 62.9977C29.6357 62.853 30.1953 62.8838 30.6519 63.0901C31.1034 63.274 31.4825 63.6503 31.7893 64.2189C32.0961 64.7876 32.3662 65.5879 32.5995 66.6199C32.8937 67.9211 32.9215 68.9509 32.683 69.7093C32.4615 70.464 31.8497 70.9508 30.8476 71.1697L29.8794 71.3812ZM29.5724 56.8819L29.5725 56.8763C29.5857 56.3478 29.5121 55.7142 29.3441 54.971C29.1888 54.2842 28.9685 53.7641 28.6974 53.3915L28.6924 53.3845L28.6876 53.3773C28.427 52.982 28.1158 52.7325 27.7562 52.6025L27.7526 52.6012L27.7491 52.5998C27.4052 52.4676 26.9793 52.4427 26.4526 52.5577L26.0261 52.6509L27.4142 58.7906L27.9426 58.6752C28.5967 58.5323 29.0013 58.3106 29.2239 58.0529C29.4507 57.7617 29.5749 57.3822 29.5724 56.8874L29.5724 56.8819ZM29.5129 58.289C29.2171 58.6361 28.721 58.8858 28.0246 59.0379L27.1329 59.2327L25.5808 52.3676L26.3706 52.1951C26.9481 52.0689 27.4516 52.0884 27.8811 52.2536C28.3276 52.415 28.7 52.7221 28.9984 53.1749C29.3088 53.6015 29.5451 54.1737 29.7074 54.8916C29.8798 55.6544 29.959 56.3199 29.9448 56.888C29.9477 57.4524 29.8037 57.9194 29.5129 58.289Z" fill="#7BE2DA"/>
</svg>
